<svg xmlns="http://www.w3.org/2000/svg" xmlns:xlink="http://www.w3.org/1999/xlink" xmlns:lucid="lucid" width="1400" height="523"><g transform="translate(-12 0)" lucid:page-tab-id="0_0"><path d="M284.95 80c-2.76 0-5 2.24-5 5v413c0 2.76 2.24 5 5 5h834.2c2.75 0 5-2.24 5-5V85c0-2.76-2.25-5-5-5z" stroke="#000" stroke-width="2" fill="#fff"/><path d="M1114.14 90h-15v20h15z" stroke="#000" fill="#fff"/><path d="M1104.14 93.33h-10v3.34h10zm0 10h-10v3.34h10z" stroke="#000" fill="#fff"/><path d="M503.95 249c0-2.76 2.24-5 5-5h190c2.76 0 5 2.24 5 5v110c0 2.76-2.24 5-5 5h-190c-2.76 0-5-2.24-5-5z" stroke="#000" stroke-width="2" fill="#fff"/><path d="M483.95 269c0-2.76 2.24-5 5-5h30c2.76 0 5 2.24 5 5v10c0 2.76-2.24 5-5 5h-30c-2.76 0-5-2.24-5-5zM483.95 329c0-2.76 2.24-5 5-5h30c2.76 0 5 2.24 5 5v10c0 2.76-2.24 5-5 5h-30c-2.76 0-5-2.24-5-5z" stroke="#000" stroke-width="2" fill="#fff"/><use xlink:href="#a" transform="matrix(1,0,0,1,527.9494074391923,256) translate(16.624999999999993 51.6)"/><path d="M705.95 304H798V184h92.07" stroke="#000" stroke-width="2" fill="none"/><path d="M705.98 305h-1.03v-2h1.03zM891.07 185h-1.03v-2h1.03z"/><path d="M771.07 115.67c0-2.76 2.23-5 5-5h295c2.76 0 5 2.24 5 5v50c0 2.76-2.24 5-5 5h-295c-2.77 0-5-2.24-5-5z" stroke="#000" stroke-opacity="0" stroke-width="2" fill="#fff" fill-opacity="0"/><use xlink:href="#b" transform="matrix(1,0,0,1,776.0656485395907,115.66666666666697) translate(60.125 28.6)"/><use xlink:href="#c" transform="matrix(1,0,0,1,776.0656485395907,115.66666666666697) translate(155.97500000000002 28.6)"/><use xlink:href="#d" transform="matrix(1,0,0,1,776.0656485395907,115.66666666666697) translate(180.97500000000002 28.6)"/><path d="M705.95 304h184.12" stroke="#000" stroke-width="2" fill="none"/><path d="M705.98 305h-1.03v-2h1.03zM891.07 305h-1.03v-2h1.03z"/><path d="M891.07 184h10m40 0c0 11.05-8.96 20-20 20-11.05 0-20-8.95-20-20s8.95-20 20-20c11.04 0 20 8.95 20 20z" stroke="#000" stroke-width="2" fill="#fff"/><path d="M891.07 183.2h10v1.6h-10z" fill="none"/><path d="M891.07 304h10m40 0c0 11.05-8.96 20-20 20-11.05 0-20-8.95-20-20s8.95-20 20-20c11.04 0 20 8.95 20 20z" stroke="#000" stroke-width="2" fill="#fff"/><path d="M891.07 303.2h10v1.6h-10z" fill="none"/><path d="M769.07 229c0-2.76 2.23-5 5-5h295c2.76 0 5 2.24 5 5v50c0 2.76-2.24 5-5 5h-295c-2.77 0-5-2.24-5-5z" stroke="#000" stroke-opacity="0" stroke-width="2" fill="#fff" fill-opacity="0"/><use xlink:href="#e" transform="matrix(1,0,0,1,774.0656485395907,229) translate(74.6 28.6)"/><use xlink:href="#c" transform="matrix(1,0,0,1,774.0656485395907,229) translate(151.45 28.6)"/><use xlink:href="#f" transform="matrix(1,0,0,1,774.0656485395907,229) translate(176.45 28.6)"/><path d="M403.03 304h98.92" stroke="#000" stroke-width="2" fill="none"/><path d="M403.06 305h-1.03v-2h1.03zM502.95 305h-1.03v-2h1.03z"/><path d="M329.53 238.67c0-2.76 2.24-5 5-5h85c2.76 0 5 2.24 5 5v50c0 2.76-2.24 5-5 5h-85c-2.76 0-5-2.24-5-5z" stroke="#000" stroke-opacity="0" stroke-width="2" fill="#fff" fill-opacity="0"/><use xlink:href="#g" transform="matrix(1,0,0,1,334.5333335000205,238.66666666666652) translate(19.525 28.6)"/><path d="M266.67 293.67h20.66v20.66h-20.66z" stroke="#000" stroke-width="2" fill="#fff"/><path d="M170.88 304h93.8" stroke="#000" stroke-width="2" fill="none"/><path d="M170.9 305h-1.02v-2h1.03zM265.67 305h-1.03v-2h1.03z"/><path d="M32 325c0-2.76 2.24-5 5-5h230c2.76 0 5 2.24 5 5v50c0 2.76-2.24 5-5 5H37c-2.76 0-5-2.24-5-5z" stroke="#000" stroke-opacity="0" stroke-width="2" fill="#fff" fill-opacity="0"/><use xlink:href="#h" transform="matrix(1,0,0,1,37,325) translate(0.625 28.6)"/><use xlink:href="#c" transform="matrix(1,0,0,1,37,325) translate(52.575 28.6)"/><use xlink:href="#i" transform="matrix(1,0,0,1,37,325) translate(77.575 28.6)"/><use xlink:href="#c" transform="matrix(1,0,0,1,37,325) translate(143.525 28.6)"/><use xlink:href="#j" transform="matrix(1,0,0,1,37,325) translate(168.525 28.6)"/><path d="M159.88 304h10m-30-20c11.05 0 20 8.95 20 20s-8.95 20-20 20" stroke="#000" stroke-width="2" fill="none"/><path d="M139.88 284c11.05 0 20 8.95 20 20s-8.95 20-20 20zM159.88 304c0-.44.36-.8.8-.8h8.4c.45 0 .8.36.8.8 0 .44-.35.8-.8.8h-8.4c-.44 0-.8-.36-.8-.8z" fill="none"/><path d="M352.03 304h11M397.03 304h5M377.03 324c11.05 0 20-8.95 20-20s-8.95-20-20-20" stroke="#000" stroke-width="2" fill="none"/><path d="M377.03 290c7.74 0 14 6.27 14 14s-6.26 14-14 14c-7.73 0-14-6.27-14-14s6.27-14 14-14z" stroke="#000" stroke-width="2" fill="#fff"/><path d="M352.03 304c0-.44.36-.8.8-.8h9.4c.45 0 .8.36.8.8 0 .44-.35.8-.8.8h-9.4c-.44 0-.8-.36-.8-.8z" fill="none"/><path d="M351.03 304h-61.7" stroke="#000" stroke-width="2" fill="none"/><path d="M352.03 305H351v-2h1.03zM289.36 305h-1.03v-2h1.03z"/><path d="M1231 304h-48.17v-.33h-48.16" stroke="#000" stroke-width="2" fill="none"/><path d="M1232 305h-1.03v-2h1.03zM1134.7 304.67h-1.03v-2h1.02z"/><path d="M1112 293.67h20.67v20.66H1112zM1232 304h10m40 0c0 11.05-8.95 20-20 20s-20-8.95-20-20 8.95-20 20-20 20 8.95 20 20z" stroke="#000" stroke-width="2" fill="#fff"/><path d="M1232 303.2h10v1.6h-10z" fill="none"/><path d="M1152 329c0-2.76 2.24-5 5-5h230c2.76 0 5 2.24 5 5v50c0 2.76-2.24 5-5 5h-230c-2.76 0-5-2.24-5-5z" stroke="#000" stroke-opacity="0" stroke-width="2" fill="#fff" fill-opacity="0"/><use xlink:href="#h" transform="matrix(1,0,0,1,1157,329) translate(7.650000000000006 28.6)"/><use xlink:href="#c" transform="matrix(1,0,0,1,1157,329) translate(59.60000000000001 28.6)"/><use xlink:href="#k" transform="matrix(1,0,0,1,1157,329) translate(84.60000000000001 28.6)"/><use xlink:href="#c" transform="matrix(1,0,0,1,1157,329) translate(136.5 28.6)"/><use xlink:href="#j" transform="matrix(1,0,0,1,1157,329) translate(161.5 28.6)"/><path d="M943.07 184H1042v120h68" stroke="#000" stroke-width="2" fill="none"/><path d="M943.1 185h-1.15l.12-.96-.04-1.04h1.06zM1111 305h-1.03v-2h1.03z"/><path d="M943.07 304h166.1" stroke="#000" stroke-width="2" fill="none"/><path d="M943.1 305h-1.15l.12-.96-.04-1.04h1.06z"/><path d="M1091.82 314.18l17.22-10.18-17.22-10.18" stroke="#000" stroke-width="2" fill="none"/><path d="M569.15 25c0-2.76 2.24-5 5-5h230c2.76 0 5 2.24 5 5v50c0 2.76-2.24 5-5 5h-230c-2.76 0-5-2.24-5-5z" stroke="#000" stroke-opacity="0" stroke-width="2" fill="#fff" fill-opacity="0"/><g><use xlink:href="#l" transform="matrix(1,0,0,1,574.1495746004189,25) translate(16.03395061728392 29.88888888888889)"/></g><path d="M771.95 365c0-2.76 2.24-5 5-5h295c2.76 0 5 2.24 5 5v50c0 2.76-2.24 5-5 5h-295c-2.76 0-5-2.24-5-5z" stroke="#000" stroke-opacity="0" stroke-width="2" fill="#fff" fill-opacity="0"/><g><use xlink:href="#m" transform="matrix(1,0,0,1,776.9494074391923,365) translate(55.624999999999986 28.6)"/><use xlink:href="#c" transform="matrix(1,0,0,1,776.9494074391923,365) translate(160.475 28.6)"/><use xlink:href="#d" transform="matrix(1,0,0,1,776.9494074391923,365) translate(185.47500000000002 28.6)"/></g><path d="M893.95 430h10m40 0c0 11.05-8.95 20-20 20s-20-8.95-20-20 8.95-20 20-20 20 8.95 20 20z" stroke="#000" stroke-width="2" fill="#fff"/><path d="M893.95 429.2h10v1.6h-10z" fill="none"/><path d="M705.95 304h93.5v126h93.5" stroke="#000" stroke-width="2" fill="none"/><path d="M705.98 305h-1.03v-2h1.03zM893.95 431h-1.03v-2h1.03z"/><path d="M945.95 430H1042V304h68" stroke="#000" stroke-width="2" fill="none"/><path d="M945.98 431h-1.15l.12-.96-.04-1.04H946zM1111 305h-1.03v-2h1.03z"/><defs><path d="M199 0l-22-63H83L61 0H9l90-248h61L250 0h-51zm-33-102l-36-108c-10 38-24 72-36 108h72" id="n"/><path d="M85 4C-2 5 27-109 22-190h50c7 57-23 150 33 157 60-5 35-97 40-157h50l1 190h-47c-2-12 1-28-3-38-12 25-28 42-61 42" id="o"/><path d="M88-194c31-1 46 15 58 34l-1-101h50l1 261h-48c-2-10 0-23-3-31C134-8 116 4 84 4 32 4 16-41 15-95c0-56 19-97 73-99zm17 164c33 0 40-30 41-66 1-37-9-64-41-64s-38 30-39 65c0 43 13 65 39 65" id="p"/><path d="M25-224v-37h50v37H25zM25 0v-190h50V0H25" id="q"/><path d="M110-194c64 0 96 36 96 99 0 64-35 99-97 99-61 0-95-36-95-99 0-62 34-99 96-99zm-1 164c35 0 45-28 45-65 0-40-10-65-43-65-34 0-45 26-45 65 0 36 10 65 43 65" id="r"/><path d="M24-248c93 1 206-16 204 79-1 75-69 88-152 82V0H24v-248zm52 121c47 0 100 7 100-41 0-47-54-39-100-39v80" id="s"/><path d="M135-150c-39-12-60 13-60 57V0H25l-1-190h47c2 13-1 29 3 40 6-28 27-53 61-41v41" id="t"/><path d="M190-63c-7 42-38 67-86 67-59 0-84-38-90-98-12-110 154-137 174-36l-49 2c-2-19-15-32-35-32-30 0-35 28-38 64-6 74 65 87 74 30" id="u"/><path d="M185-48c-13 30-37 53-82 52C43 2 14-33 14-96s30-98 90-98c62 0 83 45 84 108H66c0 31 8 55 39 56 18 0 30-7 34-22zm-45-69c5-46-57-63-70-21-2 6-4 13-4 21h74" id="v"/><path d="M137-138c1-29-70-34-71-4 15 46 118 7 119 86 1 83-164 76-172 9l43-7c4 19 20 25 44 25 33 8 57-30 24-41C81-84 22-81 20-136c-2-80 154-74 161-7" id="w"/><g id="a"><use transform="matrix(0.05,0,0,0.05,0,0)" xlink:href="#n"/><use transform="matrix(0.05,0,0,0.05,12.950000000000001,0)" xlink:href="#o"/><use transform="matrix(0.05,0,0,0.05,23.900000000000002,0)" xlink:href="#p"/><use transform="matrix(0.05,0,0,0.05,34.85,0)" xlink:href="#q"/><use transform="matrix(0.05,0,0,0.05,39.85,0)" xlink:href="#r"/><use transform="matrix(0.05,0,0,0.05,50.800000000000004,0)" xlink:href="#s"/><use transform="matrix(0.05,0,0,0.05,62.800000000000004,0)" xlink:href="#t"/><use transform="matrix(0.05,0,0,0.05,69.80000000000001,0)" xlink:href="#r"/><use transform="matrix(0.05,0,0,0.05,80.75000000000001,0)" xlink:href="#u"/><use transform="matrix(0.05,0,0,0.05,90.75000000000001,0)" xlink:href="#v"/><use transform="matrix(0.05,0,0,0.05,100.75000000000001,0)" xlink:href="#w"/><use transform="matrix(0.05,0,0,0.05,110.75,0)" xlink:href="#w"/></g><path d="M212-179c-10-28-35-45-73-45-59 0-87 40-87 99 0 60 29 101 89 101 43 0 62-24 78-52l27 14C228-24 195 4 139 4 59 4 22-46 18-125c-6-104 99-153 187-111 19 9 31 26 39 46" id="x"/><path d="M100-194c62-1 85 37 85 99 1 63-27 99-86 99S16-35 15-95c0-66 28-99 85-99zM99-20c44 1 53-31 53-75 0-43-8-75-51-75s-53 32-53 75 10 74 51 75" id="y"/><path d="M117-194c89-4 53 116 60 194h-32v-121c0-31-8-49-39-48C34-167 62-67 57 0H25l-1-190h30c1 10-1 24 2 32 11-22 29-35 61-36" id="z"/><path d="M108 0H70L1-190h34L89-25l56-165h34" id="A"/><path d="M100-194c63 0 86 42 84 106H49c0 40 14 67 53 68 26 1 43-12 49-29l28 8c-11 28-37 45-77 45C44 4 14-33 15-96c1-61 26-98 85-98zm52 81c6-60-76-77-97-28-3 7-6 17-6 28h103" id="B"/><path d="M114-163C36-179 61-72 57 0H25l-1-190h30c1 12-1 29 2 39 6-27 23-49 58-41v29" id="C"/><path d="M135-143c-3-34-86-38-87 0 15 53 115 12 119 90S17 21 10-45l28-5c4 36 97 45 98 0-10-56-113-15-118-90-4-57 82-63 122-42 12 7 21 19 24 35" id="D"/><path d="M24-231v-30h32v30H24zM24 0v-190h32V0H24" id="E"/><path d="M100-194c62-1 85 37 85 99 1 63-27 99-86 99S16-35 15-95c0-66 28-99 85-99zM99-20c44 1 53-31 53-75 0-43-8-75-51-75s-53 32-53 75 10 74 51 75zM76-211c8-23 27-35 38-54h36v5l-58 49H76" id="F"/><g id="b"><use transform="matrix(0.05,0,0,0.05,0,0)" xlink:href="#x"/><use transform="matrix(0.05,0,0,0.05,12.950000000000001,0)" xlink:href="#y"/><use transform="matrix(0.05,0,0,0.05,22.950000000000003,0)" xlink:href="#z"/><use transform="matrix(0.05,0,0,0.05,32.95,0)" xlink:href="#A"/><use transform="matrix(0.05,0,0,0.05,41.95,0)" xlink:href="#B"/><use transform="matrix(0.05,0,0,0.05,51.95,0)" xlink:href="#C"/><use transform="matrix(0.05,0,0,0.05,57.900000000000006,0)" xlink:href="#D"/><use transform="matrix(0.05,0,0,0.05,66.9,0)" xlink:href="#E"/><use transform="matrix(0.05,0,0,0.05,70.85000000000001,0)" xlink:href="#F"/><use transform="matrix(0.05,0,0,0.05,80.85000000000001,0)" xlink:href="#z"/></g><path d="M85-194c31 0 48 13 60 33l-1-100h32l1 261h-30c-2-10 0-23-3-31C134-8 116 4 85 4 32 4 16-35 15-94c0-66 23-100 70-100zm9 24c-40 0-46 34-46 75 0 40 6 74 45 74 42 0 51-32 51-76 0-42-9-74-50-73" id="G"/><g id="c"><use transform="matrix(0.05,0,0,0.05,0,0)" xlink:href="#G"/><use transform="matrix(0.05,0,0,0.05,10,0)" xlink:href="#B"/></g><path d="M101-234c-31-9-42 10-38 44h38v23H63V0H32v-167H5v-23h27c-7-52 17-82 69-68v24" id="H"/><path d="M96-169c-40 0-48 33-48 73s9 75 48 75c24 0 41-14 43-38l32 2c-6 37-31 61-74 61-59 0-76-41-82-99-10-93 101-131 147-64 4 7 5 14 7 22l-32 3c-4-21-16-35-41-35" id="I"/><path d="M106-169C34-169 62-67 57 0H25v-261h32l-1 103c12-21 28-36 61-36 89 0 53 116 60 194h-32v-121c2-32-8-49-39-48" id="J"/><g id="d"><use transform="matrix(0.05,0,0,0.05,0,0)" xlink:href="#H"/><use transform="matrix(0.05,0,0,0.05,5,0)" xlink:href="#E"/><use transform="matrix(0.05,0,0,0.05,8.95,0)" xlink:href="#I"/><use transform="matrix(0.05,0,0,0.05,17.95,0)" xlink:href="#J"/><use transform="matrix(0.05,0,0,0.05,27.950000000000003,0)" xlink:href="#B"/><use transform="matrix(0.05,0,0,0.05,37.95,0)" xlink:href="#C"/><use transform="matrix(0.05,0,0,0.05,43.900000000000006,0)" xlink:href="#y"/></g><path d="M30 0v-248h33v221h125V0H30" id="K"/><path d="M210-169c-67 3-38 105-44 169h-31v-121c0-29-5-50-35-48C34-165 62-65 56 0H25l-1-190h30c1 10-1 24 2 32 10-44 99-50 107 0 11-21 27-35 58-36 85-2 47 119 55 194h-31v-121c0-29-5-49-35-48" id="L"/><path d="M115-194c55 1 70 41 70 98S169 2 115 4C84 4 66-9 55-30l1 105H24l-1-265h31l2 30c10-21 28-34 59-34zm-8 174c40 0 45-34 45-75s-6-73-45-74c-42 0-51 32-51 76 0 43 10 73 51 73" id="M"/><path d="M9 0v-24l116-142H16v-24h144v24L44-24h123V0H9" id="N"/><path d="M141-36C126-15 110 5 73 4 37 3 15-17 15-53c-1-64 63-63 125-63 3-35-9-54-41-54-24 1-41 7-42 31l-33-3c5-37 33-52 76-52 45 0 72 20 72 64v82c-1 20 7 32 28 27v20c-31 9-61-2-59-35zM48-53c0 20 12 33 32 33 41-3 63-29 60-74-43 2-92-5-92 41" id="O"/><g id="e"><use transform="matrix(0.05,0,0,0.05,0,0)" xlink:href="#K"/><use transform="matrix(0.05,0,0,0.05,10,0)" xlink:href="#E"/><use transform="matrix(0.05,0,0,0.05,13.949999999999998,0)" xlink:href="#L"/><use transform="matrix(0.05,0,0,0.05,28.899999999999995,0)" xlink:href="#M"/><use transform="matrix(0.05,0,0,0.05,38.9,0)" xlink:href="#E"/><use transform="matrix(0.05,0,0,0.05,42.85,0)" xlink:href="#B"/><use transform="matrix(0.05,0,0,0.05,52.85,0)" xlink:href="#N"/><use transform="matrix(0.05,0,0,0.05,61.85,0)" xlink:href="#O"/></g><path d="M84 4C-5 8 30-112 23-190h32v120c0 31 7 50 39 49 72-2 45-101 50-169h31l1 190h-30c-1-10 1-25-2-33-11 22-28 36-60 37" id="P"/><g id="f"><use transform="matrix(0.05,0,0,0.05,0,0)" xlink:href="#O"/><use transform="matrix(0.05,0,0,0.05,10,0)" xlink:href="#P"/><use transform="matrix(0.05,0,0,0.05,20,0)" xlink:href="#G"/><use transform="matrix(0.05,0,0,0.05,30,0)" xlink:href="#E"/><use transform="matrix(0.05,0,0,0.05,33.95,0)" xlink:href="#y"/></g><path d="M205 0l-28-72H64L36 0H1l101-248h38L239 0h-34zm-38-99l-47-123c-12 45-31 82-46 123h93" id="Q"/><g id="g"><use transform="matrix(0.05,0,0,0.05,0,0)" xlink:href="#Q"/><use transform="matrix(0.05,0,0,0.05,12,0)" xlink:href="#P"/><use transform="matrix(0.05,0,0,0.05,22,0)" xlink:href="#G"/><use transform="matrix(0.05,0,0,0.05,32,0)" xlink:href="#E"/><use transform="matrix(0.05,0,0,0.05,35.95,0)" xlink:href="#y"/></g><path d="M30-248c118-7 216 8 213 122C240-48 200 0 122 0H30v-248zM63-27c89 8 146-16 146-99s-60-101-146-95v194" id="R"/><path d="M59-47c-2 24 18 29 38 22v24C64 9 27 4 27-40v-127H5v-23h24l9-43h21v43h35v23H59v120" id="S"/><g id="h"><use transform="matrix(0.05,0,0,0.05,0,0)" xlink:href="#R"/><use transform="matrix(0.05,0,0,0.05,12.950000000000001,0)" xlink:href="#O"/><use transform="matrix(0.05,0,0,0.05,22.950000000000003,0)" xlink:href="#S"/><use transform="matrix(0.05,0,0,0.05,27.950000000000003,0)" xlink:href="#y"/><use transform="matrix(0.05,0,0,0.05,37.95,0)" xlink:href="#D"/></g><g id="i"><use transform="matrix(0.05,0,0,0.05,0,0)" xlink:href="#B"/><use transform="matrix(0.05,0,0,0.05,10,0)" xlink:href="#z"/><use transform="matrix(0.05,0,0,0.05,20,0)" xlink:href="#S"/><use transform="matrix(0.05,0,0,0.05,25,0)" xlink:href="#C"/><use transform="matrix(0.05,0,0,0.05,30.950000000000003,0)" xlink:href="#O"/><use transform="matrix(0.05,0,0,0.05,40.95,0)" xlink:href="#G"/><use transform="matrix(0.05,0,0,0.05,50.95,0)" xlink:href="#O"/></g><g id="j"><use transform="matrix(0.05,0,0,0.05,0,0)" xlink:href="#D"/><use transform="matrix(0.05,0,0,0.05,9,0)" xlink:href="#B"/><use transform="matrix(0.05,0,0,0.05,19,0)" xlink:href="#C"/><use transform="matrix(0.05,0,0,0.05,24.95,0)" xlink:href="#A"/><use transform="matrix(0.05,0,0,0.05,33.95,0)" xlink:href="#E"/><use transform="matrix(0.05,0,0,0.05,37.900000000000006,0)" xlink:href="#I"/><use transform="matrix(0.05,0,0,0.05,46.900000000000006,0)" xlink:href="#E"/><use transform="matrix(0.05,0,0,0.05,50.85000000000001,0)" xlink:href="#y"/></g><path d="M24 0v-261h32V0H24" id="T"/><g id="k"><use transform="matrix(0.05,0,0,0.05,0,0)" xlink:href="#D"/><use transform="matrix(0.05,0,0,0.05,9,0)" xlink:href="#O"/><use transform="matrix(0.05,0,0,0.05,19,0)" xlink:href="#T"/><use transform="matrix(0.05,0,0,0.05,22.95,0)" xlink:href="#E"/><use transform="matrix(0.05,0,0,0.05,26.899999999999995,0)" xlink:href="#G"/><use transform="matrix(0.05,0,0,0.05,36.9,0)" xlink:href="#O"/></g><path d="M238-95c0 69-44 99-111 99C63 4 22-25 22-93v-155h51v151c-1 38 19 59 55 60 90 1 49-130 58-211h52v153" id="U"/><path d="M24-248c120-7 223 5 221 122C244-46 201 0 124 0H24v-248zM76-40c74 7 117-18 117-86 0-67-45-88-117-82v168" id="V"/><path d="M24 0v-248h52V0H24" id="W"/><path d="M140-251c80 0 125 45 125 126S219 4 139 4C58 4 15-44 15-125s44-126 125-126zm-1 214c52 0 73-35 73-88 0-50-21-86-72-86-52 0-73 35-73 86s22 88 72 88" id="X"/><path d="M240-174c0 40-23 61-54 70L253 0h-59l-57-94H76V0H24v-248c93 4 217-23 216 74zM76-134c48-2 112 12 112-38 0-48-66-32-112-35v73" id="Y"/><path d="M67-125c0 53 21 87 73 88 37 1 54-22 65-47l45 17C233-25 199 4 140 4 58 4 20-42 15-125 8-235 124-281 211-232c18 10 29 29 36 50l-46 12c-8-25-30-41-62-41-52 0-71 34-72 86" id="Z"/><path d="M24 0v-248h195v40H76v63h132v40H76v65h150V0H24" id="aa"/><path d="M169-182c-1-43-94-46-97-3 18 66 151 10 154 114 3 95-165 93-204 36-6-8-10-19-12-30l50-8c3 46 112 56 116 5-17-69-150-10-154-114-4-87 153-88 188-35 5 8 8 18 10 28" id="ab"/><g id="l"><use transform="matrix(0.06790123456790124,0,0,0.06790123456790124,0,0)" xlink:href="#n"/><use transform="matrix(0.06790123456790124,0,0,0.06790123456790124,17.58641975308642,0)" xlink:href="#U"/><use transform="matrix(0.06790123456790124,0,0,0.06790123456790124,35.17283950617284,0)" xlink:href="#V"/><use transform="matrix(0.06790123456790124,0,0,0.06790123456790124,52.75925925925927,0)" xlink:href="#W"/><use transform="matrix(0.06790123456790124,0,0,0.06790123456790124,59.549382716049394,0)" xlink:href="#X"/><use transform="matrix(0.06790123456790124,0,0,0.06790123456790124,78.56172839506175,0)" xlink:href="#s"/><use transform="matrix(0.06790123456790124,0,0,0.06790123456790124,94.85802469135805,0)" xlink:href="#Y"/><use transform="matrix(0.06790123456790124,0,0,0.06790123456790124,112.44444444444447,0)" xlink:href="#X"/><use transform="matrix(0.06790123456790124,0,0,0.06790123456790124,131.4567901234568,0)" xlink:href="#Z"/><use transform="matrix(0.06790123456790124,0,0,0.06790123456790124,149.04320987654324,0)" xlink:href="#aa"/><use transform="matrix(0.06790123456790124,0,0,0.06790123456790124,165.33950617283955,0)" xlink:href="#ab"/><use transform="matrix(0.06790123456790124,0,0,0.06790123456790124,181.63580246913585,0)" xlink:href="#ab"/></g><path d="M30-248c87 1 191-15 191 75 0 78-77 80-158 76V0H30v-248zm33 125c57 0 124 11 124-50 0-59-68-47-124-48v98" id="ac"/><g id="m"><use transform="matrix(0.05,0,0,0.05,0,0)" xlink:href="#ac"/><use transform="matrix(0.05,0,0,0.05,12,0)" xlink:href="#O"/><use transform="matrix(0.05,0,0,0.05,22,0)" xlink:href="#C"/><use transform="matrix(0.05,0,0,0.05,27.950000000000003,0)" xlink:href="#S"/><use transform="matrix(0.05,0,0,0.05,32.95,0)" xlink:href="#E"/><use transform="matrix(0.05,0,0,0.05,36.900000000000006,0)" xlink:href="#I"/><use transform="matrix(0.05,0,0,0.05,45.900000000000006,0)" xlink:href="#E"/><use transform="matrix(0.05,0,0,0.05,49.85000000000001,0)" xlink:href="#y"/><use transform="matrix(0.05,0,0,0.05,59.85,0)" xlink:href="#z"/><use transform="matrix(0.05,0,0,0.05,69.85000000000001,0)" xlink:href="#O"/><use transform="matrix(0.05,0,0,0.05,79.85000000000001,0)" xlink:href="#G"/><use transform="matrix(0.05,0,0,0.05,89.85000000000001,0)" xlink:href="#y"/></g></defs></g></svg>