<svg xmlns="http://www.w3.org/2000/svg" xmlns:xlink="http://www.w3.org/1999/xlink" xmlns:lucid="lucid" width="1319" height="863"><g transform="translate(-919 -133)" lucid:page-tab-id="0_0"><path d="M1140 205c0-2.76 2.24-5 5-5h839.25c2.76 0 5 2.24 5 5v672.5c0 2.76-2.24 5-5 5H1145c-2.76 0-5-2.24-5-5z" stroke="#000" stroke-width="2" fill="#fff"/><path d="M1120 365.63c0-2.77 2.24-5 5-5h30c2.76 0 5 2.23 5 5v10c0 2.76-2.24 5-5 5h-30c-2.76 0-5-2.24-5-5zM1120 706.88c0-2.77 2.24-5 5-5h30c2.76 0 5 2.23 5 5v10c0 2.76-2.24 5-5 5h-30c-2.76 0-5-2.24-5-5z" stroke="#000" stroke-width="2" fill="#fff"/><path d="M2077.93 637.5h-75.26" stroke="#000" stroke-width="2" fill="none"/><path d="M2078.93 638.5h-1.03v-2h1.03zM2002.7 638.5h-1.03v-2h1.02z"/><path d="M1980 627.5h20.67v20.67H1980zM1470.03 227.5c0-2.76 2.24-5 5-5h190c2.76 0 5 2.24 5 5v110c0 2.76-2.24 5-5 5h-190c-2.76 0-5-2.24-5-5z" stroke="#000" stroke-width="2" fill="#fff"/><path d="M1450.03 247.5c0-2.76 2.24-5 5-5h30c2.76 0 5 2.24 5 5v10c0 2.76-2.24 5-5 5h-30c-2.76 0-5-2.24-5-5zM1450.03 307.5c0-2.76 2.24-5 5-5h30c2.76 0 5 2.24 5 5v10c0 2.76-2.24 5-5 5h-30c-2.76 0-5-2.24-5-5z" stroke="#000" stroke-width="2" fill="#fff"/><use xlink:href="#a" transform="matrix(1,0,0,1,1494.0333335000205,234.5) translate(59 51.6)"/><path d="M1470.03 445c0-2.76 2.24-5 5-5h190c2.76 0 5 2.24 5 5v110c0 2.76-2.24 5-5 5h-190c-2.76 0-5-2.24-5-5z" stroke="#000" stroke-width="2" fill="#fff"/><path d="M1450.03 465c0-2.76 2.24-5 5-5h30c2.76 0 5 2.24 5 5v10c0 2.76-2.24 5-5 5h-30c-2.76 0-5-2.24-5-5zM1450.03 525c0-2.76 2.24-5 5-5h30c2.76 0 5 2.24 5 5v10c0 2.76-2.24 5-5 5h-30c-2.76 0-5-2.24-5-5z" stroke="#000" stroke-width="2" fill="#fff"/><use xlink:href="#b" transform="matrix(1,0,0,1,1494.0333335000205,452) translate(49.074999999999996 51.6)"/><path d="M1470.07 702.5c0-2.76 2.24-5 5-5h190c2.76 0 5 2.24 5 5v110c0 2.76-2.24 5-5 5h-190c-2.76 0-5-2.24-5-5z" stroke="#000" stroke-width="2" fill="#fff"/><path d="M1450.07 722.5c0-2.76 2.24-5 5-5h30c2.76 0 5 2.24 5 5v10c0 2.76-2.24 5-5 5h-30c-2.76 0-5-2.24-5-5zM1450.07 782.5c0-2.76 2.24-5 5-5h30c2.76 0 5 2.24 5 5v10c0 2.76-2.24 5-5 5h-30c-2.76 0-5-2.24-5-5z" stroke="#000" stroke-width="2" fill="#fff"/><use xlink:href="#c" transform="matrix(1,0,0,1,1494.0666670000412,709.5) translate(18.599999999999994 51.6)"/><path d="M1576 377.5h135.03v-95h-39" stroke="#000" stroke-width="2" fill="none"/><path d="M1576.03 378.5H1575v-2h1.03zM1672.06 283.5h-1.03v-2h1.03z"/><path d="M1575 377.5h-11M1530 377.5h-5M1550 357.5c-11.05 0-20 8.95-20 20s8.95 20 20 20" stroke="#000" stroke-width="2" fill="none"/><path d="M1550 391.5c-7.73 0-14-6.27-14-14s6.27-14 14-14 14 6.27 14 14-6.27 14-14 14z" stroke="#000" stroke-width="2" fill="#fff"/><path d="M1575 377.5c0 .44-.36.8-.8.8h-9.4c-.44 0-.8-.36-.8-.8 0-.44.36-.8.8-.8h9.4c.44 0 .8.36.8.8z" fill="none"/><path d="M1524 377.5h-114.97v92.23h39" stroke="#000" stroke-width="2" fill="none"/><path d="M1525 378.5h-1.03v-2h1.03zM1449.03 470.73H1448v-2h1.03z"/><path d="M1575 607.5h-11M1530 607.5h-5M1550 587.5c-11.05 0-20 8.95-20 20s8.95 20 20 20" stroke="#000" stroke-width="2" fill="none"/><path d="M1550 621.5c-7.73 0-14-6.27-14-14s6.27-14 14-14 14 6.27 14 14-6.27 14-14 14z" stroke="#000" stroke-width="2" fill="#fff"/><path d="M1575 607.5c0 .44-.36.8-.8.8h-9.4c-.44 0-.8-.36-.8-.8 0-.44.36-.8.8-.8h9.4c.44 0 .8.36.8.8z" fill="none"/><path d="M1672.03 500h39v107.5H1576" stroke="#000" stroke-width="2" fill="none"/><path d="M1672.06 501h-1.03v-2h1.03zM1576.03 608.5H1575v-2h1.03z"/><path d="M1524 607.5h-114.93v119.73h39" stroke="#000" stroke-width="2" fill="none"/><path d="M1525 608.5h-1.03v-2h1.03zM1449.07 728.23h-1.03v-2h1.03z"/><path d="M1400 387.5c0-2.76 2.24-5 5-5h290c2.76 0 5 2.24 5 5v55c0 2.76-2.24 5-5 5h-290c-2.76 0-5-2.24-5-5z" stroke="#000" stroke-opacity="0" stroke-width="2" fill="#fff" fill-opacity="0"/><use xlink:href="#d" transform="matrix(1,0,0,1,1400,382.5) translate(45.65499999999998 36.74375)"/><use xlink:href="#e" transform="matrix(1,0,0,1,1400,382.5) translate(143.555 36.74375)"/><use xlink:href="#f" transform="matrix(1,0,0,1,1400,382.5) translate(168.555 36.74375)"/><path d="M1410.03 622.5c0-2.76 2.24-5 5-5h290c2.76 0 5 2.24 5 5v55c0 2.76-2.24 5-5 5h-290c-2.76 0-5-2.24-5-5z" stroke="#000" stroke-opacity="0" stroke-width="2" fill="#fff" fill-opacity="0"/><use xlink:href="#d" transform="matrix(1,0,0,1,1410.0333335000205,617.5) translate(10.154999999999982 36.74375)"/><use xlink:href="#e" transform="matrix(1,0,0,1,1410.0333335000205,617.5) translate(108.05499999999999 36.74375)"/><use xlink:href="#g" transform="matrix(1,0,0,1,1410.0333335000205,617.5) translate(133.055 36.74375)"/><use xlink:href="#e" transform="matrix(1,0,0,1,1410.0333335000205,617.5) translate(196.95499999999998 36.74375)"/><use xlink:href="#h" transform="matrix(1,0,0,1,1410.0333335000205,617.5) translate(221.95499999999998 36.74375)"/><path d="M2078.93 637.5h10m40 0c0 11.05-8.96 20-20 20-11.05 0-20-8.95-20-20s8.95-20 20-20c11.04 0 20 8.95 20 20z" stroke="#000" stroke-width="2" fill="#fff"/><path d="M2078.93 636.7h10v1.6h-10z" fill="none"/><path d="M1785 757.5h10m40 0c0 11.05-8.95 20-20 20s-20-8.95-20-20 8.95-20 20-20 20 8.95 20 20z" stroke="#000" stroke-width="2" fill="#fff"/><path d="M1785 756.7h10v1.6h-10z" fill="none"/><path d="M1672.07 757.5H1784" stroke="#000" stroke-width="2" fill="none"/><path d="M1672.1 758.5h-1.03v-2h1.02zM1785 758.5h-1.03v-2h1.03z"/><path d="M1660 775c0-2.76 2.24-5 5-5h290c2.76 0 5 2.24 5 5v55c0 2.76-2.24 5-5 5h-290c-2.76 0-5-2.24-5-5z" stroke="#000" stroke-opacity="0" stroke-width="2" fill="#fff" fill-opacity="0"/><use xlink:href="#d" transform="matrix(1,0,0,1,1660,770) translate(23.630000000000003 36.74375)"/><use xlink:href="#e" transform="matrix(1,0,0,1,1660,770) translate(121.53000000000002 36.74375)"/><use xlink:href="#g" transform="matrix(1,0,0,1,1660,770) translate(146.53000000000003 36.74375)"/><use xlink:href="#i" transform="matrix(1,0,0,1,1660,770) translate(210.43 36.74375)"/><path d="M1837 757.5h70.5V637.83h69.68" stroke="#000" stroke-width="2" fill="none"/><path d="M1837.03 758.5h-1.15l.12-.96-.03-1.04h1.06z"/><path d="M1959.82 648l17.22-10.17-17.22-10.18" stroke="#000" stroke-width="2" fill="none"/><path d="M1134.67 457.5h20.66v20.67h-20.66zM1134.67 597.5h20.66v20.67h-20.66z" stroke="#000" stroke-width="2" fill="#fff"/><path d="M1340 302.5h-11M1295 302.5h-5M1315 282.5c-11.05 0-20 8.95-20 20s8.95 20 20 20" stroke="#000" stroke-width="2" fill="none"/><path d="M1315 316.5c-7.73 0-14-6.27-14-14s6.27-14 14-14 14 6.27 14 14-6.27 14-14 14z" stroke="#000" stroke-width="2" fill="#fff"/><path d="M1340 302.5c0 .44-.36.8-.8.8h-9.4c-.44 0-.8-.36-.8-.8 0-.44.36-.8.8-.8h9.4c.44 0 .8.36.8.8z" fill="none"/><path d="M1341 302.5h53.52v-50.27h53.5" stroke="#000" stroke-width="2" fill="none"/><path d="M1341.03 303.5H1340v-2h1.03zM1449.03 253.23H1448v-2h1.03z"/><path d="M1365.03 782.5h-11M1320.03 782.5h-5M1340.03 762.5c-11.04 0-20 8.95-20 20s8.96 20 20 20" stroke="#000" stroke-width="2" fill="none"/><path d="M1340.03 796.5c-7.73 0-14-6.27-14-14s6.27-14 14-14c7.74 0 14 6.27 14 14s-6.26 14-14 14z" stroke="#000" stroke-width="2" fill="#fff"/><path d="M1365.03 782.5c0 .44-.35.8-.8.8h-9.4c-.44 0-.8-.36-.8-.8 0-.44.36-.8.8-.8h9.4c.45 0 .8.36.8.8z" fill="none"/><path d="M1366.03 782.5h82.04" stroke="#000" stroke-width="2" fill="none"/><path d="M1366.06 783.5h-1.03v-2h1.03zM1449.07 782.34v1.16h-1.03v-2h1.3z"/><path d="M1157.33 467.83H1210V302.5h79" stroke="#000" stroke-width="2" fill="none"/><path d="M1157.36 468.83h-1.03v-2h1.03zM1290 303.5h-1.03v-2h1.03z"/><path d="M1245 307.5c0-2.76 2.24-5 5-5h130c2.76 0 5 2.24 5 5v55c0 2.76-2.24 5-5 5h-130c-2.76 0-5-2.24-5-5z" stroke="#000" stroke-opacity="0" stroke-width="2" fill="#fff" fill-opacity="0"/><use xlink:href="#j" transform="matrix(1,0,0,1,1245,302.5) translate(16.45499999999999 36.74375)"/><path d="M1343.3 530h-11M1298.3 530h-5M1318.3 510c-11.06 0-20 8.95-20 20s8.94 20 20 20" stroke="#000" stroke-width="2" fill="none"/><path d="M1318.3 544c-7.74 0-14-6.27-14-14s6.26-14 14-14c7.72 0 14 6.27 14 14s-6.28 14-14 14z" stroke="#000" stroke-width="2" fill="#fff"/><path d="M1343.3 530c0 .44-.37.8-.8.8h-9.4c-.45 0-.8-.36-.8-.8 0-.44.35-.8.8-.8h9.4c.43 0 .8.36.8.8z" fill="none"/><path d="M1270.03 537.5c0-2.76 2.24-5 5-5h130c2.76 0 5 2.24 5 5v55c0 2.76-2.24 5-5 5h-130c-2.76 0-5-2.24-5-5z" stroke="#000" stroke-opacity="0" stroke-width="2" fill="#fff" fill-opacity="0"/><g><use xlink:href="#j" transform="matrix(1,0,0,1,1270.0333335000205,532.5) translate(16.45499999999999 36.74375)"/></g><path d="M1292.3 530H1210v-62.17h-52.67" stroke="#000" stroke-width="2" fill="none"/><path d="M1293.3 531h-1.04v-2h1.03zM1157.36 468.83h-1.03v-2h1.03z"/><path d="M1344.3 530H1448.02" stroke="#000" stroke-width="2" fill="none"/><path d="M1344.3 531h-1v-2h1zM1449.03 531H1448v-2h1.03z"/><path d="M1157.33 607.83h78.35V782.5h78.35" stroke="#000" stroke-width="2" fill="none"/><path d="M1157.36 608.83h-1.03v-2h1.03zM1315.03 783.5H1314v-2h1.03z"/><path d="M1270.03 797.5c0-2.76 2.24-5 5-5h130c2.76 0 5 2.24 5 5v55c0 2.76-2.24 5-5 5h-130c-2.76 0-5-2.24-5-5z" stroke="#000" stroke-opacity="0" stroke-width="2" fill="#fff" fill-opacity="0"/><g><use xlink:href="#k" transform="matrix(1,0,0,1,1270.0333335000205,792.5) translate(47.029999999999994 36.74375)"/></g><g><path d="M1050 467.83h-10m-40 0c0-11.04 8.95-20 20-20s20 8.96 20 20c0 11.05-8.95 20-20 20s-20-8.95-20-20z" stroke="#000" stroke-width="2" fill="#fff"/><path d="M1050 468.63h-10v-1.6h10z" fill="none"/></g><g><path d="M1050 607.5h-10m-40 0c0-11.05 8.95-20 20-20s20 8.95 20 20-8.95 20-20 20-20-8.95-20-20z" stroke="#000" stroke-width="2" fill="#fff"/><path d="M1050 608.3h-10v-1.6h10z" fill="none"/></g><path d="M1051 467.83h81.67" stroke="#000" stroke-width="2" fill="none"/><path d="M1051.03 468.83H1050v-2h1.03zM1133.67 468.83h-1.03v-2h1.03z"/><path d="M1051 607.5h40.83v.33h40.84" stroke="#000" stroke-width="2" fill="none"/><path d="M1051.03 608.5H1050v-2h1.03zM1133.67 608.83h-1.03v-2h1.03z"/><path d="M900 483.17c0-2.76 2.24-5 5-5h230c2.76 0 5 2.24 5 5v50c0 2.76-2.24 5-5 5H905c-2.76 0-5-2.24-5-5z" stroke="#000" stroke-opacity="0" stroke-width="2" fill="#fff" fill-opacity="0"/><g><use xlink:href="#j" transform="matrix(1,0,0,1,900,478.16666666666674) translate(66.455 33.15)"/></g><path d="M950 622.5c0-2.76 2.24-5 5-5h130c2.76 0 5 2.24 5 5v55c0 2.76-2.24 5-5 5H955c-2.76 0-5-2.24-5-5z" stroke="#000" stroke-opacity="0" stroke-width="2" fill="#fff" fill-opacity="0"/><g><use xlink:href="#k" transform="matrix(1,0,0,1,950,617.5) translate(47.029999999999994 36.74375)"/></g><path d="M1989.25 675c0-2.76 2.24-5 5-5h230c2.76 0 5 2.24 5 5v50c0 2.76-2.24 5-5 5h-230c-2.76 0-5-2.24-5-5z" stroke="#000" stroke-opacity="0" stroke-width="2" fill="#fff" fill-opacity="0"/><g><use xlink:href="#d" transform="matrix(1,0,0,1,1989.252562602333,670) translate(29.104999999999983 19.41)"/><use xlink:href="#e" transform="matrix(1,0,0,1,1989.252562602333,670) translate(127.005 19.41)"/><use xlink:href="#l" transform="matrix(1,0,0,1,1989.252562602333,670) translate(152.005 19.41)"/><use xlink:href="#m" transform="matrix(1,0,0,1,1989.252562602333,670) translate(47.029999999999994 41.01)"/><use xlink:href="#n" transform="matrix(1,0,0,1,1989.252562602333,670) translate(117.98 41.01)"/></g><path d="M1440.03 152.5c0-2.76 2.24-5 5-5h230c2.76 0 5 2.24 5 5v50c0 2.76-2.24 5-5 5h-230c-2.76 0-5-2.24-5-5z" stroke="#000" stroke-opacity="0" stroke-width="2" fill="#fff" fill-opacity="0"/><g><use xlink:href="#o" transform="matrix(1,0,0,1,1440.0333335000323,147.5) translate(61.100679012345665 34.55555555555556)"/></g><defs><path d="M67-125c0 54 23 88 75 88 28 0 53-7 68-21v-34h-60v-39h108v91C232-14 192 4 140 4 58 4 20-42 15-125 8-236 126-280 215-234c19 10 29 26 37 47l-47 15c-11-23-29-39-63-39-53 1-75 33-75 86" id="p"/><path d="M182-182c0 78-84 86-111 141h115V0H12c-6-101 99-100 120-180 1-22-12-31-33-32-23 0-32 14-35 34l-49-3c5-45 32-70 84-70 51 0 83 22 83 69" id="q"/><path d="M24-248c93 1 206-16 204 79-1 75-69 88-152 82V0H24v-248zm52 121c47 0 100 7 100-41 0-47-54-39-100-39v80" id="r"/><g id="a"><use transform="matrix(0.05,0,0,0.05,0,0)" xlink:href="#p"/><use transform="matrix(0.05,0,0,0.05,14,0)" xlink:href="#q"/><use transform="matrix(0.05,0,0,0.05,24,0)" xlink:href="#r"/></g><path d="M169-182c-1-43-94-46-97-3 18 66 151 10 154 114 3 95-165 93-204 36-6-8-10-19-12-30l50-8c3 46 112 56 116 5-17-69-150-10-154-114-4-87 153-88 188-35 5 8 8 18 10 28" id="s"/><path d="M240-174c0 40-23 61-54 70L253 0h-59l-57-94H76V0H24v-248c93 4 217-23 216 74zM76-134c48-2 112 12 112-38 0-48-66-32-112-35v73" id="t"/><path d="M24 0v-248h52V0H24" id="u"/><path d="M24 0v-248h52v208h133V0H24" id="v"/><path d="M230 0l2-204L168 0h-37L68-204 70 0H24v-248h70l56 185 57-185h69V0h-46" id="w"/><g id="b"><use transform="matrix(0.05,0,0,0.05,0,0)" xlink:href="#s"/><use transform="matrix(0.05,0,0,0.05,12,0)" xlink:href="#t"/><use transform="matrix(0.05,0,0,0.05,24.950000000000003,0)" xlink:href="#u"/><use transform="matrix(0.05,0,0,0.05,29.950000000000003,0)" xlink:href="#v"/><use transform="matrix(0.05,0,0,0.05,40.900000000000006,0)" xlink:href="#w"/></g><path d="M186 0v-106H76V0H24v-248h52v99h110v-99h50V0h-50" id="x"/><path d="M175 0L67-191c6 58 2 128 3 191H24v-248h59L193-55c-6-58-2-129-3-193h46V0h-61" id="y"/><path d="M182 0l-62-99L58 0H3l86-130-79-118h55l55 88 55-88h55l-75 118L237 0h-55" id="z"/><path d="M182-130c37 4 62 22 62 59C244 23 116-4 24 0v-248c84 5 203-23 205 63 0 31-19 50-47 55zM76-148c40-3 101 13 101-30 0-44-60-28-101-31v61zm0 110c48-3 116 14 116-37 0-48-69-32-116-35v72" id="A"/><path d="M199 0l-22-63H83L61 0H9l90-248h61L250 0h-51zm-33-102l-36-108c-10 38-24 72-36 108h72" id="B"/><path d="M24 0v-248h195v40H76v63h132v40H76v65h150V0H24" id="C"/><g id="c"><use transform="matrix(0.05,0,0,0.05,0,0)" xlink:href="#s"/><use transform="matrix(0.05,0,0,0.05,12,0)" xlink:href="#r"/><use transform="matrix(0.05,0,0,0.05,24,0)" xlink:href="#x"/><use transform="matrix(0.05,0,0,0.05,36.95,0)" xlink:href="#u"/><use transform="matrix(0.05,0,0,0.05,41.95,0)" xlink:href="#y"/><use transform="matrix(0.05,0,0,0.05,54.900000000000006,0)" xlink:href="#z"/><use transform="matrix(0.05,0,0,0.05,66.9,0)" xlink:href="#A"/><use transform="matrix(0.05,0,0,0.05,79.85000000000001,0)" xlink:href="#B"/><use transform="matrix(0.05,0,0,0.05,92.80000000000001,0)" xlink:href="#s"/><use transform="matrix(0.05,0,0,0.05,104.80000000000001,0)" xlink:href="#C"/></g><path d="M143 4C61 4 22-44 18-125c-5-107 100-154 193-111 17 8 29 25 37 43l-32 9c-13-25-37-40-76-40-61 0-88 39-88 99 0 61 29 100 91 101 35 0 62-11 79-27v-45h-74v-28h105v86C228-13 192 4 143 4" id="D"/><path d="M100-194c63 0 86 42 84 106H49c0 40 14 67 53 68 26 1 43-12 49-29l28 8c-11 28-37 45-77 45C44 4 14-33 15-96c1-61 26-98 85-98zm52 81c6-60-76-77-97-28-3 7-6 17-6 28h103" id="E"/><path d="M117-194c89-4 53 116 60 194h-32v-121c0-31-8-49-39-48C34-167 62-67 57 0H25l-1-190h30c1 10-1 24 2 32 11-22 29-35 61-36" id="F"/><path d="M114-163C36-179 61-72 57 0H25l-1-190h30c1 12-1 29 2 39 6-27 23-49 58-41v29" id="G"/><path d="M141-36C126-15 110 5 73 4 37 3 15-17 15-53c-1-64 63-63 125-63 3-35-9-54-41-54-24 1-41 7-42 31l-33-3c5-37 33-52 76-52 45 0 72 20 72 64v82c-1 20 7 32 28 27v20c-31 9-61-2-59-35zM48-53c0 20 12 33 32 33 41-3 63-29 60-74-43 2-92-5-92 41" id="H"/><path d="M96-169c-40 0-48 33-48 73s9 75 48 75c24 0 41-14 43-38l32 2c-6 37-31 61-74 61-59 0-76-41-82-99-10-93 101-131 147-64 4 7 5 14 7 22l-32 3c-4-21-16-35-41-35" id="I"/><path d="M24-231v-30h32v30H24zM24 0v-190h32V0H24" id="J"/><path d="M100-194c62-1 85 37 85 99 1 63-27 99-86 99S16-35 15-95c0-66 28-99 85-99zM99-20c44 1 53-31 53-75 0-43-8-75-51-75s-53 32-53 75 10 74 51 75zM76-211c8-23 27-35 38-54h36v5l-58 49H76" id="K"/><g id="d"><use transform="matrix(0.05,0,0,0.05,0,0)" xlink:href="#D"/><use transform="matrix(0.05,0,0,0.05,14,0)" xlink:href="#E"/><use transform="matrix(0.05,0,0,0.05,24,0)" xlink:href="#F"/><use transform="matrix(0.05,0,0,0.05,34,0)" xlink:href="#E"/><use transform="matrix(0.05,0,0,0.05,44,0)" xlink:href="#G"/><use transform="matrix(0.05,0,0,0.05,49.95,0)" xlink:href="#H"/><use transform="matrix(0.05,0,0,0.05,59.95,0)" xlink:href="#I"/><use transform="matrix(0.05,0,0,0.05,68.95,0)" xlink:href="#J"/><use transform="matrix(0.05,0,0,0.05,72.9,0)" xlink:href="#K"/><use transform="matrix(0.05,0,0,0.05,82.9,0)" xlink:href="#F"/></g><path d="M85-194c31 0 48 13 60 33l-1-100h32l1 261h-30c-2-10 0-23-3-31C134-8 116 4 85 4 32 4 16-35 15-94c0-66 23-100 70-100zm9 24c-40 0-46 34-46 75 0 40 6 74 45 74 42 0 51-32 51-76 0-42-9-74-50-73" id="L"/><g id="e"><use transform="matrix(0.05,0,0,0.05,0,0)" xlink:href="#L"/><use transform="matrix(0.05,0,0,0.05,10,0)" xlink:href="#E"/></g><path d="M100-194c62-1 85 37 85 99 1 63-27 99-86 99S16-35 15-95c0-66 28-99 85-99zM99-20c44 1 53-31 53-75 0-43-8-75-51-75s-53 32-53 75 10 74 51 75" id="M"/><g id="f"><use transform="matrix(0.05,0,0,0.05,0,0)" xlink:href="#L"/><use transform="matrix(0.05,0,0,0.05,10,0)" xlink:href="#J"/><use transform="matrix(0.05,0,0,0.05,13.949999999999998,0)" xlink:href="#I"/><use transform="matrix(0.05,0,0,0.05,22.95,0)" xlink:href="#I"/><use transform="matrix(0.05,0,0,0.05,31.950000000000003,0)" xlink:href="#J"/><use transform="matrix(0.05,0,0,0.05,35.9,0)" xlink:href="#M"/><use transform="matrix(0.05,0,0,0.05,45.9,0)" xlink:href="#F"/><use transform="matrix(0.05,0,0,0.05,55.900000000000006,0)" xlink:href="#H"/><use transform="matrix(0.05,0,0,0.05,65.9,0)" xlink:href="#G"/><use transform="matrix(0.05,0,0,0.05,71.85000000000001,0)" xlink:href="#J"/><use transform="matrix(0.05,0,0,0.05,75.80000000000001,0)" xlink:href="#M"/></g><path d="M210-169c-67 3-38 105-44 169h-31v-121c0-29-5-50-35-48C34-165 62-65 56 0H25l-1-190h30c1 10-1 24 2 32 10-44 99-50 107 0 11-21 27-35 58-36 85-2 47 119 55 194h-31v-121c0-29-5-49-35-48" id="N"/><path d="M24 0v-261h32V0H24" id="O"/><g id="g"><use transform="matrix(0.05,0,0,0.05,0,0)" xlink:href="#N"/><use transform="matrix(0.05,0,0,0.05,14.950000000000001,0)" xlink:href="#M"/><use transform="matrix(0.05,0,0,0.05,24.950000000000003,0)" xlink:href="#L"/><use transform="matrix(0.05,0,0,0.05,34.95,0)" xlink:href="#E"/><use transform="matrix(0.05,0,0,0.05,44.95,0)" xlink:href="#O"/><use transform="matrix(0.05,0,0,0.05,48.900000000000006,0)" xlink:href="#M"/></g><path d="M177-190C167-65 218 103 67 71c-23-6-38-20-44-43l32-5c15 47 100 32 89-28v-30C133-14 115 1 83 1 29 1 15-40 15-95c0-56 16-97 71-98 29-1 48 16 59 35 1-10 0-23 2-32h30zM94-22c36 0 50-32 50-73 0-42-14-75-50-75-39 0-46 34-46 75s6 73 46 73" id="P"/><path d="M84 4C-5 8 30-112 23-190h32v120c0 31 7 50 39 49 72-2 45-101 50-169h31l1 190h-30c-1-10 1-25-2-33-11 22-28 36-60 37" id="Q"/><path d="M24-231v-30h32v30H24zM-9 49c24 4 33-6 33-30v-209h32V24c2 40-23 58-65 49V49" id="R"/><g id="h"><use transform="matrix(0.05,0,0,0.05,0,0)" xlink:href="#O"/><use transform="matrix(0.05,0,0,0.05,3.95,0)" xlink:href="#E"/><use transform="matrix(0.05,0,0,0.05,13.949999999999998,0)" xlink:href="#F"/><use transform="matrix(0.05,0,0,0.05,23.95,0)" xlink:href="#P"/><use transform="matrix(0.05,0,0,0.05,33.95,0)" xlink:href="#Q"/><use transform="matrix(0.05,0,0,0.05,43.95,0)" xlink:href="#H"/><use transform="matrix(0.05,0,0,0.05,53.95,0)" xlink:href="#R"/><use transform="matrix(0.05,0,0,0.05,57.900000000000006,0)" xlink:href="#E"/></g><path d="M85 4C-4 8 31-112 24-190h32v120c0 31 7 50 39 49 72-2 45-101 50-169h31l1 190h-30c-1-10 1-25-2-33-11 22-28 36-60 37zM73-211c8-23 27-35 38-54h36v5l-58 49H73" id="S"/><path d="M135-143c-3-34-86-38-87 0 15 53 115 12 119 90S17 21 10-45l28-5c4 36 97 45 98 0-10-56-113-15-118-90-4-57 82-63 122-42 12 7 21 19 24 35" id="T"/><path d="M59-47c-2 24 18 29 38 22v24C64 9 27 4 27-40v-127H5v-23h24l9-43h21v43h35v23H59v120" id="U"/><g id="i"><use transform="matrix(0.05,0,0,0.05,0,0)" xlink:href="#H"/><use transform="matrix(0.05,0,0,0.05,10,0)" xlink:href="#I"/><use transform="matrix(0.05,0,0,0.05,19,0)" xlink:href="#S"/><use transform="matrix(0.05,0,0,0.05,29,0)" xlink:href="#T"/><use transform="matrix(0.05,0,0,0.05,38,0)" xlink:href="#U"/><use transform="matrix(0.05,0,0,0.05,43,0)" xlink:href="#J"/><use transform="matrix(0.05,0,0,0.05,46.95,0)" xlink:href="#I"/><use transform="matrix(0.05,0,0,0.05,55.95,0)" xlink:href="#M"/></g><path d="M127-220V0H93v-220H8v-28h204v28h-85" id="V"/><path d="M115-194c55 1 70 41 70 98S169 2 115 4C84 4 66-9 55-30l1 105H24l-1-265h31l2 30c10-21 28-34 59-34zm-8 174c40 0 45-34 45-75s-6-73-45-74c-42 0-51 32-51 76 0 43 10 73 51 73" id="W"/><g id="j"><use transform="matrix(0.05,0,0,0.05,0,0)" xlink:href="#V"/><use transform="matrix(0.05,0,0,0.05,10.3,0)" xlink:href="#G"/><use transform="matrix(0.05,0,0,0.05,16.25,0)" xlink:href="#H"/><use transform="matrix(0.05,0,0,0.05,26.25,0)" xlink:href="#F"/><use transform="matrix(0.05,0,0,0.05,36.25,0)" xlink:href="#T"/><use transform="matrix(0.05,0,0,0.05,45.25,0)" xlink:href="#I"/><use transform="matrix(0.05,0,0,0.05,54.25,0)" xlink:href="#G"/><use transform="matrix(0.05,0,0,0.05,60.2,0)" xlink:href="#J"/><use transform="matrix(0.05,0,0,0.05,64.15,0)" xlink:href="#W"/><use transform="matrix(0.05,0,0,0.05,74.15,0)" xlink:href="#I"/><use transform="matrix(0.05,0,0,0.05,83.15,0)" xlink:href="#J"/><use transform="matrix(0.05,0,0,0.05,87.10000000000001,0)" xlink:href="#K"/><use transform="matrix(0.05,0,0,0.05,97.10000000000001,0)" xlink:href="#F"/></g><path d="M205 0l-28-72H64L36 0H1l101-248h38L239 0h-34zm-38-99l-47-123c-12 45-31 82-46 123h93" id="X"/><g id="k"><use transform="matrix(0.05,0,0,0.05,0,0)" xlink:href="#X"/><use transform="matrix(0.05,0,0,0.05,12,0)" xlink:href="#Q"/><use transform="matrix(0.05,0,0,0.05,22,0)" xlink:href="#L"/><use transform="matrix(0.05,0,0,0.05,32,0)" xlink:href="#J"/><use transform="matrix(0.05,0,0,0.05,35.95,0)" xlink:href="#M"/></g><g id="l"><use transform="matrix(0.05,0,0,0.05,0,0)" xlink:href="#N"/><use transform="matrix(0.05,0,0,0.05,14.950000000000001,0)" xlink:href="#M"/><use transform="matrix(0.05,0,0,0.05,24.950000000000003,0)" xlink:href="#L"/><use transform="matrix(0.05,0,0,0.05,34.95,0)" xlink:href="#E"/><use transform="matrix(0.05,0,0,0.05,44.95,0)" xlink:href="#O"/><use transform="matrix(0.05,0,0,0.05,48.900000000000006,0)" xlink:href="#M"/></g><g id="m"><use transform="matrix(0.05,0,0,0.05,0,0)" xlink:href="#H"/><use transform="matrix(0.05,0,0,0.05,10,0)" xlink:href="#I"/><use transform="matrix(0.05,0,0,0.05,19,0)" xlink:href="#S"/><use transform="matrix(0.05,0,0,0.05,29,0)" xlink:href="#T"/><use transform="matrix(0.05,0,0,0.05,38,0)" xlink:href="#U"/><use transform="matrix(0.05,0,0,0.05,43,0)" xlink:href="#J"/><use transform="matrix(0.05,0,0,0.05,46.95,0)" xlink:href="#I"/><use transform="matrix(0.05,0,0,0.05,55.95,0)" xlink:href="#M"/></g><g id="n"><use transform="matrix(0.05,0,0,0.05,0,0)" xlink:href="#H"/><use transform="matrix(0.05,0,0,0.05,10,0)" xlink:href="#L"/><use transform="matrix(0.05,0,0,0.05,20,0)" xlink:href="#H"/><use transform="matrix(0.05,0,0,0.05,30,0)" xlink:href="#W"/><use transform="matrix(0.05,0,0,0.05,40,0)" xlink:href="#U"/><use transform="matrix(0.05,0,0,0.05,45,0)" xlink:href="#H"/><use transform="matrix(0.05,0,0,0.05,55,0)" xlink:href="#L"/><use transform="matrix(0.05,0,0,0.05,65,0)" xlink:href="#M"/></g><path d="M136-208V0H84v-208H4v-40h212v40h-80" id="Y"/><g id="o"><use transform="matrix(0.06790123456790124,0,0,0.06790123456790124,0,0)" xlink:href="#Y"/><use transform="matrix(0.06790123456790124,0,0,0.06790123456790124,14.870370370370372,0)" xlink:href="#t"/><use transform="matrix(0.06790123456790124,0,0,0.06790123456790124,32.45679012345679,0)" xlink:href="#B"/><use transform="matrix(0.06790123456790124,0,0,0.06790123456790124,50.043209876543216,0)" xlink:href="#u"/><use transform="matrix(0.06790123456790124,0,0,0.06790123456790124,56.83333333333334,0)" xlink:href="#y"/><use transform="matrix(0.06790123456790124,0,0,0.06790123456790124,74.41975308641976,0)" xlink:href="#u"/><use transform="matrix(0.06790123456790124,0,0,0.06790123456790124,81.20987654320989,0)" xlink:href="#y"/><use transform="matrix(0.06790123456790124,0,0,0.06790123456790124,98.7962962962963,0)" xlink:href="#p"/></g></defs></g></svg>