<svg xmlns="http://www.w3.org/2000/svg" xmlns:xlink="http://www.w3.org/1999/xlink" xmlns:lucid="lucid" width="1397.12" height="406.5"><g transform="translate(-220 520)" lucid:page-tab-id="0_0"><path d="M490.07-446c-2.76 0-5 2.24-5 5v302.5c0 2.76 2.24 5 5 5h834.18c2.76 0 5-2.24 5-5V-441c0-2.76-2.24-5-5-5z" stroke="#000" stroke-width="2" fill="#fff"/><path d="M1319.25-436h-15v20h15z" stroke="#000" fill="#fff"/><path d="M1309.25-432.67h-10v3.34h10zm0 10h-10v3.34h10z" stroke="#000" fill="#fff"/><path d="M709.07-331c0-2.76 2.23-5 5-5h190c2.76 0 5 2.24 5 5v110c0 2.76-2.24 5-5 5h-190c-2.77 0-5-2.24-5-5z" stroke="#000" stroke-width="2" fill="#fff"/><path d="M689.07-311c0-2.76 2.23-5 5-5h30c2.76 0 5 2.24 5 5v10c0 2.76-2.24 5-5 5h-30c-2.77 0-5-2.24-5-5zM689.07-251c0-2.76 2.23-5 5-5h30c2.76 0 5 2.24 5 5v10c0 2.76-2.24 5-5 5h-30c-2.77 0-5-2.24-5-5z" stroke="#000" stroke-width="2" fill="#fff"/><use xlink:href="#a" transform="matrix(1,0,0,1,733.0656485395907,-324) translate(59 51.6)"/><path d="M911.07-276h93.5v-60h93.5" stroke="#000" stroke-width="2" fill="none"/><path d="M911.1-275h-1.03v-2h1.02zM1099.07-335h-1.03v-2h1.03z"/><path d="M977.07-411c0-2.76 2.23-5 5-5h295c2.76 0 5 2.24 5 5v50c0 2.76-2.24 5-5 5h-295c-2.77 0-5-2.24-5-5z" stroke="#000" stroke-opacity="0" stroke-width="2" fill="#fff" fill-opacity="0"/><use xlink:href="#b" transform="matrix(1,0,0,1,982.0656485395907,-411) translate(66.17499999999998 28.6)"/><use xlink:href="#c" transform="matrix(1,0,0,1,982.0656485395907,-411) translate(159.925 28.6)"/><path d="M911.07-276h93.5v60h93.5" stroke="#000" stroke-width="2" fill="none"/><path d="M911.1-275h-1.03v-2h1.02zM1099.07-215h-1.03v-2h1.03z"/><path d="M1099.07-336h10m40 0c0 11.05-8.96 20-20 20-11.05 0-20-8.95-20-20s8.95-20 20-20c11.04 0 20 8.95 20 20z" stroke="#000" stroke-width="2" fill="#fff"/><path d="M1099.07-336.8h10v1.6h-10z" fill="none"/><path d="M1099.07-216h10m40 0c0 11.05-8.96 20-20 20-11.05 0-20-8.95-20-20s8.95-20 20-20c11.04 0 20 8.95 20 20z" stroke="#000" stroke-width="2" fill="#fff"/><path d="M1099.07-216.8h10v1.6h-10z" fill="none"/><path d="M977.07-196c0-2.76 2.23-5 5-5h295c2.76 0 5 2.24 5 5v50c0 2.76-2.24 5-5 5h-295c-2.77 0-5-2.24-5-5z" stroke="#000" stroke-opacity="0" stroke-width="2" fill="#fff" fill-opacity="0"/><use xlink:href="#d" transform="matrix(1,0,0,1,982.0656485395907,-196) translate(19.64999999999999 28.6)"/><use xlink:href="#e" transform="matrix(1,0,0,1,982.0656485395907,-196) translate(117.55 28.6)"/><use xlink:href="#f" transform="matrix(1,0,0,1,982.0656485395907,-196) translate(142.55 28.6)"/><use xlink:href="#c" transform="matrix(1,0,0,1,982.0656485395907,-196) translate(206.45 28.6)"/><path d="M611.03-276h96.04" stroke="#000" stroke-width="2" fill="none"/><path d="M611.06-275h-1.03v-2h1.03zM708.07-275h-1.03v-2h1.03z"/><path d="M540-339.7c0-2.78 2.24-5 5-5h85c2.76 0 5 2.22 5 5v50c0 2.75-2.24 5-5 5h-85c-2.76 0-5-2.25-5-5z" stroke="#000" stroke-opacity="0" stroke-width="2" fill="#fff" fill-opacity="0"/><use xlink:href="#g" transform="matrix(1,0,0,1,545,-339.7149279400455) translate(11.024999999999999 17.799999999999997)"/><use xlink:href="#h" transform="matrix(1,0,0,1,545,-339.7149279400455) translate(53.975 17.799999999999997)"/><use xlink:href="#i" transform="matrix(1,0,0,1,545,-339.7149279400455) translate(7.049999999999997 39.4)"/><path d="M474.67-286.33h20.66v20.66h-20.66z" stroke="#000" stroke-width="2" fill="#fff"/><path d="M391-276h81.67" stroke="#000" stroke-width="2" fill="none"/><path d="M391.03-275H390v-2h1.03zM473.67-275h-1.03v-2h1.03z"/><path d="M240-260.67c0-2.76 2.24-5 5-5h230c2.76 0 5 2.24 5 5v50c0 2.76-2.24 5-5 5H245c-2.76 0-5-2.24-5-5z" stroke="#000" stroke-opacity="0" stroke-width="2" fill="#fff" fill-opacity="0"/><use xlink:href="#j" transform="matrix(1,0,0,1,245,-260.6666666667054) translate(0.625 28.6)"/><use xlink:href="#e" transform="matrix(1,0,0,1,245,-260.6666666667054) translate(52.575 28.6)"/><use xlink:href="#k" transform="matrix(1,0,0,1,245,-260.6666666667054) translate(77.575 28.6)"/><use xlink:href="#e" transform="matrix(1,0,0,1,245,-260.6666666667054) translate(143.525 28.6)"/><use xlink:href="#l" transform="matrix(1,0,0,1,245,-260.6666666667054) translate(168.525 28.6)"/><path d="M380-276h10m-30-20c11.05 0 20 8.95 20 20s-8.95 20-20 20" stroke="#000" stroke-width="2" fill="none"/><path d="M360-296c11.05 0 20 8.95 20 20s-8.95 20-20 20zM380-276c0-.44.36-.8.8-.8h8.4c.44 0 .8.36.8.8 0 .44-.36.8-.8.8h-8.4c-.44 0-.8-.36-.8-.8z" fill="none"/><path d="M560.03-276h11M605.03-276h5M585.03-256c11.05 0 20-8.95 20-20s-8.95-20-20-20" stroke="#000" stroke-width="2" fill="none"/><path d="M585.03-290c7.74 0 14 6.27 14 14s-6.26 14-14 14c-7.73 0-14-6.27-14-14s6.27-14 14-14z" stroke="#000" stroke-width="2" fill="#fff"/><path d="M560.03-276c0-.44.36-.8.8-.8h9.4c.45 0 .8.36.8.8 0 .44-.35.8-.8.8h-9.4c-.44 0-.8-.36-.8-.8z" fill="none"/><path d="M559.03-276h-61.7" stroke="#000" stroke-width="2" fill="none"/><path d="M560.03-275H559v-2h1.03zM497.36-275h-1.03v-2h1.03z"/><path d="M1417.22-276h-75.25" stroke="#000" stroke-width="2" fill="none"/><path d="M1418.22-275h-1.02v-2h1.02zM1342-275h-1.03v-2h1.02z"/><path d="M1319.3-286h20.67v20.67h-20.67zM1418.22-276h10m40 0c0 11.05-8.95 20-20 20-11.04 0-20-8.95-20-20s8.96-20 20-20c11.05 0 20 8.95 20 20z" stroke="#000" stroke-width="2" fill="#fff"/><path d="M1418.22-276.8h10v1.6h-10z" fill="none"/><path d="M1357.12-251c0-2.76 2.23-5 5-5h230c2.76 0 5 2.24 5 5v50c0 2.76-2.24 5-5 5h-230c-2.77 0-5-2.24-5-5z" stroke="#000" stroke-opacity="0" stroke-width="2" fill="#fff" fill-opacity="0"/><g><use xlink:href="#j" transform="matrix(1,0,0,1,1362.1162411003984,-251) translate(7.650000000000006 28.6)"/><use xlink:href="#e" transform="matrix(1,0,0,1,1362.1162411003984,-251) translate(59.60000000000001 28.6)"/><use xlink:href="#m" transform="matrix(1,0,0,1,1362.1162411003984,-251) translate(84.60000000000001 28.6)"/><use xlink:href="#e" transform="matrix(1,0,0,1,1362.1162411003984,-251) translate(136.5 28.6)"/><use xlink:href="#l" transform="matrix(1,0,0,1,1362.1162411003984,-251) translate(161.5 28.6)"/></g><path d="M1151.07-336h83.1v60.33h83.13" stroke="#000" stroke-width="2" fill="none"/><path d="M1151.1-335h-1.15l.12-.96-.04-1.04h1.06zM1318.3-274.67h-1.03v-2h1.03z"/><path d="M777.15-495c0-2.76 2.24-5 5-5h230c2.76 0 5 2.24 5 5v50c0 2.76-2.24 5-5 5h-230c-2.76 0-5-2.24-5-5z" stroke="#000" stroke-opacity="0" stroke-width="2" fill="#fff" fill-opacity="0"/><g><use xlink:href="#n" transform="matrix(1,0,0,1,782.1495746004189,-495) translate(90.55555555555556 29.88888888888889)"/></g><defs><path d="M67-125c0 54 23 88 75 88 28 0 53-7 68-21v-34h-60v-39h108v91C232-14 192 4 140 4 58 4 20-42 15-125 8-236 126-280 215-234c19 10 29 26 37 47l-47 15c-11-23-29-39-63-39-53 1-75 33-75 86" id="o"/><path d="M182-182c0 78-84 86-111 141h115V0H12c-6-101 99-100 120-180 1-22-12-31-33-32-23 0-32 14-35 34l-49-3c5-45 32-70 84-70 51 0 83 22 83 69" id="p"/><path d="M24-248c93 1 206-16 204 79-1 75-69 88-152 82V0H24v-248zm52 121c47 0 100 7 100-41 0-47-54-39-100-39v80" id="q"/><g id="a"><use transform="matrix(0.05,0,0,0.05,0,0)" xlink:href="#o"/><use transform="matrix(0.05,0,0,0.05,14,0)" xlink:href="#p"/><use transform="matrix(0.05,0,0,0.05,24,0)" xlink:href="#q"/></g><path d="M30-248c118-7 216 8 213 122C240-48 200 0 122 0H30v-248zM63-27c89 8 146-16 146-99s-60-101-146-95v194" id="r"/><path d="M24-231v-30h32v30H24zM24 0v-190h32V0H24" id="s"/><path d="M96-169c-40 0-48 33-48 73s9 75 48 75c24 0 41-14 43-38l32 2c-6 37-31 61-74 61-59 0-76-41-82-99-10-93 101-131 147-64 4 7 5 14 7 22l-32 3c-4-21-16-35-41-35" id="t"/><path d="M100-194c62-1 85 37 85 99 1 63-27 99-86 99S16-35 15-95c0-66 28-99 85-99zM99-20c44 1 53-31 53-75 0-43-8-75-51-75s-53 32-53 75 10 74 51 75" id="u"/><path d="M117-194c89-4 53 116 60 194h-32v-121c0-31-8-49-39-48C34-167 62-67 57 0H25l-1-190h30c1 10-1 24 2 32 11-22 29-35 61-36" id="v"/><path d="M141-36C126-15 110 5 73 4 37 3 15-17 15-53c-1-64 63-63 125-63 3-35-9-54-41-54-24 1-41 7-42 31l-33-3c5-37 33-52 76-52 45 0 72 20 72 64v82c-1 20 7 32 28 27v20c-31 9-61-2-59-35zM48-53c0 20 12 33 32 33 41-3 63-29 60-74-43 2-92-5-92 41" id="w"/><path d="M114-163C36-179 61-72 57 0H25l-1-190h30c1 12-1 29 2 39 6-27 23-49 58-41v29" id="x"/><g id="b"><use transform="matrix(0.05,0,0,0.05,0,0)" xlink:href="#r"/><use transform="matrix(0.05,0,0,0.05,12.950000000000001,0)" xlink:href="#s"/><use transform="matrix(0.05,0,0,0.05,16.900000000000002,0)" xlink:href="#t"/><use transform="matrix(0.05,0,0,0.05,25.900000000000002,0)" xlink:href="#t"/><use transform="matrix(0.05,0,0,0.05,34.900000000000006,0)" xlink:href="#s"/><use transform="matrix(0.05,0,0,0.05,38.85000000000001,0)" xlink:href="#u"/><use transform="matrix(0.05,0,0,0.05,48.85000000000001,0)" xlink:href="#v"/><use transform="matrix(0.05,0,0,0.05,58.85,0)" xlink:href="#w"/><use transform="matrix(0.05,0,0,0.05,68.85000000000001,0)" xlink:href="#x"/><use transform="matrix(0.05,0,0,0.05,74.80000000000001,0)" xlink:href="#s"/><use transform="matrix(0.05,0,0,0.05,78.75000000000001,0)" xlink:href="#u"/></g><path d="M63-220v92h138v28H63V0H30v-248h175v28H63" id="y"/><path d="M100-194c63 0 86 42 84 106H49c0 40 14 67 53 68 26 1 43-12 49-29l28 8c-11 28-37 45-77 45C44 4 14-33 15-96c1-61 26-98 85-98zm52 81c6-60-76-77-97-28-3 7-6 17-6 28h103zm-74-98c8-23 27-35 38-54h36v5l-58 49H78" id="z"/><path d="M59-47c-2 24 18 29 38 22v24C64 9 27 4 27-40v-127H5v-23h24l9-43h21v43h35v23H59v120" id="A"/><g id="c"><use transform="matrix(0.05,0,0,0.05,0,0)" xlink:href="#y"/><use transform="matrix(0.05,0,0,0.05,10.950000000000001,0)" xlink:href="#u"/><use transform="matrix(0.05,0,0,0.05,20.950000000000003,0)" xlink:href="#v"/><use transform="matrix(0.05,0,0,0.05,30.950000000000003,0)" xlink:href="#z"/><use transform="matrix(0.05,0,0,0.05,40.95,0)" xlink:href="#A"/><use transform="matrix(0.05,0,0,0.05,45.95,0)" xlink:href="#s"/><use transform="matrix(0.05,0,0,0.05,49.900000000000006,0)" xlink:href="#t"/><use transform="matrix(0.05,0,0,0.05,58.900000000000006,0)" xlink:href="#u"/></g><path d="M143 4C61 4 22-44 18-125c-5-107 100-154 193-111 17 8 29 25 37 43l-32 9c-13-25-37-40-76-40-61 0-88 39-88 99 0 61 29 100 91 101 35 0 62-11 79-27v-45h-74v-28h105v86C228-13 192 4 143 4" id="B"/><path d="M100-194c63 0 86 42 84 106H49c0 40 14 67 53 68 26 1 43-12 49-29l28 8c-11 28-37 45-77 45C44 4 14-33 15-96c1-61 26-98 85-98zm52 81c6-60-76-77-97-28-3 7-6 17-6 28h103" id="C"/><path d="M100-194c62-1 85 37 85 99 1 63-27 99-86 99S16-35 15-95c0-66 28-99 85-99zM99-20c44 1 53-31 53-75 0-43-8-75-51-75s-53 32-53 75 10 74 51 75zM76-211c8-23 27-35 38-54h36v5l-58 49H76" id="D"/><g id="d"><use transform="matrix(0.05,0,0,0.05,0,0)" xlink:href="#B"/><use transform="matrix(0.05,0,0,0.05,14,0)" xlink:href="#C"/><use transform="matrix(0.05,0,0,0.05,24,0)" xlink:href="#v"/><use transform="matrix(0.05,0,0,0.05,34,0)" xlink:href="#C"/><use transform="matrix(0.05,0,0,0.05,44,0)" xlink:href="#x"/><use transform="matrix(0.05,0,0,0.05,49.95,0)" xlink:href="#w"/><use transform="matrix(0.05,0,0,0.05,59.95,0)" xlink:href="#t"/><use transform="matrix(0.05,0,0,0.05,68.95,0)" xlink:href="#s"/><use transform="matrix(0.05,0,0,0.05,72.9,0)" xlink:href="#D"/><use transform="matrix(0.05,0,0,0.05,82.9,0)" xlink:href="#v"/></g><path d="M85-194c31 0 48 13 60 33l-1-100h32l1 261h-30c-2-10 0-23-3-31C134-8 116 4 85 4 32 4 16-35 15-94c0-66 23-100 70-100zm9 24c-40 0-46 34-46 75 0 40 6 74 45 74 42 0 51-32 51-76 0-42-9-74-50-73" id="E"/><g id="e"><use transform="matrix(0.05,0,0,0.05,0,0)" xlink:href="#E"/><use transform="matrix(0.05,0,0,0.05,10,0)" xlink:href="#C"/></g><path d="M240 0l2-218c-23 76-54 145-80 218h-23L58-218 59 0H30v-248h44l77 211c21-75 51-140 76-211h43V0h-30" id="F"/><path d="M24 0v-261h32V0H24" id="G"/><g id="f"><use transform="matrix(0.05,0,0,0.05,0,0)" xlink:href="#F"/><use transform="matrix(0.05,0,0,0.05,14.950000000000001,0)" xlink:href="#u"/><use transform="matrix(0.05,0,0,0.05,24.950000000000003,0)" xlink:href="#E"/><use transform="matrix(0.05,0,0,0.05,34.95,0)" xlink:href="#C"/><use transform="matrix(0.05,0,0,0.05,44.95,0)" xlink:href="#G"/><use transform="matrix(0.05,0,0,0.05,48.900000000000006,0)" xlink:href="#u"/></g><path d="M30 0v-248h33v221h125V0H30" id="H"/><path d="M135-143c-3-34-86-38-87 0 15 53 115 12 119 90S17 21 10-45l28-5c4 36 97 45 98 0-10-56-113-15-118-90-4-57 82-63 122-42 12 7 21 19 24 35" id="I"/><g id="g"><use transform="matrix(0.05,0,0,0.05,0,0)" xlink:href="#H"/><use transform="matrix(0.05,0,0,0.05,10,0)" xlink:href="#s"/><use transform="matrix(0.05,0,0,0.05,13.949999999999998,0)" xlink:href="#I"/><use transform="matrix(0.05,0,0,0.05,22.95,0)" xlink:href="#A"/><use transform="matrix(0.05,0,0,0.05,27.950000000000003,0)" xlink:href="#w"/></g><g id="h"><use transform="matrix(0.05,0,0,0.05,0,0)" xlink:href="#E"/><use transform="matrix(0.05,0,0,0.05,10,0)" xlink:href="#C"/></g><path d="M30-248c87 1 191-15 191 75 0 78-77 80-158 76V0H30v-248zm33 125c57 0 124 11 124-50 0-59-68-47-124-48v98" id="J"/><path d="M115-194c53 0 69 39 70 98 0 66-23 100-70 100C84 3 66-7 56-30L54 0H23l1-261h32v101c10-23 28-34 59-34zm-8 174c40 0 45-34 45-75 0-40-5-75-45-74-42 0-51 32-51 76 0 43 10 73 51 73" id="K"/><g id="i"><use transform="matrix(0.05,0,0,0.05,0,0)" xlink:href="#J"/><use transform="matrix(0.05,0,0,0.05,12,0)" xlink:href="#w"/><use transform="matrix(0.05,0,0,0.05,22,0)" xlink:href="#G"/><use transform="matrix(0.05,0,0,0.05,25.950000000000003,0)" xlink:href="#w"/><use transform="matrix(0.05,0,0,0.05,35.95,0)" xlink:href="#K"/><use transform="matrix(0.05,0,0,0.05,45.95,0)" xlink:href="#x"/><use transform="matrix(0.05,0,0,0.05,51.900000000000006,0)" xlink:href="#w"/><use transform="matrix(0.05,0,0,0.05,61.900000000000006,0)" xlink:href="#I"/></g><g id="j"><use transform="matrix(0.05,0,0,0.05,0,0)" xlink:href="#r"/><use transform="matrix(0.05,0,0,0.05,12.950000000000001,0)" xlink:href="#w"/><use transform="matrix(0.05,0,0,0.05,22.950000000000003,0)" xlink:href="#A"/><use transform="matrix(0.05,0,0,0.05,27.950000000000003,0)" xlink:href="#u"/><use transform="matrix(0.05,0,0,0.05,37.95,0)" xlink:href="#I"/></g><g id="k"><use transform="matrix(0.05,0,0,0.05,0,0)" xlink:href="#C"/><use transform="matrix(0.05,0,0,0.05,10,0)" xlink:href="#v"/><use transform="matrix(0.05,0,0,0.05,20,0)" xlink:href="#A"/><use transform="matrix(0.05,0,0,0.05,25,0)" xlink:href="#x"/><use transform="matrix(0.05,0,0,0.05,30.950000000000003,0)" xlink:href="#w"/><use transform="matrix(0.05,0,0,0.05,40.95,0)" xlink:href="#E"/><use transform="matrix(0.05,0,0,0.05,50.95,0)" xlink:href="#w"/></g><path d="M108 0H70L1-190h34L89-25l56-165h34" id="L"/><g id="l"><use transform="matrix(0.05,0,0,0.05,0,0)" xlink:href="#I"/><use transform="matrix(0.05,0,0,0.05,9,0)" xlink:href="#C"/><use transform="matrix(0.05,0,0,0.05,19,0)" xlink:href="#x"/><use transform="matrix(0.05,0,0,0.05,24.95,0)" xlink:href="#L"/><use transform="matrix(0.05,0,0,0.05,33.95,0)" xlink:href="#s"/><use transform="matrix(0.05,0,0,0.05,37.900000000000006,0)" xlink:href="#t"/><use transform="matrix(0.05,0,0,0.05,46.900000000000006,0)" xlink:href="#s"/><use transform="matrix(0.05,0,0,0.05,50.85000000000001,0)" xlink:href="#u"/></g><g id="m"><use transform="matrix(0.05,0,0,0.05,0,0)" xlink:href="#I"/><use transform="matrix(0.05,0,0,0.05,9,0)" xlink:href="#w"/><use transform="matrix(0.05,0,0,0.05,19,0)" xlink:href="#G"/><use transform="matrix(0.05,0,0,0.05,22.95,0)" xlink:href="#s"/><use transform="matrix(0.05,0,0,0.05,26.899999999999995,0)" xlink:href="#E"/><use transform="matrix(0.05,0,0,0.05,36.9,0)" xlink:href="#w"/></g><g id="n"><use transform="matrix(0.06790123456790124,0,0,0.06790123456790124,0,0)" xlink:href="#o"/><use transform="matrix(0.06790123456790124,0,0,0.06790123456790124,19.01234567901235,0)" xlink:href="#p"/><use transform="matrix(0.06790123456790124,0,0,0.06790123456790124,32.592592592592595,0)" xlink:href="#q"/></g></defs></g></svg>