<svg xmlns="http://www.w3.org/2000/svg" xmlns:xlink="http://www.w3.org/1999/xlink" xmlns:lucid="lucid" width="1400" height="750"><g transform="translate(-180 740)" lucid:page-tab-id="0_0"><path d="M450.07-660c-2.76 0-5 2.24-5 5v640c0 2.76 2.24 5 5 5h834.18c2.76 0 5-2.24 5-5v-640c0-2.76-2.24-5-5-5z" stroke="#000" stroke-width="2" fill="#fff"/><path d="M1279.25-650h-15v20h15z" stroke="#000" fill="#fff"/><path d="M1269.25-646.67h-10v3.34h10zm0 10h-10v3.34h10z" stroke="#000" fill="#fff"/><path d="M1377.93-230h-75.26" stroke="#000" stroke-width="2" fill="none"/><path d="M1378.93-229h-1.03v-2h1.03zM1302.7-229h-1.03v-2h1.02z"/><path d="M1280-240h20.67v20.67H1280zM770.03-640c0-2.76 2.24-5 5-5h190c2.76 0 5 2.24 5 5v110c0 2.76-2.24 5-5 5h-190c-2.76 0-5-2.24-5-5z" stroke="#000" stroke-width="2" fill="#fff"/><path d="M750.03-620c0-2.76 2.24-5 5-5h30c2.76 0 5 2.24 5 5v10c0 2.76-2.24 5-5 5h-30c-2.76 0-5-2.24-5-5zM750.03-560c0-2.76 2.24-5 5-5h30c2.76 0 5 2.24 5 5v10c0 2.76-2.24 5-5 5h-30c-2.76 0-5-2.24-5-5z" stroke="#000" stroke-width="2" fill="#fff"/><use xlink:href="#a" transform="matrix(1,0,0,1,794.0333335000205,-633) translate(59 51.6)"/><path d="M770.03-422.5c0-2.76 2.24-5 5-5h190c2.76 0 5 2.24 5 5v110c0 2.76-2.24 5-5 5h-190c-2.76 0-5-2.24-5-5z" stroke="#000" stroke-width="2" fill="#fff"/><path d="M750.03-402.5c0-2.76 2.24-5 5-5h30c2.76 0 5 2.24 5 5v10c0 2.76-2.24 5-5 5h-30c-2.76 0-5-2.24-5-5zM750.03-342.5c0-2.76 2.24-5 5-5h30c2.76 0 5 2.24 5 5v10c0 2.76-2.24 5-5 5h-30c-2.76 0-5-2.24-5-5z" stroke="#000" stroke-width="2" fill="#fff"/><use xlink:href="#b" transform="matrix(1,0,0,1,794.0333335000205,-415.5) translate(49.074999999999996 51.6)"/><path d="M770.07-165c0-2.76 2.24-5 5-5h190c2.76 0 5 2.24 5 5v110c0 2.76-2.24 5-5 5h-190c-2.76 0-5-2.24-5-5z" stroke="#000" stroke-width="2" fill="#fff"/><path d="M750.07-145c0-2.76 2.24-5 5-5h30c2.76 0 5 2.24 5 5v10c0 2.76-2.24 5-5 5h-30c-2.76 0-5-2.24-5-5zM750.07-85c0-2.76 2.24-5 5-5h30c2.76 0 5 2.24 5 5v10c0 2.76-2.24 5-5 5h-30c-2.76 0-5-2.24-5-5z" stroke="#000" stroke-width="2" fill="#fff"/><use xlink:href="#c" transform="matrix(1,0,0,1,794.0666670000412,-158) translate(18.599999999999994 51.6)"/><path d="M876-490h135.03v-95h-39" stroke="#000" stroke-width="2" fill="none"/><path d="M876.03-489H875v-2h1.03zM972.06-584h-1.03v-2h1.03z"/><path d="M875-490h-11M830-490h-5M850-510c-11.05 0-20 8.95-20 20s8.95 20 20 20" stroke="#000" stroke-width="2" fill="none"/><path d="M850-476c-7.73 0-14-6.27-14-14s6.27-14 14-14 14 6.27 14 14-6.27 14-14 14z" stroke="#000" stroke-width="2" fill="#fff"/><path d="M875-490c0 .44-.36.8-.8.8h-9.4c-.44 0-.8-.36-.8-.8 0-.44.36-.8.8-.8h9.4c.44 0 .8.36.8.8z" fill="none"/><path d="M824-490H709.03v92.23h39" stroke="#000" stroke-width="2" fill="none"/><path d="M825-489h-1.03v-2H825zM749.03-396.77H748v-2h1.03z"/><path d="M875-260h-11M830-260h-5M850-280c-11.05 0-20 8.95-20 20s8.95 20 20 20" stroke="#000" stroke-width="2" fill="none"/><path d="M850-246c-7.73 0-14-6.27-14-14s6.27-14 14-14 14 6.27 14 14-6.27 14-14 14z" stroke="#000" stroke-width="2" fill="#fff"/><path d="M875-260c0 .44-.36.8-.8.8h-9.4c-.44 0-.8-.36-.8-.8 0-.44.36-.8.8-.8h9.4c.44 0 .8.36.8.8z" fill="none"/><path d="M972.03-367.5h39V-260H876" stroke="#000" stroke-width="2" fill="none"/><path d="M972.06-366.5h-1.03v-2h1.03zM876.03-259H875v-2h1.03z"/><path d="M824-260H709.07v119.73h39" stroke="#000" stroke-width="2" fill="none"/><path d="M825-259h-1.03v-2H825zM749.07-139.27h-1.03v-2h1.03z"/><path d="M700-480c0-2.76 2.24-5 5-5h290c2.76 0 5 2.24 5 5v55c0 2.76-2.24 5-5 5H705c-2.76 0-5-2.24-5-5z" stroke="#000" stroke-opacity="0" stroke-width="2" fill="#fff" fill-opacity="0"/><use xlink:href="#d" transform="matrix(1,0,0,1,705,-480) translate(52.67499999999998 31.1)"/><use xlink:href="#e" transform="matrix(1,0,0,1,705,-480) translate(146.425 31.1)"/><path d="M710.03-245c0-2.76 2.24-5 5-5h290c2.76 0 5 2.24 5 5v55c0 2.76-2.24 5-5 5h-290c-2.76 0-5-2.24-5-5z" stroke="#000" stroke-opacity="0" stroke-width="2" fill="#fff" fill-opacity="0"/><use xlink:href="#f" transform="matrix(1,0,0,1,715.0333335000205,-245.00000000000006) translate(26.674999999999983 31.1)"/><use xlink:href="#g" transform="matrix(1,0,0,1,715.0333335000205,-245.00000000000006) translate(90.57499999999999 31.1)"/><use xlink:href="#h" transform="matrix(1,0,0,1,715.0333335000205,-245.00000000000006) translate(115.57499999999999 31.1)"/><use xlink:href="#i" transform="matrix(1,0,0,1,715.0333335000205,-245.00000000000006) translate(188.475 31.1)"/><path d="M1378.93-230h10m40 0c0 11.05-8.96 20-20 20-11.05 0-20-8.95-20-20s8.95-20 20-20c11.04 0 20 8.95 20 20z" stroke="#000" stroke-width="2" fill="#fff"/><path d="M1378.93-230.8h10v1.6h-10z" fill="none"/><path d="M1085-110h10m40 0c0 11.05-8.95 20-20 20s-20-8.95-20-20 8.95-20 20-20 20 8.95 20 20z" stroke="#000" stroke-width="2" fill="#fff"/><path d="M1085-110.8h10v1.6h-10z" fill="none"/><path d="M972.07-110H1084" stroke="#000" stroke-width="2" fill="none"/><path d="M972.1-109h-1.03v-2h1.02zM1085-109h-1.03v-2h1.03z"/><path d="M960-92.5c0-2.76 2.24-5 5-5h290c2.76 0 5 2.24 5 5v55c0 2.76-2.24 5-5 5H965c-2.76 0-5-2.24-5-5z" stroke="#000" stroke-opacity="0" stroke-width="2" fill="#fff" fill-opacity="0"/><use xlink:href="#f" transform="matrix(1,0,0,1,965,-92.5) translate(40.07499999999999 31.1)"/><use xlink:href="#j" transform="matrix(1,0,0,1,965,-92.5) translate(103.975 31.1)"/><use xlink:href="#k" transform="matrix(1,0,0,1,965,-92.5) translate(174.925 31.1)"/><path d="M1137-110h70.5v-119.67h69.68" stroke="#000" stroke-width="2" fill="none"/><path d="M1137.03-109h-1.15l.12-.96-.03-1.04h1.06z"/><path d="M1259.82-219.5l17.22-10.17-17.22-10.18" stroke="#000" stroke-width="2" fill="none"/><path d="M434.67-410h20.66v20.67h-20.66z" stroke="#000" stroke-width="2" fill="#fff"/><path d="M590-565h11M635-565h5M615-545c11.05 0 20-8.95 20-20s-8.95-20-20-20" stroke="#000" stroke-width="2" fill="none"/><path d="M615-579c7.73 0 14 6.27 14 14s-6.27 14-14 14-14-6.27-14-14 6.27-14 14-14z" stroke="#000" stroke-width="2" fill="#fff"/><path d="M590-565c0-.44.36-.8.8-.8h9.4c.44 0 .8.36.8.8 0 .44-.36.8-.8.8h-9.4c-.44 0-.8-.36-.8-.8z" fill="none"/><path d="M641-565h53.52v-50.27h53.5" stroke="#000" stroke-width="2" fill="none"/><path d="M641.03-564H640v-2h1.03zM749.03-614.27H748v-2h1.03z"/><path d="M615.03-85h11M660.03-85h5M640.03-65c11.05 0 20-8.95 20-20s-8.95-20-20-20" stroke="#000" stroke-width="2" fill="none"/><path d="M640.03-99c7.74 0 14 6.27 14 14s-6.26 14-14 14c-7.73 0-14-6.27-14-14s6.27-14 14-14z" stroke="#000" stroke-width="2" fill="#fff"/><path d="M615.03-85c0-.44.36-.8.8-.8h9.4c.45 0 .8.36.8.8 0 .44-.35.8-.8.8h-9.4c-.44 0-.8-.36-.8-.8z" fill="none"/><path d="M666.03-85h82.04" stroke="#000" stroke-width="2" fill="none"/><path d="M666.06-84h-1.03v-2h1.03zM749.07-85.16V-84h-1.03v-2h1.3z"/><path d="M457.33-399.67H510V-565h79" stroke="#000" stroke-width="2" fill="none"/><path d="M457.36-398.67h-1.03v-2h1.03zM590-564h-1.03v-2H590z"/><path d="M545-560c0-2.76 2.24-5 5-5h130c2.76 0 5 2.24 5 5v55c0 2.76-2.24 5-5 5H550c-2.76 0-5-2.24-5-5z" stroke="#000" stroke-opacity="0" stroke-width="2" fill="#fff" fill-opacity="0"/><use xlink:href="#l" transform="matrix(1,0,0,1,550,-560) translate(11.449999999999996 31.1)"/><path d="M593.3-337.5h11M638.3-337.5h5M618.3-317.5c11.03 0 20-8.95 20-20s-8.97-20-20-20" stroke="#000" stroke-width="2" fill="none"/><path d="M618.3-351.5c7.72 0 14 6.27 14 14s-6.28 14-14 14c-7.74 0-14-6.27-14-14s6.26-14 14-14z" stroke="#000" stroke-width="2" fill="#fff"/><path d="M593.3-337.5c0-.44.35-.8.8-.8h9.4c.43 0 .8.36.8.8 0 .44-.37.8-.8.8h-9.4c-.45 0-.8-.36-.8-.8z" fill="none"/><path d="M570.03-330c0-2.76 2.24-5 5-5h130c2.76 0 5 2.24 5 5v55c0 2.76-2.24 5-5 5h-130c-2.76 0-5-2.24-5-5z" stroke="#000" stroke-opacity="0" stroke-width="2" fill="#fff" fill-opacity="0"/><use xlink:href="#l" transform="matrix(1,0,0,1,575.0333335000205,-330) translate(11.449999999999996 31.1)"/><path d="M592.3-337.5H510v-62.17h-52.67" stroke="#000" stroke-width="2" fill="none"/><path d="M593.3-336.5h-1.04v-2h1.03zM457.36-398.67h-1.03v-2h1.03z"/><path d="M644.3-337.5H748.02" stroke="#000" stroke-width="2" fill="none"/><path d="M644.3-336.5h-1v-2h1zM749.03-336.5H748v-2h1.03z"/><path d="M457.33-399.67H510V-85h104.03" stroke="#000" stroke-width="2" fill="none"/><path d="M457.36-398.67h-1.03v-2h1.03zM615.03-84H614v-2h1.03z"/><path d="M570.03-70c0-2.76 2.24-5 5-5h130c2.76 0 5 2.24 5 5v55c0 2.76-2.24 5-5 5h-130c-2.76 0-5-2.24-5-5z" stroke="#000" stroke-opacity="0" stroke-width="2" fill="#fff" fill-opacity="0"/><use xlink:href="#m" transform="matrix(1,0,0,1,575.0333335000205,-70) translate(42.025 31.1)"/><path d="M351-399.67h81.67" stroke="#000" stroke-width="2" fill="none"/><path d="M351.03-398.67H350v-2h1.03zM433.67-398.67h-1.03v-2h1.03z"/><path d="M200-384.33c0-2.76 2.24-5 5-5h230c2.76 0 5 2.24 5 5v50c0 2.76-2.24 5-5 5H205c-2.76 0-5-2.24-5-5z" stroke="#000" stroke-opacity="0" stroke-width="2" fill="#fff" fill-opacity="0"/><g><use xlink:href="#n" transform="matrix(1,0,0,1,205,-384.33333333333326) translate(0.625 28.6)"/><use xlink:href="#g" transform="matrix(1,0,0,1,205,-384.33333333333326) translate(52.575 28.6)"/><use xlink:href="#o" transform="matrix(1,0,0,1,205,-384.33333333333326) translate(77.575 28.6)"/><use xlink:href="#g" transform="matrix(1,0,0,1,205,-384.33333333333326) translate(143.525 28.6)"/><use xlink:href="#p" transform="matrix(1,0,0,1,205,-384.33333333333326) translate(168.525 28.6)"/></g><path d="M1320-205c0-2.76 2.24-5 5-5h230c2.76 0 5 2.24 5 5v50c0 2.76-2.24 5-5 5h-230c-2.76 0-5-2.24-5-5z" stroke="#000" stroke-opacity="0" stroke-width="2" fill="#fff" fill-opacity="0"/><g><use xlink:href="#n" transform="matrix(1,0,0,1,1325,-205) translate(7.650000000000006 28.6)"/><use xlink:href="#g" transform="matrix(1,0,0,1,1325,-205) translate(59.60000000000001 28.6)"/><use xlink:href="#q" transform="matrix(1,0,0,1,1325,-205) translate(84.60000000000001 28.6)"/><use xlink:href="#g" transform="matrix(1,0,0,1,1325,-205) translate(136.5 28.6)"/><use xlink:href="#p" transform="matrix(1,0,0,1,1325,-205) translate(161.5 28.6)"/></g><path d="M740.03-715c0-2.76 2.24-5 5-5h230c2.76 0 5 2.24 5 5v50c0 2.76-2.24 5-5 5h-230c-2.76 0-5-2.24-5-5z" stroke="#000" stroke-opacity="0" stroke-width="2" fill="#fff" fill-opacity="0"/><g><use xlink:href="#r" transform="matrix(1,0,0,1,745.0333335000323,-715) translate(56.09567901234567 29.88888888888889)"/></g><path d="M340-399.67h10m-30-20c11.05 0 20 8.96 20 20 0 11.05-8.95 20-20 20" stroke="#000" stroke-width="2" fill="none"/><path d="M320-419.67c11.05 0 20 8.96 20 20 0 11.05-8.95 20-20 20zM340-399.67c0-.44.36-.8.8-.8h8.4c.44 0 .8.36.8.8 0 .45-.36.8-.8.8h-8.4c-.44 0-.8-.35-.8-.8z" fill="none"/><path d="M748.07-140.27H570V-490h254" stroke="#000" stroke-width="2" fill="none"/><path d="M749.07-139.27h-1.03v-2h1.03zM825-489h-1.03v-2H825z"/><defs><path d="M67-125c0 54 23 88 75 88 28 0 53-7 68-21v-34h-60v-39h108v91C232-14 192 4 140 4 58 4 20-42 15-125 8-236 126-280 215-234c19 10 29 26 37 47l-47 15c-11-23-29-39-63-39-53 1-75 33-75 86" id="s"/><path d="M182-182c0 78-84 86-111 141h115V0H12c-6-101 99-100 120-180 1-22-12-31-33-32-23 0-32 14-35 34l-49-3c5-45 32-70 84-70 51 0 83 22 83 69" id="t"/><path d="M24-248c93 1 206-16 204 79-1 75-69 88-152 82V0H24v-248zm52 121c47 0 100 7 100-41 0-47-54-39-100-39v80" id="u"/><g id="a"><use transform="matrix(0.05,0,0,0.05,0,0)" xlink:href="#s"/><use transform="matrix(0.05,0,0,0.05,14,0)" xlink:href="#t"/><use transform="matrix(0.05,0,0,0.05,24,0)" xlink:href="#u"/></g><path d="M169-182c-1-43-94-46-97-3 18 66 151 10 154 114 3 95-165 93-204 36-6-8-10-19-12-30l50-8c3 46 112 56 116 5-17-69-150-10-154-114-4-87 153-88 188-35 5 8 8 18 10 28" id="v"/><path d="M240-174c0 40-23 61-54 70L253 0h-59l-57-94H76V0H24v-248c93 4 217-23 216 74zM76-134c48-2 112 12 112-38 0-48-66-32-112-35v73" id="w"/><path d="M24 0v-248h52V0H24" id="x"/><path d="M24 0v-248h52v208h133V0H24" id="y"/><path d="M230 0l2-204L168 0h-37L68-204 70 0H24v-248h70l56 185 57-185h69V0h-46" id="z"/><g id="b"><use transform="matrix(0.05,0,0,0.05,0,0)" xlink:href="#v"/><use transform="matrix(0.05,0,0,0.05,12,0)" xlink:href="#w"/><use transform="matrix(0.05,0,0,0.05,24.950000000000003,0)" xlink:href="#x"/><use transform="matrix(0.05,0,0,0.05,29.950000000000003,0)" xlink:href="#y"/><use transform="matrix(0.05,0,0,0.05,40.900000000000006,0)" xlink:href="#z"/></g><path d="M186 0v-106H76V0H24v-248h52v99h110v-99h50V0h-50" id="A"/><path d="M175 0L67-191c6 58 2 128 3 191H24v-248h59L193-55c-6-58-2-129-3-193h46V0h-61" id="B"/><path d="M182 0l-62-99L58 0H3l86-130-79-118h55l55 88 55-88h55l-75 118L237 0h-55" id="C"/><path d="M182-130c37 4 62 22 62 59C244 23 116-4 24 0v-248c84 5 203-23 205 63 0 31-19 50-47 55zM76-148c40-3 101 13 101-30 0-44-60-28-101-31v61zm0 110c48-3 116 14 116-37 0-48-69-32-116-35v72" id="D"/><path d="M199 0l-22-63H83L61 0H9l90-248h61L250 0h-51zm-33-102l-36-108c-10 38-24 72-36 108h72" id="E"/><path d="M24 0v-248h195v40H76v63h132v40H76v65h150V0H24" id="F"/><g id="c"><use transform="matrix(0.05,0,0,0.05,0,0)" xlink:href="#v"/><use transform="matrix(0.05,0,0,0.05,12,0)" xlink:href="#u"/><use transform="matrix(0.05,0,0,0.05,24,0)" xlink:href="#A"/><use transform="matrix(0.05,0,0,0.05,36.95,0)" xlink:href="#x"/><use transform="matrix(0.05,0,0,0.05,41.95,0)" xlink:href="#B"/><use transform="matrix(0.05,0,0,0.05,54.900000000000006,0)" xlink:href="#C"/><use transform="matrix(0.05,0,0,0.05,66.9,0)" xlink:href="#D"/><use transform="matrix(0.05,0,0,0.05,79.85000000000001,0)" xlink:href="#E"/><use transform="matrix(0.05,0,0,0.05,92.80000000000001,0)" xlink:href="#v"/><use transform="matrix(0.05,0,0,0.05,104.80000000000001,0)" xlink:href="#F"/></g><path d="M30-248c118-7 216 8 213 122C240-48 200 0 122 0H30v-248zM63-27c89 8 146-16 146-99s-60-101-146-95v194" id="G"/><path d="M24-231v-30h32v30H24zM24 0v-190h32V0H24" id="H"/><path d="M96-169c-40 0-48 33-48 73s9 75 48 75c24 0 41-14 43-38l32 2c-6 37-31 61-74 61-59 0-76-41-82-99-10-93 101-131 147-64 4 7 5 14 7 22l-32 3c-4-21-16-35-41-35" id="I"/><path d="M100-194c62-1 85 37 85 99 1 63-27 99-86 99S16-35 15-95c0-66 28-99 85-99zM99-20c44 1 53-31 53-75 0-43-8-75-51-75s-53 32-53 75 10 74 51 75" id="J"/><path d="M117-194c89-4 53 116 60 194h-32v-121c0-31-8-49-39-48C34-167 62-67 57 0H25l-1-190h30c1 10-1 24 2 32 11-22 29-35 61-36" id="K"/><path d="M141-36C126-15 110 5 73 4 37 3 15-17 15-53c-1-64 63-63 125-63 3-35-9-54-41-54-24 1-41 7-42 31l-33-3c5-37 33-52 76-52 45 0 72 20 72 64v82c-1 20 7 32 28 27v20c-31 9-61-2-59-35zM48-53c0 20 12 33 32 33 41-3 63-29 60-74-43 2-92-5-92 41" id="L"/><path d="M114-163C36-179 61-72 57 0H25l-1-190h30c1 12-1 29 2 39 6-27 23-49 58-41v29" id="M"/><g id="d"><use transform="matrix(0.05,0,0,0.05,0,0)" xlink:href="#G"/><use transform="matrix(0.05,0,0,0.05,12.950000000000001,0)" xlink:href="#H"/><use transform="matrix(0.05,0,0,0.05,16.900000000000002,0)" xlink:href="#I"/><use transform="matrix(0.05,0,0,0.05,25.900000000000002,0)" xlink:href="#I"/><use transform="matrix(0.05,0,0,0.05,34.900000000000006,0)" xlink:href="#H"/><use transform="matrix(0.05,0,0,0.05,38.85000000000001,0)" xlink:href="#J"/><use transform="matrix(0.05,0,0,0.05,48.85000000000001,0)" xlink:href="#K"/><use transform="matrix(0.05,0,0,0.05,58.85,0)" xlink:href="#L"/><use transform="matrix(0.05,0,0,0.05,68.85000000000001,0)" xlink:href="#M"/><use transform="matrix(0.05,0,0,0.05,74.80000000000001,0)" xlink:href="#H"/><use transform="matrix(0.05,0,0,0.05,78.75000000000001,0)" xlink:href="#J"/></g><path d="M59-47c-2 24 18 29 38 22v24C64 9 27 4 27-40v-127H5v-23h24l9-43h21v43h35v23H59v120" id="N"/><path d="M84 4C-5 8 30-112 23-190h32v120c0 31 7 50 39 49 72-2 45-101 50-169h31l1 190h-30c-1-10 1-25-2-33-11 22-28 36-60 37" id="O"/><path d="M24 0v-261h32V0H24" id="P"/><path d="M9 0v-24l116-142H16v-24h144v24L44-24h123V0H9" id="Q"/><path d="M85-194c31 0 48 13 60 33l-1-100h32l1 261h-30c-2-10 0-23-3-31C134-8 116 4 85 4 32 4 16-35 15-94c0-66 23-100 70-100zm9 24c-40 0-46 34-46 75 0 40 6 74 45 74 42 0 51-32 51-76 0-42-9-74-50-73" id="R"/><g id="e"><use transform="matrix(0.05,0,0,0.05,0,0)" xlink:href="#L"/><use transform="matrix(0.05,0,0,0.05,10,0)" xlink:href="#I"/><use transform="matrix(0.05,0,0,0.05,19,0)" xlink:href="#N"/><use transform="matrix(0.05,0,0,0.05,24,0)" xlink:href="#O"/><use transform="matrix(0.05,0,0,0.05,34,0)" xlink:href="#L"/><use transform="matrix(0.05,0,0,0.05,44,0)" xlink:href="#P"/><use transform="matrix(0.05,0,0,0.05,47.95,0)" xlink:href="#H"/><use transform="matrix(0.05,0,0,0.05,51.900000000000006,0)" xlink:href="#Q"/><use transform="matrix(0.05,0,0,0.05,60.900000000000006,0)" xlink:href="#L"/><use transform="matrix(0.05,0,0,0.05,70.9,0)" xlink:href="#R"/><use transform="matrix(0.05,0,0,0.05,80.9,0)" xlink:href="#J"/></g><path d="M240 0l2-218c-23 76-54 145-80 218h-23L58-218 59 0H30v-248h44l77 211c21-75 51-140 76-211h43V0h-30" id="S"/><path d="M100-194c63 0 86 42 84 106H49c0 40 14 67 53 68 26 1 43-12 49-29l28 8c-11 28-37 45-77 45C44 4 14-33 15-96c1-61 26-98 85-98zm52 81c6-60-76-77-97-28-3 7-6 17-6 28h103" id="T"/><g id="f"><use transform="matrix(0.05,0,0,0.05,0,0)" xlink:href="#S"/><use transform="matrix(0.05,0,0,0.05,14.950000000000001,0)" xlink:href="#J"/><use transform="matrix(0.05,0,0,0.05,24.950000000000003,0)" xlink:href="#R"/><use transform="matrix(0.05,0,0,0.05,34.95,0)" xlink:href="#T"/><use transform="matrix(0.05,0,0,0.05,44.95,0)" xlink:href="#P"/><use transform="matrix(0.05,0,0,0.05,48.900000000000006,0)" xlink:href="#J"/></g><g id="g"><use transform="matrix(0.05,0,0,0.05,0,0)" xlink:href="#R"/><use transform="matrix(0.05,0,0,0.05,10,0)" xlink:href="#T"/></g><path d="M177-190C167-65 218 103 67 71c-23-6-38-20-44-43l32-5c15 47 100 32 89-28v-30C133-14 115 1 83 1 29 1 15-40 15-95c0-56 16-97 71-98 29-1 48 16 59 35 1-10 0-23 2-32h30zM94-22c36 0 50-32 50-73 0-42-14-75-50-75-39 0-46 34-46 75s6 73 46 73" id="U"/><path d="M24-231v-30h32v30H24zM-9 49c24 4 33-6 33-30v-209h32V24c2 40-23 58-65 49V49" id="V"/><g id="h"><use transform="matrix(0.05,0,0,0.05,0,0)" xlink:href="#P"/><use transform="matrix(0.05,0,0,0.05,3.95,0)" xlink:href="#T"/><use transform="matrix(0.05,0,0,0.05,13.949999999999998,0)" xlink:href="#K"/><use transform="matrix(0.05,0,0,0.05,23.95,0)" xlink:href="#U"/><use transform="matrix(0.05,0,0,0.05,33.95,0)" xlink:href="#O"/><use transform="matrix(0.05,0,0,0.05,43.95,0)" xlink:href="#L"/><use transform="matrix(0.05,0,0,0.05,53.95,0)" xlink:href="#V"/><use transform="matrix(0.05,0,0,0.05,57.900000000000006,0)" xlink:href="#T"/></g><path d="M210-169c-67 3-38 105-44 169h-31v-121c0-29-5-50-35-48C34-165 62-65 56 0H25l-1-190h30c1 10-1 24 2 32 10-44 99-50 107 0 11-21 27-35 58-36 85-2 47 119 55 194h-31v-121c0-29-5-49-35-48" id="W"/><g id="i"><use transform="matrix(0.05,0,0,0.05,0,0)" xlink:href="#W"/><use transform="matrix(0.05,0,0,0.05,14.950000000000001,0)" xlink:href="#T"/><use transform="matrix(0.05,0,0,0.05,24.950000000000003,0)" xlink:href="#V"/><use transform="matrix(0.05,0,0,0.05,28.900000000000002,0)" xlink:href="#J"/><use transform="matrix(0.05,0,0,0.05,38.900000000000006,0)" xlink:href="#M"/><use transform="matrix(0.05,0,0,0.05,44.85000000000001,0)" xlink:href="#L"/><use transform="matrix(0.05,0,0,0.05,54.85,0)" xlink:href="#R"/><use transform="matrix(0.05,0,0,0.05,64.85000000000001,0)" xlink:href="#J"/></g><path d="M85 4C-4 8 31-112 24-190h32v120c0 31 7 50 39 49 72-2 45-101 50-169h31l1 190h-30c-1-10 1-25-2-33-11 22-28 36-60 37zM73-211c8-23 27-35 38-54h36v5l-58 49H73" id="X"/><path d="M135-143c-3-34-86-38-87 0 15 53 115 12 119 90S17 21 10-45l28-5c4 36 97 45 98 0-10-56-113-15-118-90-4-57 82-63 122-42 12 7 21 19 24 35" id="Y"/><g id="j"><use transform="matrix(0.05,0,0,0.05,0,0)" xlink:href="#L"/><use transform="matrix(0.05,0,0,0.05,10,0)" xlink:href="#I"/><use transform="matrix(0.05,0,0,0.05,19,0)" xlink:href="#X"/><use transform="matrix(0.05,0,0,0.05,29,0)" xlink:href="#Y"/><use transform="matrix(0.05,0,0,0.05,38,0)" xlink:href="#N"/><use transform="matrix(0.05,0,0,0.05,43,0)" xlink:href="#H"/><use transform="matrix(0.05,0,0,0.05,46.95,0)" xlink:href="#I"/><use transform="matrix(0.05,0,0,0.05,55.95,0)" xlink:href="#J"/></g><path d="M115-194c55 1 70 41 70 98S169 2 115 4C84 4 66-9 55-30l1 105H24l-1-265h31l2 30c10-21 28-34 59-34zm-8 174c40 0 45-34 45-75s-6-73-45-74c-42 0-51 32-51 76 0 43 10 73 51 73" id="Z"/><g id="k"><use transform="matrix(0.05,0,0,0.05,0,0)" xlink:href="#L"/><use transform="matrix(0.05,0,0,0.05,10,0)" xlink:href="#R"/><use transform="matrix(0.05,0,0,0.05,20,0)" xlink:href="#L"/><use transform="matrix(0.05,0,0,0.05,30,0)" xlink:href="#Z"/><use transform="matrix(0.05,0,0,0.05,40,0)" xlink:href="#N"/><use transform="matrix(0.05,0,0,0.05,45,0)" xlink:href="#L"/><use transform="matrix(0.05,0,0,0.05,55,0)" xlink:href="#R"/><use transform="matrix(0.05,0,0,0.05,65,0)" xlink:href="#J"/></g><path d="M127-220V0H93v-220H8v-28h204v28h-85" id="aa"/><path d="M100-194c62-1 85 37 85 99 1 63-27 99-86 99S16-35 15-95c0-66 28-99 85-99zM99-20c44 1 53-31 53-75 0-43-8-75-51-75s-53 32-53 75 10 74 51 75zM76-211c8-23 27-35 38-54h36v5l-58 49H76" id="ab"/><g id="l"><use transform="matrix(0.05,0,0,0.05,0,0)" xlink:href="#aa"/><use transform="matrix(0.05,0,0,0.05,10.3,0)" xlink:href="#M"/><use transform="matrix(0.05,0,0,0.05,16.25,0)" xlink:href="#L"/><use transform="matrix(0.05,0,0,0.05,26.25,0)" xlink:href="#K"/><use transform="matrix(0.05,0,0,0.05,36.25,0)" xlink:href="#Y"/><use transform="matrix(0.05,0,0,0.05,45.25,0)" xlink:href="#I"/><use transform="matrix(0.05,0,0,0.05,54.25,0)" xlink:href="#M"/><use transform="matrix(0.05,0,0,0.05,60.2,0)" xlink:href="#H"/><use transform="matrix(0.05,0,0,0.05,64.15,0)" xlink:href="#Z"/><use transform="matrix(0.05,0,0,0.05,74.15,0)" xlink:href="#I"/><use transform="matrix(0.05,0,0,0.05,83.15,0)" xlink:href="#H"/><use transform="matrix(0.05,0,0,0.05,87.10000000000001,0)" xlink:href="#ab"/><use transform="matrix(0.05,0,0,0.05,97.10000000000001,0)" xlink:href="#K"/></g><path d="M205 0l-28-72H64L36 0H1l101-248h38L239 0h-34zm-38-99l-47-123c-12 45-31 82-46 123h93" id="ac"/><g id="m"><use transform="matrix(0.05,0,0,0.05,0,0)" xlink:href="#ac"/><use transform="matrix(0.05,0,0,0.05,12,0)" xlink:href="#O"/><use transform="matrix(0.05,0,0,0.05,22,0)" xlink:href="#R"/><use transform="matrix(0.05,0,0,0.05,32,0)" xlink:href="#H"/><use transform="matrix(0.05,0,0,0.05,35.95,0)" xlink:href="#J"/></g><g id="n"><use transform="matrix(0.05,0,0,0.05,0,0)" xlink:href="#G"/><use transform="matrix(0.05,0,0,0.05,12.950000000000001,0)" xlink:href="#L"/><use transform="matrix(0.05,0,0,0.05,22.950000000000003,0)" xlink:href="#N"/><use transform="matrix(0.05,0,0,0.05,27.950000000000003,0)" xlink:href="#J"/><use transform="matrix(0.05,0,0,0.05,37.95,0)" xlink:href="#Y"/></g><g id="o"><use transform="matrix(0.05,0,0,0.05,0,0)" xlink:href="#T"/><use transform="matrix(0.05,0,0,0.05,10,0)" xlink:href="#K"/><use transform="matrix(0.05,0,0,0.05,20,0)" xlink:href="#N"/><use transform="matrix(0.05,0,0,0.05,25,0)" xlink:href="#M"/><use transform="matrix(0.05,0,0,0.05,30.950000000000003,0)" xlink:href="#L"/><use transform="matrix(0.05,0,0,0.05,40.95,0)" xlink:href="#R"/><use transform="matrix(0.05,0,0,0.05,50.95,0)" xlink:href="#L"/></g><path d="M108 0H70L1-190h34L89-25l56-165h34" id="ad"/><g id="p"><use transform="matrix(0.05,0,0,0.05,0,0)" xlink:href="#Y"/><use transform="matrix(0.05,0,0,0.05,9,0)" xlink:href="#T"/><use transform="matrix(0.05,0,0,0.05,19,0)" xlink:href="#M"/><use transform="matrix(0.05,0,0,0.05,24.95,0)" xlink:href="#ad"/><use transform="matrix(0.05,0,0,0.05,33.95,0)" xlink:href="#H"/><use transform="matrix(0.05,0,0,0.05,37.900000000000006,0)" xlink:href="#I"/><use transform="matrix(0.05,0,0,0.05,46.900000000000006,0)" xlink:href="#H"/><use transform="matrix(0.05,0,0,0.05,50.85000000000001,0)" xlink:href="#J"/></g><g id="q"><use transform="matrix(0.05,0,0,0.05,0,0)" xlink:href="#Y"/><use transform="matrix(0.05,0,0,0.05,9,0)" xlink:href="#L"/><use transform="matrix(0.05,0,0,0.05,19,0)" xlink:href="#P"/><use transform="matrix(0.05,0,0,0.05,22.95,0)" xlink:href="#H"/><use transform="matrix(0.05,0,0,0.05,26.899999999999995,0)" xlink:href="#R"/><use transform="matrix(0.05,0,0,0.05,36.9,0)" xlink:href="#L"/></g><path d="M136-208V0H84v-208H4v-40h212v40h-80" id="ae"/><g id="r"><use transform="matrix(0.06790123456790124,0,0,0.06790123456790124,0,0)" xlink:href="#ae"/><use transform="matrix(0.06790123456790124,0,0,0.06790123456790124,14.870370370370372,0)" xlink:href="#w"/><use transform="matrix(0.06790123456790124,0,0,0.06790123456790124,32.45679012345679,0)" xlink:href="#E"/><use transform="matrix(0.06790123456790124,0,0,0.06790123456790124,50.043209876543216,0)" xlink:href="#x"/><use transform="matrix(0.06790123456790124,0,0,0.06790123456790124,56.83333333333334,0)" xlink:href="#B"/><use transform="matrix(0.06790123456790124,0,0,0.06790123456790124,74.41975308641976,0)" xlink:href="#x"/><use transform="matrix(0.06790123456790124,0,0,0.06790123456790124,81.20987654320989,0)" xlink:href="#B"/><use transform="matrix(0.06790123456790124,0,0,0.06790123456790124,98.7962962962963,0)" xlink:href="#s"/></g></defs></g></svg>