<svg xmlns="http://www.w3.org/2000/svg" xmlns:xlink="http://www.w3.org/1999/xlink" xmlns:lucid="lucid" width="1379.25" height="500"><g transform="translate(-60 600)" lucid:page-tab-id="0_0"><path d="M329.67-520c-2.76 0-5 2.24-5 5v390c0 2.76 2.24 5 5 5h834.18c2.76 0 5-2.24 5-5v-390c0-2.76-2.24-5-5-5z" stroke="#000" stroke-width="2" fill="#fff"/><path d="M1158.85-510h-15v20h15z" stroke="#000" fill="#fff"/><path d="M1148.85-506.67h-10v3.34h10zm0 10h-10v3.34h10z" stroke="#000" fill="#fff"/><path d="M627.07-381.33c0-2.76 2.23-5 5-5h190c2.76 0 5 2.24 5 5v110c0 2.76-2.24 5-5 5h-190c-2.77 0-5-2.24-5-5z" stroke="#000" stroke-width="2" fill="#fff"/><path d="M607.07-361.33c0-2.76 2.23-5 5-5h30c2.76 0 5 2.24 5 5v10c0 2.76-2.24 5-5 5h-30c-2.77 0-5-2.24-5-5zM607.07-301.33c0-2.76 2.23-5 5-5h30c2.76 0 5 2.24 5 5v10c0 2.76-2.24 5-5 5h-30c-2.77 0-5-2.24-5-5z" stroke="#000" stroke-width="2" fill="#fff"/><use xlink:href="#a" transform="matrix(1,0,0,1,651.0656485395907,-374.3333333333335) translate(18.599999999999994 51.6)"/><path d="M829.07-326.33h54.5v-84.86h54.5" stroke="#000" stroke-width="2" fill="none"/><path d="M829.1-325.33h-1.03v-2h1.02zM939.07-410.2h-1.03v-2h1.03z"/><path d="M811.57-476.3c0-2.75 2.23-5 5-5h295c2.76 0 5 2.25 5 5v50c0 2.78-2.24 5-5 5h-295c-2.77 0-5-2.22-5-5z" stroke="#000" stroke-opacity="0" stroke-width="2" fill="#fff" fill-opacity="0"/><use xlink:href="#b" transform="matrix(1,0,0,1,816.5656485395906,-476.2850720599545) translate(8.625 28.6)"/><use xlink:href="#c" transform="matrix(1,0,0,1,816.5656485395906,-476.2850720599545) translate(98.525 28.6)"/><use xlink:href="#d" transform="matrix(1,0,0,1,816.5656485395906,-476.2850720599545) translate(123.525 28.6)"/><use xlink:href="#c" transform="matrix(1,0,0,1,816.5656485395906,-476.2850720599545) translate(187.425 28.6)"/><use xlink:href="#e" transform="matrix(1,0,0,1,816.5656485395906,-476.2850720599545) translate(212.425 28.6)"/><path d="M829.07-326.33h54.5V-240h54.5" stroke="#000" stroke-width="2" fill="none"/><path d="M829.1-325.33h-1.03v-2h1.02zM939.07-239h-1.03v-2h1.03z"/><path d="M939.07-411.2h10m40 0c0 11.05-8.96 20-20 20-11.05 0-20-8.95-20-20 0-11.04 8.95-20 20-20 11.04 0 20 8.96 20 20z" stroke="#000" stroke-width="2" fill="#fff"/><path d="M939.07-412h10v1.6h-10z" fill="none"/><path d="M939.07-240h10m40 0c0 11.05-8.96 20-20 20-11.05 0-20-8.95-20-20s8.95-20 20-20c11.04 0 20 8.95 20 20z" stroke="#000" stroke-width="2" fill="#fff"/><path d="M939.07-240.8h10v1.6h-10z" fill="none"/><path d="M821.57-221.33c0-2.76 2.23-5 5-5h295c2.76 0 5 2.24 5 5v50c0 2.76-2.24 5-5 5h-295c-2.77 0-5-2.24-5-5z" stroke="#000" stroke-opacity="0" stroke-width="2" fill="#fff" fill-opacity="0"/><use xlink:href="#f" transform="matrix(1,0,0,1,826.5656485395906,-221.33333333333348) translate(39.150000000000006 28.6)"/><use xlink:href="#c" transform="matrix(1,0,0,1,826.5656485395906,-221.33333333333348) translate(99.00000000000001 28.6)"/><use xlink:href="#d" transform="matrix(1,0,0,1,826.5656485395906,-221.33333333333348) translate(124.00000000000001 28.6)"/><use xlink:href="#g" transform="matrix(1,0,0,1,826.5656485395906,-221.33333333333348) translate(187.9 28.6)"/><path d="M491.03-451.3H570v128.82h55.07" stroke="#000" stroke-width="2" fill="none"/><path d="M491.06-450.3h-1.03v-2h1.03zM626.07-321.48h-1.03v-2h1.03z"/><path d="M420-515c0-2.76 2.24-5 5-5h85c2.76 0 5 2.24 5 5v50c0 2.76-2.24 5-5 5h-85c-2.76 0-5-2.24-5-5z" stroke="#000" stroke-opacity="0" stroke-width="2" fill="#fff" fill-opacity="0"/><use xlink:href="#h" transform="matrix(1,0,0,1,425.00000000000006,-515) translate(19.525 28.6)"/><path d="M314.4-332.8h20.67v20.66H314.4z" stroke="#000" stroke-width="2" fill="#fff"/><path d="M226-322.48h86.4" stroke="#000" stroke-width="2" fill="none"/><path d="M226.03-321.48H225v-2h1.03zM313.4-321.48h-1.03v-2h1.03z"/><path d="M80-386.2c0-2.75 2.24-5 5-5h230c2.76 0 5 2.25 5 5v50c0 2.77-2.24 5-5 5H85c-2.76 0-5-2.23-5-5z" stroke="#000" stroke-opacity="0" stroke-width="2" fill="#fff" fill-opacity="0"/><use xlink:href="#i" transform="matrix(1,0,0,1,85,-386.1907973033558) translate(0.625 28.6)"/><use xlink:href="#c" transform="matrix(1,0,0,1,85,-386.1907973033558) translate(52.575 28.6)"/><use xlink:href="#j" transform="matrix(1,0,0,1,85,-386.1907973033558) translate(77.575 28.6)"/><use xlink:href="#c" transform="matrix(1,0,0,1,85,-386.1907973033558) translate(143.525 28.6)"/><use xlink:href="#k" transform="matrix(1,0,0,1,85,-386.1907973033558) translate(168.525 28.6)"/><path d="M215-322.48h10m-30-20c11.05 0 20 8.96 20 20 0 11.05-8.95 20-20 20" stroke="#000" stroke-width="2" fill="none"/><path d="M195-342.48c11.05 0 20 8.96 20 20 0 11.05-8.95 20-20 20zM215-322.48c0-.44.36-.8.8-.8h8.4c.44 0 .8.36.8.8 0 .45-.36.8-.8.8h-8.4c-.44 0-.8-.35-.8-.8z" fill="none"/><path d="M440.03-451.3h11M485.03-451.3h5M465.03-431.3c11.05 0 20-8.94 20-20 0-11.03-8.95-20-20-20" stroke="#000" stroke-width="2" fill="none"/><path d="M465.03-465.3c7.74 0 14 6.28 14 14 0 7.75-6.26 14-14 14-7.73 0-14-6.25-14-14 0-7.72 6.27-14 14-14z" stroke="#000" stroke-width="2" fill="#fff"/><path d="M440.03-451.3c0-.43.36-.8.8-.8h9.4c.45 0 .8.37.8.8 0 .46-.35.8-.8.8h-9.4c-.44 0-.8-.34-.8-.8z" fill="none"/><path d="M439.03-451.3h-50.98v128.82h-50.98" stroke="#000" stroke-width="2" fill="none"/><path d="M440.03-450.3H439v-2h1.03zM337.1-321.48h-1.03v-2h1.02z"/><path d="M1150-332.8h20.67v20.66H1150zM1259.64-322.48h10m40 0c0 11.05-8.96 20-20 20-11.05 0-20-8.95-20-20 0-11.04 8.95-20 20-20 11.04 0 20 8.96 20 20z" stroke="#000" stroke-width="2" fill="#fff"/><path d="M1259.64-323.28h10v1.6h-10z" fill="none"/><path d="M1179.25-297.48c0-2.76 2.24-5 5-5h230c2.76 0 5 2.24 5 5v50c0 2.77-2.24 5-5 5h-230c-2.76 0-5-2.23-5-5z" stroke="#000" stroke-opacity="0" stroke-width="2" fill="#fff" fill-opacity="0"/><use xlink:href="#i" transform="matrix(1,0,0,1,1184.2525626023335,-297.47586936331027) translate(7.650000000000006 28.6)"/><use xlink:href="#c" transform="matrix(1,0,0,1,1184.2525626023335,-297.47586936331027) translate(59.60000000000001 28.6)"/><use xlink:href="#l" transform="matrix(1,0,0,1,1184.2525626023335,-297.47586936331027) translate(84.60000000000001 28.6)"/><use xlink:href="#c" transform="matrix(1,0,0,1,1184.2525626023335,-297.47586936331027) translate(136.5 28.6)"/><use xlink:href="#k" transform="matrix(1,0,0,1,1184.2525626023335,-297.47586936331027) translate(161.5 28.6)"/><path d="M991.07-411.2h78.46v88.72H1148" stroke="#000" stroke-width="2" fill="none"/><path d="M991.1-410.2h-1.15l.12-.95-.04-1.04h1.06zM1149-321.48h-1.03v-2h1.03z"/><path d="M607.07-575c0-2.76 2.23-5 5-5h230c2.76 0 5 2.24 5 5v50c0 2.76-2.24 5-5 5h-230c-2.77 0-5-2.24-5-5z" stroke="#000" stroke-opacity="0" stroke-width="2" fill="#fff" fill-opacity="0"/><use xlink:href="#m" transform="matrix(1,0,0,1,612.0656485395907,-575) translate(35.691358024691354 29.88888888888889)"/><path d="M991.07-240h78.46v-82.48H1148" stroke="#000" stroke-width="2" fill="none"/><path d="M991.1-239h-1.15l.12-.96-.04-1.04h1.06zM1149-321.48h-1.03v-2h1.03z"/><path d="M405.5-390.36c0-2.76 2.24-5 5-5h109.07c2.76 0 5 2.24 5 5v45.7c0 2.75-2.24 5-5 5H410.5c-2.76 0-5-2.25-5-5z" stroke="#000" stroke-opacity="0" stroke-width="2" fill="#fff" fill-opacity="0"/><use xlink:href="#n" transform="matrix(1,0,0,1,410.5005092302372,-390.35746397002276) translate(13.049999999999997 15.799999999999999)"/><use xlink:href="#o" transform="matrix(1,0,0,1,410.5005092302372,-390.35746397002276) translate(76.95 15.799999999999999)"/><use xlink:href="#p" transform="matrix(1,0,0,1,410.5005092302372,-390.35746397002276) translate(21.049999999999997 37.4)"/><path d="M440.03-322.48h11M485.03-322.48h5M465.03-302.48c11.05 0 20-8.95 20-20 0-11.04-8.95-20-20-20" stroke="#000" stroke-width="2" fill="none"/><path d="M465.03-336.48c7.74 0 14 6.27 14 14 0 7.74-6.26 14-14 14-7.73 0-14-6.26-14-14 0-7.73 6.27-14 14-14z" stroke="#000" stroke-width="2" fill="#fff"/><path d="M440.03-322.48c0-.44.36-.8.8-.8h9.4c.45 0 .8.36.8.8 0 .45-.35.8-.8.8h-9.4c-.44 0-.8-.35-.8-.8z" fill="none"/><path d="M400.03-240.67c0-2.76 2.24-5 5-5h120c2.76 0 5 2.24 5 5v50c0 2.76-2.24 5-5 5h-120c-2.76 0-5-2.24-5-5z" stroke="#000" stroke-opacity="0" stroke-width="2" fill="#fff" fill-opacity="0"/><use xlink:href="#q" transform="matrix(1,0,0,1,405.0333335000323,-240.66666666666697) translate(15.624999999999993 17.799999999999997)"/><use xlink:href="#r" transform="matrix(1,0,0,1,405.0333335000323,-240.66666666666697) translate(28.525 39.4)"/><path d="M440.03-175.43h11M485.03-175.43h5M465.03-155.43c11.05 0 20-8.95 20-20 0-11.04-8.95-20-20-20" stroke="#000" stroke-width="2" fill="none"/><path d="M465.03-189.43c7.74 0 14 6.27 14 14s-6.26 14-14 14c-7.73 0-14-6.27-14-14s6.27-14 14-14z" stroke="#000" stroke-width="2" fill="#fff"/><path d="M440.03-175.43c0-.44.36-.8.8-.8h9.4c.45 0 .8.36.8.8 0 .44-.35.8-.8.8h-9.4c-.44 0-.8-.36-.8-.8z" fill="none"/><path d="M439.03-322.48H337.07" stroke="#000" stroke-width="2" fill="none"/><path d="M440.03-321.48H439v-2h1.03zM337.1-321.48h-1.03v-2h1.02z"/><path d="M439.03-175.43h-50.98v-147.05h-50.98" stroke="#000" stroke-width="2" fill="none"/><path d="M440.03-174.43H439v-2h1.03zM337.1-321.48h-1.03v-2h1.02z"/><path d="M491.03-175.43H570v-147.05h55.07" stroke="#000" stroke-width="2" fill="none"/><path d="M491.06-174.43h-1.03v-2h1.03zM626.07-321.48h-1.03v-2h1.03z"/><path d="M1172.67-322.48h85.97" stroke="#000" stroke-width="2" fill="none"/><path d="M1172.7-321.48h-1.03v-2h1.02zM1259.64-321.48h-1.03v-2h1.04z"/><path d="M491.03-322.48h134.04" stroke="#000" stroke-width="2" fill="none"/><path d="M491.06-321.48h-1.03v-2h1.03zM626.07-321.48h-1.03v-2h1.03z"/><defs><path d="M169-182c-1-43-94-46-97-3 18 66 151 10 154 114 3 95-165 93-204 36-6-8-10-19-12-30l50-8c3 46 112 56 116 5-17-69-150-10-154-114-4-87 153-88 188-35 5 8 8 18 10 28" id="s"/><path d="M24-248c93 1 206-16 204 79-1 75-69 88-152 82V0H24v-248zm52 121c47 0 100 7 100-41 0-47-54-39-100-39v80" id="t"/><path d="M186 0v-106H76V0H24v-248h52v99h110v-99h50V0h-50" id="u"/><path d="M24 0v-248h52V0H24" id="v"/><path d="M175 0L67-191c6 58 2 128 3 191H24v-248h59L193-55c-6-58-2-129-3-193h46V0h-61" id="w"/><path d="M182 0l-62-99L58 0H3l86-130-79-118h55l55 88 55-88h55l-75 118L237 0h-55" id="x"/><path d="M182-130c37 4 62 22 62 59C244 23 116-4 24 0v-248c84 5 203-23 205 63 0 31-19 50-47 55zM76-148c40-3 101 13 101-30 0-44-60-28-101-31v61zm0 110c48-3 116 14 116-37 0-48-69-32-116-35v72" id="y"/><path d="M199 0l-22-63H83L61 0H9l90-248h61L250 0h-51zm-33-102l-36-108c-10 38-24 72-36 108h72" id="z"/><path d="M24 0v-248h195v40H76v63h132v40H76v65h150V0H24" id="A"/><g id="a"><use transform="matrix(0.05,0,0,0.05,0,0)" xlink:href="#s"/><use transform="matrix(0.05,0,0,0.05,12,0)" xlink:href="#t"/><use transform="matrix(0.05,0,0,0.05,24,0)" xlink:href="#u"/><use transform="matrix(0.05,0,0,0.05,36.95,0)" xlink:href="#v"/><use transform="matrix(0.05,0,0,0.05,41.95,0)" xlink:href="#w"/><use transform="matrix(0.05,0,0,0.05,54.900000000000006,0)" xlink:href="#x"/><use transform="matrix(0.05,0,0,0.05,66.9,0)" xlink:href="#y"/><use transform="matrix(0.05,0,0,0.05,79.85000000000001,0)" xlink:href="#z"/><use transform="matrix(0.05,0,0,0.05,92.80000000000001,0)" xlink:href="#s"/><use transform="matrix(0.05,0,0,0.05,104.80000000000001,0)" xlink:href="#A"/></g><path d="M233-177c-1 41-23 64-60 70L243 0h-38l-65-103H63V0H30v-248c88 3 205-21 203 71zM63-129c60-2 137 13 137-47 0-61-80-42-137-45v92" id="B"/><path d="M100-194c63 0 86 42 84 106H49c0 40 14 67 53 68 26 1 43-12 49-29l28 8c-11 28-37 45-77 45C44 4 14-33 15-96c1-61 26-98 85-98zm52 81c6-60-76-77-97-28-3 7-6 17-6 28h103" id="C"/><path d="M85-194c31 0 48 13 60 33l-1-100h32l1 261h-30c-2-10 0-23-3-31C134-8 116 4 85 4 32 4 16-35 15-94c0-66 23-100 70-100zm9 24c-40 0-46 34-46 75 0 40 6 74 45 74 42 0 51-32 51-76 0-42-9-74-50-73" id="D"/><path d="M84 4C-5 8 30-112 23-190h32v120c0 31 7 50 39 49 72-2 45-101 50-169h31l1 190h-30c-1-10 1-25-2-33-11 22-28 36-60 37" id="E"/><path d="M96-169c-40 0-48 33-48 73s9 75 48 75c24 0 41-14 43-38l32 2c-6 37-31 61-74 61-59 0-76-41-82-99-10-93 101-131 147-64 4 7 5 14 7 22l-32 3c-4-21-16-35-41-35" id="F"/><path d="M24-231v-30h32v30H24zM24 0v-190h32V0H24" id="G"/><path d="M100-194c62-1 85 37 85 99 1 63-27 99-86 99S16-35 15-95c0-66 28-99 85-99zM99-20c44 1 53-31 53-75 0-43-8-75-51-75s-53 32-53 75 10 74 51 75zM76-211c8-23 27-35 38-54h36v5l-58 49H76" id="H"/><path d="M117-194c89-4 53 116 60 194h-32v-121c0-31-8-49-39-48C34-167 62-67 57 0H25l-1-190h30c1 10-1 24 2 32 11-22 29-35 61-36" id="I"/><g id="b"><use transform="matrix(0.05,0,0,0.05,0,0)" xlink:href="#B"/><use transform="matrix(0.05,0,0,0.05,12.950000000000001,0)" xlink:href="#C"/><use transform="matrix(0.05,0,0,0.05,22.950000000000003,0)" xlink:href="#D"/><use transform="matrix(0.05,0,0,0.05,32.95,0)" xlink:href="#E"/><use transform="matrix(0.05,0,0,0.05,42.95,0)" xlink:href="#F"/><use transform="matrix(0.05,0,0,0.05,51.95,0)" xlink:href="#F"/><use transform="matrix(0.05,0,0,0.05,60.95,0)" xlink:href="#G"/><use transform="matrix(0.05,0,0,0.05,64.9,0)" xlink:href="#H"/><use transform="matrix(0.05,0,0,0.05,74.9,0)" xlink:href="#I"/></g><g id="c"><use transform="matrix(0.05,0,0,0.05,0,0)" xlink:href="#D"/><use transform="matrix(0.05,0,0,0.05,10,0)" xlink:href="#C"/></g><path d="M240 0l2-218c-23 76-54 145-80 218h-23L58-218 59 0H30v-248h44l77 211c21-75 51-140 76-211h43V0h-30" id="J"/><path d="M100-194c62-1 85 37 85 99 1 63-27 99-86 99S16-35 15-95c0-66 28-99 85-99zM99-20c44 1 53-31 53-75 0-43-8-75-51-75s-53 32-53 75 10 74 51 75" id="K"/><path d="M24 0v-261h32V0H24" id="L"/><g id="d"><use transform="matrix(0.05,0,0,0.05,0,0)" xlink:href="#J"/><use transform="matrix(0.05,0,0,0.05,14.950000000000001,0)" xlink:href="#K"/><use transform="matrix(0.05,0,0,0.05,24.950000000000003,0)" xlink:href="#D"/><use transform="matrix(0.05,0,0,0.05,34.95,0)" xlink:href="#C"/><use transform="matrix(0.05,0,0,0.05,44.95,0)" xlink:href="#L"/><use transform="matrix(0.05,0,0,0.05,48.900000000000006,0)" xlink:href="#K"/></g><path d="M30 0v-248h33v221h125V0H30" id="M"/><path d="M177-190C167-65 218 103 67 71c-23-6-38-20-44-43l32-5c15 47 100 32 89-28v-30C133-14 115 1 83 1 29 1 15-40 15-95c0-56 16-97 71-98 29-1 48 16 59 35 1-10 0-23 2-32h30zM94-22c36 0 50-32 50-73 0-42-14-75-50-75-39 0-46 34-46 75s6 73 46 73" id="N"/><path d="M141-36C126-15 110 5 73 4 37 3 15-17 15-53c-1-64 63-63 125-63 3-35-9-54-41-54-24 1-41 7-42 31l-33-3c5-37 33-52 76-52 45 0 72 20 72 64v82c-1 20 7 32 28 27v20c-31 9-61-2-59-35zM48-53c0 20 12 33 32 33 41-3 63-29 60-74-43 2-92-5-92 41" id="O"/><path d="M24-231v-30h32v30H24zM-9 49c24 4 33-6 33-30v-209h32V24c2 40-23 58-65 49V49" id="P"/><g id="e"><use transform="matrix(0.05,0,0,0.05,0,0)" xlink:href="#M"/><use transform="matrix(0.05,0,0,0.05,10,0)" xlink:href="#C"/><use transform="matrix(0.05,0,0,0.05,20,0)" xlink:href="#I"/><use transform="matrix(0.05,0,0,0.05,30,0)" xlink:href="#N"/><use transform="matrix(0.05,0,0,0.05,40,0)" xlink:href="#E"/><use transform="matrix(0.05,0,0,0.05,50,0)" xlink:href="#O"/><use transform="matrix(0.05,0,0,0.05,60,0)" xlink:href="#P"/><use transform="matrix(0.05,0,0,0.05,63.95,0)" xlink:href="#C"/></g><path d="M114-163C36-179 61-72 57 0H25l-1-190h30c1 12-1 29 2 39 6-27 23-49 58-41v29" id="Q"/><g id="f"><use transform="matrix(0.05,0,0,0.05,0,0)" xlink:href="#J"/><use transform="matrix(0.05,0,0,0.05,14.950000000000001,0)" xlink:href="#C"/><use transform="matrix(0.05,0,0,0.05,24.950000000000003,0)" xlink:href="#P"/><use transform="matrix(0.05,0,0,0.05,28.900000000000002,0)" xlink:href="#K"/><use transform="matrix(0.05,0,0,0.05,38.900000000000006,0)" xlink:href="#Q"/><use transform="matrix(0.05,0,0,0.05,44.85000000000001,0)" xlink:href="#O"/></g><path d="M205 0l-28-72H64L36 0H1l101-248h38L239 0h-34zm-38-99l-47-123c-12 45-31 82-46 123h93" id="R"/><path d="M85 4C-4 8 31-112 24-190h32v120c0 31 7 50 39 49 72-2 45-101 50-169h31l1 190h-30c-1-10 1-25-2-33-11 22-28 36-60 37zM73-211c8-23 27-35 38-54h36v5l-58 49H73" id="S"/><path d="M135-143c-3-34-86-38-87 0 15 53 115 12 119 90S17 21 10-45l28-5c4 36 97 45 98 0-10-56-113-15-118-90-4-57 82-63 122-42 12 7 21 19 24 35" id="T"/><path d="M59-47c-2 24 18 29 38 22v24C64 9 27 4 27-40v-127H5v-23h24l9-43h21v43h35v23H59v120" id="U"/><g id="g"><use transform="matrix(0.05,0,0,0.05,0,0)" xlink:href="#R"/><use transform="matrix(0.05,0,0,0.05,12,0)" xlink:href="#F"/><use transform="matrix(0.05,0,0,0.05,21,0)" xlink:href="#S"/><use transform="matrix(0.05,0,0,0.05,31,0)" xlink:href="#T"/><use transform="matrix(0.05,0,0,0.05,40,0)" xlink:href="#U"/><use transform="matrix(0.05,0,0,0.05,45,0)" xlink:href="#G"/><use transform="matrix(0.05,0,0,0.05,48.95,0)" xlink:href="#F"/><use transform="matrix(0.05,0,0,0.05,57.95,0)" xlink:href="#K"/></g><g id="h"><use transform="matrix(0.05,0,0,0.05,0,0)" xlink:href="#R"/><use transform="matrix(0.05,0,0,0.05,12,0)" xlink:href="#E"/><use transform="matrix(0.05,0,0,0.05,22,0)" xlink:href="#D"/><use transform="matrix(0.05,0,0,0.05,32,0)" xlink:href="#G"/><use transform="matrix(0.05,0,0,0.05,35.95,0)" xlink:href="#K"/></g><path d="M30-248c118-7 216 8 213 122C240-48 200 0 122 0H30v-248zM63-27c89 8 146-16 146-99s-60-101-146-95v194" id="V"/><g id="i"><use transform="matrix(0.05,0,0,0.05,0,0)" xlink:href="#V"/><use transform="matrix(0.05,0,0,0.05,12.950000000000001,0)" xlink:href="#O"/><use transform="matrix(0.05,0,0,0.05,22.950000000000003,0)" xlink:href="#U"/><use transform="matrix(0.05,0,0,0.05,27.950000000000003,0)" xlink:href="#K"/><use transform="matrix(0.05,0,0,0.05,37.95,0)" xlink:href="#T"/></g><g id="j"><use transform="matrix(0.05,0,0,0.05,0,0)" xlink:href="#C"/><use transform="matrix(0.05,0,0,0.05,10,0)" xlink:href="#I"/><use transform="matrix(0.05,0,0,0.05,20,0)" xlink:href="#U"/><use transform="matrix(0.05,0,0,0.05,25,0)" xlink:href="#Q"/><use transform="matrix(0.05,0,0,0.05,30.950000000000003,0)" xlink:href="#O"/><use transform="matrix(0.05,0,0,0.05,40.95,0)" xlink:href="#D"/><use transform="matrix(0.05,0,0,0.05,50.95,0)" xlink:href="#O"/></g><path d="M108 0H70L1-190h34L89-25l56-165h34" id="W"/><g id="k"><use transform="matrix(0.05,0,0,0.05,0,0)" xlink:href="#T"/><use transform="matrix(0.05,0,0,0.05,9,0)" xlink:href="#C"/><use transform="matrix(0.05,0,0,0.05,19,0)" xlink:href="#Q"/><use transform="matrix(0.05,0,0,0.05,24.95,0)" xlink:href="#W"/><use transform="matrix(0.05,0,0,0.05,33.95,0)" xlink:href="#G"/><use transform="matrix(0.05,0,0,0.05,37.900000000000006,0)" xlink:href="#F"/><use transform="matrix(0.05,0,0,0.05,46.900000000000006,0)" xlink:href="#G"/><use transform="matrix(0.05,0,0,0.05,50.85000000000001,0)" xlink:href="#K"/></g><g id="l"><use transform="matrix(0.05,0,0,0.05,0,0)" xlink:href="#T"/><use transform="matrix(0.05,0,0,0.05,9,0)" xlink:href="#O"/><use transform="matrix(0.05,0,0,0.05,19,0)" xlink:href="#L"/><use transform="matrix(0.05,0,0,0.05,22.95,0)" xlink:href="#G"/><use transform="matrix(0.05,0,0,0.05,26.899999999999995,0)" xlink:href="#D"/><use transform="matrix(0.05,0,0,0.05,36.9,0)" xlink:href="#O"/></g><g id="m"><use transform="matrix(0.06790123456790124,0,0,0.06790123456790124,0,0)" xlink:href="#s"/><use transform="matrix(0.06790123456790124,0,0,0.06790123456790124,16.296296296296298,0)" xlink:href="#t"/><use transform="matrix(0.06790123456790124,0,0,0.06790123456790124,32.592592592592595,0)" xlink:href="#u"/><use transform="matrix(0.06790123456790124,0,0,0.06790123456790124,50.17901234567901,0)" xlink:href="#v"/><use transform="matrix(0.06790123456790124,0,0,0.06790123456790124,56.96913580246914,0)" xlink:href="#w"/><use transform="matrix(0.06790123456790124,0,0,0.06790123456790124,74.55555555555556,0)" xlink:href="#x"/><use transform="matrix(0.06790123456790124,0,0,0.06790123456790124,90.85185185185185,0)" xlink:href="#y"/><use transform="matrix(0.06790123456790124,0,0,0.06790123456790124,108.43827160493828,0)" xlink:href="#z"/><use transform="matrix(0.06790123456790124,0,0,0.06790123456790124,126.02469135802468,0)" xlink:href="#s"/><use transform="matrix(0.06790123456790124,0,0,0.06790123456790124,142.320987654321,0)" xlink:href="#A"/></g><g id="n"><use transform="matrix(0.05,0,0,0.05,0,0)" xlink:href="#J"/><use transform="matrix(0.05,0,0,0.05,14.950000000000001,0)" xlink:href="#K"/><use transform="matrix(0.05,0,0,0.05,24.950000000000003,0)" xlink:href="#D"/><use transform="matrix(0.05,0,0,0.05,34.95,0)" xlink:href="#C"/><use transform="matrix(0.05,0,0,0.05,44.95,0)" xlink:href="#L"/><use transform="matrix(0.05,0,0,0.05,48.900000000000006,0)" xlink:href="#K"/></g><g id="o"><use transform="matrix(0.05,0,0,0.05,0,0)" xlink:href="#D"/><use transform="matrix(0.05,0,0,0.05,10,0)" xlink:href="#C"/></g><g id="p"><use transform="matrix(0.05,0,0,0.05,0,0)" xlink:href="#L"/><use transform="matrix(0.05,0,0,0.05,3.95,0)" xlink:href="#C"/><use transform="matrix(0.05,0,0,0.05,13.949999999999998,0)" xlink:href="#I"/><use transform="matrix(0.05,0,0,0.05,23.95,0)" xlink:href="#N"/><use transform="matrix(0.05,0,0,0.05,33.95,0)" xlink:href="#E"/><use transform="matrix(0.05,0,0,0.05,43.95,0)" xlink:href="#O"/><use transform="matrix(0.05,0,0,0.05,53.95,0)" xlink:href="#P"/><use transform="matrix(0.05,0,0,0.05,57.900000000000006,0)" xlink:href="#C"/></g><g id="q"><use transform="matrix(0.05,0,0,0.05,0,0)" xlink:href="#V"/><use transform="matrix(0.05,0,0,0.05,12.950000000000001,0)" xlink:href="#G"/><use transform="matrix(0.05,0,0,0.05,16.900000000000002,0)" xlink:href="#F"/><use transform="matrix(0.05,0,0,0.05,25.900000000000002,0)" xlink:href="#F"/><use transform="matrix(0.05,0,0,0.05,34.900000000000006,0)" xlink:href="#G"/><use transform="matrix(0.05,0,0,0.05,38.85000000000001,0)" xlink:href="#K"/><use transform="matrix(0.05,0,0,0.05,48.85000000000001,0)" xlink:href="#I"/><use transform="matrix(0.05,0,0,0.05,58.85,0)" xlink:href="#O"/><use transform="matrix(0.05,0,0,0.05,68.85000000000001,0)" xlink:href="#Q"/><use transform="matrix(0.05,0,0,0.05,74.80000000000001,0)" xlink:href="#G"/><use transform="matrix(0.05,0,0,0.05,78.75000000000001,0)" xlink:href="#K"/></g><path d="M101-234c-31-9-42 10-38 44h38v23H63V0H32v-167H5v-23h27c-7-52 17-82 69-68v24" id="X"/><path d="M100-194c63 0 86 42 84 106H49c0 40 14 67 53 68 26 1 43-12 49-29l28 8c-11 28-37 45-77 45C44 4 14-33 15-96c1-61 26-98 85-98zm52 81c6-60-76-77-97-28-3 7-6 17-6 28h103zm-74-98c8-23 27-35 38-54h36v5l-58 49H78" id="Y"/><g id="r"><use transform="matrix(0.05,0,0,0.05,0,0)" xlink:href="#X"/><use transform="matrix(0.05,0,0,0.05,5,0)" xlink:href="#K"/><use transform="matrix(0.05,0,0,0.05,15,0)" xlink:href="#I"/><use transform="matrix(0.05,0,0,0.05,25,0)" xlink:href="#Y"/><use transform="matrix(0.05,0,0,0.05,35,0)" xlink:href="#U"/><use transform="matrix(0.05,0,0,0.05,40,0)" xlink:href="#G"/><use transform="matrix(0.05,0,0,0.05,43.95,0)" xlink:href="#F"/><use transform="matrix(0.05,0,0,0.05,52.95,0)" xlink:href="#K"/></g></defs></g></svg>