<svg xmlns="http://www.w3.org/2000/svg" xmlns:xlink="http://www.w3.org/1999/xlink" xmlns:lucid="lucid" width="1397.12" height="406.5"><g transform="translate(-100 -40)" lucid:page-tab-id="0_0"><path d="M370.07 114c-2.76 0-5 2.24-5 5v302.5c0 2.76 2.24 5 5 5h834.18c2.76 0 5-2.24 5-5V119c0-2.76-2.24-5-5-5z" stroke="#000" stroke-width="2" fill="#fff"/><path d="M1199.25 124h-15v20h15z" stroke="#000" fill="#fff"/><path d="M1189.25 127.33h-10v3.34h10zm0 10h-10v3.34h10z" stroke="#000" fill="#fff"/><path d="M589.07 229c0-2.76 2.23-5 5-5h190c2.76 0 5 2.24 5 5v110c0 2.76-2.24 5-5 5h-190c-2.77 0-5-2.24-5-5z" stroke="#000" stroke-width="2" fill="#fff"/><path d="M569.07 249c0-2.76 2.23-5 5-5h30c2.76 0 5 2.24 5 5v10c0 2.76-2.24 5-5 5h-30c-2.77 0-5-2.24-5-5zM569.07 309c0-2.76 2.23-5 5-5h30c2.76 0 5 2.24 5 5v10c0 2.76-2.24 5-5 5h-30c-2.77 0-5-2.24-5-5z" stroke="#000" stroke-width="2" fill="#fff"/><use xlink:href="#a" transform="matrix(1,0,0,1,613.0656485395907,235.9999999999999) translate(12.674999999999997 51.6)"/><path d="M791.07 284h93.5v-60h93.5" stroke="#000" stroke-width="2" fill="none"/><path d="M791.1 285h-1.03v-2h1.02zM979.07 225h-1.03v-2h1.03z"/><path d="M857.07 149c0-2.76 2.23-5 5-5h295c2.76 0 5 2.24 5 5v50c0 2.76-2.24 5-5 5h-295c-2.77 0-5-2.24-5-5z" stroke="#000" stroke-opacity="0" stroke-width="2" fill="#fff" fill-opacity="0"/><use xlink:href="#b" transform="matrix(1,0,0,1,862.0656485395908,148.9999999999999) translate(73.57499999999999 28.6)"/><use xlink:href="#c" transform="matrix(1,0,0,1,862.0656485395908,148.9999999999999) translate(124.52499999999999 28.6)"/><path d="M791.07 284h93.5v60h93.5" stroke="#000" stroke-width="2" fill="none"/><path d="M791.1 285h-1.03v-2h1.02zM979.07 345h-1.03v-2h1.03z"/><path d="M979.07 224h10m40 0c0 11.05-8.96 20-20 20-11.05 0-20-8.95-20-20s8.95-20 20-20c11.04 0 20 8.95 20 20z" stroke="#000" stroke-width="2" fill="#fff"/><path d="M979.07 223.2h10v1.6h-10z" fill="none"/><path d="M979.07 344h10m40 0c0 11.05-8.96 20-20 20-11.05 0-20-8.95-20-20s8.95-20 20-20c11.04 0 20 8.95 20 20z" stroke="#000" stroke-width="2" fill="#fff"/><path d="M979.07 343.2h10v1.6h-10z" fill="none"/><path d="M857.07 364c0-2.76 2.23-5 5-5h295c2.76 0 5 2.24 5 5v50c0 2.76-2.24 5-5 5h-295c-2.77 0-5-2.24-5-5z" stroke="#000" stroke-opacity="0" stroke-width="2" fill="#fff" fill-opacity="0"/><use xlink:href="#d" transform="matrix(1,0,0,1,862.0656485395908,363.9999999999999) translate(44.474999999999994 28.6)"/><use xlink:href="#e" transform="matrix(1,0,0,1,862.0656485395908,363.9999999999999) translate(156.575 28.6)"/><path d="M491.03 284h96.04" stroke="#000" stroke-width="2" fill="none"/><path d="M491.06 285h-1.03v-2h1.03zM588.07 285h-1.03v-2h1.03z"/><path d="M420 220.3c0-2.78 2.24-5 5-5h85c2.76 0 5 2.22 5 5v50c0 2.75-2.24 5-5 5h-85c-2.76 0-5-2.25-5-5z" stroke="#000" stroke-opacity="0" stroke-width="2" fill="#fff" fill-opacity="0"/><use xlink:href="#f" transform="matrix(1,0,0,1,425,220.28507205995436) translate(24.549999999999997 28.6)"/><path d="M354.67 273.67h20.66v20.66h-20.66z" stroke="#000" stroke-width="2" fill="#fff"/><path d="M271 284h81.67" stroke="#000" stroke-width="2" fill="none"/><path d="M271.03 285H270v-2h1.03zM353.67 285h-1.03v-2h1.03z"/><path d="M120 299.33c0-2.76 2.24-5 5-5h230c2.76 0 5 2.24 5 5v50c0 2.76-2.24 5-5 5H125c-2.76 0-5-2.24-5-5z" stroke="#000" stroke-opacity="0" stroke-width="2" fill="#fff" fill-opacity="0"/><use xlink:href="#g" transform="matrix(1,0,0,1,125,299.3333333332945) translate(0.625 28.6)"/><use xlink:href="#h" transform="matrix(1,0,0,1,125,299.3333333332945) translate(52.575 28.6)"/><use xlink:href="#i" transform="matrix(1,0,0,1,125,299.3333333332945) translate(77.575 28.6)"/><use xlink:href="#h" transform="matrix(1,0,0,1,125,299.3333333332945) translate(143.525 28.6)"/><use xlink:href="#j" transform="matrix(1,0,0,1,125,299.3333333332945) translate(168.525 28.6)"/><path d="M260 284h10m-30-20c11.05 0 20 8.95 20 20s-8.95 20-20 20" stroke="#000" stroke-width="2" fill="none"/><path d="M240 264c11.05 0 20 8.95 20 20s-8.95 20-20 20zM260 284c0-.44.36-.8.8-.8h8.4c.44 0 .8.36.8.8 0 .44-.36.8-.8.8h-8.4c-.44 0-.8-.36-.8-.8z" fill="none"/><path d="M440.03 284h11M485.03 284h5M465.03 304c11.05 0 20-8.95 20-20s-8.95-20-20-20" stroke="#000" stroke-width="2" fill="none"/><path d="M465.03 270c7.74 0 14 6.27 14 14s-6.26 14-14 14c-7.73 0-14-6.27-14-14s6.27-14 14-14z" stroke="#000" stroke-width="2" fill="#fff"/><path d="M440.03 284c0-.44.36-.8.8-.8h9.4c.45 0 .8.36.8.8 0 .44-.35.8-.8.8h-9.4c-.44 0-.8-.36-.8-.8z" fill="none"/><path d="M439.03 284h-61.7" stroke="#000" stroke-width="2" fill="none"/><path d="M440.03 285H439v-2h1.03zM377.36 285h-1.03v-2h1.03z"/><path d="M1297.22 284h-75.25" stroke="#000" stroke-width="2" fill="none"/><path d="M1298.22 285h-1.02v-2h1.02zM1222 285h-1.03v-2h1.02z"/><path d="M1199.3 274h20.67v20.67h-20.67zM1298.22 284h10m40 0c0 11.05-8.95 20-20 20-11.04 0-20-8.95-20-20s8.96-20 20-20c11.05 0 20 8.95 20 20z" stroke="#000" stroke-width="2" fill="#fff"/><path d="M1298.22 283.2h10v1.6h-10z" fill="none"/><path d="M1237.12 309c0-2.76 2.23-5 5-5h230c2.76 0 5 2.24 5 5v50c0 2.76-2.24 5-5 5h-230c-2.77 0-5-2.24-5-5z" stroke="#000" stroke-opacity="0" stroke-width="2" fill="#fff" fill-opacity="0"/><use xlink:href="#g" transform="matrix(1,0,0,1,1242.1162411003984,308.9999999999999) translate(7.650000000000006 28.6)"/><use xlink:href="#h" transform="matrix(1,0,0,1,1242.1162411003984,308.9999999999999) translate(59.60000000000001 28.6)"/><use xlink:href="#k" transform="matrix(1,0,0,1,1242.1162411003984,308.9999999999999) translate(84.60000000000001 28.6)"/><use xlink:href="#h" transform="matrix(1,0,0,1,1242.1162411003984,308.9999999999999) translate(136.5 28.6)"/><use xlink:href="#j" transform="matrix(1,0,0,1,1242.1162411003984,308.9999999999999) translate(161.5 28.6)"/><path d="M1031.07 224h83.1v60.33h83.13" stroke="#000" stroke-width="2" fill="none"/><path d="M1031.1 225h-1.15l.12-.96-.04-1.04h1.06zM1198.3 285.33h-1.03v-2h1.03z"/><path d="M1031.07 344h83.1v-59.67h82.3" stroke="#000" stroke-width="2" fill="none"/><path d="M1031.1 345h-1.15l.12-.96-.04-1.04h1.06z"/><path d="M1179.12 294.5l17.2-10.17-17.2-10.18" stroke="#000" stroke-width="2" fill="none"/><path d="M657.15 65c0-2.76 2.24-5 5-5h230c2.76 0 5 2.24 5 5v50c0 2.76-2.24 5-5 5h-230c-2.76 0-5-2.24-5-5z" stroke="#000" stroke-opacity="0" stroke-width="2" fill="#fff" fill-opacity="0"/><g><use xlink:href="#l" transform="matrix(1,0,0,1,662.1495746004189,65) translate(9.5833333333333 29.88888888888889)"/></g><defs><path d="M67-125c0 54 23 88 75 88 28 0 53-7 68-21v-34h-60v-39h108v91C232-14 192 4 140 4 58 4 20-42 15-125 8-236 126-280 215-234c19 10 29 26 37 47l-47 15c-11-23-29-39-63-39-53 1-75 33-75 86" id="m"/><path d="M185-48c-13 30-37 53-82 52C43 2 14-33 14-96s30-98 90-98c62 0 83 45 84 108H66c0 31 8 55 39 56 18 0 30-7 34-22zm-45-69c5-46-57-63-70-21-2 6-4 13-4 21h74" id="n"/><path d="M115-3C79 11 28 4 28-45v-112H4v-33h27l15-45h31v45h36v33H77v99c-1 23 16 31 38 25v30" id="o"/><path d="M199 0l-22-63H83L61 0H9l90-248h61L250 0h-51zm-33-102l-36-108c-10 38-24 72-36 108h72" id="p"/><path d="M85 4C-2 5 27-109 22-190h50c7 57-23 150 33 157 60-5 35-97 40-157h50l1 190h-47c-2-12 1-28-3-38-12 25-28 42-61 42" id="q"/><path d="M88-194c31-1 46 15 58 34l-1-101h50l1 261h-48c-2-10 0-23-3-31C134-8 116 4 84 4 32 4 16-41 15-95c0-56 19-97 73-99zm17 164c33 0 40-30 41-66 1-37-9-64-41-64s-38 30-39 65c0 43 13 65 39 65" id="r"/><path d="M25-224v-37h50v37H25zM25 0v-190h50V0H25" id="s"/><path d="M110-194c64 0 96 36 96 99 0 64-35 99-97 99-61 0-95-36-95-99 0-62 34-99 96-99zm-1 164c35 0 45-28 45-65 0-40-10-65-43-65-34 0-45 26-45 65 0 36 10 65 43 65" id="t"/><path d="M136-208V0H84v-208H4v-40h212v40h-80" id="u"/><path d="M135-150c-39-12-60 13-60 57V0H25l-1-190h47c2 13-1 29 3 40 6-28 27-53 61-41v41" id="v"/><path d="M133-34C117-15 103 5 69 4 32 3 11-16 11-54c-1-60 55-63 116-61 1-26-3-47-28-47-18 1-26 9-28 27l-52-2c7-38 36-58 82-57s74 22 75 68l1 82c-1 14 12 18 25 15v27c-30 8-71 5-69-32zm-48 3c29 0 43-24 42-57-32 0-66-3-65 30 0 17 8 27 23 27" id="w"/><path d="M135-194c87-1 58 113 63 194h-50c-7-57 23-157-34-157-59 0-34 97-39 157H25l-1-190h47c2 12-1 28 3 38 12-26 28-41 61-42" id="x"/><path d="M137-138c1-29-70-34-71-4 15 46 118 7 119 86 1 83-164 76-172 9l43-7c4 19 20 25 44 25 33 8 57-30 24-41C81-84 22-81 20-136c-2-80 154-74 161-7" id="y"/><g id="a"><use transform="matrix(0.05,0,0,0.05,0,0)" xlink:href="#m"/><use transform="matrix(0.05,0,0,0.05,14,0)" xlink:href="#n"/><use transform="matrix(0.05,0,0,0.05,24,0)" xlink:href="#o"/><use transform="matrix(0.05,0,0,0.05,29.950000000000003,0)" xlink:href="#p"/><use transform="matrix(0.05,0,0,0.05,42.9,0)" xlink:href="#q"/><use transform="matrix(0.05,0,0,0.05,53.85,0)" xlink:href="#r"/><use transform="matrix(0.05,0,0,0.05,64.8,0)" xlink:href="#s"/><use transform="matrix(0.05,0,0,0.05,69.8,0)" xlink:href="#t"/><use transform="matrix(0.05,0,0,0.05,80.75,0)" xlink:href="#u"/><use transform="matrix(0.05,0,0,0.05,90.7,0)" xlink:href="#v"/><use transform="matrix(0.05,0,0,0.05,97.7,0)" xlink:href="#w"/><use transform="matrix(0.05,0,0,0.05,107.7,0)" xlink:href="#x"/><use transform="matrix(0.05,0,0,0.05,118.65,0)" xlink:href="#y"/></g><path d="M205 0l-28-72H64L36 0H1l101-248h38L239 0h-34zm-38-99l-47-123c-12 45-31 82-46 123h93" id="z"/><path d="M84 4C-5 8 30-112 23-190h32v120c0 31 7 50 39 49 72-2 45-101 50-169h31l1 190h-30c-1-10 1-25-2-33-11 22-28 36-60 37" id="A"/><path d="M85-194c31 0 48 13 60 33l-1-100h32l1 261h-30c-2-10 0-23-3-31C134-8 116 4 85 4 32 4 16-35 15-94c0-66 23-100 70-100zm9 24c-40 0-46 34-46 75 0 40 6 74 45 74 42 0 51-32 51-76 0-42-9-74-50-73" id="B"/><path d="M24-231v-30h32v30H24zM24 0v-190h32V0H24" id="C"/><path d="M100-194c62-1 85 37 85 99 1 63-27 99-86 99S16-35 15-95c0-66 28-99 85-99zM99-20c44 1 53-31 53-75 0-43-8-75-51-75s-53 32-53 75 10 74 51 75" id="D"/><g id="b"><use transform="matrix(0.05,0,0,0.05,0,0)" xlink:href="#z"/><use transform="matrix(0.05,0,0,0.05,12,0)" xlink:href="#A"/><use transform="matrix(0.05,0,0,0.05,22,0)" xlink:href="#B"/><use transform="matrix(0.05,0,0,0.05,32,0)" xlink:href="#C"/><use transform="matrix(0.05,0,0,0.05,35.95,0)" xlink:href="#D"/></g><path d="M30-248c118-7 216 8 213 122C240-48 200 0 122 0H30v-248zM63-27c89 8 146-16 146-99s-60-101-146-95v194" id="E"/><path d="M100-194c63 0 86 42 84 106H49c0 40 14 67 53 68 26 1 43-12 49-29l28 8c-11 28-37 45-77 45C44 4 14-33 15-96c1-61 26-98 85-98zm52 81c6-60-76-77-97-28-3 7-6 17-6 28h103" id="F"/><path d="M135-143c-3-34-86-38-87 0 15 53 115 12 119 90S17 21 10-45l28-5c4 36 97 45 98 0-10-56-113-15-118-90-4-57 82-63 122-42 12 7 21 19 24 35" id="G"/><path d="M96-169c-40 0-48 33-48 73s9 75 48 75c24 0 41-14 43-38l32 2c-6 37-31 61-74 61-59 0-76-41-82-99-10-93 101-131 147-64 4 7 5 14 7 22l-32 3c-4-21-16-35-41-35" id="H"/><path d="M141-36C126-15 110 5 73 4 37 3 15-17 15-53c-1-64 63-63 125-63 3-35-9-54-41-54-24 1-41 7-42 31l-33-3c5-37 33-52 76-52 45 0 72 20 72 64v82c-1 20 7 32 28 27v20c-31 9-61-2-59-35zM48-53c0 20 12 33 32 33 41-3 63-29 60-74-43 2-92-5-92 41" id="I"/><path d="M114-163C36-179 61-72 57 0H25l-1-190h30c1 12-1 29 2 39 6-27 23-49 58-41v29" id="J"/><path d="M177-190C167-65 218 103 67 71c-23-6-38-20-44-43l32-5c15 47 100 32 89-28v-30C133-14 115 1 83 1 29 1 15-40 15-95c0-56 16-97 71-98 29-1 48 16 59 35 1-10 0-23 2-32h30zM94-22c36 0 50-32 50-73 0-42-14-75-50-75-39 0-46 34-46 75s6 73 46 73" id="K"/><g id="c"><use transform="matrix(0.05,0,0,0.05,0,0)" xlink:href="#E"/><use transform="matrix(0.05,0,0,0.05,12.950000000000001,0)" xlink:href="#F"/><use transform="matrix(0.05,0,0,0.05,22.950000000000003,0)" xlink:href="#G"/><use transform="matrix(0.05,0,0,0.05,31.950000000000003,0)" xlink:href="#H"/><use transform="matrix(0.05,0,0,0.05,40.95,0)" xlink:href="#I"/><use transform="matrix(0.05,0,0,0.05,50.95,0)" xlink:href="#J"/><use transform="matrix(0.05,0,0,0.05,56.900000000000006,0)" xlink:href="#K"/><use transform="matrix(0.05,0,0,0.05,66.9,0)" xlink:href="#I"/><use transform="matrix(0.05,0,0,0.05,76.9,0)" xlink:href="#B"/><use transform="matrix(0.05,0,0,0.05,86.9,0)" xlink:href="#D"/></g><path d="M127-220V0H93v-220H8v-28h204v28h-85" id="L"/><path d="M117-194c89-4 53 116 60 194h-32v-121c0-31-8-49-39-48C34-167 62-67 57 0H25l-1-190h30c1 10-1 24 2 32 11-22 29-35 61-36" id="M"/><path d="M115-194c55 1 70 41 70 98S169 2 115 4C84 4 66-9 55-30l1 105H24l-1-265h31l2 30c10-21 28-34 59-34zm-8 174c40 0 45-34 45-75s-6-73-45-74c-42 0-51 32-51 76 0 43 10 73 51 73" id="N"/><path d="M100-194c62-1 85 37 85 99 1 63-27 99-86 99S16-35 15-95c0-66 28-99 85-99zM99-20c44 1 53-31 53-75 0-43-8-75-51-75s-53 32-53 75 10 74 51 75zM76-211c8-23 27-35 38-54h36v5l-58 49H76" id="O"/><g id="d"><use transform="matrix(0.05,0,0,0.05,0,0)" xlink:href="#L"/><use transform="matrix(0.05,0,0,0.05,10.3,0)" xlink:href="#J"/><use transform="matrix(0.05,0,0,0.05,16.25,0)" xlink:href="#I"/><use transform="matrix(0.05,0,0,0.05,26.25,0)" xlink:href="#M"/><use transform="matrix(0.05,0,0,0.05,36.25,0)" xlink:href="#G"/><use transform="matrix(0.05,0,0,0.05,45.25,0)" xlink:href="#H"/><use transform="matrix(0.05,0,0,0.05,54.25,0)" xlink:href="#J"/><use transform="matrix(0.05,0,0,0.05,60.2,0)" xlink:href="#C"/><use transform="matrix(0.05,0,0,0.05,64.15,0)" xlink:href="#N"/><use transform="matrix(0.05,0,0,0.05,74.15,0)" xlink:href="#H"/><use transform="matrix(0.05,0,0,0.05,83.15,0)" xlink:href="#C"/><use transform="matrix(0.05,0,0,0.05,87.10000000000001,0)" xlink:href="#O"/><use transform="matrix(0.05,0,0,0.05,97.10000000000001,0)" xlink:href="#M"/></g><g id="e"><use transform="matrix(0.05,0,0,0.05,0,0)" xlink:href="#B"/><use transform="matrix(0.05,0,0,0.05,10,0)" xlink:href="#F"/><use transform="matrix(0.05,0,0,0.05,20,0)" xlink:href="#G"/><use transform="matrix(0.05,0,0,0.05,29,0)" xlink:href="#H"/><use transform="matrix(0.05,0,0,0.05,38,0)" xlink:href="#I"/><use transform="matrix(0.05,0,0,0.05,48,0)" xlink:href="#J"/><use transform="matrix(0.05,0,0,0.05,53.95,0)" xlink:href="#K"/><use transform="matrix(0.05,0,0,0.05,63.95,0)" xlink:href="#I"/><use transform="matrix(0.05,0,0,0.05,73.95,0)" xlink:href="#B"/><use transform="matrix(0.05,0,0,0.05,83.95,0)" xlink:href="#I"/></g><path d="M232-93c-1 65-40 97-104 97C67 4 28-28 28-90v-158h33c8 89-33 224 67 224 102 0 64-133 71-224h33v155" id="P"/><path d="M233-177c-1 41-23 64-60 70L243 0h-38l-65-103H63V0H30v-248c88 3 205-21 203 71zM63-129c60-2 137 13 137-47 0-61-80-42-137-45v92" id="Q"/><path d="M30 0v-248h33v221h125V0H30" id="R"/><g id="f"><use transform="matrix(0.05,0,0,0.05,0,0)" xlink:href="#P"/><use transform="matrix(0.05,0,0,0.05,12.950000000000001,0)" xlink:href="#Q"/><use transform="matrix(0.05,0,0,0.05,25.900000000000002,0)" xlink:href="#R"/></g><path d="M59-47c-2 24 18 29 38 22v24C64 9 27 4 27-40v-127H5v-23h24l9-43h21v43h35v23H59v120" id="S"/><g id="g"><use transform="matrix(0.05,0,0,0.05,0,0)" xlink:href="#E"/><use transform="matrix(0.05,0,0,0.05,12.950000000000001,0)" xlink:href="#I"/><use transform="matrix(0.05,0,0,0.05,22.950000000000003,0)" xlink:href="#S"/><use transform="matrix(0.05,0,0,0.05,27.950000000000003,0)" xlink:href="#D"/><use transform="matrix(0.05,0,0,0.05,37.95,0)" xlink:href="#G"/></g><g id="h"><use transform="matrix(0.05,0,0,0.05,0,0)" xlink:href="#B"/><use transform="matrix(0.05,0,0,0.05,10,0)" xlink:href="#F"/></g><g id="i"><use transform="matrix(0.05,0,0,0.05,0,0)" xlink:href="#F"/><use transform="matrix(0.05,0,0,0.05,10,0)" xlink:href="#M"/><use transform="matrix(0.05,0,0,0.05,20,0)" xlink:href="#S"/><use transform="matrix(0.05,0,0,0.05,25,0)" xlink:href="#J"/><use transform="matrix(0.05,0,0,0.05,30.950000000000003,0)" xlink:href="#I"/><use transform="matrix(0.05,0,0,0.05,40.95,0)" xlink:href="#B"/><use transform="matrix(0.05,0,0,0.05,50.95,0)" xlink:href="#I"/></g><path d="M108 0H70L1-190h34L89-25l56-165h34" id="T"/><g id="j"><use transform="matrix(0.05,0,0,0.05,0,0)" xlink:href="#G"/><use transform="matrix(0.05,0,0,0.05,9,0)" xlink:href="#F"/><use transform="matrix(0.05,0,0,0.05,19,0)" xlink:href="#J"/><use transform="matrix(0.05,0,0,0.05,24.95,0)" xlink:href="#T"/><use transform="matrix(0.05,0,0,0.05,33.95,0)" xlink:href="#C"/><use transform="matrix(0.05,0,0,0.05,37.900000000000006,0)" xlink:href="#H"/><use transform="matrix(0.05,0,0,0.05,46.900000000000006,0)" xlink:href="#C"/><use transform="matrix(0.05,0,0,0.05,50.85000000000001,0)" xlink:href="#D"/></g><path d="M24 0v-261h32V0H24" id="U"/><g id="k"><use transform="matrix(0.05,0,0,0.05,0,0)" xlink:href="#G"/><use transform="matrix(0.05,0,0,0.05,9,0)" xlink:href="#I"/><use transform="matrix(0.05,0,0,0.05,19,0)" xlink:href="#U"/><use transform="matrix(0.05,0,0,0.05,22.95,0)" xlink:href="#C"/><use transform="matrix(0.05,0,0,0.05,26.899999999999995,0)" xlink:href="#B"/><use transform="matrix(0.05,0,0,0.05,36.9,0)" xlink:href="#I"/></g><path d="M24 0v-248h195v40H76v63h132v40H76v65h150V0H24" id="V"/><path d="M238-95c0 69-44 99-111 99C63 4 22-25 22-93v-155h51v151c-1 38 19 59 55 60 90 1 49-130 58-211h52v153" id="W"/><path d="M24-248c120-7 223 5 221 122C244-46 201 0 124 0H24v-248zM76-40c74 7 117-18 117-86 0-67-45-88-117-82v168" id="X"/><path d="M24 0v-248h52V0H24" id="Y"/><path d="M140-251c80 0 125 45 125 126S219 4 139 4C58 4 15-44 15-125s44-126 125-126zm-1 214c52 0 73-35 73-88 0-50-21-86-72-86-52 0-73 35-73 86s22 88 72 88" id="Z"/><path d="M240-174c0 40-23 61-54 70L253 0h-59l-57-94H76V0H24v-248c93 4 217-23 216 74zM76-134c48-2 112 12 112-38 0-48-66-32-112-35v73" id="aa"/><path d="M175 0L67-191c6 58 2 128 3 191H24v-248h59L193-55c-6-58-2-129-3-193h46V0h-61" id="ab"/><path d="M169-182c-1-43-94-46-97-3 18 66 151 10 154 114 3 95-165 93-204 36-6-8-10-19-12-30l50-8c3 46 112 56 116 5-17-69-150-10-154-114-4-87 153-88 188-35 5 8 8 18 10 28" id="ac"/><g id="l"><use transform="matrix(0.06790123456790124,0,0,0.06790123456790124,0,0)" xlink:href="#m"/><use transform="matrix(0.06790123456790124,0,0,0.06790123456790124,19.01234567901235,0)" xlink:href="#V"/><use transform="matrix(0.06790123456790124,0,0,0.06790123456790124,35.308641975308646,0)" xlink:href="#u"/><use transform="matrix(0.06790123456790124,0,0,0.06790123456790124,48.345679012345684,0)" xlink:href="#p"/><use transform="matrix(0.06790123456790124,0,0,0.06790123456790124,65.9320987654321,0)" xlink:href="#W"/><use transform="matrix(0.06790123456790124,0,0,0.06790123456790124,83.51851851851852,0)" xlink:href="#X"/><use transform="matrix(0.06790123456790124,0,0,0.06790123456790124,101.10493827160494,0)" xlink:href="#Y"/><use transform="matrix(0.06790123456790124,0,0,0.06790123456790124,107.89506172839506,0)" xlink:href="#Z"/><use transform="matrix(0.06790123456790124,0,0,0.06790123456790124,126.90740740740743,0)" xlink:href="#u"/><use transform="matrix(0.06790123456790124,0,0,0.06790123456790124,141.7777777777778,0)" xlink:href="#aa"/><use transform="matrix(0.06790123456790124,0,0,0.06790123456790124,159.36419753086423,0)" xlink:href="#p"/><use transform="matrix(0.06790123456790124,0,0,0.06790123456790124,176.95061728395066,0)" xlink:href="#ab"/><use transform="matrix(0.06790123456790124,0,0,0.06790123456790124,194.5370370370371,0)" xlink:href="#ac"/></g></defs></g></svg>