<svg xmlns="http://www.w3.org/2000/svg" xmlns:xlink="http://www.w3.org/1999/xlink" xmlns:lucid="lucid" width="1397.12" height="480"><g transform="translate(-160 -60)" lucid:page-tab-id="0_0"><path d="M430.07 160c-2.76 0-5 2.24-5 5v350c0 2.76 2.24 5 5 5h834.18c2.76 0 5-2.24 5-5V165c0-2.76-2.24-5-5-5z" stroke="#000" stroke-width="2" fill="#fff"/><path d="M1259.25 170h-15v20h15z" stroke="#000" fill="#fff"/><path d="M1249.25 173.33h-10v3.34h10zm0 10h-10v3.34h10z" stroke="#000" fill="#fff"/><path d="M780 275.67c0-2.76 2.24-5 5-5h190c2.76 0 5 2.24 5 5v110c0 2.76-2.24 5-5 5H785c-2.76 0-5-2.24-5-5z" stroke="#000" stroke-width="2" fill="#fff"/><path d="M760 295.67c0-2.76 2.24-5 5-5h30c2.76 0 5 2.24 5 5v10c0 2.76-2.24 5-5 5h-30c-2.76 0-5-2.24-5-5zM760 355.67c0-2.76 2.24-5 5-5h30c2.76 0 5 2.24 5 5v10c0 2.76-2.24 5-5 5h-30c-2.76 0-5-2.24-5-5z" stroke="#000" stroke-width="2" fill="#fff"/><use xlink:href="#a" transform="matrix(1,0,0,1,804,282.66666666666686) translate(22.27499999999999 51.6)"/><path d="M1083.35 330.67h10m40 0c0 11.04-8.96 20-20 20-11.05 0-20-8.96-20-20 0-11.05 8.95-20 20-20 11.04 0 20 8.95 20 20z" stroke="#000" stroke-width="2" fill="#fff"/><path d="M1083.35 329.87h10v1.6h-10z" fill="none"/><path d="M1259.98 320.33h20.67V341h-20.67z" stroke="#000" stroke-width="2" fill="#fff"/><path d="M955.85 265.33c0-2.76 2.24-5 5-5h295c2.76 0 5 2.24 5 5v50c0 2.76-2.24 5-5 5h-295c-2.76 0-5-2.24-5-5z" stroke="#000" stroke-opacity="0" stroke-width="2" fill="#fff" fill-opacity="0"/><use xlink:href="#b" transform="matrix(1,0,0,1,960.8479131882045,265.3333333333335) translate(38.499999999999986 28.6)"/><use xlink:href="#c" transform="matrix(1,0,0,1,960.8479131882045,265.3333333333335) translate(167.60000000000002 28.6)"/><path d="M1377.12 330.67h10m40 0c0 11.04-8.96 20-20 20-11.05 0-20-8.96-20-20 0-11.05 8.95-20 20-20 11.04 0 20 8.95 20 20z" stroke="#000" stroke-width="2" fill="#fff"/><path d="M1377.12 329.87h10v1.6h-10z" fill="none"/><path d="M1376.12 330.67h-93.47" stroke="#000" stroke-width="2" fill="none"/><path d="M1377.12 331.67h-1.03v-2h1.02zM1282.68 331.67h-1.03v-2h1.03z"/><path d="M497.12 185.33c0-2.76 2.23-5 5-5h85c2.76 0 5 2.24 5 5v50c0 2.76-2.24 5-5 5h-85c-2.77 0-5-2.24-5-5z" stroke="#000" stroke-opacity="0" stroke-width="2" fill="#fff" fill-opacity="0"/><use xlink:href="#d" transform="matrix(1,0,0,1,502.1162411003984,185.33333333333348) translate(19.525 28.6)"/><path d="M519.62 250.67h11M564.62 250.67h5M544.62 270.67c11.04 0 20-8.96 20-20 0-11.05-8.96-20-20-20" stroke="#000" stroke-width="2" fill="none"/><path d="M544.62 236.67c7.73 0 14 6.26 14 14 0 7.73-6.27 14-14 14-7.74 0-14-6.27-14-14 0-7.74 6.26-14 14-14z" stroke="#000" stroke-width="2" fill="#fff"/><path d="M519.62 250.67c0-.45.35-.8.8-.8h9.4c.44 0 .8.35.8.8 0 .44-.36.8-.8.8h-9.4c-.45 0-.8-.36-.8-.8z" fill="none"/><path d="M497.12 349c0-2.76 2.23-5 5-5h85c2.76 0 5 2.24 5 5v50c0 2.76-2.24 5-5 5h-85c-2.77 0-5-2.24-5-5z" stroke="#000" stroke-opacity="0" stroke-width="2" fill="#fff" fill-opacity="0"/><use xlink:href="#e" transform="matrix(1,0,0,1,502.1162411003984,348.9999999999998) translate(13.049999999999997 17.799999999999997)"/><use xlink:href="#f" transform="matrix(1,0,0,1,502.1162411003984,348.9999999999998) translate(8.524999999999999 39.4)"/><path d="M519.62 420h11M564.62 420h5M544.62 440c11.04 0 20-8.95 20-20s-8.96-20-20-20" stroke="#000" stroke-width="2" fill="none"/><path d="M544.62 406c7.73 0 14 6.27 14 14s-6.27 14-14 14c-7.74 0-14-6.27-14-14s6.26-14 14-14z" stroke="#000" stroke-width="2" fill="#fff"/><path d="M519.62 420c0-.44.35-.8.8-.8h9.4c.44 0 .8.36.8.8 0 .44-.36.8-.8.8h-9.4c-.45 0-.8-.36-.8-.8z" fill="none"/><path d="M570.62 250.67h93.7v49.72H758" stroke="#000" stroke-width="2" fill="none"/><path d="M570.64 251.67h-1.02v-2h1.02zM759 301.4h-1.03v-2H759z"/><path d="M570.62 420h93.7v-59.06H758" stroke="#000" stroke-width="2" fill="none"/><path d="M570.64 421h-1.02v-2h1.02zM759 361.94h-1.03v-2H759z"/><path d="M414.67 323.33h20.66V344h-20.66z" stroke="#000" stroke-width="2" fill="#fff"/><path d="M318.88 333.67h93.8" stroke="#000" stroke-width="2" fill="none"/><path d="M318.9 334.67h-1.02v-2h1.03zM413.67 334.67h-1.03v-2h1.03z"/><path d="M180 354.67c0-2.76 2.24-5 5-5h230c2.76 0 5 2.24 5 5v50c0 2.76-2.24 5-5 5H185c-2.76 0-5-2.24-5-5z" stroke="#000" stroke-opacity="0" stroke-width="2" fill="#fff" fill-opacity="0"/><use xlink:href="#g" transform="matrix(1,0,0,1,185,354.6666666666665) translate(0.625 28.6)"/><use xlink:href="#h" transform="matrix(1,0,0,1,185,354.6666666666665) translate(52.575 28.6)"/><use xlink:href="#i" transform="matrix(1,0,0,1,185,354.6666666666665) translate(77.575 28.6)"/><use xlink:href="#h" transform="matrix(1,0,0,1,185,354.6666666666665) translate(143.525 28.6)"/><use xlink:href="#j" transform="matrix(1,0,0,1,185,354.6666666666665) translate(168.525 28.6)"/><path d="M307.88 333.67h10m-30-20c11.05 0 20 8.95 20 20 0 11.04-8.95 20-20 20" stroke="#000" stroke-width="2" fill="none"/><path d="M287.88 313.67c11.05 0 20 8.95 20 20 0 11.04-8.95 20-20 20zM307.88 333.67c0-.45.36-.8.8-.8h8.4c.45 0 .8.35.8.8 0 .44-.35.8-.8.8h-8.4c-.44 0-.8-.36-.8-.8z" fill="none"/><path d="M518.62 250.67h-40.65v83.28h-40.64" stroke="#000" stroke-width="2" fill="none"/><path d="M519.62 251.67h-1.03v-2h1.02zM437.36 334.95h-1.03v-2h1.03z"/><path d="M518.62 420h-40.65v-86.33h-40.64" stroke="#000" stroke-width="2" fill="none"/><path d="M519.62 421h-1.03v-2h1.02zM437.36 334.67h-1.03v-2h1.03z"/><path d="M1297.12 358.67c0-2.76 2.23-5 5-5h230c2.76 0 5 2.24 5 5v50c0 2.76-2.24 5-5 5h-230c-2.77 0-5-2.24-5-5z" stroke="#000" stroke-opacity="0" stroke-width="2" fill="#fff" fill-opacity="0"/><use xlink:href="#g" transform="matrix(1,0,0,1,1302.116241100398,358.6666666666665) translate(7.650000000000006 28.6)"/><use xlink:href="#h" transform="matrix(1,0,0,1,1302.116241100398,358.6666666666665) translate(59.60000000000001 28.6)"/><use xlink:href="#k" transform="matrix(1,0,0,1,1302.116241100398,358.6666666666665) translate(84.60000000000001 28.6)"/><use xlink:href="#h" transform="matrix(1,0,0,1,1302.116241100398,358.6666666666665) translate(136.5 28.6)"/><use xlink:href="#j" transform="matrix(1,0,0,1,1302.116241100398,358.6666666666665) translate(161.5 28.6)"/><path d="M727.16 85c0-2.76 2.24-5 5-5h230c2.76 0 5 2.24 5 5v50c0 2.76-2.24 5-5 5h-230c-2.76 0-5-2.24-5-5z" stroke="#000" stroke-opacity="0" stroke-width="2" fill="#fff" fill-opacity="0"/><g><use xlink:href="#l" transform="matrix(1,0,0,1,732.1596148011872,85) translate(26.864197530864175 29.88888888888889)"/></g><path d="M1082.35 330.67H982" stroke="#000" stroke-width="2" fill="none"/><path d="M1083.35 331.67h-1.03v-2h1.03zM982.03 331.67H981v-2h1.03z"/><path d="M1135.35 330.67h121.82" stroke="#000" stroke-width="2" fill="none"/><path d="M1135.37 331.67h-1.14l.12-.96-.04-1.03h1.07z"/><path d="M1239.8 340.85l17.22-10.18-17.2-10.18" stroke="#000" stroke-width="2" fill="none"/><defs><path d="M169-182c-1-43-94-46-97-3 18 66 151 10 154 114 3 95-165 93-204 36-6-8-10-19-12-30l50-8c3 46 112 56 116 5-17-69-150-10-154-114-4-87 153-88 188-35 5 8 8 18 10 28" id="m"/><path d="M135-194c53 0 70 44 70 98 0 56-19 98-73 100-31 1-45-17-59-34 3 33 2 69 2 105H25l-1-265h48c2 10 0 23 3 31 11-24 29-35 60-35zM114-30c33 0 39-31 40-66 0-38-9-64-40-64-56 0-55 130 0 130" id="n"/><path d="M185-48c-13 30-37 53-82 52C43 2 14-33 14-96s30-98 90-98c62 0 83 45 84 108H66c0 31 8 55 39 56 18 0 30-7 34-22zm-45-69c5-46-57-63-70-21-2 6-4 13-4 21h74" id="o"/><path d="M190-63c-7 42-38 67-86 67-59 0-84-38-90-98-12-110 154-137 174-36l-49 2c-2-19-15-32-35-32-30 0-35 28-38 64-6 74 65 87 74 30" id="p"/><path d="M114-157C55-157 80-60 75 0H25v-261h50l-1 109c12-26 28-41 61-42 86-1 58 113 63 194h-50c-7-57 23-157-34-157" id="q"/><path d="M182-182c0 78-84 86-111 141h115V0H12c-6-101 99-100 120-180 1-22-12-31-33-32-23 0-32 14-35 34l-49-3c5-45 32-70 84-70 51 0 83 22 83 69" id="r"/><path d="M136-208V0H84v-208H4v-40h212v40h-80" id="s"/><path d="M144 0l-44-69L55 0H2l70-98-66-92h53l41 62 40-62h54l-67 91 71 99h-54" id="t"/><path d="M115-3C79 11 28 4 28-45v-112H4v-33h27l15-45h31v45h36v33H77v99c-1 23 16 31 38 25v30" id="u"/><g id="a"><use transform="matrix(0.05,0,0,0.05,0,0)" xlink:href="#m"/><use transform="matrix(0.05,0,0,0.05,12,0)" xlink:href="#n"/><use transform="matrix(0.05,0,0,0.05,22.950000000000003,0)" xlink:href="#o"/><use transform="matrix(0.05,0,0,0.05,32.95,0)" xlink:href="#o"/><use transform="matrix(0.05,0,0,0.05,42.95,0)" xlink:href="#p"/><use transform="matrix(0.05,0,0,0.05,52.95,0)" xlink:href="#q"/><use transform="matrix(0.05,0,0,0.05,63.900000000000006,0)" xlink:href="#r"/><use transform="matrix(0.05,0,0,0.05,73.9,0)" xlink:href="#s"/><use transform="matrix(0.05,0,0,0.05,83.50000000000001,0)" xlink:href="#o"/><use transform="matrix(0.05,0,0,0.05,93.50000000000001,0)" xlink:href="#t"/><use transform="matrix(0.05,0,0,0.05,103.5,0)" xlink:href="#u"/></g><path d="M127-220V0H93v-220H8v-28h204v28h-85" id="v"/><path d="M114-163C36-179 61-72 57 0H25l-1-190h30c1 12-1 29 2 39 6-27 23-49 58-41v29" id="w"/><path d="M141-36C126-15 110 5 73 4 37 3 15-17 15-53c-1-64 63-63 125-63 3-35-9-54-41-54-24 1-41 7-42 31l-33-3c5-37 33-52 76-52 45 0 72 20 72 64v82c-1 20 7 32 28 27v20c-31 9-61-2-59-35zM48-53c0 20 12 33 32 33 41-3 63-29 60-74-43 2-92-5-92 41" id="x"/><path d="M117-194c89-4 53 116 60 194h-32v-121c0-31-8-49-39-48C34-167 62-67 57 0H25l-1-190h30c1 10-1 24 2 32 11-22 29-35 61-36" id="y"/><path d="M135-143c-3-34-86-38-87 0 15 53 115 12 119 90S17 21 10-45l28-5c4 36 97 45 98 0-10-56-113-15-118-90-4-57 82-63 122-42 12 7 21 19 24 35" id="z"/><path d="M101-234c-31-9-42 10-38 44h38v23H63V0H32v-167H5v-23h27c-7-52 17-82 69-68v24" id="A"/><path d="M100-194c62-1 85 37 85 99 1 63-27 99-86 99S16-35 15-95c0-66 28-99 85-99zM99-20c44 1 53-31 53-75 0-43-8-75-51-75s-53 32-53 75 10 74 51 75" id="B"/><path d="M210-169c-67 3-38 105-44 169h-31v-121c0-29-5-50-35-48C34-165 62-65 56 0H25l-1-190h30c1 10-1 24 2 32 10-44 99-50 107 0 11-21 27-35 58-36 85-2 47 119 55 194h-31v-121c0-29-5-49-35-48" id="C"/><path d="M96-169c-40 0-48 33-48 73s9 75 48 75c24 0 41-14 43-38l32 2c-6 37-31 61-74 61-59 0-76-41-82-99-10-93 101-131 147-64 4 7 5 14 7 22l-32 3c-4-21-16-35-41-35" id="D"/><path d="M24-231v-30h32v30H24zM24 0v-190h32V0H24" id="E"/><path d="M100-194c62-1 85 37 85 99 1 63-27 99-86 99S16-35 15-95c0-66 28-99 85-99zM99-20c44 1 53-31 53-75 0-43-8-75-51-75s-53 32-53 75 10 74 51 75zM76-211c8-23 27-35 38-54h36v5l-58 49H76" id="F"/><g id="b"><use transform="matrix(0.05,0,0,0.05,0,0)" xlink:href="#v"/><use transform="matrix(0.05,0,0,0.05,10.3,0)" xlink:href="#w"/><use transform="matrix(0.05,0,0,0.05,16.25,0)" xlink:href="#x"/><use transform="matrix(0.05,0,0,0.05,26.25,0)" xlink:href="#y"/><use transform="matrix(0.05,0,0,0.05,36.25,0)" xlink:href="#z"/><use transform="matrix(0.05,0,0,0.05,45.25,0)" xlink:href="#A"/><use transform="matrix(0.05,0,0,0.05,50.25,0)" xlink:href="#B"/><use transform="matrix(0.05,0,0,0.05,60.25,0)" xlink:href="#w"/><use transform="matrix(0.05,0,0,0.05,66.2,0)" xlink:href="#C"/><use transform="matrix(0.05,0,0,0.05,81.15,0)" xlink:href="#x"/><use transform="matrix(0.05,0,0,0.05,91.15,0)" xlink:href="#D"/><use transform="matrix(0.05,0,0,0.05,100.15,0)" xlink:href="#E"/><use transform="matrix(0.05,0,0,0.05,104.10000000000001,0)" xlink:href="#F"/><use transform="matrix(0.05,0,0,0.05,114.10000000000001,0)" xlink:href="#y"/></g><path d="M84 4C-5 8 30-112 23-190h32v120c0 31 7 50 39 49 72-2 45-101 50-169h31l1 190h-30c-1-10 1-25-2-33-11 22-28 36-60 37" id="G"/><path d="M85-194c31 0 48 13 60 33l-1-100h32l1 261h-30c-2-10 0-23-3-31C134-8 116 4 85 4 32 4 16-35 15-94c0-66 23-100 70-100zm9 24c-40 0-46 34-46 75 0 40 6 74 45 74 42 0 51-32 51-76 0-42-9-74-50-73" id="H"/><path d="M16-82v-28h88v28H16" id="I"/><path d="M59-47c-2 24 18 29 38 22v24C64 9 27 4 27-40v-127H5v-23h24l9-43h21v43h35v23H59v120" id="J"/><path d="M100-194c63 0 86 42 84 106H49c0 40 14 67 53 68 26 1 43-12 49-29l28 8c-11 28-37 45-77 45C44 4 14-33 15-96c1-61 26-98 85-98zm52 81c6-60-76-77-97-28-3 7-6 17-6 28h103" id="K"/><path d="M141 0L90-78 38 0H4l68-98-65-92h35l48 74 47-74h35l-64 92 68 98h-35" id="L"/><g id="c"><use transform="matrix(0.05,0,0,0.05,0,0)" xlink:href="#x"/><use transform="matrix(0.05,0,0,0.05,10,0)" xlink:href="#G"/><use transform="matrix(0.05,0,0,0.05,20,0)" xlink:href="#H"/><use transform="matrix(0.05,0,0,0.05,30,0)" xlink:href="#E"/><use transform="matrix(0.05,0,0,0.05,33.95,0)" xlink:href="#B"/><use transform="matrix(0.05,0,0,0.05,43.95,0)" xlink:href="#I"/><use transform="matrix(0.05,0,0,0.05,49.900000000000006,0)" xlink:href="#J"/><use transform="matrix(0.05,0,0,0.05,54.900000000000006,0)" xlink:href="#K"/><use transform="matrix(0.05,0,0,0.05,64.9,0)" xlink:href="#L"/><use transform="matrix(0.05,0,0,0.05,73.9,0)" xlink:href="#J"/><use transform="matrix(0.05,0,0,0.05,78.9,0)" xlink:href="#B"/></g><path d="M205 0l-28-72H64L36 0H1l101-248h38L239 0h-34zm-38-99l-47-123c-12 45-31 82-46 123h93" id="M"/><g id="d"><use transform="matrix(0.05,0,0,0.05,0,0)" xlink:href="#M"/><use transform="matrix(0.05,0,0,0.05,12,0)" xlink:href="#G"/><use transform="matrix(0.05,0,0,0.05,22,0)" xlink:href="#H"/><use transform="matrix(0.05,0,0,0.05,32,0)" xlink:href="#E"/><use transform="matrix(0.05,0,0,0.05,35.95,0)" xlink:href="#B"/></g><path d="M240 0l2-218c-23 76-54 145-80 218h-23L58-218 59 0H30v-248h44l77 211c21-75 51-140 76-211h43V0h-30" id="N"/><path d="M24 0v-261h32V0H24" id="O"/><g id="e"><use transform="matrix(0.05,0,0,0.05,0,0)" xlink:href="#N"/><use transform="matrix(0.05,0,0,0.05,14.950000000000001,0)" xlink:href="#B"/><use transform="matrix(0.05,0,0,0.05,24.950000000000003,0)" xlink:href="#H"/><use transform="matrix(0.05,0,0,0.05,34.95,0)" xlink:href="#K"/><use transform="matrix(0.05,0,0,0.05,44.95,0)" xlink:href="#O"/><use transform="matrix(0.05,0,0,0.05,48.900000000000006,0)" xlink:href="#B"/></g><path d="M85 4C-4 8 31-112 24-190h32v120c0 31 7 50 39 49 72-2 45-101 50-169h31l1 190h-30c-1-10 1-25-2-33-11 22-28 36-60 37zM73-211c8-23 27-35 38-54h36v5l-58 49H73" id="P"/><g id="f"><use transform="matrix(0.05,0,0,0.05,0,0)" xlink:href="#M"/><use transform="matrix(0.05,0,0,0.05,12,0)" xlink:href="#D"/><use transform="matrix(0.05,0,0,0.05,21,0)" xlink:href="#P"/><use transform="matrix(0.05,0,0,0.05,31,0)" xlink:href="#z"/><use transform="matrix(0.05,0,0,0.05,40,0)" xlink:href="#J"/><use transform="matrix(0.05,0,0,0.05,45,0)" xlink:href="#E"/><use transform="matrix(0.05,0,0,0.05,48.95,0)" xlink:href="#D"/><use transform="matrix(0.05,0,0,0.05,57.95,0)" xlink:href="#B"/></g><path d="M30-248c118-7 216 8 213 122C240-48 200 0 122 0H30v-248zM63-27c89 8 146-16 146-99s-60-101-146-95v194" id="Q"/><g id="g"><use transform="matrix(0.05,0,0,0.05,0,0)" xlink:href="#Q"/><use transform="matrix(0.05,0,0,0.05,12.950000000000001,0)" xlink:href="#x"/><use transform="matrix(0.05,0,0,0.05,22.950000000000003,0)" xlink:href="#J"/><use transform="matrix(0.05,0,0,0.05,27.950000000000003,0)" xlink:href="#B"/><use transform="matrix(0.05,0,0,0.05,37.95,0)" xlink:href="#z"/></g><g id="h"><use transform="matrix(0.05,0,0,0.05,0,0)" xlink:href="#H"/><use transform="matrix(0.05,0,0,0.05,10,0)" xlink:href="#K"/></g><g id="i"><use transform="matrix(0.05,0,0,0.05,0,0)" xlink:href="#K"/><use transform="matrix(0.05,0,0,0.05,10,0)" xlink:href="#y"/><use transform="matrix(0.05,0,0,0.05,20,0)" xlink:href="#J"/><use transform="matrix(0.05,0,0,0.05,25,0)" xlink:href="#w"/><use transform="matrix(0.05,0,0,0.05,30.950000000000003,0)" xlink:href="#x"/><use transform="matrix(0.05,0,0,0.05,40.95,0)" xlink:href="#H"/><use transform="matrix(0.05,0,0,0.05,50.95,0)" xlink:href="#x"/></g><path d="M108 0H70L1-190h34L89-25l56-165h34" id="R"/><g id="j"><use transform="matrix(0.05,0,0,0.05,0,0)" xlink:href="#z"/><use transform="matrix(0.05,0,0,0.05,9,0)" xlink:href="#K"/><use transform="matrix(0.05,0,0,0.05,19,0)" xlink:href="#w"/><use transform="matrix(0.05,0,0,0.05,24.95,0)" xlink:href="#R"/><use transform="matrix(0.05,0,0,0.05,33.95,0)" xlink:href="#E"/><use transform="matrix(0.05,0,0,0.05,37.900000000000006,0)" xlink:href="#D"/><use transform="matrix(0.05,0,0,0.05,46.900000000000006,0)" xlink:href="#E"/><use transform="matrix(0.05,0,0,0.05,50.85000000000001,0)" xlink:href="#B"/></g><g id="k"><use transform="matrix(0.05,0,0,0.05,0,0)" xlink:href="#z"/><use transform="matrix(0.05,0,0,0.05,9,0)" xlink:href="#x"/><use transform="matrix(0.05,0,0,0.05,19,0)" xlink:href="#O"/><use transform="matrix(0.05,0,0,0.05,22.95,0)" xlink:href="#E"/><use transform="matrix(0.05,0,0,0.05,26.899999999999995,0)" xlink:href="#H"/><use transform="matrix(0.05,0,0,0.05,36.9,0)" xlink:href="#x"/></g><path d="M24-248c93 1 206-16 204 79-1 75-69 88-152 82V0H24v-248zm52 121c47 0 100 7 100-41 0-47-54-39-100-39v80" id="S"/><path d="M24 0v-248h195v40H76v63h132v40H76v65h150V0H24" id="T"/><path d="M67-125c0 53 21 87 73 88 37 1 54-22 65-47l45 17C233-25 199 4 140 4 58 4 20-42 15-125 8-235 124-281 211-232c18 10 29 29 36 50l-46 12c-8-25-30-41-62-41-52 0-71 34-72 86" id="U"/><path d="M186 0v-106H76V0H24v-248h52v99h110v-99h50V0h-50" id="V"/><path d="M182 0l-62-99L58 0H3l86-130-79-118h55l55 88 55-88h55l-75 118L237 0h-55" id="W"/><g id="l"><use transform="matrix(0.06790123456790124,0,0,0.06790123456790124,0,0)" xlink:href="#m"/><use transform="matrix(0.06790123456790124,0,0,0.06790123456790124,16.296296296296298,0)" xlink:href="#S"/><use transform="matrix(0.06790123456790124,0,0,0.06790123456790124,32.592592592592595,0)" xlink:href="#T"/><use transform="matrix(0.06790123456790124,0,0,0.06790123456790124,48.88888888888889,0)" xlink:href="#T"/><use transform="matrix(0.06790123456790124,0,0,0.06790123456790124,65.18518518518519,0)" xlink:href="#U"/><use transform="matrix(0.06790123456790124,0,0,0.06790123456790124,82.77160493827161,0)" xlink:href="#V"/><use transform="matrix(0.06790123456790124,0,0,0.06790123456790124,100.35802469135803,0)" xlink:href="#r"/><use transform="matrix(0.06790123456790124,0,0,0.06790123456790124,113.93827160493828,0)" xlink:href="#s"/><use transform="matrix(0.06790123456790124,0,0,0.06790123456790124,128.80864197530866,0)" xlink:href="#T"/><use transform="matrix(0.06790123456790124,0,0,0.06790123456790124,145.10493827160496,0)" xlink:href="#W"/><use transform="matrix(0.06790123456790124,0,0,0.06790123456790124,161.40123456790127,0)" xlink:href="#s"/></g></defs></g></svg>