<svg xmlns="http://www.w3.org/2000/svg" xmlns:xlink="http://www.w3.org/1999/xlink" xmlns:lucid="lucid" width="1397.12" height="406.5"><g transform="translate(-100 600)" lucid:page-tab-id="0_0"><path d="M370.07-526c-2.76 0-5 2.24-5 5v302.5c0 2.76 2.24 5 5 5h834.18c2.76 0 5-2.24 5-5V-521c0-2.76-2.24-5-5-5z" stroke="#000" stroke-width="2" fill="#fff"/><path d="M1199.25-516h-15v20h15z" stroke="#000" fill="#fff"/><path d="M1189.25-512.67h-10v3.34h10zm0 10h-10v3.34h10z" stroke="#000" fill="#fff"/><path d="M589.07-411c0-2.76 2.23-5 5-5h190c2.76 0 5 2.24 5 5v110c0 2.76-2.24 5-5 5h-190c-2.77 0-5-2.24-5-5z" stroke="#000" stroke-width="2" fill="#fff"/><path d="M569.07-391c0-2.76 2.23-5 5-5h30c2.76 0 5 2.24 5 5v10c0 2.76-2.24 5-5 5h-30c-2.77 0-5-2.24-5-5zM569.07-331c0-2.76 2.23-5 5-5h30c2.76 0 5 2.24 5 5v10c0 2.76-2.24 5-5 5h-30c-2.77 0-5-2.24-5-5z" stroke="#000" stroke-width="2" fill="#fff"/><use xlink:href="#a" transform="matrix(1,0,0,1,613.0656485395907,-404) translate(49.074999999999996 51.6)"/><path d="M791.07-356h93.5v-60h93.5" stroke="#000" stroke-width="2" fill="none"/><path d="M791.1-355h-1.03v-2h1.02zM979.07-415h-1.03v-2h1.03z"/><path d="M857.07-491c0-2.76 2.23-5 5-5h295c2.76 0 5 2.24 5 5v50c0 2.76-2.24 5-5 5h-295c-2.77 0-5-2.24-5-5z" stroke="#000" stroke-opacity="0" stroke-width="2" fill="#fff" fill-opacity="0"/><use xlink:href="#b" transform="matrix(1,0,0,1,862.0656485395908,-491) translate(37.599999999999994 28.6)"/><use xlink:href="#c" transform="matrix(1,0,0,1,862.0656485395908,-491) translate(94.55 28.6)"/><use xlink:href="#d" transform="matrix(1,0,0,1,862.0656485395908,-491) translate(158.45 28.6)"/><use xlink:href="#e" transform="matrix(1,0,0,1,862.0656485395908,-491) translate(183.45000000000002 28.6)"/><path d="M791.07-356h93.5v60h93.5" stroke="#000" stroke-width="2" fill="none"/><path d="M791.1-355h-1.03v-2h1.02zM979.07-295h-1.03v-2h1.03z"/><path d="M979.07-416h10m40 0c0 11.05-8.96 20-20 20-11.05 0-20-8.95-20-20s8.95-20 20-20c11.04 0 20 8.95 20 20z" stroke="#000" stroke-width="2" fill="#fff"/><path d="M979.07-416.8h10v1.6h-10z" fill="none"/><path d="M979.07-296h10m40 0c0 11.05-8.96 20-20 20-11.05 0-20-8.95-20-20s8.95-20 20-20c11.04 0 20 8.95 20 20z" stroke="#000" stroke-width="2" fill="#fff"/><path d="M979.07-296.8h10v1.6h-10z" fill="none"/><path d="M857.07-276c0-2.76 2.23-5 5-5h295c2.76 0 5 2.24 5 5v50c0 2.76-2.24 5-5 5h-295c-2.77 0-5-2.24-5-5z" stroke="#000" stroke-opacity="0" stroke-width="2" fill="#fff" fill-opacity="0"/><use xlink:href="#f" transform="matrix(1,0,0,1,862.0656485395908,-276) translate(23.650000000000006 28.6)"/><use xlink:href="#d" transform="matrix(1,0,0,1,862.0656485395908,-276) translate(83.50000000000001 28.6)"/><use xlink:href="#c" transform="matrix(1,0,0,1,862.0656485395908,-276) translate(108.50000000000001 28.6)"/><use xlink:href="#d" transform="matrix(1,0,0,1,862.0656485395908,-276) translate(172.4 28.6)"/><use xlink:href="#e" transform="matrix(1,0,0,1,862.0656485395908,-276) translate(197.4 28.6)"/><path d="M491.03-427.3h48.02v71.3h48.02" stroke="#000" stroke-width="2" fill="none"/><path d="M491.06-426.3h-1.03v-2h1.03zM588.07-355h-1.03v-2h1.03z"/><path d="M420-491c0-2.76 2.24-5 5-5h85c2.76 0 5 2.24 5 5v50c0 2.76-2.24 5-5 5h-85c-2.76 0-5-2.24-5-5z" stroke="#000" stroke-opacity="0" stroke-width="2" fill="#fff" fill-opacity="0"/><use xlink:href="#g" transform="matrix(1,0,0,1,425,-491) translate(11.024999999999999 17.799999999999997)"/><use xlink:href="#h" transform="matrix(1,0,0,1,425,-491) translate(53.975 17.799999999999997)"/><use xlink:href="#i" transform="matrix(1,0,0,1,425,-491) translate(15.049999999999997 39.4)"/><path d="M354.67-366.33h20.66v20.66h-20.66z" stroke="#000" stroke-width="2" fill="#fff"/><path d="M271-356h81.67" stroke="#000" stroke-width="2" fill="none"/><path d="M271.03-355H270v-2h1.03zM353.67-355h-1.03v-2h1.03z"/><path d="M120-340.67c0-2.76 2.24-5 5-5h230c2.76 0 5 2.24 5 5v50c0 2.76-2.24 5-5 5H125c-2.76 0-5-2.24-5-5z" stroke="#000" stroke-opacity="0" stroke-width="2" fill="#fff" fill-opacity="0"/><use xlink:href="#j" transform="matrix(1,0,0,1,125,-340.6666666667054) translate(0.625 28.6)"/><use xlink:href="#d" transform="matrix(1,0,0,1,125,-340.6666666667054) translate(52.575 28.6)"/><use xlink:href="#k" transform="matrix(1,0,0,1,125,-340.6666666667054) translate(77.575 28.6)"/><use xlink:href="#d" transform="matrix(1,0,0,1,125,-340.6666666667054) translate(143.525 28.6)"/><use xlink:href="#l" transform="matrix(1,0,0,1,125,-340.6666666667054) translate(168.525 28.6)"/><path d="M260-356h10m-30-20c11.05 0 20 8.95 20 20s-8.95 20-20 20" stroke="#000" stroke-width="2" fill="none"/><path d="M240-376c11.05 0 20 8.95 20 20s-8.95 20-20 20zM260-356c0-.44.36-.8.8-.8h8.4c.44 0 .8.36.8.8 0 .44-.36.8-.8.8h-8.4c-.44 0-.8-.36-.8-.8z" fill="none"/><path d="M440.03-427.3h11M485.03-427.3h5M465.03-407.3c11.05 0 20-8.94 20-20 0-11.03-8.95-20-20-20" stroke="#000" stroke-width="2" fill="none"/><path d="M465.03-441.3c7.74 0 14 6.28 14 14 0 7.75-6.26 14-14 14-7.73 0-14-6.25-14-14 0-7.72 6.27-14 14-14z" stroke="#000" stroke-width="2" fill="#fff"/><path d="M440.03-427.3c0-.43.36-.8.8-.8h9.4c.45 0 .8.37.8.8 0 .46-.35.8-.8.8h-9.4c-.44 0-.8-.34-.8-.8z" fill="none"/><path d="M439.03-427.3h-30.85v71.3h-30.85" stroke="#000" stroke-width="2" fill="none"/><path d="M440.03-426.3H439v-2h1.03zM377.36-355h-1.03v-2h1.03z"/><path d="M1297.22-356h-75.25" stroke="#000" stroke-width="2" fill="none"/><path d="M1298.22-355h-1.02v-2h1.02zM1222-355h-1.03v-2h1.02z"/><path d="M1199.3-366h20.67v20.67h-20.67zM1298.22-356h10m40 0c0 11.05-8.95 20-20 20-11.04 0-20-8.95-20-20s8.96-20 20-20c11.05 0 20 8.95 20 20z" stroke="#000" stroke-width="2" fill="#fff"/><path d="M1298.22-356.8h10v1.6h-10z" fill="none"/><path d="M1237.12-331c0-2.76 2.23-5 5-5h230c2.76 0 5 2.24 5 5v50c0 2.76-2.24 5-5 5h-230c-2.77 0-5-2.24-5-5z" stroke="#000" stroke-opacity="0" stroke-width="2" fill="#fff" fill-opacity="0"/><use xlink:href="#j" transform="matrix(1,0,0,1,1242.1162411003984,-331) translate(7.650000000000006 28.6)"/><use xlink:href="#d" transform="matrix(1,0,0,1,1242.1162411003984,-331) translate(59.60000000000001 28.6)"/><use xlink:href="#m" transform="matrix(1,0,0,1,1242.1162411003984,-331) translate(84.60000000000001 28.6)"/><use xlink:href="#d" transform="matrix(1,0,0,1,1242.1162411003984,-331) translate(136.5 28.6)"/><use xlink:href="#l" transform="matrix(1,0,0,1,1242.1162411003984,-331) translate(161.5 28.6)"/><path d="M1031.07-416h83.1v60.33h83.13" stroke="#000" stroke-width="2" fill="none"/><path d="M1031.1-415h-1.15l.12-.96-.04-1.04h1.06zM1198.3-354.67h-1.03v-2h1.03z"/><path d="M657.15-575c0-2.76 2.24-5 5-5h230c2.76 0 5 2.24 5 5v50c0 2.76-2.24 5-5 5h-230c-2.76 0-5-2.24-5-5z" stroke="#000" stroke-opacity="0" stroke-width="2" fill="#fff" fill-opacity="0"/><use xlink:href="#n" transform="matrix(1,0,0,1,662.1495746004189,-575) translate(77.07716049382715 29.88888888888889)"/><path d="M1031.07-296h83.1v-59.67h83.13" stroke="#000" stroke-width="2" fill="none"/><path d="M1031.1-295h-1.15l.12-.96-.04-1.04h1.06zM1198.3-354.67h-1.03v-2h1.03z"/><path d="M407.5-351c0-2.76 2.24-5 5-5h110c2.76 0 5 2.24 5 5v50c0 2.76-2.24 5-5 5h-110c-2.76 0-5-2.24-5-5z" stroke="#000" stroke-opacity="0" stroke-width="2" fill="#fff" fill-opacity="0"/><g><use xlink:href="#o" transform="matrix(1,0,0,1,412.5,-351) translate(10.624999999999993 17.799999999999997)"/><use xlink:href="#p" transform="matrix(1,0,0,1,412.5,-351) translate(23.525 39.4)"/></g><path d="M440.03-287.3h11M485.03-287.3h5M465.03-267.3c11.05 0 20-8.94 20-20 0-11.03-8.95-20-20-20" stroke="#000" stroke-width="2" fill="none"/><path d="M465.03-301.3c7.74 0 14 6.28 14 14 0 7.75-6.26 14-14 14-7.73 0-14-6.25-14-14 0-7.72 6.27-14 14-14z" stroke="#000" stroke-width="2" fill="#fff"/><path d="M440.03-287.3c0-.43.36-.8.8-.8h9.4c.45 0 .8.37.8.8 0 .46-.35.8-.8.8h-9.4c-.44 0-.8-.34-.8-.8z" fill="none"/><path d="M439.03-287.3h-30.85V-356h-30.85" stroke="#000" stroke-width="2" fill="none"/><path d="M440.03-286.3H439v-2h1.03zM377.36-355h-1.03v-2h1.03z"/><path d="M491.03-287.3h48.02V-356h48.02" stroke="#000" stroke-width="2" fill="none"/><path d="M491.06-286.3h-1.03v-2h1.03zM588.07-355h-1.03v-2h1.03z"/><defs><path d="M169-182c-1-43-94-46-97-3 18 66 151 10 154 114 3 95-165 93-204 36-6-8-10-19-12-30l50-8c3 46 112 56 116 5-17-69-150-10-154-114-4-87 153-88 188-35 5 8 8 18 10 28" id="q"/><path d="M240-174c0 40-23 61-54 70L253 0h-59l-57-94H76V0H24v-248c93 4 217-23 216 74zM76-134c48-2 112 12 112-38 0-48-66-32-112-35v73" id="r"/><path d="M24 0v-248h52V0H24" id="s"/><path d="M24 0v-248h52v208h133V0H24" id="t"/><path d="M230 0l2-204L168 0h-37L68-204 70 0H24v-248h70l56 185 57-185h69V0h-46" id="u"/><g id="a"><use transform="matrix(0.05,0,0,0.05,0,0)" xlink:href="#q"/><use transform="matrix(0.05,0,0,0.05,12,0)" xlink:href="#r"/><use transform="matrix(0.05,0,0,0.05,24.950000000000003,0)" xlink:href="#s"/><use transform="matrix(0.05,0,0,0.05,29.950000000000003,0)" xlink:href="#t"/><use transform="matrix(0.05,0,0,0.05,40.900000000000006,0)" xlink:href="#u"/></g><path d="M190 0L58-211 59 0H30v-248h39L202-35l-2-213h31V0h-41" id="v"/><path d="M84 4C-5 8 30-112 23-190h32v120c0 31 7 50 39 49 72-2 45-101 50-169h31l1 190h-30c-1-10 1-25-2-33-11 22-28 36-60 37" id="w"/><path d="M100-194c63 0 86 42 84 106H49c0 40 14 67 53 68 26 1 43-12 49-29l28 8c-11 28-37 45-77 45C44 4 14-33 15-96c1-61 26-98 85-98zm52 81c6-60-76-77-97-28-3 7-6 17-6 28h103" id="x"/><path d="M108 0H70L1-190h34L89-25l56-165h34" id="y"/><path d="M100-194c62-1 85 37 85 99 1 63-27 99-86 99S16-35 15-95c0-66 28-99 85-99zM99-20c44 1 53-31 53-75 0-43-8-75-51-75s-53 32-53 75 10 74 51 75" id="z"/><g id="b"><use transform="matrix(0.05,0,0,0.05,0,0)" xlink:href="#v"/><use transform="matrix(0.05,0,0,0.05,12.950000000000001,0)" xlink:href="#w"/><use transform="matrix(0.05,0,0,0.05,22.950000000000003,0)" xlink:href="#x"/><use transform="matrix(0.05,0,0,0.05,32.95,0)" xlink:href="#y"/><use transform="matrix(0.05,0,0,0.05,41.95,0)" xlink:href="#z"/></g><path d="M240 0l2-218c-23 76-54 145-80 218h-23L58-218 59 0H30v-248h44l77 211c21-75 51-140 76-211h43V0h-30" id="A"/><path d="M85-194c31 0 48 13 60 33l-1-100h32l1 261h-30c-2-10 0-23-3-31C134-8 116 4 85 4 32 4 16-35 15-94c0-66 23-100 70-100zm9 24c-40 0-46 34-46 75 0 40 6 74 45 74 42 0 51-32 51-76 0-42-9-74-50-73" id="B"/><path d="M24 0v-261h32V0H24" id="C"/><g id="c"><use transform="matrix(0.05,0,0,0.05,0,0)" xlink:href="#A"/><use transform="matrix(0.05,0,0,0.05,14.950000000000001,0)" xlink:href="#z"/><use transform="matrix(0.05,0,0,0.05,24.950000000000003,0)" xlink:href="#B"/><use transform="matrix(0.05,0,0,0.05,34.95,0)" xlink:href="#x"/><use transform="matrix(0.05,0,0,0.05,44.95,0)" xlink:href="#C"/><use transform="matrix(0.05,0,0,0.05,48.900000000000006,0)" xlink:href="#z"/></g><g id="d"><use transform="matrix(0.05,0,0,0.05,0,0)" xlink:href="#B"/><use transform="matrix(0.05,0,0,0.05,10,0)" xlink:href="#x"/></g><path d="M30 0v-248h33v221h125V0H30" id="D"/><path d="M117-194c89-4 53 116 60 194h-32v-121c0-31-8-49-39-48C34-167 62-67 57 0H25l-1-190h30c1 10-1 24 2 32 11-22 29-35 61-36" id="E"/><path d="M177-190C167-65 218 103 67 71c-23-6-38-20-44-43l32-5c15 47 100 32 89-28v-30C133-14 115 1 83 1 29 1 15-40 15-95c0-56 16-97 71-98 29-1 48 16 59 35 1-10 0-23 2-32h30zM94-22c36 0 50-32 50-73 0-42-14-75-50-75-39 0-46 34-46 75s6 73 46 73" id="F"/><path d="M141-36C126-15 110 5 73 4 37 3 15-17 15-53c-1-64 63-63 125-63 3-35-9-54-41-54-24 1-41 7-42 31l-33-3c5-37 33-52 76-52 45 0 72 20 72 64v82c-1 20 7 32 28 27v20c-31 9-61-2-59-35zM48-53c0 20 12 33 32 33 41-3 63-29 60-74-43 2-92-5-92 41" id="G"/><path d="M24-231v-30h32v30H24zM-9 49c24 4 33-6 33-30v-209h32V24c2 40-23 58-65 49V49" id="H"/><g id="e"><use transform="matrix(0.05,0,0,0.05,0,0)" xlink:href="#D"/><use transform="matrix(0.05,0,0,0.05,10,0)" xlink:href="#x"/><use transform="matrix(0.05,0,0,0.05,20,0)" xlink:href="#E"/><use transform="matrix(0.05,0,0,0.05,30,0)" xlink:href="#F"/><use transform="matrix(0.05,0,0,0.05,40,0)" xlink:href="#w"/><use transform="matrix(0.05,0,0,0.05,50,0)" xlink:href="#G"/><use transform="matrix(0.05,0,0,0.05,60,0)" xlink:href="#H"/><use transform="matrix(0.05,0,0,0.05,63.95,0)" xlink:href="#x"/></g><path d="M114-163C36-179 61-72 57 0H25l-1-190h30c1 12-1 29 2 39 6-27 23-49 58-41v29" id="I"/><g id="f"><use transform="matrix(0.05,0,0,0.05,0,0)" xlink:href="#A"/><use transform="matrix(0.05,0,0,0.05,14.950000000000001,0)" xlink:href="#x"/><use transform="matrix(0.05,0,0,0.05,24.950000000000003,0)" xlink:href="#H"/><use transform="matrix(0.05,0,0,0.05,28.900000000000002,0)" xlink:href="#z"/><use transform="matrix(0.05,0,0,0.05,38.900000000000006,0)" xlink:href="#I"/><use transform="matrix(0.05,0,0,0.05,44.85000000000001,0)" xlink:href="#G"/></g><path d="M24-231v-30h32v30H24zM24 0v-190h32V0H24" id="J"/><path d="M135-143c-3-34-86-38-87 0 15 53 115 12 119 90S17 21 10-45l28-5c4 36 97 45 98 0-10-56-113-15-118-90-4-57 82-63 122-42 12 7 21 19 24 35" id="K"/><path d="M59-47c-2 24 18 29 38 22v24C64 9 27 4 27-40v-127H5v-23h24l9-43h21v43h35v23H59v120" id="L"/><g id="g"><use transform="matrix(0.05,0,0,0.05,0,0)" xlink:href="#D"/><use transform="matrix(0.05,0,0,0.05,10,0)" xlink:href="#J"/><use transform="matrix(0.05,0,0,0.05,13.949999999999998,0)" xlink:href="#K"/><use transform="matrix(0.05,0,0,0.05,22.95,0)" xlink:href="#L"/><use transform="matrix(0.05,0,0,0.05,27.950000000000003,0)" xlink:href="#G"/></g><g id="h"><use transform="matrix(0.05,0,0,0.05,0,0)" xlink:href="#B"/><use transform="matrix(0.05,0,0,0.05,10,0)" xlink:href="#x"/></g><path d="M63-220v92h138v28H63V0H30v-248h175v28H63" id="M"/><g id="i"><use transform="matrix(0.05,0,0,0.05,0,0)" xlink:href="#M"/><use transform="matrix(0.05,0,0,0.05,10.950000000000001,0)" xlink:href="#I"/><use transform="matrix(0.05,0,0,0.05,16.900000000000002,0)" xlink:href="#G"/><use transform="matrix(0.05,0,0,0.05,26.900000000000002,0)" xlink:href="#K"/><use transform="matrix(0.05,0,0,0.05,35.900000000000006,0)" xlink:href="#x"/><use transform="matrix(0.05,0,0,0.05,45.900000000000006,0)" xlink:href="#K"/></g><path d="M30-248c118-7 216 8 213 122C240-48 200 0 122 0H30v-248zM63-27c89 8 146-16 146-99s-60-101-146-95v194" id="N"/><g id="j"><use transform="matrix(0.05,0,0,0.05,0,0)" xlink:href="#N"/><use transform="matrix(0.05,0,0,0.05,12.950000000000001,0)" xlink:href="#G"/><use transform="matrix(0.05,0,0,0.05,22.950000000000003,0)" xlink:href="#L"/><use transform="matrix(0.05,0,0,0.05,27.950000000000003,0)" xlink:href="#z"/><use transform="matrix(0.05,0,0,0.05,37.95,0)" xlink:href="#K"/></g><g id="k"><use transform="matrix(0.05,0,0,0.05,0,0)" xlink:href="#x"/><use transform="matrix(0.05,0,0,0.05,10,0)" xlink:href="#E"/><use transform="matrix(0.05,0,0,0.05,20,0)" xlink:href="#L"/><use transform="matrix(0.05,0,0,0.05,25,0)" xlink:href="#I"/><use transform="matrix(0.05,0,0,0.05,30.950000000000003,0)" xlink:href="#G"/><use transform="matrix(0.05,0,0,0.05,40.95,0)" xlink:href="#B"/><use transform="matrix(0.05,0,0,0.05,50.95,0)" xlink:href="#G"/></g><path d="M96-169c-40 0-48 33-48 73s9 75 48 75c24 0 41-14 43-38l32 2c-6 37-31 61-74 61-59 0-76-41-82-99-10-93 101-131 147-64 4 7 5 14 7 22l-32 3c-4-21-16-35-41-35" id="O"/><g id="l"><use transform="matrix(0.05,0,0,0.05,0,0)" xlink:href="#K"/><use transform="matrix(0.05,0,0,0.05,9,0)" xlink:href="#x"/><use transform="matrix(0.05,0,0,0.05,19,0)" xlink:href="#I"/><use transform="matrix(0.05,0,0,0.05,24.95,0)" xlink:href="#y"/><use transform="matrix(0.05,0,0,0.05,33.95,0)" xlink:href="#J"/><use transform="matrix(0.05,0,0,0.05,37.900000000000006,0)" xlink:href="#O"/><use transform="matrix(0.05,0,0,0.05,46.900000000000006,0)" xlink:href="#J"/><use transform="matrix(0.05,0,0,0.05,50.85000000000001,0)" xlink:href="#z"/></g><g id="m"><use transform="matrix(0.05,0,0,0.05,0,0)" xlink:href="#K"/><use transform="matrix(0.05,0,0,0.05,9,0)" xlink:href="#G"/><use transform="matrix(0.05,0,0,0.05,19,0)" xlink:href="#C"/><use transform="matrix(0.05,0,0,0.05,22.95,0)" xlink:href="#J"/><use transform="matrix(0.05,0,0,0.05,26.899999999999995,0)" xlink:href="#B"/><use transform="matrix(0.05,0,0,0.05,36.9,0)" xlink:href="#G"/></g><g id="n"><use transform="matrix(0.06790123456790124,0,0,0.06790123456790124,0,0)" xlink:href="#q"/><use transform="matrix(0.06790123456790124,0,0,0.06790123456790124,16.296296296296298,0)" xlink:href="#r"/><use transform="matrix(0.06790123456790124,0,0,0.06790123456790124,33.88271604938272,0)" xlink:href="#s"/><use transform="matrix(0.06790123456790124,0,0,0.06790123456790124,40.67283950617284,0)" xlink:href="#t"/><use transform="matrix(0.06790123456790124,0,0,0.06790123456790124,55.54320987654322,0)" xlink:href="#u"/></g><g id="o"><use transform="matrix(0.05,0,0,0.05,0,0)" xlink:href="#N"/><use transform="matrix(0.05,0,0,0.05,12.950000000000001,0)" xlink:href="#J"/><use transform="matrix(0.05,0,0,0.05,16.900000000000002,0)" xlink:href="#O"/><use transform="matrix(0.05,0,0,0.05,25.900000000000002,0)" xlink:href="#O"/><use transform="matrix(0.05,0,0,0.05,34.900000000000006,0)" xlink:href="#J"/><use transform="matrix(0.05,0,0,0.05,38.85000000000001,0)" xlink:href="#z"/><use transform="matrix(0.05,0,0,0.05,48.85000000000001,0)" xlink:href="#E"/><use transform="matrix(0.05,0,0,0.05,58.85,0)" xlink:href="#G"/><use transform="matrix(0.05,0,0,0.05,68.85000000000001,0)" xlink:href="#I"/><use transform="matrix(0.05,0,0,0.05,74.80000000000001,0)" xlink:href="#J"/><use transform="matrix(0.05,0,0,0.05,78.75000000000001,0)" xlink:href="#z"/></g><path d="M101-234c-31-9-42 10-38 44h38v23H63V0H32v-167H5v-23h27c-7-52 17-82 69-68v24" id="P"/><path d="M100-194c63 0 86 42 84 106H49c0 40 14 67 53 68 26 1 43-12 49-29l28 8c-11 28-37 45-77 45C44 4 14-33 15-96c1-61 26-98 85-98zm52 81c6-60-76-77-97-28-3 7-6 17-6 28h103zm-74-98c8-23 27-35 38-54h36v5l-58 49H78" id="Q"/><g id="p"><use transform="matrix(0.05,0,0,0.05,0,0)" xlink:href="#P"/><use transform="matrix(0.05,0,0,0.05,5,0)" xlink:href="#z"/><use transform="matrix(0.05,0,0,0.05,15,0)" xlink:href="#E"/><use transform="matrix(0.05,0,0,0.05,25,0)" xlink:href="#Q"/><use transform="matrix(0.05,0,0,0.05,35,0)" xlink:href="#L"/><use transform="matrix(0.05,0,0,0.05,40,0)" xlink:href="#J"/><use transform="matrix(0.05,0,0,0.05,43.95,0)" xlink:href="#O"/><use transform="matrix(0.05,0,0,0.05,52.95,0)" xlink:href="#z"/></g></defs></g></svg>