<svg xmlns="http://www.w3.org/2000/svg" xmlns:xlink="http://www.w3.org/1999/xlink" xmlns:lucid="lucid" width="1131" height="840"><g transform="translate(-160 -160)" lucid:page-tab-id="0_0"><path d="M600 220h220v100H600z" stroke="#000" stroke-width="2" fill="#fff"/><path d="M580 235h40v20h-40zM580 285h40v20h-40z" stroke="#000" stroke-width="2" fill="#fff"/><use xlink:href="#a" transform="matrix(1,0,0,1,628,230) translate(32.025 43.6)"/><path d="M600 440h220v100H600z" stroke="#000" stroke-width="2" fill="#fff"/><path d="M580 455h40v20h-40zM580 505h40v20h-40z" stroke="#000" stroke-width="2" fill="#fff"/><use xlink:href="#b" transform="matrix(1,0,0,1,628,450) translate(25.67499999999999 43.6)"/><path d="M200 440h220v100H200z" stroke="#000" stroke-width="2" fill="#fff"/><path d="M180 455h40v20h-40zM180 505h40v20h-40z" stroke="#000" stroke-width="2" fill="#fff"/><use xlink:href="#c" transform="matrix(1,0,0,1,228,450) translate(28.549999999999997 43.6)"/><path d="M1000 440h220v100h-220z" stroke="#000" stroke-width="2" fill="#fff"/><path d="M980 455h40v20h-40zM980 505h40v20h-40z" stroke="#000" stroke-width="2" fill="#fff"/><use xlink:href="#d" transform="matrix(1,0,0,1,1028,450) translate(23.9 43.6)"/><path d="M600 660h220v100H600z" stroke="#000" stroke-width="2" fill="#fff"/><path d="M580 675h40v20h-40zM580 725h40v20h-40z" stroke="#000" stroke-width="2" fill="#fff"/><use xlink:href="#e" transform="matrix(1,0,0,1,628,670) translate(51.925 43.6)"/><path d="M600 880h220v100H600z" stroke="#000" stroke-width="2" fill="#fff"/><path d="M580 895h40v20h-40zM580 945h40v20h-40z" stroke="#000" stroke-width="2" fill="#fff"/><use xlink:href="#f" transform="matrix(1,0,0,1,628,890) translate(56.55 43.6)"/><path d="M1000 880h220v100h-220z" stroke="#000" stroke-width="2" fill="#fff"/><path d="M980 895h40v20h-40zM980 945h40v20h-40z" stroke="#000" stroke-width="2" fill="#fff"/><use xlink:href="#g" transform="matrix(1,0,0,1,1028,890) translate(26.549999999999997 43.6)"/><path d="M200 880h220v100H200z" stroke="#000" stroke-width="2" fill="#fff"/><path d="M180 895h40v20h-40zM180 945h40v20h-40z" stroke="#000" stroke-width="2" fill="#fff"/><use xlink:href="#h" transform="matrix(1,0,0,1,228,890) translate(66 43.6)"/><path d="M638.8 438v-98.5" stroke="#000" stroke-width="2" fill="none"/><path d="M639.8 439h-2v-1.03h2z"/><path d="M638.8 324.24l4.64 14.26h-9.28z" stroke="#000" stroke-width="2"/><path d="M598 490H439.5" stroke="#000" stroke-width="2" fill="none"/><path d="M599 491h-1.03v-2H599z"/><path d="M424.24 490l14.26-4.64v9.28z" stroke="#000" stroke-width="2"/><path d="M822 490h158.5" stroke="#000" stroke-width="2" fill="none"/><path d="M822.03 491H821v-2h1.03z"/><path d="M995.76 490l-14.26 4.64v-9.28z" stroke="#000" stroke-width="2"/><path d="M638.8 542v98.5" stroke="#000" stroke-width="2" fill="none"/><path d="M639.8 542.03h-2V541h2z"/><path d="M638.8 655.76l-4.64-14.26h9.28z" stroke="#000" stroke-width="2"/><path d="M638.8 762v58H361.2v40.5" stroke="#000" stroke-width="2" fill="none"/><path d="M639.8 762.03h-2V761h2z"/><path d="M361.2 875.76l-4.64-14.26h9.28z" stroke="#000" stroke-width="2"/><path d="M700 762v98.5" stroke="#000" stroke-width="2" fill="none"/><path d="M701 762.03h-2V761h2z"/><path d="M700 875.76l-4.64-14.26h9.28z" stroke="#000" stroke-width="2"/><path d="M761.2 762v58H1100v40.5" stroke="#000" stroke-width="2" fill="none"/><path d="M762.2 762.03h-2V761h2z"/><path d="M1100 875.76l-4.64-14.26h9.28z" stroke="#000" stroke-width="2"/><path d="M1160 185c0-2.76 2.24-5 5-5h90c2.76 0 5 2.24 5 5v30c0 2.76-2.24 5-5 5h-90c-2.76 0-5-2.24-5-5z" stroke="#000" stroke-opacity="0" stroke-width="2" fill="#fff" fill-opacity="0"/><use xlink:href="#i" transform="matrix(1,0,0,1,1165,185) translate(20.24074074074074 17.666666666666668)"/><path d="M1160 254c0-2.76 2.24-5 5-5h90c2.76 0 5 2.24 5 5v32c0 2.76-2.24 5-5 5h-90c-2.76 0-5-2.24-5-5z" stroke="#000" stroke-opacity="0" stroke-width="2" fill="#fff" fill-opacity="0"/><use xlink:href="#j" transform="matrix(1,0,0,1,1165,254) translate(13.166666666666664 18.666666666666668)"/><path d="M1161 291h80.5M1161.03 291H1160" stroke="#000" stroke-width="2" fill="none"/><path d="M1256.76 291l-14.26 4.64v-9.28z" stroke="#000" stroke-width="2"/><path d="M1161.82 220h96.36" fill="none"/><path d="M1161.82 220h10.7m10.7 0h21.43m10.7 0h21.42m10.7 0h10.7M1179.18 209.82L1161.96 220l17.22 10.18M1240.82 230.18l17.22-10.18-17.22-10.18" stroke="#000" stroke-width="2" fill="none"/><path d="M761.2 322.82v114.36" fill="none"/><path d="M761.2 322.82v9.53m0 9.53v19.06m0 9.53v19.06m0 9.53v19.06m0 9.53v9.53M771.38 340.18l-10.18-17.22-10.18 17.22M751.02 419.82l10.18 17.22 10.18-17.22" stroke="#000" stroke-width="2" fill="none"/><path d="M761.2 542.82v114.36" fill="none"/><path d="M761.2 542.82v9.53m0 9.53v19.06m0 9.53v19.06m0 9.53v19.06m0 9.53v9.53M771.38 560.18l-10.18-17.22-10.18 17.22M751.02 639.82l10.18 17.22 10.18-17.22" stroke="#000" stroke-width="2" fill="none"/><path d="M609.07 437.18V399H361.2v38.18" fill="none"/><path d="M609.07 437.18v-9.82m0-9.83V399h-1.12m-9.82 0h-19.65m-9.83 0H549m-9.82 0h-19.65m-9.83 0h-19.65m-9.83 0h-19.65m-9.82 0H431.1m-9.83 0h-19.65m-9.82 0h-19.65m-9.83 0h-1.12v18.53m0 9.83v9.82M598.9 419.82l10.17 17.22 10.2-17.22M351.02 419.82l10.18 17.22 10.18-17.22" stroke="#000" stroke-width="2" fill="none"/><path d="M1038.8 437.18V399H799.74v38.18" fill="none"/><path d="M1038.8 437.18v-9.56m0-9.55V399h-.05m-9.56 0h-19.13m-9.55 0H981.4m-9.56 0h-19.12m-9.55 0h-19.12m-9.56 0h-19.12m-9.56 0H866.7m-9.56 0h-19.1m-9.57 0h-19.12m-9.56 0h-.06v19.07m0 9.55v9.56M1028.62 419.82l10.18 17.22 10.18-17.22M789.56 419.82l10.18 17.22 10.18-17.22" stroke="#000" stroke-width="2" fill="none"/><path d="M300 877.18V590h180v-74.8h97.18" fill="none"/><path d="M300 877.18v-10.14m0-10.15v-20.3m0-10.14v-20.3m0-10.14v-20.3m0-10.14v-20.3m0-10.13v-20.3m0-10.14v-20.28m0-10.14v-20.3m0-10.14v-20.3m0-10.14v-20.3m7.03-3.1h20.3m10.14 0h20.3m10.13 0h20.3m10.14 0h20.3m10.14 0h20.3m10.13 0h20.3m.5-9.65v-20.3m0-10.13v-20.3m0-10.14v-4.27h16.02m10.14 0h20.3m10.14 0h20.3m10.14 0h10.14M289.82 859.82L300 877.04l10.18-17.22M559.82 525.4l17.22-10.2-17.22-10.17" stroke="#000" stroke-width="2" fill="none"/><path d="M1161.2 877.18V610H795.77v-67.18" fill="none"/><path d="M1161.2 877.18v-10.14m0-10.14v-20.3m0-10.13V806.2m0-10.15v-20.3m0-10.13v-20.28m0-10.15v-20.3m0-10.13v-20.3m0-10.13v-20.28m0-10.14v-20.3m0-10.13V610h-16.8m-10.13 0h-20.3m-10.13 0h-20.28m-10.15 0h-20.27m-10.14 0h-20.3m-10.14 0h-20.28m-10.14 0h-20.3m-10.13 0h-20.27m-10.15 0H901m-10.14 0h-20.3m-10.13 0h-20.28M830 610h-20.28m-10.14 0h-3.8v-16.47m0-10.14v-20.3m0-10.14v-10.14M1151.02 859.82l10.18 17.22 10.18-17.22M805.95 560.18l-10.18-17.22-10.18 17.22" stroke="#000" stroke-width="2" fill="none"/><path d="M597.18 930H559V630h54.05v-87.18" fill="none"/><path d="M597.18 930h-10m-9.97 0H559v-1.77m0-10v-19.96m0-10V868.3m0-9.98v-19.98m0-10V808.4m0-10v-19.96m0-10v-19.97m0-10V718.5m0-10v-19.97m0-10v-19.97m0-10V630h1.4m10 0h19.96m10 0h12.7v-7.28m0-10v-19.96m0-10V562.8m0-10v-9.98M579.82 940.18L597.04 930l-17.22-10.18M623.23 560.18l-10.18-17.22-10.18 17.22" stroke="#000" stroke-width="2" fill="none"/><defs><path d="M185-189c-5-48-123-54-124 2 14 75 158 14 163 119 3 78-121 87-175 55-17-10-28-26-33-46l33-7c5 56 141 63 141-1 0-78-155-14-162-118-5-82 145-84 179-34 5 7 8 16 11 25" id="k"/><path d="M115-194c55 1 70 41 70 98S169 2 115 4C84 4 66-9 55-30l1 105H24l-1-265h31l2 30c10-21 28-34 59-34zm-8 174c40 0 45-34 45-75s-6-73-45-74c-42 0-51 32-51 76 0 43 10 73 51 73" id="l"/><path d="M100-194c63 0 86 42 84 106H49c0 40 14 67 53 68 26 1 43-12 49-29l28 8c-11 28-37 45-77 45C44 4 14-33 15-96c1-61 26-98 85-98zm52 81c6-60-76-77-97-28-3 7-6 17-6 28h103" id="m"/><path d="M96-169c-40 0-48 33-48 73s9 75 48 75c24 0 41-14 43-38l32 2c-6 37-31 61-74 61-59 0-76-41-82-99-10-93 101-131 147-64 4 7 5 14 7 22l-32 3c-4-21-16-35-41-35" id="n"/><path d="M106-169C34-169 62-67 57 0H25v-261h32l-1 103c12-21 28-36 61-36 89 0 53 116 60 194h-32v-121c2-32-8-49-39-48" id="o"/><path d="M101-251c82-7 93 87 43 132L82-64C71-53 59-42 53-27h129V0H18c2-99 128-94 128-182 0-28-16-43-45-43s-46 15-49 41l-32-3c6-41 34-60 81-64" id="p"/><path d="M127-220V0H93v-220H8v-28h204v28h-85" id="q"/><path d="M141 0L90-78 38 0H4l68-98-65-92h35l48 74 47-74h35l-64 92 68 98h-35" id="r"/><path d="M59-47c-2 24 18 29 38 22v24C64 9 27 4 27-40v-127H5v-23h24l9-43h21v43h35v23H59v120" id="s"/><g id="a"><use transform="matrix(0.05,0,0,0.05,0,0)" xlink:href="#k"/><use transform="matrix(0.05,0,0,0.05,12,0)" xlink:href="#l"/><use transform="matrix(0.05,0,0,0.05,22,0)" xlink:href="#m"/><use transform="matrix(0.05,0,0,0.05,32,0)" xlink:href="#m"/><use transform="matrix(0.05,0,0,0.05,42,0)" xlink:href="#n"/><use transform="matrix(0.05,0,0,0.05,51,0)" xlink:href="#o"/><use transform="matrix(0.05,0,0,0.05,61,0)" xlink:href="#p"/><use transform="matrix(0.05,0,0,0.05,71,0)" xlink:href="#q"/><use transform="matrix(0.05,0,0,0.05,79.95,0)" xlink:href="#m"/><use transform="matrix(0.05,0,0,0.05,89.95,0)" xlink:href="#r"/><use transform="matrix(0.05,0,0,0.05,98.95,0)" xlink:href="#s"/></g><path d="M240 0l2-218c-23 76-54 145-80 218h-23L58-218 59 0H30v-248h44l77 211c21-75 51-140 76-211h43V0h-30" id="t"/><path d="M141-36C126-15 110 5 73 4 37 3 15-17 15-53c-1-64 63-63 125-63 3-35-9-54-41-54-24 1-41 7-42 31l-33-3c5-37 33-52 76-52 45 0 72 20 72 64v82c-1 20 7 32 28 27v20c-31 9-61-2-59-35zM48-53c0 20 12 33 32 33 41-3 63-29 60-74-43 2-92-5-92 41" id="u"/><path d="M24-231v-30h32v30H24zM24 0v-190h32V0H24" id="v"/><path d="M117-194c89-4 53 116 60 194h-32v-121c0-31-8-49-39-48C34-167 62-67 57 0H25l-1-190h30c1 10-1 24 2 32 11-22 29-35 61-36" id="w"/><path d="M212-179c-10-28-35-45-73-45-59 0-87 40-87 99 0 60 29 101 89 101 43 0 62-24 78-52l27 14C228-24 195 4 139 4 59 4 22-46 18-125c-6-104 99-153 187-111 19 9 31 26 39 46" id="x"/><path d="M100-194c62-1 85 37 85 99 1 63-27 99-86 99S16-35 15-95c0-66 28-99 85-99zM99-20c44 1 53-31 53-75 0-43-8-75-51-75s-53 32-53 75 10 74 51 75" id="y"/><path d="M114-163C36-179 61-72 57 0H25l-1-190h30c1 12-1 29 2 39 6-27 23-49 58-41v29" id="z"/><path d="M24 0v-261h32V0H24" id="A"/><g id="b"><use transform="matrix(0.05,0,0,0.05,0,0)" xlink:href="#t"/><use transform="matrix(0.05,0,0,0.05,14.950000000000001,0)" xlink:href="#u"/><use transform="matrix(0.05,0,0,0.05,24.950000000000003,0)" xlink:href="#v"/><use transform="matrix(0.05,0,0,0.05,28.900000000000002,0)" xlink:href="#w"/><use transform="matrix(0.05,0,0,0.05,38.900000000000006,0)" xlink:href="#x"/><use transform="matrix(0.05,0,0,0.05,51.85,0)" xlink:href="#y"/><use transform="matrix(0.05,0,0,0.05,61.85,0)" xlink:href="#w"/><use transform="matrix(0.05,0,0,0.05,71.85000000000001,0)" xlink:href="#s"/><use transform="matrix(0.05,0,0,0.05,76.85000000000001,0)" xlink:href="#z"/><use transform="matrix(0.05,0,0,0.05,82.80000000000001,0)" xlink:href="#y"/><use transform="matrix(0.05,0,0,0.05,92.80000000000001,0)" xlink:href="#A"/><use transform="matrix(0.05,0,0,0.05,96.75000000000001,0)" xlink:href="#A"/><use transform="matrix(0.05,0,0,0.05,100.70000000000002,0)" xlink:href="#m"/><use transform="matrix(0.05,0,0,0.05,110.7,0)" xlink:href="#z"/></g><path d="M205 0l-28-72H64L36 0H1l101-248h38L239 0h-34zm-38-99l-47-123c-12 45-31 82-46 123h93" id="B"/><path d="M84 4C-5 8 30-112 23-190h32v120c0 31 7 50 39 49 72-2 45-101 50-169h31l1 190h-30c-1-10 1-25-2-33-11 22-28 36-60 37" id="C"/><path d="M85-194c31 0 48 13 60 33l-1-100h32l1 261h-30c-2-10 0-23-3-31C134-8 116 4 85 4 32 4 16-35 15-94c0-66 23-100 70-100zm9 24c-40 0-46 34-46 75 0 40 6 74 45 74 42 0 51-32 51-76 0-42-9-74-50-73" id="D"/><path d="M30-248c87 1 191-15 191 75 0 78-77 80-158 76V0H30v-248zm33 125c57 0 124 11 124-50 0-59-68-47-124-48v98" id="E"/><path d="M135-143c-3-34-86-38-87 0 15 53 115 12 119 90S17 21 10-45l28-5c4 36 97 45 98 0-10-56-113-15-118-90-4-57 82-63 122-42 12 7 21 19 24 35" id="F"/><g id="c"><use transform="matrix(0.05,0,0,0.05,0,0)" xlink:href="#B"/><use transform="matrix(0.05,0,0,0.05,12,0)" xlink:href="#C"/><use transform="matrix(0.05,0,0,0.05,22,0)" xlink:href="#D"/><use transform="matrix(0.05,0,0,0.05,32,0)" xlink:href="#v"/><use transform="matrix(0.05,0,0,0.05,35.95,0)" xlink:href="#y"/><use transform="matrix(0.05,0,0,0.05,45.95,0)" xlink:href="#E"/><use transform="matrix(0.05,0,0,0.05,57.95,0)" xlink:href="#z"/><use transform="matrix(0.05,0,0,0.05,63.900000000000006,0)" xlink:href="#y"/><use transform="matrix(0.05,0,0,0.05,73.9,0)" xlink:href="#n"/><use transform="matrix(0.05,0,0,0.05,82.9,0)" xlink:href="#m"/><use transform="matrix(0.05,0,0,0.05,92.9,0)" xlink:href="#F"/><use transform="matrix(0.05,0,0,0.05,101.9,0)" xlink:href="#F"/></g><path d="M143 4C61 4 22-44 18-125c-5-107 100-154 193-111 17 8 29 25 37 43l-32 9c-13-25-37-40-76-40-61 0-88 39-88 99 0 61 29 100 91 101 35 0 62-11 79-27v-45h-74v-28h105v86C228-13 192 4 143 4" id="G"/><g id="d"><use transform="matrix(0.05,0,0,0.05,0,0)" xlink:href="#G"/><use transform="matrix(0.05,0,0,0.05,14,0)" xlink:href="#m"/><use transform="matrix(0.05,0,0,0.05,24,0)" xlink:href="#s"/><use transform="matrix(0.05,0,0,0.05,29,0)" xlink:href="#B"/><use transform="matrix(0.05,0,0,0.05,41,0)" xlink:href="#C"/><use transform="matrix(0.05,0,0,0.05,51,0)" xlink:href="#D"/><use transform="matrix(0.05,0,0,0.05,61,0)" xlink:href="#v"/><use transform="matrix(0.05,0,0,0.05,64.95,0)" xlink:href="#y"/><use transform="matrix(0.05,0,0,0.05,74.95,0)" xlink:href="#q"/><use transform="matrix(0.05,0,0,0.05,85.25,0)" xlink:href="#z"/><use transform="matrix(0.05,0,0,0.05,91.2,0)" xlink:href="#u"/><use transform="matrix(0.05,0,0,0.05,101.2,0)" xlink:href="#w"/><use transform="matrix(0.05,0,0,0.05,111.2,0)" xlink:href="#F"/></g><path d="M177-190C167-65 218 103 67 71c-23-6-38-20-44-43l32-5c15 47 100 32 89-28v-30C133-14 115 1 83 1 29 1 15-40 15-95c0-56 16-97 71-98 29-1 48 16 59 35 1-10 0-23 2-32h30zM94-22c36 0 50-32 50-73 0-42-14-75-50-75-39 0-46 34-46 75s6 73 46 73" id="H"/><g id="e"><use transform="matrix(0.05,0,0,0.05,0,0)" xlink:href="#q"/><use transform="matrix(0.05,0,0,0.05,10.3,0)" xlink:href="#z"/><use transform="matrix(0.05,0,0,0.05,16.25,0)" xlink:href="#u"/><use transform="matrix(0.05,0,0,0.05,26.25,0)" xlink:href="#v"/><use transform="matrix(0.05,0,0,0.05,30.200000000000003,0)" xlink:href="#w"/><use transform="matrix(0.05,0,0,0.05,40.2,0)" xlink:href="#v"/><use transform="matrix(0.05,0,0,0.05,44.150000000000006,0)" xlink:href="#w"/><use transform="matrix(0.05,0,0,0.05,54.150000000000006,0)" xlink:href="#H"/></g><path d="M233-177c-1 41-23 64-60 70L243 0h-38l-65-103H63V0H30v-248c88 3 205-21 203 71zM63-129c60-2 137 13 137-47 0-61-80-42-137-45v92" id="I"/><path d="M33 0v-248h34V0H33" id="J"/><path d="M30 0v-248h33v221h125V0H30" id="K"/><g id="f"><use transform="matrix(0.05,0,0,0.05,0,0)" xlink:href="#k"/><use transform="matrix(0.05,0,0,0.05,12,0)" xlink:href="#I"/><use transform="matrix(0.05,0,0,0.05,24.950000000000003,0)" xlink:href="#J"/><use transform="matrix(0.05,0,0,0.05,29.950000000000003,0)" xlink:href="#K"/><use transform="matrix(0.05,0,0,0.05,39.95,0)" xlink:href="#t"/></g><path d="M197 0v-115H63V0H30v-248h33v105h134v-105h34V0h-34" id="L"/><path d="M190 0L58-211 59 0H30v-248h39L202-35l-2-213h31V0h-41" id="M"/><path d="M195 0l-74-108L45 0H8l94-129-87-119h37l69 98 67-98h37l-84 118L233 0h-38" id="N"/><path d="M160-131c35 5 61 23 61 61C221 17 115-2 30 0v-248c76 3 177-17 177 60 0 33-19 50-47 57zm-97-11c50-1 110 9 110-42 0-47-63-36-110-37v79zm0 115c55-2 124 14 124-45 0-56-70-42-124-44v89" id="O"/><path d="M30 0v-248h187v28H63v79h144v27H63v87h162V0H30" id="P"/><g id="g"><use transform="matrix(0.05,0,0,0.05,0,0)" xlink:href="#k"/><use transform="matrix(0.05,0,0,0.05,12,0)" xlink:href="#E"/><use transform="matrix(0.05,0,0,0.05,24,0)" xlink:href="#L"/><use transform="matrix(0.05,0,0,0.05,36.95,0)" xlink:href="#J"/><use transform="matrix(0.05,0,0,0.05,41.95,0)" xlink:href="#M"/><use transform="matrix(0.05,0,0,0.05,54.900000000000006,0)" xlink:href="#N"/><use transform="matrix(0.05,0,0,0.05,66.9,0)" xlink:href="#O"/><use transform="matrix(0.05,0,0,0.05,78.9,0)" xlink:href="#B"/><use transform="matrix(0.05,0,0,0.05,90.9,0)" xlink:href="#k"/><use transform="matrix(0.05,0,0,0.05,102.9,0)" xlink:href="#P"/></g><g id="h"><use transform="matrix(0.05,0,0,0.05,0,0)" xlink:href="#G"/><use transform="matrix(0.05,0,0,0.05,14,0)" xlink:href="#p"/><use transform="matrix(0.05,0,0,0.05,24,0)" xlink:href="#E"/></g><g id="i"><use transform="matrix(0.03703703703703704,0,0,0.03703703703703704,0,0)" xlink:href="#I"/><use transform="matrix(0.03703703703703704,0,0,0.03703703703703704,9.592592592592593,0)" xlink:href="#m"/><use transform="matrix(0.03703703703703704,0,0,0.03703703703703704,17,0)" xlink:href="#H"/><use transform="matrix(0.03703703703703704,0,0,0.03703703703703704,24.407407407407405,0)" xlink:href="#v"/><use transform="matrix(0.03703703703703704,0,0,0.03703703703703704,27.333333333333336,0)" xlink:href="#F"/><use transform="matrix(0.03703703703703704,0,0,0.03703703703703704,34,0)" xlink:href="#s"/><use transform="matrix(0.03703703703703704,0,0,0.03703703703703704,37.7037037037037,0)" xlink:href="#z"/><use transform="matrix(0.03703703703703704,0,0,0.03703703703703704,42.111111111111114,0)" xlink:href="#y"/></g><path d="M108 0H70L1-190h34L89-25l56-165h34" id="Q"/><path d="M100-194c62-1 85 37 85 99 1 63-27 99-86 99S16-35 15-95c0-66 28-99 85-99zM99-20c44 1 53-31 53-75 0-43-8-75-51-75s-53 32-53 75 10 74 51 75zM76-211c8-23 27-35 38-54h36v5l-58 49H76" id="R"/><g id="j"><use transform="matrix(0.03703703703703704,0,0,0.03703703703703704,0,0)" xlink:href="#J"/><use transform="matrix(0.03703703703703704,0,0,0.03703703703703704,3.703703703703704,0)" xlink:href="#w"/><use transform="matrix(0.03703703703703704,0,0,0.03703703703703704,11.111111111111112,0)" xlink:href="#Q"/><use transform="matrix(0.03703703703703704,0,0,0.03703703703703704,17.77777777777778,0)" xlink:href="#y"/><use transform="matrix(0.03703703703703704,0,0,0.03703703703703704,25.185185185185187,0)" xlink:href="#n"/><use transform="matrix(0.03703703703703704,0,0,0.03703703703703704,31.851851851851855,0)" xlink:href="#u"/><use transform="matrix(0.03703703703703704,0,0,0.03703703703703704,39.25925925925927,0)" xlink:href="#n"/><use transform="matrix(0.03703703703703704,0,0,0.03703703703703704,45.92592592592594,0)" xlink:href="#v"/><use transform="matrix(0.03703703703703704,0,0,0.03703703703703704,48.851851851851855,0)" xlink:href="#R"/><use transform="matrix(0.03703703703703704,0,0,0.03703703703703704,56.25925925925927,0)" xlink:href="#w"/></g></defs></g></svg>