<svg xmlns="http://www.w3.org/2000/svg" xmlns:xlink="http://www.w3.org/1999/xlink" xmlns:lucid="lucid" width="640" height="640"><g transform="translate(-160 -120)" lucid:page-tab-id="0_0"><path d="M239.75 379.75c0 10.9-8.84 19.75-19.75 19.75-10.9 0-19.75-8.84-19.75-19.75 0-10.9 8.84-19.75 19.75-19.75 10.9 0 19.75 8.84 19.75 19.75z" stroke="#000" stroke-width="2" fill="#fff"/><path d="M180 360h80v158h-80z" fill="none"/><path d="M220 399.5v55.3l40 63.2m-40-63.2L180 518m0-98.75h80" stroke="#000" stroke-width="2" fill="none"/><use xlink:href="#a" transform="matrix(1,0,0,1,100,518) translate(89.07499999999999 14.6)"/><path d="M780 200c0 33.14-67.16 60-150 60s-150-26.86-150-60 67.16-60 150-60 150 26.86 150 60z" stroke="#000" stroke-width="2" fill="#fff"/><use xlink:href="#b" transform="matrix(1,0,0,1,480,140) translate(62.605000000000004 51.9)"/><use xlink:href="#c" transform="matrix(1,0,0,1,480,140) translate(150.455 51.9)"/><use xlink:href="#d" transform="matrix(1,0,0,1,480,140) translate(208.405 51.9)"/><use xlink:href="#e" transform="matrix(1,0,0,1,480,140) translate(89.605 73.5)"/><path d="M780 360c0 33.14-67.16 60-150 60s-150-26.86-150-60 67.16-60 150-60 150 26.86 150 60z" stroke="#000" stroke-width="2" fill="#fff"/><use xlink:href="#f" transform="matrix(1,0,0,1,480,300) translate(24.204999999999995 51.9)"/><use xlink:href="#g" transform="matrix(1,0,0,1,480,300) translate(90.00500000000001 51.9)"/><use xlink:href="#h" transform="matrix(1,0,0,1,480,300) translate(138.955 51.9)"/><use xlink:href="#i" transform="matrix(1,0,0,1,480,300) translate(179.90500000000003 51.9)"/><use xlink:href="#j" transform="matrix(1,0,0,1,480,300) translate(255.80500000000004 51.9)"/><use xlink:href="#k" transform="matrix(1,0,0,1,480,300) translate(60.105000000000004 73.5)"/><use xlink:href="#l" transform="matrix(1,0,0,1,480,300) translate(186.905 73.5)"/><use xlink:href="#m" transform="matrix(1,0,0,1,480,300) translate(211.905 73.5)"/><path d="M780 520c0 33.14-67.16 60-150 60s-150-26.86-150-60 67.16-60 150-60 150 26.86 150 60z" stroke="#000" stroke-width="2" fill="#fff"/><use xlink:href="#f" transform="matrix(1,0,0,1,480,460) translate(70.655 40.65)"/><use xlink:href="#n" transform="matrix(1,0,0,1,480,460) translate(136.45499999999998 40.65)"/><use xlink:href="#j" transform="matrix(1,0,0,1,480,460) translate(209.35500000000002 40.65)"/><use xlink:href="#o" transform="matrix(1,0,0,1,480,460) translate(45.12999999999999 62.25)"/><use xlink:href="#h" transform="matrix(1,0,0,1,480,460) translate(118.03 62.25)"/><use xlink:href="#i" transform="matrix(1,0,0,1,480,460) translate(158.98000000000002 62.25)"/><use xlink:href="#j" transform="matrix(1,0,0,1,480,460) translate(234.88 62.25)"/><use xlink:href="#k" transform="matrix(1,0,0,1,480,460) translate(60.105 83.85000000000001)"/><use xlink:href="#l" transform="matrix(1,0,0,1,480,460) translate(186.905 83.85000000000001)"/><use xlink:href="#m" transform="matrix(1,0,0,1,480,460) translate(211.905 83.85000000000001)"/><path d="M780 680c0 33.14-67.16 60-150 60s-150-26.86-150-60 67.16-60 150-60 150 26.86 150 60z" stroke="#000" stroke-width="2" fill="#fff"/><g><use xlink:href="#p" transform="matrix(1,0,0,1,480,620) translate(83.505 63.15)"/><use xlink:href="#q" transform="matrix(1,0,0,1,480,620) translate(172.555 63.15)"/></g><path d="M260.84 339.46l202.57-129.5M260.86 339.45l-.86.55" stroke="#000" stroke-width="2" fill="none"/><path d="M476.27 201.74l-9.52 11.6-5-7.82z" stroke="#000" stroke-width="2"/><path d="M280.96 419.7l180.33-54.36M280.98 419.7l-.98.3" stroke="#000" stroke-width="2" fill="none"/><path d="M475.9 360.93l-12.32 8.56-2.67-8.9z" stroke="#000" stroke-width="2"/><path d="M280.98 480.2l179.88 36.15M281 480.2l-1-.2" stroke="#000" stroke-width="2" fill="none"/><path d="M475.83 519.36l-14.9 1.74 1.82-9.1z" stroke="#000" stroke-width="2"/><path d="M280.82 540.58l183.05 128.77M280.84 540.6l-.84-.6" stroke="#000" stroke-width="2" fill="none"/><path d="M476.35 678.14l-14.33-4.42 5.33-7.58z" stroke="#000" stroke-width="2"/><defs><path d="M232-93c-1 65-40 97-104 97C67 4 28-28 28-90v-158h33c8 89-33 224 67 224 102 0 64-133 71-224h33v155" id="r"/><path d="M135-143c-3-34-86-38-87 0 15 53 115 12 119 90S17 21 10-45l28-5c4 36 97 45 98 0-10-56-113-15-118-90-4-57 82-63 122-42 12 7 21 19 24 35" id="s"/><path d="M84 4C-5 8 30-112 23-190h32v120c0 31 7 50 39 49 72-2 45-101 50-169h31l1 190h-30c-1-10 1-25-2-33-11 22-28 36-60 37" id="t"/><path d="M141-36C126-15 110 5 73 4 37 3 15-17 15-53c-1-64 63-63 125-63 3-35-9-54-41-54-24 1-41 7-42 31l-33-3c5-37 33-52 76-52 45 0 72 20 72 64v82c-1 20 7 32 28 27v20c-31 9-61-2-59-35zM48-53c0 20 12 33 32 33 41-3 63-29 60-74-43 2-92-5-92 41" id="u"/><path d="M114-163C36-179 61-72 57 0H25l-1-190h30c1 12-1 29 2 39 6-27 23-49 58-41v29" id="v"/><path d="M24-231v-30h32v30H24zM24 0v-190h32V0H24" id="w"/><path d="M100-194c62-1 85 37 85 99 1 63-27 99-86 99S16-35 15-95c0-66 28-99 85-99zM99-20c44 1 53-31 53-75 0-43-8-75-51-75s-53 32-53 75 10 74 51 75" id="x"/><g id="a"><use transform="matrix(0.05,0,0,0.05,0,0)" xlink:href="#r"/><use transform="matrix(0.05,0,0,0.05,12.950000000000001,0)" xlink:href="#s"/><use transform="matrix(0.05,0,0,0.05,21.950000000000003,0)" xlink:href="#t"/><use transform="matrix(0.05,0,0,0.05,31.950000000000003,0)" xlink:href="#u"/><use transform="matrix(0.05,0,0,0.05,41.95,0)" xlink:href="#v"/><use transform="matrix(0.05,0,0,0.05,47.900000000000006,0)" xlink:href="#w"/><use transform="matrix(0.05,0,0,0.05,51.85,0)" xlink:href="#x"/></g><path d="M30-248c118-7 216 8 213 122C240-48 200 0 122 0H30v-248zM63-27c89 8 146-16 146-99s-60-101-146-95v194" id="y"/><path d="M100-194c63 0 86 42 84 106H49c0 40 14 67 53 68 26 1 43-12 49-29l28 8c-11 28-37 45-77 45C44 4 14-33 15-96c1-61 26-98 85-98zm52 81c6-60-76-77-97-28-3 7-6 17-6 28h103" id="z"/><path d="M96-169c-40 0-48 33-48 73s9 75 48 75c24 0 41-14 43-38l32 2c-6 37-31 61-74 61-59 0-76-41-82-99-10-93 101-131 147-64 4 7 5 14 7 22l-32 3c-4-21-16-35-41-35" id="A"/><path d="M177-190C167-65 218 103 67 71c-23-6-38-20-44-43l32-5c15 47 100 32 89-28v-30C133-14 115 1 83 1 29 1 15-40 15-95c0-56 16-97 71-98 29-1 48 16 59 35 1-10 0-23 2-32h30zM94-22c36 0 50-32 50-73 0-42-14-75-50-75-39 0-46 34-46 75s6 73 46 73" id="B"/><g id="b"><use transform="matrix(0.05,0,0,0.05,0,0)" xlink:href="#y"/><use transform="matrix(0.05,0,0,0.05,12.950000000000001,0)" xlink:href="#z"/><use transform="matrix(0.05,0,0,0.05,22.950000000000003,0)" xlink:href="#s"/><use transform="matrix(0.05,0,0,0.05,31.950000000000003,0)" xlink:href="#A"/><use transform="matrix(0.05,0,0,0.05,40.95,0)" xlink:href="#u"/><use transform="matrix(0.05,0,0,0.05,50.95,0)" xlink:href="#v"/><use transform="matrix(0.05,0,0,0.05,56.900000000000006,0)" xlink:href="#B"/><use transform="matrix(0.05,0,0,0.05,66.9,0)" xlink:href="#u"/><use transform="matrix(0.05,0,0,0.05,76.9,0)" xlink:href="#v"/></g><path d="M85-194c31 0 48 13 60 33l-1-100h32l1 261h-30c-2-10 0-23-3-31C134-8 116 4 85 4 32 4 16-35 15-94c0-66 23-100 70-100zm9 24c-40 0-46 34-46 75 0 40 6 74 45 74 42 0 51-32 51-76 0-42-9-74-50-73" id="C"/><g id="c"><use transform="matrix(0.05,0,0,0.05,0,0)" xlink:href="#u"/><use transform="matrix(0.05,0,0,0.05,10,0)" xlink:href="#t"/><use transform="matrix(0.05,0,0,0.05,20,0)" xlink:href="#C"/><use transform="matrix(0.05,0,0,0.05,30,0)" xlink:href="#w"/><use transform="matrix(0.05,0,0,0.05,33.95,0)" xlink:href="#x"/><use transform="matrix(0.05,0,0,0.05,43.95,0)" xlink:href="#s"/></g><path d="M117-194c89-4 53 116 60 194h-32v-121c0-31-8-49-39-48C34-167 62-67 57 0H25l-1-190h30c1 10-1 24 2 32 11-22 29-35 61-36" id="D"/><g id="d"><use transform="matrix(0.05,0,0,0.05,0,0)" xlink:href="#A"/><use transform="matrix(0.05,0,0,0.05,9,0)" xlink:href="#x"/><use transform="matrix(0.05,0,0,0.05,19,0)" xlink:href="#D"/></g><path d="M59-47c-2 24 18 29 38 22v24C64 9 27 4 27-40v-127H5v-23h24l9-43h21v43h35v23H59v120" id="E"/><path d="M115-194c55 1 70 41 70 98S169 2 115 4C84 4 66-9 55-30l1 105H24l-1-265h31l2 30c10-21 28-34 59-34zm-8 174c40 0 45-34 45-75s-6-73-45-74c-42 0-51 32-51 76 0 43 10 73 51 73" id="F"/><g id="e"><use transform="matrix(0.05,0,0,0.05,0,0)" xlink:href="#E"/><use transform="matrix(0.05,0,0,0.05,5,0)" xlink:href="#v"/><use transform="matrix(0.05,0,0,0.05,10.95,0)" xlink:href="#u"/><use transform="matrix(0.05,0,0,0.05,20.95,0)" xlink:href="#D"/><use transform="matrix(0.05,0,0,0.05,30.950000000000003,0)" xlink:href="#s"/><use transform="matrix(0.05,0,0,0.05,39.95,0)" xlink:href="#A"/><use transform="matrix(0.05,0,0,0.05,48.95,0)" xlink:href="#v"/><use transform="matrix(0.05,0,0,0.05,54.900000000000006,0)" xlink:href="#w"/><use transform="matrix(0.05,0,0,0.05,58.85,0)" xlink:href="#F"/><use transform="matrix(0.05,0,0,0.05,68.85000000000001,0)" xlink:href="#A"/><use transform="matrix(0.05,0,0,0.05,77.85000000000001,0)" xlink:href="#w"/><use transform="matrix(0.05,0,0,0.05,81.80000000000001,0)" xlink:href="#x"/><use transform="matrix(0.05,0,0,0.05,91.80000000000001,0)" xlink:href="#D"/><use transform="matrix(0.05,0,0,0.05,101.80000000000001,0)" xlink:href="#z"/><use transform="matrix(0.05,0,0,0.05,111.80000000000001,0)" xlink:href="#s"/></g><path d="M240 0l2-218c-23 76-54 145-80 218h-23L58-218 59 0H30v-248h44l77 211c21-75 51-140 76-211h43V0h-30" id="G"/><path d="M24-231v-30h32v30H24zM-9 49c24 4 33-6 33-30v-209h32V24c2 40-23 58-65 49V49" id="H"/><g id="f"><use transform="matrix(0.05,0,0,0.05,0,0)" xlink:href="#G"/><use transform="matrix(0.05,0,0,0.05,14.950000000000001,0)" xlink:href="#z"/><use transform="matrix(0.05,0,0,0.05,24.950000000000003,0)" xlink:href="#H"/><use transform="matrix(0.05,0,0,0.05,28.900000000000002,0)" xlink:href="#x"/><use transform="matrix(0.05,0,0,0.05,38.900000000000006,0)" xlink:href="#v"/><use transform="matrix(0.05,0,0,0.05,44.85000000000001,0)" xlink:href="#u"/><use transform="matrix(0.05,0,0,0.05,54.85,0)" xlink:href="#v"/></g><g id="g"><use transform="matrix(0.05,0,0,0.05,0,0)" xlink:href="#u"/><use transform="matrix(0.05,0,0,0.05,10,0)" xlink:href="#t"/><use transform="matrix(0.05,0,0,0.05,20,0)" xlink:href="#C"/><use transform="matrix(0.05,0,0,0.05,30,0)" xlink:href="#w"/><use transform="matrix(0.05,0,0,0.05,33.95,0)" xlink:href="#x"/></g><g id="h"><use transform="matrix(0.05,0,0,0.05,0,0)" xlink:href="#F"/><use transform="matrix(0.05,0,0,0.05,10,0)" xlink:href="#u"/><use transform="matrix(0.05,0,0,0.05,20,0)" xlink:href="#v"/><use transform="matrix(0.05,0,0,0.05,25.950000000000003,0)" xlink:href="#u"/></g><path d="M210-169c-67 3-38 105-44 169h-31v-121c0-29-5-50-35-48C34-165 62-65 56 0H25l-1-190h30c1 10-1 24 2 32 10-44 99-50 107 0 11-21 27-35 58-36 85-2 47 119 55 194h-31v-121c0-29-5-49-35-48" id="I"/><g id="i"><use transform="matrix(0.05,0,0,0.05,0,0)" xlink:href="#s"/><use transform="matrix(0.05,0,0,0.05,9,0)" xlink:href="#w"/><use transform="matrix(0.05,0,0,0.05,12.949999999999998,0)" xlink:href="#s"/><use transform="matrix(0.05,0,0,0.05,21.95,0)" xlink:href="#E"/><use transform="matrix(0.05,0,0,0.05,26.950000000000003,0)" xlink:href="#z"/><use transform="matrix(0.05,0,0,0.05,36.95,0)" xlink:href="#I"/><use transform="matrix(0.05,0,0,0.05,51.900000000000006,0)" xlink:href="#u"/><use transform="matrix(0.05,0,0,0.05,61.900000000000006,0)" xlink:href="#s"/></g><g id="j"><use transform="matrix(0.05,0,0,0.05,0,0)" xlink:href="#C"/><use transform="matrix(0.05,0,0,0.05,10,0)" xlink:href="#z"/></g><g id="k"><use transform="matrix(0.05,0,0,0.05,0,0)" xlink:href="#v"/><use transform="matrix(0.05,0,0,0.05,5.95,0)" xlink:href="#z"/><use transform="matrix(0.05,0,0,0.05,15.949999999999998,0)" xlink:href="#A"/><use transform="matrix(0.05,0,0,0.05,24.95,0)" xlink:href="#x"/><use transform="matrix(0.05,0,0,0.05,34.95,0)" xlink:href="#D"/><use transform="matrix(0.05,0,0,0.05,44.95,0)" xlink:href="#x"/><use transform="matrix(0.05,0,0,0.05,54.95,0)" xlink:href="#A"/><use transform="matrix(0.05,0,0,0.05,63.95,0)" xlink:href="#w"/><use transform="matrix(0.05,0,0,0.05,67.9,0)" xlink:href="#I"/><use transform="matrix(0.05,0,0,0.05,82.85000000000001,0)" xlink:href="#w"/><use transform="matrix(0.05,0,0,0.05,86.80000000000001,0)" xlink:href="#z"/><use transform="matrix(0.05,0,0,0.05,96.80000000000001,0)" xlink:href="#D"/><use transform="matrix(0.05,0,0,0.05,106.80000000000001,0)" xlink:href="#E"/><use transform="matrix(0.05,0,0,0.05,111.80000000000001,0)" xlink:href="#x"/></g><g id="l"><use transform="matrix(0.05,0,0,0.05,0,0)" xlink:href="#C"/><use transform="matrix(0.05,0,0,0.05,10,0)" xlink:href="#z"/></g><path d="M108 0H70L1-190h34L89-25l56-165h34" id="J"/><path d="M9 0v-24l116-142H16v-24h144v24L44-24h123V0H9" id="K"/><g id="m"><use transform="matrix(0.05,0,0,0.05,0,0)" xlink:href="#J"/><use transform="matrix(0.05,0,0,0.05,9,0)" xlink:href="#x"/><use transform="matrix(0.05,0,0,0.05,19,0)" xlink:href="#K"/></g><path d="M24 0v-261h32V0H24" id="L"/><g id="n"><use transform="matrix(0.05,0,0,0.05,0,0)" xlink:href="#I"/><use transform="matrix(0.05,0,0,0.05,14.950000000000001,0)" xlink:href="#x"/><use transform="matrix(0.05,0,0,0.05,24.950000000000003,0)" xlink:href="#C"/><use transform="matrix(0.05,0,0,0.05,34.95,0)" xlink:href="#z"/><use transform="matrix(0.05,0,0,0.05,44.95,0)" xlink:href="#L"/><use transform="matrix(0.05,0,0,0.05,48.900000000000006,0)" xlink:href="#x"/><use transform="matrix(0.05,0,0,0.05,58.900000000000006,0)" xlink:href="#s"/></g><g id="o"><use transform="matrix(0.05,0,0,0.05,0,0)" xlink:href="#L"/><use transform="matrix(0.05,0,0,0.05,3.95,0)" xlink:href="#z"/><use transform="matrix(0.05,0,0,0.05,13.949999999999998,0)" xlink:href="#D"/><use transform="matrix(0.05,0,0,0.05,23.95,0)" xlink:href="#B"/><use transform="matrix(0.05,0,0,0.05,33.95,0)" xlink:href="#t"/><use transform="matrix(0.05,0,0,0.05,43.95,0)" xlink:href="#u"/><use transform="matrix(0.05,0,0,0.05,53.95,0)" xlink:href="#H"/><use transform="matrix(0.05,0,0,0.05,57.900000000000006,0)" xlink:href="#z"/></g><path d="M127-220V0H93v-220H8v-28h204v28h-85" id="M"/><path d="M115-194c53 0 69 39 70 98 0 66-23 100-70 100C84 3 66-7 56-30L54 0H23l1-261h32v101c10-23 28-34 59-34zm-8 174c40 0 45-34 45-75 0-40-5-75-45-74-42 0-51 32-51 76 0 43 10 73 51 73" id="N"/><g id="p"><use transform="matrix(0.05,0,0,0.05,0,0)" xlink:href="#M"/><use transform="matrix(0.05,0,0,0.05,10.3,0)" xlink:href="#v"/><use transform="matrix(0.05,0,0,0.05,16.25,0)" xlink:href="#u"/><use transform="matrix(0.05,0,0,0.05,26.25,0)" xlink:href="#D"/><use transform="matrix(0.05,0,0,0.05,36.25,0)" xlink:href="#s"/><use transform="matrix(0.05,0,0,0.05,45.25,0)" xlink:href="#A"/><use transform="matrix(0.05,0,0,0.05,54.25,0)" xlink:href="#v"/><use transform="matrix(0.05,0,0,0.05,60.2,0)" xlink:href="#w"/><use transform="matrix(0.05,0,0,0.05,64.15,0)" xlink:href="#N"/><use transform="matrix(0.05,0,0,0.05,74.15,0)" xlink:href="#w"/><use transform="matrix(0.05,0,0,0.05,78.10000000000001,0)" xlink:href="#v"/></g><g id="q"><use transform="matrix(0.05,0,0,0.05,0,0)" xlink:href="#u"/><use transform="matrix(0.05,0,0,0.05,10,0)" xlink:href="#t"/><use transform="matrix(0.05,0,0,0.05,20,0)" xlink:href="#C"/><use transform="matrix(0.05,0,0,0.05,30,0)" xlink:href="#w"/><use transform="matrix(0.05,0,0,0.05,33.95,0)" xlink:href="#x"/></g></defs></g></svg>