<svg xmlns="http://www.w3.org/2000/svg" xmlns:xlink="http://www.w3.org/1999/xlink" xmlns:lucid="lucid" width="1080" height="800"><g transform="translate(-260 -120)" lucid:page-tab-id="0_0"><path d="M700 140h220v100H700z" stroke="#000" stroke-width="2" fill="#fff"/><path d="M680 155h40v20h-40zM680 205h40v20h-40z" stroke="#000" stroke-width="2" fill="#fff"/><use xlink:href="#a" transform="matrix(1,0,0,1,728,150) translate(32.025 43.6)"/><path d="M700 360h220v100H700z" stroke="#000" stroke-width="2" fill="#fff"/><path d="M680 375h40v20h-40zM680 425h40v20h-40z" stroke="#000" stroke-width="2" fill="#fff"/><use xlink:href="#b" transform="matrix(1,0,0,1,728,370) translate(25.67499999999999 43.6)"/><path d="M300 360h220v100H300z" stroke="#000" stroke-width="2" fill="#fff"/><path d="M280 375h40v20h-40zM280 425h40v20h-40z" stroke="#000" stroke-width="2" fill="#fff"/><use xlink:href="#c" transform="matrix(1,0,0,1,328,370) translate(28.549999999999997 43.6)"/><path d="M1100 360h220v100h-220z" stroke="#000" stroke-width="2" fill="#fff"/><path d="M1080 375h40v20h-40zM1080 425h40v20h-40z" stroke="#000" stroke-width="2" fill="#fff"/><use xlink:href="#d" transform="matrix(1,0,0,1,1128,370) translate(23.9 43.6)"/><path d="M700 580h220v100H700z" stroke="#000" stroke-width="2" fill="#fff"/><path d="M680 595h40v20h-40zM680 645h40v20h-40z" stroke="#000" stroke-width="2" fill="#fff"/><use xlink:href="#e" transform="matrix(1,0,0,1,728,590) translate(51.925 43.6)"/><path d="M700 800h220v100H700z" stroke="#000" stroke-width="2" fill="#fff"/><path d="M680 815h40v20h-40zM680 865h40v20h-40z" stroke="#000" stroke-width="2" fill="#fff"/><use xlink:href="#f" transform="matrix(1,0,0,1,728,810) translate(56.55 43.6)"/><path d="M1100 800h220v100h-220z" stroke="#000" stroke-width="2" fill="#fff"/><path d="M1080 815h40v20h-40zM1080 865h40v20h-40z" stroke="#000" stroke-width="2" fill="#fff"/><use xlink:href="#g" transform="matrix(1,0,0,1,1128,810) translate(26.549999999999997 43.6)"/><path d="M300 800h220v100H300z" stroke="#000" stroke-width="2" fill="#fff"/><path d="M280 815h40v20h-40zM280 865h40v20h-40z" stroke="#000" stroke-width="2" fill="#fff"/><use xlink:href="#h" transform="matrix(1,0,0,1,328,810) translate(66 43.6)"/><path d="M570 410h11M615 410h5M595 430c11.05 0 20-8.95 20-20s-8.95-20-20-20" stroke="#000" stroke-width="2" fill="none"/><path d="M595 396c7.73 0 14 6.27 14 14s-6.27 14-14 14-14-6.27-14-14 6.27-14 14-14z" stroke="#000" stroke-width="2" fill="#fff"/><path d="M570 409.2h11v1.6h-11z" fill="none"/><path d="M800 545v-11M800 500v-5M820 520c0-11.05-8.95-20-20-20s-20 8.95-20 20" stroke="#000" stroke-width="2" fill="none"/><path d="M786 520c0-7.73 6.27-14 14-14s14 6.27 14 14-6.27 14-14 14-14-6.27-14-14z" stroke="#000" stroke-width="2" fill="#fff"/><path d="M799.2 545v-11h1.6v11z" fill="none"/><path d="M1030 410h-11M985 410h-5M1005 390c-11.05 0-20 8.95-20 20s8.95 20 20 20" stroke="#000" stroke-width="2" fill="none"/><path d="M1005 424c-7.73 0-14-6.27-14-14s6.27-14 14-14 14 6.27 14 14-6.27 14-14 14z" stroke="#000" stroke-width="2" fill="#fff"/><path d="M1030 410.8h-11v-1.6h11z" fill="none"/><path d="M800 765v-11M800 720v-5M820 740c0-11.05-8.95-20-20-20s-20 8.95-20 20" stroke="#000" stroke-width="2" fill="none"/><path d="M786 740c0-7.73 6.27-14 14-14s14 6.27 14 14-6.27 14-14 14-14-6.27-14-14z" stroke="#000" stroke-width="2" fill="#fff"/><path d="M799.2 765v-11h1.6v11z" fill="none"/><path d="M400 765v-11M400 720v-5M420 740c0-11.05-8.95-20-20-20s-20 8.95-20 20" stroke="#000" stroke-width="2" fill="none"/><path d="M386 740c0-7.73 6.27-14 14-14s14 6.27 14 14-6.27 14-14 14-14-6.27-14-14z" stroke="#000" stroke-width="2" fill="#fff"/><path d="M399.2 765v-11h1.6v11z" fill="none"/><path d="M1200 760v-11M1200 715v-5M1220 735c0-11.05-8.95-20-20-20s-20 8.95-20 20" stroke="#000" stroke-width="2" fill="none"/><path d="M1186 735c0-7.73 6.27-14 14-14s14 6.27 14 14-6.27 14-14 14-14-6.27-14-14z" stroke="#000" stroke-width="2" fill="#fff"/><path d="M1199.2 760v-11h1.6v11z" fill="none"/><path d="M800 275v11M800 320v5M780 300c0 11.05 8.95 20 20 20s20-8.95 20-20" stroke="#000" stroke-width="2" fill="none"/><path d="M814 300c0 7.73-6.27 14-14 14s-14-6.27-14-14 6.27-14 14-14 14 6.27 14 14z" stroke="#000" stroke-width="2" fill="#fff"/><path d="M800.8 275v11h-1.6v-11z" fill="none"/><path d="M698 408.75h-81.15" stroke="#000" stroke-width="2" fill="none"/><path d="M699 409.75h-1.03v-2H699zM613.96 409.75h-1.1v-2h.85zm1.92-.75l-.15-1.25h1.15V409z"/><path d="M569 410h-47" stroke="#000" stroke-width="2" fill="none"/><path d="M570 411h-1.03v-2H570zM522.03 411H521v-2h1.03z"/><path d="M800 274v-32" stroke="#000" stroke-width="2" fill="none"/><path d="M799 275v-1.03h2V275zM801 242.03h-2V241h2z"/><path d="M800 326v32" stroke="#000" stroke-width="2" fill="none"/><path d="M801 326.03h-2V325h2zM801 359h-2v-1.03h2z"/><path d="M979 410h-57" stroke="#000" stroke-width="2" fill="none"/><path d="M980 411h-1.03v-2H980zM922.03 411H921v-2h1.03z"/><path d="M1031 410h67" stroke="#000" stroke-width="2" fill="none"/><path d="M1031.03 411H1030v-2h1.03zM1099 411h-1.03v-2h1.03z"/><path d="M800 546v32" stroke="#000" stroke-width="2" fill="none"/><path d="M801 546.03h-2V545h2zM801 579h-2v-1.03h2z"/><path d="M800 494v-32" stroke="#000" stroke-width="2" fill="none"/><path d="M799 495v-1.03h2V495zM801 462.03h-2V461h2z"/><path d="M800 766v32" stroke="#000" stroke-width="2" fill="none"/><path d="M801 766.03h-2V765h2zM801 799h-2v-1.03h2z"/><path d="M400 766v32" stroke="#000" stroke-width="2" fill="none"/><path d="M401 766.03h-2V765h2zM401 799h-2v-1.03h2z"/><path d="M1200 761v37" stroke="#000" stroke-width="2" fill="none"/><path d="M1201 761.03h-2V760h2zM1201 799h-2v-1.03h2z"/><path d="M1200 709v-79H922" stroke="#000" stroke-width="2" fill="none"/><path d="M1199 710v-1.03h2V710zM922.03 631H921v-2h1.03z"/><path d="M800 714v-32" stroke="#000" stroke-width="2" fill="none"/><path d="M799 715v-1.03h2V715zM801 682.03h-2V681h2z"/><path d="M400 714v-85.77h298" stroke="#000" stroke-width="2" fill="none"/><path d="M399 715v-1.03h2V715zM699 629.23h-1.03v-2H699z"/><defs><path d="M185-189c-5-48-123-54-124 2 14 75 158 14 163 119 3 78-121 87-175 55-17-10-28-26-33-46l33-7c5 56 141 63 141-1 0-78-155-14-162-118-5-82 145-84 179-34 5 7 8 16 11 25" id="i"/><path d="M115-194c55 1 70 41 70 98S169 2 115 4C84 4 66-9 55-30l1 105H24l-1-265h31l2 30c10-21 28-34 59-34zm-8 174c40 0 45-34 45-75s-6-73-45-74c-42 0-51 32-51 76 0 43 10 73 51 73" id="j"/><path d="M100-194c63 0 86 42 84 106H49c0 40 14 67 53 68 26 1 43-12 49-29l28 8c-11 28-37 45-77 45C44 4 14-33 15-96c1-61 26-98 85-98zm52 81c6-60-76-77-97-28-3 7-6 17-6 28h103" id="k"/><path d="M96-169c-40 0-48 33-48 73s9 75 48 75c24 0 41-14 43-38l32 2c-6 37-31 61-74 61-59 0-76-41-82-99-10-93 101-131 147-64 4 7 5 14 7 22l-32 3c-4-21-16-35-41-35" id="l"/><path d="M106-169C34-169 62-67 57 0H25v-261h32l-1 103c12-21 28-36 61-36 89 0 53 116 60 194h-32v-121c2-32-8-49-39-48" id="m"/><path d="M101-251c82-7 93 87 43 132L82-64C71-53 59-42 53-27h129V0H18c2-99 128-94 128-182 0-28-16-43-45-43s-46 15-49 41l-32-3c6-41 34-60 81-64" id="n"/><path d="M127-220V0H93v-220H8v-28h204v28h-85" id="o"/><path d="M141 0L90-78 38 0H4l68-98-65-92h35l48 74 47-74h35l-64 92 68 98h-35" id="p"/><path d="M59-47c-2 24 18 29 38 22v24C64 9 27 4 27-40v-127H5v-23h24l9-43h21v43h35v23H59v120" id="q"/><g id="a"><use transform="matrix(0.05,0,0,0.05,0,0)" xlink:href="#i"/><use transform="matrix(0.05,0,0,0.05,12,0)" xlink:href="#j"/><use transform="matrix(0.05,0,0,0.05,22,0)" xlink:href="#k"/><use transform="matrix(0.05,0,0,0.05,32,0)" xlink:href="#k"/><use transform="matrix(0.05,0,0,0.05,42,0)" xlink:href="#l"/><use transform="matrix(0.05,0,0,0.05,51,0)" xlink:href="#m"/><use transform="matrix(0.05,0,0,0.05,61,0)" xlink:href="#n"/><use transform="matrix(0.05,0,0,0.05,71,0)" xlink:href="#o"/><use transform="matrix(0.05,0,0,0.05,79.95,0)" xlink:href="#k"/><use transform="matrix(0.05,0,0,0.05,89.95,0)" xlink:href="#p"/><use transform="matrix(0.05,0,0,0.05,98.95,0)" xlink:href="#q"/></g><path d="M240 0l2-218c-23 76-54 145-80 218h-23L58-218 59 0H30v-248h44l77 211c21-75 51-140 76-211h43V0h-30" id="r"/><path d="M141-36C126-15 110 5 73 4 37 3 15-17 15-53c-1-64 63-63 125-63 3-35-9-54-41-54-24 1-41 7-42 31l-33-3c5-37 33-52 76-52 45 0 72 20 72 64v82c-1 20 7 32 28 27v20c-31 9-61-2-59-35zM48-53c0 20 12 33 32 33 41-3 63-29 60-74-43 2-92-5-92 41" id="s"/><path d="M24-231v-30h32v30H24zM24 0v-190h32V0H24" id="t"/><path d="M117-194c89-4 53 116 60 194h-32v-121c0-31-8-49-39-48C34-167 62-67 57 0H25l-1-190h30c1 10-1 24 2 32 11-22 29-35 61-36" id="u"/><path d="M212-179c-10-28-35-45-73-45-59 0-87 40-87 99 0 60 29 101 89 101 43 0 62-24 78-52l27 14C228-24 195 4 139 4 59 4 22-46 18-125c-6-104 99-153 187-111 19 9 31 26 39 46" id="v"/><path d="M100-194c62-1 85 37 85 99 1 63-27 99-86 99S16-35 15-95c0-66 28-99 85-99zM99-20c44 1 53-31 53-75 0-43-8-75-51-75s-53 32-53 75 10 74 51 75" id="w"/><path d="M114-163C36-179 61-72 57 0H25l-1-190h30c1 12-1 29 2 39 6-27 23-49 58-41v29" id="x"/><path d="M24 0v-261h32V0H24" id="y"/><g id="b"><use transform="matrix(0.05,0,0,0.05,0,0)" xlink:href="#r"/><use transform="matrix(0.05,0,0,0.05,14.950000000000001,0)" xlink:href="#s"/><use transform="matrix(0.05,0,0,0.05,24.950000000000003,0)" xlink:href="#t"/><use transform="matrix(0.05,0,0,0.05,28.900000000000002,0)" xlink:href="#u"/><use transform="matrix(0.05,0,0,0.05,38.900000000000006,0)" xlink:href="#v"/><use transform="matrix(0.05,0,0,0.05,51.85,0)" xlink:href="#w"/><use transform="matrix(0.05,0,0,0.05,61.85,0)" xlink:href="#u"/><use transform="matrix(0.05,0,0,0.05,71.85000000000001,0)" xlink:href="#q"/><use transform="matrix(0.05,0,0,0.05,76.85000000000001,0)" xlink:href="#x"/><use transform="matrix(0.05,0,0,0.05,82.80000000000001,0)" xlink:href="#w"/><use transform="matrix(0.05,0,0,0.05,92.80000000000001,0)" xlink:href="#y"/><use transform="matrix(0.05,0,0,0.05,96.75000000000001,0)" xlink:href="#y"/><use transform="matrix(0.05,0,0,0.05,100.70000000000002,0)" xlink:href="#k"/><use transform="matrix(0.05,0,0,0.05,110.7,0)" xlink:href="#x"/></g><path d="M205 0l-28-72H64L36 0H1l101-248h38L239 0h-34zm-38-99l-47-123c-12 45-31 82-46 123h93" id="z"/><path d="M84 4C-5 8 30-112 23-190h32v120c0 31 7 50 39 49 72-2 45-101 50-169h31l1 190h-30c-1-10 1-25-2-33-11 22-28 36-60 37" id="A"/><path d="M85-194c31 0 48 13 60 33l-1-100h32l1 261h-30c-2-10 0-23-3-31C134-8 116 4 85 4 32 4 16-35 15-94c0-66 23-100 70-100zm9 24c-40 0-46 34-46 75 0 40 6 74 45 74 42 0 51-32 51-76 0-42-9-74-50-73" id="B"/><path d="M30-248c87 1 191-15 191 75 0 78-77 80-158 76V0H30v-248zm33 125c57 0 124 11 124-50 0-59-68-47-124-48v98" id="C"/><path d="M135-143c-3-34-86-38-87 0 15 53 115 12 119 90S17 21 10-45l28-5c4 36 97 45 98 0-10-56-113-15-118-90-4-57 82-63 122-42 12 7 21 19 24 35" id="D"/><g id="c"><use transform="matrix(0.05,0,0,0.05,0,0)" xlink:href="#z"/><use transform="matrix(0.05,0,0,0.05,12,0)" xlink:href="#A"/><use transform="matrix(0.05,0,0,0.05,22,0)" xlink:href="#B"/><use transform="matrix(0.05,0,0,0.05,32,0)" xlink:href="#t"/><use transform="matrix(0.05,0,0,0.05,35.95,0)" xlink:href="#w"/><use transform="matrix(0.05,0,0,0.05,45.95,0)" xlink:href="#C"/><use transform="matrix(0.05,0,0,0.05,57.95,0)" xlink:href="#x"/><use transform="matrix(0.05,0,0,0.05,63.900000000000006,0)" xlink:href="#w"/><use transform="matrix(0.05,0,0,0.05,73.9,0)" xlink:href="#l"/><use transform="matrix(0.05,0,0,0.05,82.9,0)" xlink:href="#k"/><use transform="matrix(0.05,0,0,0.05,92.9,0)" xlink:href="#D"/><use transform="matrix(0.05,0,0,0.05,101.9,0)" xlink:href="#D"/></g><path d="M143 4C61 4 22-44 18-125c-5-107 100-154 193-111 17 8 29 25 37 43l-32 9c-13-25-37-40-76-40-61 0-88 39-88 99 0 61 29 100 91 101 35 0 62-11 79-27v-45h-74v-28h105v86C228-13 192 4 143 4" id="E"/><g id="d"><use transform="matrix(0.05,0,0,0.05,0,0)" xlink:href="#E"/><use transform="matrix(0.05,0,0,0.05,14,0)" xlink:href="#k"/><use transform="matrix(0.05,0,0,0.05,24,0)" xlink:href="#q"/><use transform="matrix(0.05,0,0,0.05,29,0)" xlink:href="#z"/><use transform="matrix(0.05,0,0,0.05,41,0)" xlink:href="#A"/><use transform="matrix(0.05,0,0,0.05,51,0)" xlink:href="#B"/><use transform="matrix(0.05,0,0,0.05,61,0)" xlink:href="#t"/><use transform="matrix(0.05,0,0,0.05,64.95,0)" xlink:href="#w"/><use transform="matrix(0.05,0,0,0.05,74.95,0)" xlink:href="#o"/><use transform="matrix(0.05,0,0,0.05,85.25,0)" xlink:href="#x"/><use transform="matrix(0.05,0,0,0.05,91.2,0)" xlink:href="#s"/><use transform="matrix(0.05,0,0,0.05,101.2,0)" xlink:href="#u"/><use transform="matrix(0.05,0,0,0.05,111.2,0)" xlink:href="#D"/></g><path d="M177-190C167-65 218 103 67 71c-23-6-38-20-44-43l32-5c15 47 100 32 89-28v-30C133-14 115 1 83 1 29 1 15-40 15-95c0-56 16-97 71-98 29-1 48 16 59 35 1-10 0-23 2-32h30zM94-22c36 0 50-32 50-73 0-42-14-75-50-75-39 0-46 34-46 75s6 73 46 73" id="F"/><g id="e"><use transform="matrix(0.05,0,0,0.05,0,0)" xlink:href="#o"/><use transform="matrix(0.05,0,0,0.05,10.3,0)" xlink:href="#x"/><use transform="matrix(0.05,0,0,0.05,16.25,0)" xlink:href="#s"/><use transform="matrix(0.05,0,0,0.05,26.25,0)" xlink:href="#t"/><use transform="matrix(0.05,0,0,0.05,30.200000000000003,0)" xlink:href="#u"/><use transform="matrix(0.05,0,0,0.05,40.2,0)" xlink:href="#t"/><use transform="matrix(0.05,0,0,0.05,44.150000000000006,0)" xlink:href="#u"/><use transform="matrix(0.05,0,0,0.05,54.150000000000006,0)" xlink:href="#F"/></g><path d="M233-177c-1 41-23 64-60 70L243 0h-38l-65-103H63V0H30v-248c88 3 205-21 203 71zM63-129c60-2 137 13 137-47 0-61-80-42-137-45v92" id="G"/><path d="M33 0v-248h34V0H33" id="H"/><path d="M30 0v-248h33v221h125V0H30" id="I"/><g id="f"><use transform="matrix(0.05,0,0,0.05,0,0)" xlink:href="#i"/><use transform="matrix(0.05,0,0,0.05,12,0)" xlink:href="#G"/><use transform="matrix(0.05,0,0,0.05,24.950000000000003,0)" xlink:href="#H"/><use transform="matrix(0.05,0,0,0.05,29.950000000000003,0)" xlink:href="#I"/><use transform="matrix(0.05,0,0,0.05,39.95,0)" xlink:href="#r"/></g><path d="M197 0v-115H63V0H30v-248h33v105h134v-105h34V0h-34" id="J"/><path d="M190 0L58-211 59 0H30v-248h39L202-35l-2-213h31V0h-41" id="K"/><path d="M195 0l-74-108L45 0H8l94-129-87-119h37l69 98 67-98h37l-84 118L233 0h-38" id="L"/><path d="M160-131c35 5 61 23 61 61C221 17 115-2 30 0v-248c76 3 177-17 177 60 0 33-19 50-47 57zm-97-11c50-1 110 9 110-42 0-47-63-36-110-37v79zm0 115c55-2 124 14 124-45 0-56-70-42-124-44v89" id="M"/><path d="M30 0v-248h187v28H63v79h144v27H63v87h162V0H30" id="N"/><g id="g"><use transform="matrix(0.05,0,0,0.05,0,0)" xlink:href="#i"/><use transform="matrix(0.05,0,0,0.05,12,0)" xlink:href="#C"/><use transform="matrix(0.05,0,0,0.05,24,0)" xlink:href="#J"/><use transform="matrix(0.05,0,0,0.05,36.95,0)" xlink:href="#H"/><use transform="matrix(0.05,0,0,0.05,41.95,0)" xlink:href="#K"/><use transform="matrix(0.05,0,0,0.05,54.900000000000006,0)" xlink:href="#L"/><use transform="matrix(0.05,0,0,0.05,66.9,0)" xlink:href="#M"/><use transform="matrix(0.05,0,0,0.05,78.9,0)" xlink:href="#z"/><use transform="matrix(0.05,0,0,0.05,90.9,0)" xlink:href="#i"/><use transform="matrix(0.05,0,0,0.05,102.9,0)" xlink:href="#N"/></g><g id="h"><use transform="matrix(0.05,0,0,0.05,0,0)" xlink:href="#E"/><use transform="matrix(0.05,0,0,0.05,14,0)" xlink:href="#n"/><use transform="matrix(0.05,0,0,0.05,24,0)" xlink:href="#C"/></g></defs></g></svg>