<svg xmlns="http://www.w3.org/2000/svg" xmlns:xlink="http://www.w3.org/1999/xlink" xmlns:lucid="lucid" width="1760" height="1360"><g transform="translate(0 0)" lucid:page-tab-id="0_0"><path d="M60 85c0-2.76 2.24-5 5-5h150c2.76 0 5 2.24 5 5v110c0 2.76-2.24 5-5 5H65c-2.76 0-5-2.24-5-5z" stroke="#666" stroke-width="2" fill="#ff8f80"/><use xlink:href="#a" transform="matrix(1,0,0,1,60,80) translate(57.358024691358025 51.72222222222222)"/><use xlink:href="#b" transform="matrix(1,0,0,1,60,80) translate(18.444444444444443 73.05555555555556)"/><path d="M140 202v507.5c0 .55.45 1 1 1s1 .45 1 1V1219" fill="none"/><path d="M140 202v9.95m0 9.95v19.9m0 9.95v19.9m0 9.96v19.9m0 9.96v19.9m0 9.95v19.92m0 9.95v19.9m0 9.95v19.9m0 9.95v19.9m0 9.96v19.9m0 9.95v19.9m0 9.95v19.9m0 9.95v19.9m0 9.96v19.9m0 9.95v19.9m0 9.94v19.9m0 9.96v19.9m0 9.95v9.95l.3.7.7.3.7.3.3.7v9.95m0 9.95v19.9m0 9.95v19.9m0 9.96V811m0 9.96v19.9m0 9.95v19.92m0 9.95v19.9m0 9.95v19.9m0 9.95v19.9m0 9.96v19.9m0 9.95v19.9m0 9.95v19.9m0 9.95v19.9m0 9.96v19.9m0 9.95v19.9m0 9.94v19.9m0 9.96v19.9m0 9.95v9.95" stroke="#999" stroke-width="2" fill="none"/><path d="M141 202.03h-2V201h2z" fill="#999"/><path d="M142 1218.97v1.03" stroke="#999" stroke-width="2" fill="none"/><path d="M122 265c0-2.76 2.24-5 5-5h30c2.76 0 5 2.24 5 5v910c0 2.76-2.24 5-5 5h-30c-2.76 0-5-2.24-5-5z" stroke="#666" stroke-width="2" fill="#f2f2f2"/><path d="M371 85c0-2.76 2.24-5 5-5h210c2.76 0 5 2.24 5 5v110c0 2.76-2.24 5-5 5H376c-2.76 0-5-2.24-5-5z" stroke="#666" stroke-width="2" fill="#a3d977"/><use xlink:href="#c" transform="matrix(1,0,0,1,370.99999999999994,80) translate(67.16049382716048 62.97222222222222)"/><path d="M481 202v1017" fill="none"/><path d="M481 202v9.97m0 9.97v19.94m0 9.97v19.94m0 9.96v19.95m0 9.98v19.94m0 9.97v19.93m0 9.97v19.94m0 9.97v19.95m0 9.97v19.94m0 9.98v19.94m0 9.97v19.94m0 9.96V541m0 9.97v19.94m0 9.98v19.94m0 9.97v19.94m0 9.97v19.95m0 9.97v19.94m0 9.97v19.94m0 9.97v19.94m0 9.97v19.94m0 9.96v19.95m0 9.98v19.94m0 9.97v19.93m0 9.97v19.94m0 9.97v19.95m0 9.97v19.94m0 9.97v19.95m0 9.97v19.94m0 9.96v19.94m0 9.97v19.94m0 9.98v19.94m0 9.97v19.93m0 9.98v19.95m0 9.97v19.94m0 9.97v9.97" stroke="#999" stroke-width="2" fill="none"/><path d="M482 202.03h-2V201h2z" fill="#999"/><path d="M481 1218.97v1.03" stroke="#999" stroke-width="2" fill="none"/><path d="M461 325c0-2.76 2.24-5 5-5h30c2.76 0 5 2.24 5 5v850c0 2.76-2.24 5-5 5h-30c-2.76 0-5-2.24-5-5z" stroke="#666" stroke-width="2" fill="#f2f2f2"/><path d="M184 330h257.5" stroke="#999" stroke-width="2" fill="none"/><path d="M184.03 331H183v-2h1.03z" fill="#999"/><path d="M456.76 330l-14.26 4.64v-9.28z" stroke="#999" stroke-width="2" fill="#999"/><use xlink:href="#d" transform="matrix(1,0,0,1,202.375,304.40000000000043) translate(0 14.4)"/><use xlink:href="#e" transform="matrix(1,0,0,1,202.375,304.40000000000043) translate(140.55 14.4)"/><path d="M142 305c0-2.76 2.24-5 5-5h30c2.76 0 5 2.24 5 5v850c0 2.76-2.24 5-5 5h-30c-2.76 0-5-2.24-5-5z" stroke="#666" stroke-width="2" fill="#fff"/><path d="M459 1147.66H201.5" fill="none"/><path d="M459 1147.66h-9.54m-9.53 0h-19.08m-9.53 0h-19.08m-9.54 0h-19.07m-9.54 0H335m-9.54 0H306.4m-9.53 0H277.8m-9.54 0H249.2m-9.55 0h-19.07m-9.54 0h-9.54" stroke="#999" stroke-width="2" fill="none"/><path d="M460 1148.66h-1.03v-2H460z" fill="#999"/><path d="M186.24 1147.66l14.26-4.63v9.27z" stroke="#999" stroke-width="2" fill="#999"/><use xlink:href="#f" transform="matrix(1,0,0,1,226.72500000000002,1151.6603053435113) translate(27.954999999999984 14.4)"/><use xlink:href="#g" transform="matrix(1,0,0,1,226.72500000000002,1151.6603053435113) translate(0.0049999999999954525 36)"/><use xlink:href="#h" transform="matrix(1,0,0,1,226.72500000000002,1151.6603053435113) translate(2.980000000000004 57.6)"/><path d="M742 85c0-2.76 2.24-5 5-5h210c2.76 0 5 2.24 5 5v110c0 2.76-2.24 5-5 5H747c-2.76 0-5-2.24-5-5z" stroke="#666" stroke-width="2" fill="#a3d977"/><use xlink:href="#i" transform="matrix(1,0,0,1,741.9999999999999,80) translate(92.22222222222223 62.97222222222222)"/><path d="M852 202v1017" fill="none"/><path d="M852 202v9.97m0 9.97v19.94m0 9.97v19.94m0 9.96v19.95m0 9.98v19.94m0 9.97v19.93m0 9.97v19.94m0 9.97v19.95m0 9.97v19.94m0 9.98v19.94m0 9.97v19.94m0 9.96V541m0 9.97v19.94m0 9.98v19.94m0 9.97v19.94m0 9.97v19.95m0 9.97v19.94m0 9.97v19.94m0 9.97v19.94m0 9.97v19.94m0 9.96v19.95m0 9.98v19.94m0 9.97v19.93m0 9.97v19.94m0 9.97v19.95m0 9.97v19.94m0 9.97v19.95m0 9.97v19.94m0 9.96v19.94m0 9.97v19.94m0 9.98v19.94m0 9.97v19.93m0 9.98v19.95m0 9.97v19.94m0 9.97v9.97" stroke="#999" stroke-width="2" fill="none"/><path d="M853 202.03h-2V201h2z" fill="#999"/><path d="M852 1218.97v1.03" stroke="#999" stroke-width="2" fill="none"/><path d="M832 325c0-2.76 2.24-5 5-5h30c2.76 0 5 2.24 5 5v850c0 2.76-2.24 5-5 5h-30c-2.76 0-5-2.24-5-5z" stroke="#666" stroke-width="2" fill="#f2f2f2"/><path d="M1082 85c0-2.76 2.24-5 5-5h210c2.76 0 5 2.24 5 5v110c0 2.76-2.24 5-5 5h-210c-2.76 0-5-2.24-5-5z" stroke="#666" stroke-width="2" fill="#a3d977"/><use xlink:href="#j" transform="matrix(1,0,0,1,1082,80) translate(82.41975308641975 62.97222222222222)"/><path d="M1192 202v1017" fill="none"/><path d="M1192 202v9.97m0 9.97v19.94m0 9.97v19.94m0 9.96v19.95m0 9.98v19.94m0 9.97v19.93m0 9.97v19.94m0 9.97v19.95m0 9.97v19.94m0 9.98v19.94m0 9.97v19.94m0 9.96V541m0 9.97v19.94m0 9.98v19.94m0 9.97v19.94m0 9.97v19.95m0 9.97v19.94m0 9.97v19.94m0 9.97v19.94m0 9.97v19.94m0 9.96v19.95m0 9.98v19.94m0 9.97v19.93m0 9.97v19.94m0 9.97v19.95m0 9.97v19.94m0 9.98v19.94m0 9.97v19.94m0 9.96v19.94m0 9.97v19.94m0 9.98v19.94m0 9.97v19.94m0 9.97v19.95m0 9.97v19.94m0 9.97v9.97" stroke="#999" stroke-width="2" fill="none"/><path d="M1193 202.03h-2V201h2z" fill="#999"/><path d="M1192 1218.97v1.03" stroke="#999" stroke-width="2" fill="none"/><path d="M1172 325c0-2.76 2.24-5 5-5h30c2.76 0 5 2.24 5 5v850c0 2.76-2.24 5-5 5h-30c-2.76 0-5-2.24-5-5z" stroke="#666" stroke-width="2" fill="#f2f2f2"/><path d="M1382 85c0-2.76 2.24-5 5-5h210c2.76 0 5 2.24 5 5v110c0 2.76-2.24 5-5 5h-210c-2.76 0-5-2.24-5-5z" stroke="#666" stroke-width="2" fill="#a3d977"/><use xlink:href="#k" transform="matrix(1,0,0,1,1382,80) translate(52.32098765432099 62.97222222222222)"/><path d="M1492 202v1017" fill="none"/><path d="M1492 202v9.97m0 9.97v19.94m0 9.97v19.94m0 9.96v19.95m0 9.98v19.94m0 9.97v19.93m0 9.97v19.94m0 9.97v19.95m0 9.97v19.94m0 9.98v19.94m0 9.97v19.94m0 9.96V541m0 9.97v19.94m0 9.98v19.94m0 9.97v19.94m0 9.97v19.95m0 9.97v19.94m0 9.97v19.94m0 9.97v19.94m0 9.97v19.94m0 9.96v19.95m0 9.98v19.94m0 9.97v19.93m0 9.97v19.94m0 9.97v19.95m0 9.97v19.94m0 9.98v19.94m0 9.97v19.94m0 9.96v19.94m0 9.97v19.94m0 9.98v19.94m0 9.97v19.94m0 9.97v19.95m0 9.97v19.94m0 9.97v9.97" stroke="#999" stroke-width="2" fill="none"/><path d="M1493 202.03h-2V201h2z" fill="#999"/><path d="M1492 1218.97v1.03" stroke="#999" stroke-width="2" fill="none"/><path d="M1472 325c0-2.76 2.24-5 5-5h30c2.76 0 5 2.24 5 5v850c0 2.76-2.24 5-5 5h-30c-2.76 0-5-2.24-5-5z" stroke="#666" stroke-width="2" fill="#f2f2f2"/><path d="M482 385c0-2.76 2.24-5 5-5h30c2.76 0 5 2.24 5 5v770c0 2.76-2.24 5-5 5h-30c-2.76 0-5-2.24-5-5z" stroke="#666" stroke-width="2" fill="#fff"/><path d="M524 410.07h288.5" stroke="#999" stroke-width="2" fill="none"/><path d="M524.03 411.07H523v-2h1.03z" fill="#999"/><path d="M827.76 410.07l-14.26 4.64v-9.26z" stroke="#999" stroke-width="2" fill="#999"/><use xlink:href="#l" transform="matrix(1,0,0,1,606.225,384.4725190839694) translate(0 14.4)"/><path d="M524 640.57h628.5" stroke="#999" stroke-width="2" fill="none"/><path d="M524.03 641.57H523v-2h1.03z" fill="#999"/><path d="M1167.76 640.57l-14.26 4.63v-9.27z" stroke="#999" stroke-width="2" fill="#999"/><use xlink:href="#m" transform="matrix(1,0,0,1,545.3530769955706,644.5687022900763) translate(0 12.444444444444446)"/><use xlink:href="#n" transform="matrix(1,0,0,1,545.3530769955706,644.5687022900763) translate(146.5679012345679 12.444444444444446)"/><path d="M520.7 980.03h931.8M520.73 980.03h-1.02" stroke="#999" stroke-width="2" fill="none"/><path d="M1467.76 980.03l-14.26 4.63v-9.27z" stroke="#999" stroke-width="2" fill="#999"/><use xlink:href="#o" transform="matrix(1,0,0,1,571.9988874752617,914.1600508905849) translate(0 14.4)"/><use xlink:href="#p" transform="matrix(1,0,0,1,571.9988874752617,914.1600508905849) translate(36.01 34.04444444444445)"/><use xlink:href="#q" transform="matrix(1,0,0,1,571.9988874752617,914.1600508905849) translate(36.01 54.66666666666667)"/><path d="M830 541.4H541.5" fill="none"/><path d="M830 541.4h-9.62m-9.6 0h-19.25m-9.6 0h-19.25m-9.6 0h-19.25m-9.6 0h-19.25m-9.6 0h-19.25m-9.6 0h-19.25m-9.6 0h-19.25m-9.6 0h-19.25m-9.6 0h-19.24m-9.62 0h-9.62" stroke="#999" stroke-width="2" fill="none"/><path d="M831 542.4h-1.03v-2H831z" fill="#999"/><path d="M526.24 541.4l14.26-4.65v9.27z" stroke="#999" stroke-width="2" fill="#999"/><use xlink:href="#r" transform="matrix(1,0,0,1,610.175,515.7854961832063) translate(0 14.4)"/><path d="M1170 827.76H541.5" fill="none"/><path d="M1170 827.76h-9.98m-9.97 0h-19.95m-9.98 0h-19.95m-9.98 0h-19.96m-9.98 0h-19.95m-9.97 0h-19.95m-9.97 0h-19.95m-9.97 0h-19.96m-9.97 0H920.6m-9.98 0h-19.95m-9.98 0h-19.96m-9.98 0H830.8m-9.97 0h-19.95m-9.97 0h-19.95m-9.97 0h-19.95m-9.98 0H711.1m-9.98 0h-19.95m-9.98 0h-19.96m-9.98 0H621.3m-9.96 0h-19.96m-9.97 0h-19.95m-9.97 0h-9.98" stroke="#999" stroke-width="2" fill="none"/><path d="M1171 828.76h-1.03v-2h1.03z" fill="#999"/><path d="M526.24 827.76l14.26-4.64v9.27z" stroke="#999" stroke-width="2" fill="#999"/><use xlink:href="#s" transform="matrix(1,0,0,1,584.1830152671756,802.1595419847329) translate(0 14.4)"/><path d="M1470 1125.3H541.5" fill="none"/><path d="M1470 1125.3h-9.98m-10 0h-19.96m-9.98 0h-19.97m-9.97 0h-19.97m-9.98 0h-19.97m-9.97 0h-19.97m-10 0h-19.95m-9.98 0h-19.96m-10 0h-19.96m-9.98 0h-19.97m-9.98 0h-19.97m-9.98 0h-19.97m-9.98 0h-19.97m-10 0h-19.95m-10 0h-19.96m-10 0h-19.96m-9.98 0H980.8m-10 0h-19.96m-9.98 0H920.9m-10 0h-19.96m-10 0H861m-10 0h-19.97m-9.98 0h-19.97m-9.98 0h-19.97m-9.98 0h-19.97m-9.98 0h-19.97m-10 0H681.3m-10 0h-19.96m-9.98 0h-19.97m-9.98 0H591.4m-9.98 0h-19.97m-9.98 0h-10" stroke="#999" stroke-width="2" fill="none"/><path d="M1471 1126.3h-1.03v-2h1.03z" fill="#999"/><path d="M526.24 1125.3l14.26-4.63v9.27z" stroke="#999" stroke-width="2" fill="#999"/><use xlink:href="#t" transform="matrix(1,0,0,1,592.7458015267176,1099.7091603053436) translate(0 14.4)"/><path d="M842 445c0-2.76 2.24-5 5-5h30c2.76 0 5 2.24 5 5v70c0 2.76-2.24 5-5 5h-30c-2.76 0-5-2.24-5-5z" stroke="#666" stroke-width="2" fill="#fff"/><path d="M874 417.06h44c2.76 0 5 2.24 5 5v57.05c0 2.77-2.24 5-5 5h-16.5" stroke="#999" stroke-width="2" fill="none"/><path d="M874.03 418.06H873v-2h1.03z" fill="#999"/><path d="M886.24 484.1l14.26-4.62v9.27z" stroke="#999" stroke-width="2" fill="#999"/><use xlink:href="#u" transform="matrix(1,0,0,1,931.0000000000001,434.78396946564874) translate(0 14.4)"/><path d="M1182 705c0-2.76 2.24-5 5-5h30c2.76 0 5 2.24 5 5v70c0 2.76-2.24 5-5 5h-30c-2.76 0-5-2.24-5-5zM1482 1045c0-2.76 2.24-5 5-5h30c2.76 0 5 2.24 5 5v70c0 2.76-2.24 5-5 5h-30c-2.76 0-5-2.24-5-5z" stroke="#666" stroke-width="2" fill="#fff"/><path d="M1214 664.32h44c2.76 0 5 2.24 5 5v68.23c0 2.76-2.24 5-5 5h-16.5" stroke="#999" stroke-width="2" fill="none"/><path d="M1214.03 665.32H1213v-2h1.03z" fill="#999"/><path d="M1226.24 742.55l14.26-4.64v9.28z" stroke="#999" stroke-width="2" fill="#999"/><g><use xlink:href="#u" transform="matrix(1,0,0,1,1270.9999999999998,687.6312977099237) translate(0 14.4)"/></g><path d="M1514 1003.77h34c2.76 0 5 2.24 5 5v83.6c0 2.76-2.24 5-5 5h-16.5" stroke="#999" stroke-width="2" fill="none"/><path d="M1514.03 1004.77H1513v-2h1.03z" fill="#999"/><path d="M1516.24 1097.37l14.26-4.64v9.28z" stroke="#999" stroke-width="2" fill="#999"/><g><use xlink:href="#u" transform="matrix(1,0,0,1,1560.9999999999998,1039.7725190839694) translate(0 14.4)"/></g><defs><path fill="#333" d="M230 0l2-204L168 0h-37L68-204 70 0H24v-248h70l56 185 57-185h69V0h-46" id="v"/><path fill="#333" d="M199 0l-22-63H83L61 0H9l90-248h61L250 0h-51zm-33-102l-36-108c-10 38-24 72-36 108h72" id="w"/><path fill="#333" d="M24 0v-248h52V0H24" id="x"/><path fill="#333" d="M175 0L67-191c6 58 2 128 3 191H24v-248h59L193-55c-6-58-2-129-3-193h46V0h-61" id="y"/><g id="a"><use transform="matrix(0.04938271604938272,0,0,0.04938271604938272,0,0)" xlink:href="#v"/><use transform="matrix(0.04938271604938272,0,0,0.04938271604938272,14.765432098765434,0)" xlink:href="#w"/><use transform="matrix(0.04938271604938272,0,0,0.04938271604938272,27.555555555555557,0)" xlink:href="#x"/><use transform="matrix(0.04938271604938272,0,0,0.04938271604938272,32.49382716049383,0)" xlink:href="#y"/></g><path fill="#333" d="M67-125c0 53 21 87 73 88 37 1 54-22 65-47l45 17C233-25 199 4 140 4 58 4 20-42 15-125 8-235 124-281 211-232c18 10 29 29 36 50l-46 12c-8-25-30-41-62-41-52 0-71 34-72 86" id="z"/><path fill="#333" d="M140-251c80 0 125 45 125 126S219 4 139 4C58 4 15-44 15-125s44-126 125-126zm-1 214c52 0 73-35 73-88 0-50-21-86-72-86-52 0-73 35-73 86s22 88 72 88" id="A"/><path fill="#333" d="M136-208V0H84v-208H4v-40h212v40h-80" id="B"/><path fill="#333" d="M240-174c0 40-23 61-54 70L253 0h-59l-57-94H76V0H24v-248c93 4 217-23 216 74zM76-134c48-2 112 12 112-38 0-48-66-32-112-35v73" id="C"/><path fill="#333" d="M24 0v-248h52v208h133V0H24" id="D"/><path fill="#333" d="M24 0v-248h195v40H76v63h132v40H76v65h150V0H24" id="E"/><g id="b"><use transform="matrix(0.04938271604938272,0,0,0.04938271604938272,0,0)" xlink:href="#z"/><use transform="matrix(0.04938271604938272,0,0,0.04938271604938272,12.790123456790125,0)" xlink:href="#A"/><use transform="matrix(0.04938271604938272,0,0,0.04938271604938272,26.617283950617285,0)" xlink:href="#y"/><use transform="matrix(0.04938271604938272,0,0,0.04938271604938272,39.40740740740741,0)" xlink:href="#B"/><use transform="matrix(0.04938271604938272,0,0,0.04938271604938272,50.22222222222223,0)" xlink:href="#C"/><use transform="matrix(0.04938271604938272,0,0,0.04938271604938272,63.01234567901235,0)" xlink:href="#A"/><use transform="matrix(0.04938271604938272,0,0,0.04938271604938272,76.83950617283952,0)" xlink:href="#D"/><use transform="matrix(0.04938271604938272,0,0,0.04938271604938272,87.65432098765433,0)" xlink:href="#D"/><use transform="matrix(0.04938271604938272,0,0,0.04938271604938272,98.46913580246914,0)" xlink:href="#E"/><use transform="matrix(0.04938271604938272,0,0,0.04938271604938272,110.320987654321,0)" xlink:href="#C"/></g><path fill="#333" d="M67-125c0 54 23 88 75 88 28 0 53-7 68-21v-34h-60v-39h108v91C232-14 192 4 140 4 58 4 20-42 15-125 8-236 126-280 215-234c19 10 29 26 37 47l-47 15c-11-23-29-39-63-39-53 1-75 33-75 86" id="F"/><g id="c"><use transform="matrix(0.04938271604938272,0,0,0.04938271604938272,0,0)" xlink:href="#B"/><use transform="matrix(0.04938271604938272,0,0,0.04938271604938272,10.814814814814815,0)" xlink:href="#C"/><use transform="matrix(0.04938271604938272,0,0,0.04938271604938272,23.60493827160494,0)" xlink:href="#w"/><use transform="matrix(0.04938271604938272,0,0,0.04938271604938272,36.39506172839506,0)" xlink:href="#x"/><use transform="matrix(0.04938271604938272,0,0,0.04938271604938272,41.333333333333336,0)" xlink:href="#y"/><use transform="matrix(0.04938271604938272,0,0,0.04938271604938272,54.12345679012346,0)" xlink:href="#x"/><use transform="matrix(0.04938271604938272,0,0,0.04938271604938272,59.061728395061735,0)" xlink:href="#y"/><use transform="matrix(0.04938271604938272,0,0,0.04938271604938272,71.85185185185186,0)" xlink:href="#F"/></g><path fill="#333" d="M135-150c-39-12-60 13-60 57V0H25l-1-190h47c2 13-1 29 3 40 6-28 27-53 61-41v41" id="G"/><path fill="#333" d="M85 4C-2 5 27-109 22-190h50c7 57-23 150 33 157 60-5 35-97 40-157h50l1 190h-47c-2-12 1-28-3-38-12 25-28 42-61 42" id="H"/><path fill="#333" d="M135-194c87-1 58 113 63 194h-50c-7-57 23-157-34-157-59 0-34 97-39 157H25l-1-190h47c2 12-1 28 3 38 12-26 28-41 61-42" id="I"/><path fill="#333" d="M67-93c0 74 22 123 53 168H70C40 30 18-18 18-93s22-123 52-168h50c-32 44-53 94-53 168" id="J"/><path fill="#333" d="M133-34C117-15 103 5 69 4 32 3 11-16 11-54c-1-60 55-63 116-61 1-26-3-47-28-47-18 1-26 9-28 27l-52-2c7-38 36-58 82-57s74 22 75 68l1 82c-1 14 12 18 25 15v27c-30 8-71 5-69-32zm-48 3c29 0 43-24 42-57-32 0-66-3-65 30 0 17 8 27 23 27" id="K"/><path fill="#333" d="M88-194c31-1 46 15 58 34l-1-101h50l1 261h-48c-2-10 0-23-3-31C134-8 116 4 84 4 32 4 16-41 15-95c0-56 19-97 73-99zm17 164c33 0 40-30 41-66 1-37-9-64-41-64s-38 30-39 65c0 43 13 65 39 65" id="L"/><path fill="#333" d="M25-224v-37h50v37H25zM25 0v-190h50V0H25" id="M"/><path fill="#333" d="M110-194c64 0 96 36 96 99 0 64-35 99-97 99-61 0-95-36-95-99 0-62 34-99 96-99zm-1 164c35 0 45-28 45-65 0-40-10-65-43-65-34 0-45 26-45 65 0 36 10 65 43 65" id="N"/><path fill="#333" d="M-4 44V30h207v14H-4" id="O"/><path fill="#333" d="M135-194c53 0 70 44 70 98 0 56-19 98-73 100-31 1-45-17-59-34 3 33 2 69 2 105H25l-1-265h48c2 10 0 23 3 31 11-24 29-35 60-35zM114-30c33 0 39-31 40-66 0-38-9-64-40-64-56 0-55 130 0 130" id="P"/><path fill="#333" d="M115-3C79 11 28 4 28-45v-112H4v-33h27l15-45h31v45h36v33H77v99c-1 23 16 31 38 25v30" id="Q"/><path fill="#333" d="M114-157C55-157 80-60 75 0H25v-261h50l-1 109c12-26 28-41 61-42 86-1 58 113 63 194h-50c-7-57 23-157-34-157" id="R"/><path fill="#333" d="M76-54c-1 42 2 86-19 110H24C36 42 46 24 48 0H25v-54h51" id="S"/><g id="d"><use transform="matrix(0.05,0,0,0.05,0,0)" xlink:href="#G"/><use transform="matrix(0.05,0,0,0.05,7,0)" xlink:href="#H"/><use transform="matrix(0.05,0,0,0.05,17.950000000000003,0)" xlink:href="#I"/><use transform="matrix(0.05,0,0,0.05,28.900000000000006,0)" xlink:href="#J"/><use transform="matrix(0.05,0,0,0.05,34.85000000000001,0)" xlink:href="#K"/><use transform="matrix(0.05,0,0,0.05,44.85000000000001,0)" xlink:href="#H"/><use transform="matrix(0.05,0,0,0.05,55.80000000000001,0)" xlink:href="#L"/><use transform="matrix(0.05,0,0,0.05,66.75000000000001,0)" xlink:href="#M"/><use transform="matrix(0.05,0,0,0.05,71.75000000000001,0)" xlink:href="#N"/><use transform="matrix(0.05,0,0,0.05,82.70000000000002,0)" xlink:href="#O"/><use transform="matrix(0.05,0,0,0.05,92.70000000000002,0)" xlink:href="#P"/><use transform="matrix(0.05,0,0,0.05,103.65000000000003,0)" xlink:href="#K"/><use transform="matrix(0.05,0,0,0.05,113.65000000000003,0)" xlink:href="#Q"/><use transform="matrix(0.05,0,0,0.05,119.60000000000002,0)" xlink:href="#R"/><use transform="matrix(0.05,0,0,0.05,130.55,0)" xlink:href="#S"/></g><path fill="#333" d="M137-138c1-29-70-34-71-4 15 46 118 7 119 86 1 83-164 76-172 9l43-7c4 19 20 25 44 25 33 8 57-30 24-41C81-84 22-81 20-136c-2-80 154-74 161-7" id="T"/><path fill="#333" d="M102-93c0 74-22 123-52 168H0C30 29 54-18 53-93c0-74-22-123-53-168h50c30 45 52 94 52 168" id="U"/><g id="e"><use transform="matrix(0.05,0,0,0.05,0,0)" xlink:href="#Q"/><use transform="matrix(0.05,0,0,0.05,5.95,0)" xlink:href="#G"/><use transform="matrix(0.05,0,0,0.05,12.949999999999998,0)" xlink:href="#K"/><use transform="matrix(0.05,0,0,0.05,22.95,0)" xlink:href="#I"/><use transform="matrix(0.05,0,0,0.05,33.9,0)" xlink:href="#T"/><use transform="matrix(0.05,0,0,0.05,43.9,0)" xlink:href="#O"/><use transform="matrix(0.05,0,0,0.05,53.900000000000006,0)" xlink:href="#P"/><use transform="matrix(0.05,0,0,0.05,64.85,0)" xlink:href="#K"/><use transform="matrix(0.05,0,0,0.05,74.85,0)" xlink:href="#Q"/><use transform="matrix(0.05,0,0,0.05,80.8,0)" xlink:href="#R"/><use transform="matrix(0.05,0,0,0.05,91.75,0)" xlink:href="#U"/></g><path fill="#333" d="M190-63c-7 42-38 67-86 67-59 0-84-38-90-98-12-110 154-137 174-36l-49 2c-2-19-15-32-35-32-30 0-35 28-38 64-6 74 65 87 74 30" id="V"/><path fill="#333" d="M123 10C108 53 80 86 19 72V37c35 8 53-11 59-39L3-190h52l48 148c12-52 28-100 44-148h51" id="W"/><g id="f"><use transform="matrix(0.05,0,0,0.05,0,0)" xlink:href="#L"/><use transform="matrix(0.05,0,0,0.05,10.950000000000001,0)" xlink:href="#M"/><use transform="matrix(0.05,0,0,0.05,15.950000000000001,0)" xlink:href="#V"/><use transform="matrix(0.05,0,0,0.05,25.950000000000003,0)" xlink:href="#Q"/><use transform="matrix(0.05,0,0,0.05,31.900000000000002,0)" xlink:href="#M"/><use transform="matrix(0.05,0,0,0.05,36.900000000000006,0)" xlink:href="#N"/><use transform="matrix(0.05,0,0,0.05,47.85000000000001,0)" xlink:href="#I"/><use transform="matrix(0.05,0,0,0.05,58.80000000000001,0)" xlink:href="#K"/><use transform="matrix(0.05,0,0,0.05,68.80000000000001,0)" xlink:href="#G"/><use transform="matrix(0.05,0,0,0.05,75.80000000000001,0)" xlink:href="#W"/><use transform="matrix(0.05,0,0,0.05,85.80000000000001,0)" xlink:href="#O"/><use transform="matrix(0.05,0,0,0.05,95.80000000000001,0)" xlink:href="#P"/><use transform="matrix(0.05,0,0,0.05,106.75,0)" xlink:href="#K"/><use transform="matrix(0.05,0,0,0.05,116.75,0)" xlink:href="#Q"/><use transform="matrix(0.05,0,0,0.05,122.7,0)" xlink:href="#R"/></g><path fill="#333" d="M25 0v-261h50V0H25" id="X"/><path fill="#333" d="M195-6C206 82 75 100 31 46c-4-6-6-13-8-21l49-6c3 16 16 24 34 25 40 0 42-37 40-79-11 22-30 35-61 35-53 0-70-43-70-97 0-56 18-96 73-97 30 0 46 14 59 34l2-30h47zm-90-29c32 0 41-27 41-63 0-35-9-62-40-62-32 0-39 29-40 63 0 36 9 62 39 62" id="Y"/><path fill="#333" d="M185-48c-13 30-37 53-82 52C43 2 14-33 14-96s30-98 90-98c62 0 83 45 84 108H66c0 31 8 55 39 56 18 0 30-7 34-22zm-45-69c5-46-57-63-70-21-2 6-4 13-4 21h74" id="Z"/><path fill="#333" d="M220-157c-53 9-28 100-34 157h-49v-107c1-27-5-49-29-50C55-147 81-57 75 0H25l-1-190h47c2 12-1 28 3 38 10-53 101-56 108 0 13-22 24-43 59-42 82 1 51 116 57 194h-49v-107c-1-25-5-48-29-50" id="aa"/><g id="g"><use transform="matrix(0.05,0,0,0.05,0,0)" xlink:href="#X"/><use transform="matrix(0.05,0,0,0.05,5,0)" xlink:href="#K"/><use transform="matrix(0.05,0,0,0.05,15,0)" xlink:href="#I"/><use transform="matrix(0.05,0,0,0.05,25.950000000000003,0)" xlink:href="#Y"/><use transform="matrix(0.05,0,0,0.05,36.900000000000006,0)" xlink:href="#H"/><use transform="matrix(0.05,0,0,0.05,47.85000000000001,0)" xlink:href="#K"/><use transform="matrix(0.05,0,0,0.05,57.85,0)" xlink:href="#Y"/><use transform="matrix(0.05,0,0,0.05,68.80000000000001,0)" xlink:href="#Z"/><use transform="matrix(0.05,0,0,0.05,78.80000000000001,0)" xlink:href="#O"/><use transform="matrix(0.05,0,0,0.05,88.80000000000001,0)" xlink:href="#aa"/><use transform="matrix(0.05,0,0,0.05,104.80000000000001,0)" xlink:href="#N"/><use transform="matrix(0.05,0,0,0.05,115.75,0)" xlink:href="#L"/><use transform="matrix(0.05,0,0,0.05,126.7,0)" xlink:href="#Z"/><use transform="matrix(0.05,0,0,0.05,136.70000000000002,0)" xlink:href="#X"/><use transform="matrix(0.05,0,0,0.05,141.70000000000002,0)" xlink:href="#O"/><use transform="matrix(0.05,0,0,0.05,151.70000000000002,0)" xlink:href="#P"/><use transform="matrix(0.05,0,0,0.05,162.65,0)" xlink:href="#K"/><use transform="matrix(0.05,0,0,0.05,172.65,0)" xlink:href="#Q"/><use transform="matrix(0.05,0,0,0.05,178.6,0)" xlink:href="#R"/></g><g id="h"><use transform="matrix(0.05,0,0,0.05,0,0)" xlink:href="#K"/><use transform="matrix(0.05,0,0,0.05,10,0)" xlink:href="#V"/><use transform="matrix(0.05,0,0,0.05,20,0)" xlink:href="#N"/><use transform="matrix(0.05,0,0,0.05,30.950000000000003,0)" xlink:href="#H"/><use transform="matrix(0.05,0,0,0.05,41.900000000000006,0)" xlink:href="#T"/><use transform="matrix(0.05,0,0,0.05,51.900000000000006,0)" xlink:href="#Q"/><use transform="matrix(0.05,0,0,0.05,57.85,0)" xlink:href="#M"/><use transform="matrix(0.05,0,0,0.05,62.85,0)" xlink:href="#V"/><use transform="matrix(0.05,0,0,0.05,72.85000000000001,0)" xlink:href="#O"/><use transform="matrix(0.05,0,0,0.05,82.85000000000001,0)" xlink:href="#aa"/><use transform="matrix(0.05,0,0,0.05,98.85000000000001,0)" xlink:href="#N"/><use transform="matrix(0.05,0,0,0.05,109.80000000000001,0)" xlink:href="#L"/><use transform="matrix(0.05,0,0,0.05,120.75,0)" xlink:href="#Z"/><use transform="matrix(0.05,0,0,0.05,130.75,0)" xlink:href="#X"/><use transform="matrix(0.05,0,0,0.05,135.75,0)" xlink:href="#O"/><use transform="matrix(0.05,0,0,0.05,145.75,0)" xlink:href="#P"/><use transform="matrix(0.05,0,0,0.05,156.7,0)" xlink:href="#K"/><use transform="matrix(0.05,0,0,0.05,166.7,0)" xlink:href="#Q"/><use transform="matrix(0.05,0,0,0.05,172.64999999999998,0)" xlink:href="#R"/></g><path fill="#333" d="M182-182c0 78-84 86-111 141h115V0H12c-6-101 99-100 120-180 1-22-12-31-33-32-23 0-32 14-35 34l-49-3c5-45 32-70 84-70 51 0 83 22 83 69" id="ab"/><path fill="#333" d="M24-248c93 1 206-16 204 79-1 75-69 88-152 82V0H24v-248zm52 121c47 0 100 7 100-41 0-47-54-39-100-39v80" id="ac"/><g id="i"><use transform="matrix(0.04938271604938272,0,0,0.04938271604938272,0,0)" xlink:href="#F"/><use transform="matrix(0.04938271604938272,0,0,0.04938271604938272,13.827160493827162,0)" xlink:href="#ab"/><use transform="matrix(0.04938271604938272,0,0,0.04938271604938272,23.703703703703706,0)" xlink:href="#ac"/></g><path fill="#333" d="M169-182c-1-43-94-46-97-3 18 66 151 10 154 114 3 95-165 93-204 36-6-8-10-19-12-30l50-8c3 46 112 56 116 5-17-69-150-10-154-114-4-87 153-88 188-35 5 8 8 18 10 28" id="ad"/><g id="j"><use transform="matrix(0.04938271604938272,0,0,0.04938271604938272,0,0)" xlink:href="#ad"/><use transform="matrix(0.04938271604938272,0,0,0.04938271604938272,11.851851851851853,0)" xlink:href="#C"/><use transform="matrix(0.04938271604938272,0,0,0.04938271604938272,24.641975308641978,0)" xlink:href="#x"/><use transform="matrix(0.04938271604938272,0,0,0.04938271604938272,29.58024691358025,0)" xlink:href="#D"/><use transform="matrix(0.04938271604938272,0,0,0.04938271604938272,40.39506172839506,0)" xlink:href="#v"/></g><path fill="#333" d="M186 0v-106H76V0H24v-248h52v99h110v-99h50V0h-50" id="ae"/><path fill="#333" d="M182 0l-62-99L58 0H3l86-130-79-118h55l55 88 55-88h55l-75 118L237 0h-55" id="af"/><path fill="#333" d="M182-130c37 4 62 22 62 59C244 23 116-4 24 0v-248c84 5 203-23 205 63 0 31-19 50-47 55zM76-148c40-3 101 13 101-30 0-44-60-28-101-31v61zm0 110c48-3 116 14 116-37 0-48-69-32-116-35v72" id="ag"/><g id="k"><use transform="matrix(0.04938271604938272,0,0,0.04938271604938272,0,0)" xlink:href="#ad"/><use transform="matrix(0.04938271604938272,0,0,0.04938271604938272,11.851851851851853,0)" xlink:href="#ac"/><use transform="matrix(0.04938271604938272,0,0,0.04938271604938272,23.703703703703706,0)" xlink:href="#ae"/><use transform="matrix(0.04938271604938272,0,0,0.04938271604938272,36.49382716049383,0)" xlink:href="#x"/><use transform="matrix(0.04938271604938272,0,0,0.04938271604938272,41.4320987654321,0)" xlink:href="#y"/><use transform="matrix(0.04938271604938272,0,0,0.04938271604938272,54.22222222222223,0)" xlink:href="#af"/><use transform="matrix(0.04938271604938272,0,0,0.04938271604938272,66.07407407407408,0)" xlink:href="#ag"/><use transform="matrix(0.04938271604938272,0,0,0.04938271604938272,78.8641975308642,0)" xlink:href="#w"/><use transform="matrix(0.04938271604938272,0,0,0.04938271604938272,91.65432098765433,0)" xlink:href="#ad"/><use transform="matrix(0.04938271604938272,0,0,0.04938271604938272,103.50617283950618,0)" xlink:href="#E"/></g><path fill="#333" d="M231 0h-52l-39-155L100 0H48L-1-190h46L77-45c9-52 24-97 36-145h53l37 145 32-145h46" id="ah"/><g id="l"><use transform="matrix(0.05,0,0,0.05,0,0)" xlink:href="#G"/><use transform="matrix(0.05,0,0,0.05,7,0)" xlink:href="#H"/><use transform="matrix(0.05,0,0,0.05,17.950000000000003,0)" xlink:href="#I"/><use transform="matrix(0.05,0,0,0.05,28.900000000000006,0)" xlink:href="#J"/><use transform="matrix(0.05,0,0,0.05,34.85000000000001,0)" xlink:href="#ah"/><use transform="matrix(0.05,0,0,0.05,48.85000000000001,0)" xlink:href="#N"/><use transform="matrix(0.05,0,0,0.05,59.80000000000001,0)" xlink:href="#G"/><use transform="matrix(0.05,0,0,0.05,66.80000000000001,0)" xlink:href="#L"/><use transform="matrix(0.05,0,0,0.05,77.75000000000001,0)" xlink:href="#T"/><use transform="matrix(0.05,0,0,0.05,87.75000000000001,0)" xlink:href="#O"/><use transform="matrix(0.05,0,0,0.05,97.75000000000001,0)" xlink:href="#P"/><use transform="matrix(0.05,0,0,0.05,108.7,0)" xlink:href="#K"/><use transform="matrix(0.05,0,0,0.05,118.7,0)" xlink:href="#Q"/><use transform="matrix(0.05,0,0,0.05,124.65000000000003,0)" xlink:href="#R"/><use transform="matrix(0.05,0,0,0.05,135.60000000000002,0)" xlink:href="#U"/></g><g id="m"><use transform="matrix(0.04320987654320988,0,0,0.04320987654320988,0,0)" xlink:href="#G"/><use transform="matrix(0.04320987654320988,0,0,0.04320987654320988,6.049382716049383,0)" xlink:href="#H"/><use transform="matrix(0.04320987654320988,0,0,0.04320987654320988,15.512345679012347,0)" xlink:href="#I"/><use transform="matrix(0.04320987654320988,0,0,0.04320987654320988,24.97530864197531,0)" xlink:href="#J"/><use transform="matrix(0.04320987654320988,0,0,0.04320987654320988,30.11728395061729,0)" xlink:href="#T"/><use transform="matrix(0.04320987654320988,0,0,0.04320987654320988,38.75925925925926,0)" xlink:href="#Z"/><use transform="matrix(0.04320987654320988,0,0,0.04320987654320988,47.40123456790123,0)" xlink:href="#I"/><use transform="matrix(0.04320987654320988,0,0,0.04320987654320988,56.864197530864196,0)" xlink:href="#Q"/><use transform="matrix(0.04320987654320988,0,0,0.04320987654320988,62.00617283950617,0)" xlink:href="#Z"/><use transform="matrix(0.04320987654320988,0,0,0.04320987654320988,70.64814814814815,0)" xlink:href="#V"/><use transform="matrix(0.04320987654320988,0,0,0.04320987654320988,79.29012345679013,0)" xlink:href="#Z"/><use transform="matrix(0.04320987654320988,0,0,0.04320987654320988,87.9320987654321,0)" xlink:href="#T"/><use transform="matrix(0.04320987654320988,0,0,0.04320987654320988,96.57407407407409,0)" xlink:href="#O"/><use transform="matrix(0.04320987654320988,0,0,0.04320987654320988,105.21604938271606,0)" xlink:href="#P"/><use transform="matrix(0.04320987654320988,0,0,0.04320987654320988,114.679012345679,0)" xlink:href="#K"/><use transform="matrix(0.04320987654320988,0,0,0.04320987654320988,123.32098765432099,0)" xlink:href="#Q"/><use transform="matrix(0.04320987654320988,0,0,0.04320987654320988,128.46296296296296,0)" xlink:href="#R"/><use transform="matrix(0.04320987654320988,0,0,0.04320987654320988,137.92592592592592,0)" xlink:href="#S"/></g><g id="n"><use transform="matrix(0.04320987654320988,0,0,0.04320987654320988,0,0)" xlink:href="#L"/><use transform="matrix(0.04320987654320988,0,0,0.04320987654320988,9.462962962962964,0)" xlink:href="#M"/><use transform="matrix(0.04320987654320988,0,0,0.04320987654320988,13.783950617283953,0)" xlink:href="#V"/><use transform="matrix(0.04320987654320988,0,0,0.04320987654320988,22.425925925925934,0)" xlink:href="#Q"/><use transform="matrix(0.04320987654320988,0,0,0.04320987654320988,27.567901234567906,0)" xlink:href="#M"/><use transform="matrix(0.04320987654320988,0,0,0.04320987654320988,31.888888888888893,0)" xlink:href="#N"/><use transform="matrix(0.04320987654320988,0,0,0.04320987654320988,41.351851851851855,0)" xlink:href="#I"/><use transform="matrix(0.04320987654320988,0,0,0.04320987654320988,50.81481481481482,0)" xlink:href="#K"/><use transform="matrix(0.04320987654320988,0,0,0.04320987654320988,59.456790123456784,0)" xlink:href="#G"/><use transform="matrix(0.04320987654320988,0,0,0.04320987654320988,65.50617283950618,0)" xlink:href="#W"/><use transform="matrix(0.04320987654320988,0,0,0.04320987654320988,74.14814814814815,0)" xlink:href="#O"/><use transform="matrix(0.04320987654320988,0,0,0.04320987654320988,82.79012345679013,0)" xlink:href="#P"/><use transform="matrix(0.04320987654320988,0,0,0.04320987654320988,92.2530864197531,0)" xlink:href="#K"/><use transform="matrix(0.04320987654320988,0,0,0.04320987654320988,100.89506172839508,0)" xlink:href="#Q"/><use transform="matrix(0.04320987654320988,0,0,0.04320987654320988,106.03703703703702,0)" xlink:href="#R"/><use transform="matrix(0.04320987654320988,0,0,0.04320987654320988,115.49999999999999,0)" xlink:href="#U"/></g><g id="o"><use transform="matrix(0.05,0,0,0.05,0,0)" xlink:href="#G"/><use transform="matrix(0.05,0,0,0.05,7,0)" xlink:href="#H"/><use transform="matrix(0.05,0,0,0.05,17.950000000000003,0)" xlink:href="#I"/><use transform="matrix(0.05,0,0,0.05,28.900000000000006,0)" xlink:href="#J"/><use transform="matrix(0.04320987654320988,0,0,0.04320987654320988,34.85000000000001,0)" xlink:href="#K"/><use transform="matrix(0.04320987654320988,0,0,0.04320987654320988,43.49197530864198,0)" xlink:href="#H"/><use transform="matrix(0.04320987654320988,0,0,0.04320987654320988,52.954938271604945,0)" xlink:href="#L"/><use transform="matrix(0.04320987654320988,0,0,0.04320987654320988,62.41790123456791,0)" xlink:href="#M"/><use transform="matrix(0.04320987654320988,0,0,0.04320987654320988,66.7388888888889,0)" xlink:href="#N"/><use transform="matrix(0.04320987654320988,0,0,0.04320987654320988,76.20185185185186,0)" xlink:href="#O"/><use transform="matrix(0.04320987654320988,0,0,0.04320987654320988,84.84382716049383,0)" xlink:href="#P"/><use transform="matrix(0.04320987654320988,0,0,0.04320987654320988,94.3067901234568,0)" xlink:href="#K"/><use transform="matrix(0.04320987654320988,0,0,0.04320987654320988,102.94876543209875,0)" xlink:href="#Q"/><use transform="matrix(0.04320987654320988,0,0,0.04320987654320988,108.09074074074073,0)" xlink:href="#R"/><use transform="matrix(0.04320987654320988,0,0,0.04320987654320988,117.5537037037037,0)" xlink:href="#T"/><use transform="matrix(0.04320987654320988,0,0,0.04320987654320988,126.19567901234568,0)" xlink:href="#S"/></g><g id="p"><use transform="matrix(0.04320987654320988,0,0,0.04320987654320988,0,0)" xlink:href="#X"/><use transform="matrix(0.04320987654320988,0,0,0.04320987654320988,4.320987654320988,0)" xlink:href="#K"/><use transform="matrix(0.04320987654320988,0,0,0.04320987654320988,12.962962962962964,0)" xlink:href="#I"/><use transform="matrix(0.04320987654320988,0,0,0.04320987654320988,22.425925925925934,0)" xlink:href="#Y"/><use transform="matrix(0.04320987654320988,0,0,0.04320987654320988,31.888888888888893,0)" xlink:href="#H"/><use transform="matrix(0.04320987654320988,0,0,0.04320987654320988,41.351851851851855,0)" xlink:href="#K"/><use transform="matrix(0.04320987654320988,0,0,0.04320987654320988,49.99382716049383,0)" xlink:href="#Y"/><use transform="matrix(0.04320987654320988,0,0,0.04320987654320988,59.456790123456784,0)" xlink:href="#Z"/><use transform="matrix(0.04320987654320988,0,0,0.04320987654320988,68.09876543209877,0)" xlink:href="#O"/><use transform="matrix(0.04320987654320988,0,0,0.04320987654320988,76.74074074074075,0)" xlink:href="#aa"/><use transform="matrix(0.04320987654320988,0,0,0.04320987654320988,90.56790123456791,0)" xlink:href="#N"/><use transform="matrix(0.04320987654320988,0,0,0.04320987654320988,100.03086419753087,0)" xlink:href="#L"/><use transform="matrix(0.04320987654320988,0,0,0.04320987654320988,109.49382716049384,0)" xlink:href="#Z"/><use transform="matrix(0.04320987654320988,0,0,0.04320987654320988,118.13580246913581,0)" xlink:href="#X"/><use transform="matrix(0.04320987654320988,0,0,0.04320987654320988,122.4567901234568,0)" xlink:href="#O"/><use transform="matrix(0.04320987654320988,0,0,0.04320987654320988,131.0987654320988,0)" xlink:href="#P"/><use transform="matrix(0.04320987654320988,0,0,0.04320987654320988,140.56172839506175,0)" xlink:href="#K"/><use transform="matrix(0.04320987654320988,0,0,0.04320987654320988,149.20370370370372,0)" xlink:href="#Q"/><use transform="matrix(0.04320987654320988,0,0,0.04320987654320988,154.3456790123457,0)" xlink:href="#R"/><use transform="matrix(0.04320987654320988,0,0,0.04320987654320988,163.80864197530866,0)" xlink:href="#S"/></g><g id="q"><use transform="matrix(0.04320987654320988,0,0,0.04320987654320988,0,0)" xlink:href="#L"/><use transform="matrix(0.04320987654320988,0,0,0.04320987654320988,9.462962962962964,0)" xlink:href="#M"/><use transform="matrix(0.04320987654320988,0,0,0.04320987654320988,13.783950617283953,0)" xlink:href="#V"/><use transform="matrix(0.04320987654320988,0,0,0.04320987654320988,22.425925925925934,0)" xlink:href="#Q"/><use transform="matrix(0.04320987654320988,0,0,0.04320987654320988,27.567901234567906,0)" xlink:href="#M"/><use transform="matrix(0.04320987654320988,0,0,0.04320987654320988,31.888888888888893,0)" xlink:href="#N"/><use transform="matrix(0.04320987654320988,0,0,0.04320987654320988,41.351851851851855,0)" xlink:href="#I"/><use transform="matrix(0.04320987654320988,0,0,0.04320987654320988,50.81481481481482,0)" xlink:href="#K"/><use transform="matrix(0.04320987654320988,0,0,0.04320987654320988,59.456790123456784,0)" xlink:href="#G"/><use transform="matrix(0.04320987654320988,0,0,0.04320987654320988,65.50617283950618,0)" xlink:href="#W"/><use transform="matrix(0.04320987654320988,0,0,0.04320987654320988,74.14814814814815,0)" xlink:href="#O"/><use transform="matrix(0.04320987654320988,0,0,0.04320987654320988,82.79012345679013,0)" xlink:href="#P"/><use transform="matrix(0.04320987654320988,0,0,0.04320987654320988,92.2530864197531,0)" xlink:href="#K"/><use transform="matrix(0.04320987654320988,0,0,0.04320987654320988,100.89506172839508,0)" xlink:href="#Q"/><use transform="matrix(0.04320987654320988,0,0,0.04320987654320988,106.03703703703702,0)" xlink:href="#R"/><use transform="matrix(0.05,0,0,0.05,115.5,0)" xlink:href="#U"/></g><g id="r"><use transform="matrix(0.05,0,0,0.05,0,0)" xlink:href="#L"/><use transform="matrix(0.05,0,0,0.05,10.950000000000001,0)" xlink:href="#M"/><use transform="matrix(0.05,0,0,0.05,15.950000000000001,0)" xlink:href="#V"/><use transform="matrix(0.05,0,0,0.05,25.950000000000003,0)" xlink:href="#Q"/><use transform="matrix(0.05,0,0,0.05,31.900000000000002,0)" xlink:href="#M"/><use transform="matrix(0.05,0,0,0.05,36.900000000000006,0)" xlink:href="#N"/><use transform="matrix(0.05,0,0,0.05,47.85000000000001,0)" xlink:href="#I"/><use transform="matrix(0.05,0,0,0.05,58.80000000000001,0)" xlink:href="#K"/><use transform="matrix(0.05,0,0,0.05,68.80000000000001,0)" xlink:href="#G"/><use transform="matrix(0.05,0,0,0.05,75.80000000000001,0)" xlink:href="#W"/><use transform="matrix(0.05,0,0,0.05,85.80000000000001,0)" xlink:href="#O"/><use transform="matrix(0.05,0,0,0.05,95.80000000000001,0)" xlink:href="#P"/><use transform="matrix(0.05,0,0,0.05,106.75,0)" xlink:href="#K"/><use transform="matrix(0.05,0,0,0.05,116.75,0)" xlink:href="#Q"/><use transform="matrix(0.05,0,0,0.05,122.7,0)" xlink:href="#R"/></g><g id="s"><use transform="matrix(0.05,0,0,0.05,0,0)" xlink:href="#X"/><use transform="matrix(0.05,0,0,0.05,5,0)" xlink:href="#K"/><use transform="matrix(0.05,0,0,0.05,15,0)" xlink:href="#I"/><use transform="matrix(0.05,0,0,0.05,25.950000000000003,0)" xlink:href="#Y"/><use transform="matrix(0.05,0,0,0.05,36.900000000000006,0)" xlink:href="#H"/><use transform="matrix(0.05,0,0,0.05,47.85000000000001,0)" xlink:href="#K"/><use transform="matrix(0.05,0,0,0.05,57.85,0)" xlink:href="#Y"/><use transform="matrix(0.05,0,0,0.05,68.80000000000001,0)" xlink:href="#Z"/><use transform="matrix(0.05,0,0,0.05,78.80000000000001,0)" xlink:href="#O"/><use transform="matrix(0.05,0,0,0.05,88.80000000000001,0)" xlink:href="#aa"/><use transform="matrix(0.05,0,0,0.05,104.80000000000001,0)" xlink:href="#N"/><use transform="matrix(0.05,0,0,0.05,115.75,0)" xlink:href="#L"/><use transform="matrix(0.05,0,0,0.05,126.7,0)" xlink:href="#Z"/><use transform="matrix(0.05,0,0,0.05,136.70000000000002,0)" xlink:href="#X"/><use transform="matrix(0.05,0,0,0.05,141.70000000000002,0)" xlink:href="#O"/><use transform="matrix(0.05,0,0,0.05,151.70000000000002,0)" xlink:href="#P"/><use transform="matrix(0.05,0,0,0.05,162.65,0)" xlink:href="#K"/><use transform="matrix(0.05,0,0,0.05,172.65,0)" xlink:href="#Q"/><use transform="matrix(0.05,0,0,0.05,178.6,0)" xlink:href="#R"/></g><g id="t"><use transform="matrix(0.05,0,0,0.05,0,0)" xlink:href="#K"/><use transform="matrix(0.05,0,0,0.05,10,0)" xlink:href="#V"/><use transform="matrix(0.05,0,0,0.05,20,0)" xlink:href="#N"/><use transform="matrix(0.05,0,0,0.05,30.950000000000003,0)" xlink:href="#H"/><use transform="matrix(0.05,0,0,0.05,41.900000000000006,0)" xlink:href="#T"/><use transform="matrix(0.05,0,0,0.05,51.900000000000006,0)" xlink:href="#Q"/><use transform="matrix(0.05,0,0,0.05,57.85,0)" xlink:href="#M"/><use transform="matrix(0.05,0,0,0.05,62.85,0)" xlink:href="#V"/><use transform="matrix(0.05,0,0,0.05,72.85000000000001,0)" xlink:href="#O"/><use transform="matrix(0.05,0,0,0.05,82.85000000000001,0)" xlink:href="#aa"/><use transform="matrix(0.05,0,0,0.05,98.85000000000001,0)" xlink:href="#N"/><use transform="matrix(0.05,0,0,0.05,109.80000000000001,0)" xlink:href="#L"/><use transform="matrix(0.05,0,0,0.05,120.75,0)" xlink:href="#Z"/><use transform="matrix(0.05,0,0,0.05,130.75,0)" xlink:href="#X"/><use transform="matrix(0.05,0,0,0.05,135.75,0)" xlink:href="#O"/><use transform="matrix(0.05,0,0,0.05,145.75,0)" xlink:href="#P"/><use transform="matrix(0.05,0,0,0.05,156.7,0)" xlink:href="#K"/><use transform="matrix(0.05,0,0,0.05,166.7,0)" xlink:href="#Q"/><use transform="matrix(0.05,0,0,0.05,172.64999999999998,0)" xlink:href="#R"/></g><g id="u"><use transform="matrix(0.05,0,0,0.05,0,0)" xlink:href="#P"/><use transform="matrix(0.05,0,0,0.05,10.950000000000001,0)" xlink:href="#G"/><use transform="matrix(0.05,0,0,0.05,17.950000000000003,0)" xlink:href="#N"/><use transform="matrix(0.05,0,0,0.05,28.900000000000006,0)" xlink:href="#V"/><use transform="matrix(0.05,0,0,0.05,38.900000000000006,0)" xlink:href="#Z"/><use transform="matrix(0.05,0,0,0.05,48.900000000000006,0)" xlink:href="#T"/><use transform="matrix(0.05,0,0,0.05,58.900000000000006,0)" xlink:href="#T"/><use transform="matrix(0.05,0,0,0.05,68.9,0)" xlink:href="#J"/><use transform="matrix(0.05,0,0,0.05,74.85000000000001,0)" xlink:href="#U"/></g></defs></g></svg>