<svg xmlns="http://www.w3.org/2000/svg" xmlns:xlink="http://www.w3.org/1999/xlink" xmlns:lucid="lucid" width="933" height="824"><g transform="translate(0 0)" lucid:page-tab-id="0_0"><path d="M32 25c0-2.76 2.24-5 5-5h150c2.76 0 5 2.24 5 5v110c0 2.76-2.24 5-5 5H37c-2.76 0-5-2.24-5-5z" stroke="#666" stroke-width="2" fill="#ff8f80"/><use xlink:href="#a" transform="matrix(1,0,0,1,32,20) translate(57.358024691358025 51.72222222222222)"/><use xlink:href="#b" transform="matrix(1,0,0,1,32,20) translate(18.444444444444443 73.05555555555556)"/><path d="M112 142v1017" fill="none"/><path d="M112 142v9.97m0 9.97v19.94m0 9.97v19.94m0 9.96v19.95m0 9.98v19.94m0 9.97v19.93m0 9.97v19.94m0 9.97v19.95m0 9.97v19.94m0 9.98v19.94m0 9.97v19.94m0 9.96V481m0 9.97v19.94m0 9.98v19.94m0 9.97v19.94m0 9.97v19.95m0 9.97v19.94m0 9.97v19.94m0 9.97v19.94m0 9.97v19.94m0 9.96v19.95m0 9.98v19.94m0 9.97v19.93m0 9.97v19.94m0 9.97v19.95m0 9.97v19.94m0 9.98v19.94m0 9.97v19.94m0 9.96v19.94m0 9.97v19.94m0 9.98v19.94m0 9.97v19.94m0 9.97v19.95m0 9.97v19.94m0 9.97v9.97" stroke="#999" stroke-width="2" fill="none"/><path d="M113 142.03h-2V141h2z" fill="#999"/><path d="M112 1158.97v1.03" stroke="#999" stroke-width="2" fill="none"/><path d="M92 205c0-2.76 2.24-5 5-5h30c2.76 0 5 2.24 5 5v590c0 2.76-2.24 5-5 5H97c-2.76 0-5-2.24-5-5z" stroke="#666" stroke-width="2" fill="#f2f2f2"/><path d="M422 25c0-2.76 2.24-5 5-5h210c2.76 0 5 2.24 5 5v110c0 2.76-2.24 5-5 5H427c-2.76 0-5-2.24-5-5z" stroke="#666" stroke-width="2" fill="#ffc374"/><use xlink:href="#c" transform="matrix(1,0,0,1,422,20) translate(82.41975308641975 62.97222222222222)"/><path d="M532 142v1017" fill="none"/><path d="M532 142v9.97m0 9.97v19.94m0 9.97v19.94m0 9.96v19.95m0 9.98v19.94m0 9.97v19.93m0 9.97v19.94m0 9.97v19.95m0 9.97v19.94m0 9.98v19.94m0 9.97v19.94m0 9.96V481m0 9.97v19.94m0 9.98v19.94m0 9.97v19.94m0 9.97v19.95m0 9.97v19.94m0 9.97v19.94m0 9.97v19.94m0 9.97v19.94m0 9.96v19.95m0 9.98v19.94m0 9.97v19.93m0 9.97v19.94m0 9.97v19.95m0 9.97v19.94m0 9.98v19.94m0 9.97v19.94m0 9.96v19.94m0 9.97v19.94m0 9.98v19.94m0 9.97v19.94m0 9.97v19.95m0 9.97v19.94m0 9.97v9.97" stroke="#999" stroke-width="2" fill="none"/><path d="M533 142.03h-2V141h2z" fill="#999"/><path d="M532 1158.97v1.03" stroke="#999" stroke-width="2" fill="none"/><path d="M512 265c0-2.76 2.24-5 5-5h30c2.76 0 5 2.24 5 5v470c0 2.76-2.24 5-5 5h-30c-2.76 0-5-2.24-5-5z" stroke="#666" stroke-width="2" fill="#f2f2f2"/><path d="M154 270h338.5" stroke="#999" stroke-width="2" fill="none"/><path d="M154.03 271H153v-2h1.03z" fill="#999"/><path d="M507.76 270l-14.26 4.64v-9.28z" stroke="#999" stroke-width="2" fill="#999"/><use xlink:href="#d" transform="matrix(1,0,0,1,198.39506172839506,247.33333333333363) translate(0 12.444444444444446)"/><use xlink:href="#e" transform="matrix(1,0,0,1,198.39506172839506,247.33333333333363) translate(146.5679012345679 12.444444444444446)"/><path d="M532 345c0-2.76 2.24-5 5-5h30c2.76 0 5 2.24 5 5v70c0 2.76-2.24 5-5 5h-30c-2.76 0-5-2.24-5-5z" stroke="#666" stroke-width="2" fill="#fff"/><path d="M611.57 300.1l2.12 2.92.3 1.9v70.24l-1.1 3.4-2.92 2.13-1.9.3H591.5v-2h16.42l1.26-.2 2-1.46.82-2.5v-69.76l-.2-1.26-1.46-2-2.5-.82H554v-2h54.16z" fill="#999"/><path d="M554.03 301H553v-2h1.03zM590.5 384.64L576.24 380l14.26-4.64z" fill="#999"/><path d="M591.5 386l-18.5-6 18.5-6zm-12.03-6l10.03 3.26v-6.52z" fill="#999"/><use xlink:href="#f" transform="matrix(1,0,0,1,621,319.2) translate(0 14.4)"/><use xlink:href="#g" transform="matrix(1,0,0,1,613,319.2) translate(0 14.4)"/><path d="M532 485c0-2.76 2.24-5 5-5h30c2.76 0 5 2.24 5 5v70c0 2.76-2.24 5-5 5h-30c-2.76 0-5-2.24-5-5z" stroke="#666" stroke-width="2" fill="#fff"/><path d="M611.57 442.37l2.12 2.9.3 1.9v68l-1.1 3.4-2.92 2.12-1.9.3H591.5v-2h16.42l1.26-.2 2-1.46.82-2.5v-67.5l-.2-1.26-1.46-2-2.5-.82H554v-2h54.16z" fill="#999"/><path d="M554.03 443.26H553v-2h1.03zM590.5 524.64L576.24 520l14.26-4.64z" fill="#999"/><path d="M591.5 526l-18.5-6 18.5-6zm-12.03-6l10.03 3.26v-6.52z" fill="#999"/><use xlink:href="#h" transform="matrix(1,0,0,1,621,460.3297709923664) translate(0 14.4)"/><use xlink:href="#g" transform="matrix(1,0,0,1,613,460.3297709923664) translate(0 14.4)"/><path d="M112 245c0-2.76 2.24-5 5-5h30c2.76 0 5 2.24 5 5v530c0 2.76-2.24 5-5 5h-30c-2.76 0-5-2.24-5-5z" stroke="#666" stroke-width="2" fill="#fff"/><path d="M510 723.27l-338.5 2.96" fill="none"/><path d="M510 723.27l-10.26.1m-10.26.08l-20.5.18m-10.27.1l-20.5.17m-10.26.1l-20.52.17m-10.25.1l-20.52.17m-10.26.1l-20.52.17m-10.26.1l-20.5.18m-10.27.1l-20.52.17m-10.25.1l-20.52.17m-10.26.1l-20.5.17m-10.27.08l-20.5.17m-10.27.1l-10.26.08" stroke="#999" stroke-width="2" fill="none"/><path d="M511 724.26h-1.02v-2H511z" fill="#999"/><path d="M156.24 726.37l14.22-4.76.08 9.28z" stroke="#999" stroke-width="2" fill="#999"/><use xlink:href="#i" transform="matrix(1,0,0,1,243.4554015246497,728.8029938875083) translate(0 14.4)"/><path d="M532 622.74c0-2.76 2.24-5 5-5h30c2.76 0 5 2.24 5 5v70c0 2.76-2.24 5-5 5h-30c-2.76 0-5-2.24-5-5z" stroke="#666" stroke-width="2" fill="#fff"/><path d="M611.57 595l2.12 2.92.3 1.9v53.08l-1.1 3.4-2.92 2.13-1.9.3H591.5v-2h16.42l1.26-.2 2-1.45.82-2.5v-52.6l-.2-1.27-1.46-2-2.5-.8H554v-2h54.16z" fill="#999"/><path d="M554.03 595.9H553v-2h1.03zM590.5 662.38l-14.26-4.64 14.26-4.63z" fill="#999"/><path d="M591.5 663.75l-18.5-6 18.5-6.02zm-12.03-6L589.5 661v-6.52z" fill="#999"/><use xlink:href="#j" transform="matrix(1,0,0,1,621,605.5167530718048) translate(0 14.4)"/><g><use xlink:href="#g" transform="matrix(1,0,0,1,613,605.5167530718048) translate(0 14.4)"/></g><defs><path fill="#333" d="M230 0l2-204L168 0h-37L68-204 70 0H24v-248h70l56 185 57-185h69V0h-46" id="k"/><path fill="#333" d="M199 0l-22-63H83L61 0H9l90-248h61L250 0h-51zm-33-102l-36-108c-10 38-24 72-36 108h72" id="l"/><path fill="#333" d="M24 0v-248h52V0H24" id="m"/><path fill="#333" d="M175 0L67-191c6 58 2 128 3 191H24v-248h59L193-55c-6-58-2-129-3-193h46V0h-61" id="n"/><g id="a"><use transform="matrix(0.04938271604938272,0,0,0.04938271604938272,0,0)" xlink:href="#k"/><use transform="matrix(0.04938271604938272,0,0,0.04938271604938272,14.765432098765434,0)" xlink:href="#l"/><use transform="matrix(0.04938271604938272,0,0,0.04938271604938272,27.555555555555557,0)" xlink:href="#m"/><use transform="matrix(0.04938271604938272,0,0,0.04938271604938272,32.49382716049383,0)" xlink:href="#n"/></g><path fill="#333" d="M67-125c0 53 21 87 73 88 37 1 54-22 65-47l45 17C233-25 199 4 140 4 58 4 20-42 15-125 8-235 124-281 211-232c18 10 29 29 36 50l-46 12c-8-25-30-41-62-41-52 0-71 34-72 86" id="o"/><path fill="#333" d="M140-251c80 0 125 45 125 126S219 4 139 4C58 4 15-44 15-125s44-126 125-126zm-1 214c52 0 73-35 73-88 0-50-21-86-72-86-52 0-73 35-73 86s22 88 72 88" id="p"/><path fill="#333" d="M136-208V0H84v-208H4v-40h212v40h-80" id="q"/><path fill="#333" d="M240-174c0 40-23 61-54 70L253 0h-59l-57-94H76V0H24v-248c93 4 217-23 216 74zM76-134c48-2 112 12 112-38 0-48-66-32-112-35v73" id="r"/><path fill="#333" d="M24 0v-248h52v208h133V0H24" id="s"/><path fill="#333" d="M24 0v-248h195v40H76v63h132v40H76v65h150V0H24" id="t"/><g id="b"><use transform="matrix(0.04938271604938272,0,0,0.04938271604938272,0,0)" xlink:href="#o"/><use transform="matrix(0.04938271604938272,0,0,0.04938271604938272,12.790123456790125,0)" xlink:href="#p"/><use transform="matrix(0.04938271604938272,0,0,0.04938271604938272,26.617283950617285,0)" xlink:href="#n"/><use transform="matrix(0.04938271604938272,0,0,0.04938271604938272,39.40740740740741,0)" xlink:href="#q"/><use transform="matrix(0.04938271604938272,0,0,0.04938271604938272,50.22222222222223,0)" xlink:href="#r"/><use transform="matrix(0.04938271604938272,0,0,0.04938271604938272,63.01234567901235,0)" xlink:href="#p"/><use transform="matrix(0.04938271604938272,0,0,0.04938271604938272,76.83950617283952,0)" xlink:href="#s"/><use transform="matrix(0.04938271604938272,0,0,0.04938271604938272,87.65432098765433,0)" xlink:href="#s"/><use transform="matrix(0.04938271604938272,0,0,0.04938271604938272,98.46913580246914,0)" xlink:href="#t"/><use transform="matrix(0.04938271604938272,0,0,0.04938271604938272,110.320987654321,0)" xlink:href="#r"/></g><path fill="#333" d="M169-182c-1-43-94-46-97-3 18 66 151 10 154 114 3 95-165 93-204 36-6-8-10-19-12-30l50-8c3 46 112 56 116 5-17-69-150-10-154-114-4-87 153-88 188-35 5 8 8 18 10 28" id="u"/><g id="c"><use transform="matrix(0.04938271604938272,0,0,0.04938271604938272,0,0)" xlink:href="#u"/><use transform="matrix(0.04938271604938272,0,0,0.04938271604938272,11.851851851851853,0)" xlink:href="#r"/><use transform="matrix(0.04938271604938272,0,0,0.04938271604938272,24.641975308641978,0)" xlink:href="#m"/><use transform="matrix(0.04938271604938272,0,0,0.04938271604938272,29.58024691358025,0)" xlink:href="#s"/><use transform="matrix(0.04938271604938272,0,0,0.04938271604938272,40.39506172839506,0)" xlink:href="#k"/></g><path fill="#333" d="M135-150c-39-12-60 13-60 57V0H25l-1-190h47c2 13-1 29 3 40 6-28 27-53 61-41v41" id="v"/><path fill="#333" d="M85 4C-2 5 27-109 22-190h50c7 57-23 150 33 157 60-5 35-97 40-157h50l1 190h-47c-2-12 1-28-3-38-12 25-28 42-61 42" id="w"/><path fill="#333" d="M135-194c87-1 58 113 63 194h-50c-7-57 23-157-34-157-59 0-34 97-39 157H25l-1-190h47c2 12-1 28 3 38 12-26 28-41 61-42" id="x"/><path fill="#333" d="M67-93c0 74 22 123 53 168H70C40 30 18-18 18-93s22-123 52-168h50c-32 44-53 94-53 168" id="y"/><path fill="#333" d="M137-138c1-29-70-34-71-4 15 46 118 7 119 86 1 83-164 76-172 9l43-7c4 19 20 25 44 25 33 8 57-30 24-41C81-84 22-81 20-136c-2-80 154-74 161-7" id="z"/><path fill="#333" d="M185-48c-13 30-37 53-82 52C43 2 14-33 14-96s30-98 90-98c62 0 83 45 84 108H66c0 31 8 55 39 56 18 0 30-7 34-22zm-45-69c5-46-57-63-70-21-2 6-4 13-4 21h74" id="A"/><path fill="#333" d="M115-3C79 11 28 4 28-45v-112H4v-33h27l15-45h31v45h36v33H77v99c-1 23 16 31 38 25v30" id="B"/><path fill="#333" d="M190-63c-7 42-38 67-86 67-59 0-84-38-90-98-12-110 154-137 174-36l-49 2c-2-19-15-32-35-32-30 0-35 28-38 64-6 74 65 87 74 30" id="C"/><path fill="#333" d="M-4 44V30h207v14H-4" id="D"/><path fill="#333" d="M135-194c53 0 70 44 70 98 0 56-19 98-73 100-31 1-45-17-59-34 3 33 2 69 2 105H25l-1-265h48c2 10 0 23 3 31 11-24 29-35 60-35zM114-30c33 0 39-31 40-66 0-38-9-64-40-64-56 0-55 130 0 130" id="E"/><path fill="#333" d="M133-34C117-15 103 5 69 4 32 3 11-16 11-54c-1-60 55-63 116-61 1-26-3-47-28-47-18 1-26 9-28 27l-52-2c7-38 36-58 82-57s74 22 75 68l1 82c-1 14 12 18 25 15v27c-30 8-71 5-69-32zm-48 3c29 0 43-24 42-57-32 0-66-3-65 30 0 17 8 27 23 27" id="F"/><path fill="#333" d="M114-157C55-157 80-60 75 0H25v-261h50l-1 109c12-26 28-41 61-42 86-1 58 113 63 194h-50c-7-57 23-157-34-157" id="G"/><path fill="#333" d="M76-54c-1 42 2 86-19 110H24C36 42 46 24 48 0H25v-54h51" id="H"/><g id="d"><use transform="matrix(0.04320987654320988,0,0,0.04320987654320988,0,0)" xlink:href="#v"/><use transform="matrix(0.04320987654320988,0,0,0.04320987654320988,6.049382716049383,0)" xlink:href="#w"/><use transform="matrix(0.04320987654320988,0,0,0.04320987654320988,15.512345679012347,0)" xlink:href="#x"/><use transform="matrix(0.04320987654320988,0,0,0.04320987654320988,24.97530864197531,0)" xlink:href="#y"/><use transform="matrix(0.04320987654320988,0,0,0.04320987654320988,30.11728395061729,0)" xlink:href="#z"/><use transform="matrix(0.04320987654320988,0,0,0.04320987654320988,38.75925925925926,0)" xlink:href="#A"/><use transform="matrix(0.04320987654320988,0,0,0.04320987654320988,47.40123456790123,0)" xlink:href="#x"/><use transform="matrix(0.04320987654320988,0,0,0.04320987654320988,56.864197530864196,0)" xlink:href="#B"/><use transform="matrix(0.04320987654320988,0,0,0.04320987654320988,62.00617283950617,0)" xlink:href="#A"/><use transform="matrix(0.04320987654320988,0,0,0.04320987654320988,70.64814814814815,0)" xlink:href="#C"/><use transform="matrix(0.04320987654320988,0,0,0.04320987654320988,79.29012345679013,0)" xlink:href="#A"/><use transform="matrix(0.04320987654320988,0,0,0.04320987654320988,87.9320987654321,0)" xlink:href="#z"/><use transform="matrix(0.04320987654320988,0,0,0.04320987654320988,96.57407407407409,0)" xlink:href="#D"/><use transform="matrix(0.04320987654320988,0,0,0.04320987654320988,105.21604938271606,0)" xlink:href="#E"/><use transform="matrix(0.04320987654320988,0,0,0.04320987654320988,114.679012345679,0)" xlink:href="#F"/><use transform="matrix(0.04320987654320988,0,0,0.04320987654320988,123.32098765432099,0)" xlink:href="#B"/><use transform="matrix(0.04320987654320988,0,0,0.04320987654320988,128.46296296296296,0)" xlink:href="#G"/><use transform="matrix(0.04320987654320988,0,0,0.04320987654320988,137.92592592592592,0)" xlink:href="#H"/></g><path fill="#333" d="M88-194c31-1 46 15 58 34l-1-101h50l1 261h-48c-2-10 0-23-3-31C134-8 116 4 84 4 32 4 16-41 15-95c0-56 19-97 73-99zm17 164c33 0 40-30 41-66 1-37-9-64-41-64s-38 30-39 65c0 43 13 65 39 65" id="I"/><path fill="#333" d="M25-224v-37h50v37H25zM25 0v-190h50V0H25" id="J"/><path fill="#333" d="M110-194c64 0 96 36 96 99 0 64-35 99-97 99-61 0-95-36-95-99 0-62 34-99 96-99zm-1 164c35 0 45-28 45-65 0-40-10-65-43-65-34 0-45 26-45 65 0 36 10 65 43 65" id="K"/><path fill="#333" d="M123 10C108 53 80 86 19 72V37c35 8 53-11 59-39L3-190h52l48 148c12-52 28-100 44-148h51" id="L"/><path fill="#333" d="M102-93c0 74-22 123-52 168H0C30 29 54-18 53-93c0-74-22-123-53-168h50c30 45 52 94 52 168" id="M"/><g id="e"><use transform="matrix(0.04320987654320988,0,0,0.04320987654320988,0,0)" xlink:href="#I"/><use transform="matrix(0.04320987654320988,0,0,0.04320987654320988,9.462962962962964,0)" xlink:href="#J"/><use transform="matrix(0.04320987654320988,0,0,0.04320987654320988,13.783950617283953,0)" xlink:href="#C"/><use transform="matrix(0.04320987654320988,0,0,0.04320987654320988,22.425925925925934,0)" xlink:href="#B"/><use transform="matrix(0.04320987654320988,0,0,0.04320987654320988,27.567901234567906,0)" xlink:href="#J"/><use transform="matrix(0.04320987654320988,0,0,0.04320987654320988,31.888888888888893,0)" xlink:href="#K"/><use transform="matrix(0.04320987654320988,0,0,0.04320987654320988,41.351851851851855,0)" xlink:href="#x"/><use transform="matrix(0.04320987654320988,0,0,0.04320987654320988,50.81481481481482,0)" xlink:href="#F"/><use transform="matrix(0.04320987654320988,0,0,0.04320987654320988,59.456790123456784,0)" xlink:href="#v"/><use transform="matrix(0.04320987654320988,0,0,0.04320987654320988,65.50617283950618,0)" xlink:href="#L"/><use transform="matrix(0.04320987654320988,0,0,0.04320987654320988,74.14814814814815,0)" xlink:href="#D"/><use transform="matrix(0.04320987654320988,0,0,0.04320987654320988,82.79012345679013,0)" xlink:href="#E"/><use transform="matrix(0.04320987654320988,0,0,0.04320987654320988,92.2530864197531,0)" xlink:href="#F"/><use transform="matrix(0.04320987654320988,0,0,0.04320987654320988,100.89506172839508,0)" xlink:href="#B"/><use transform="matrix(0.04320987654320988,0,0,0.04320987654320988,106.03703703703702,0)" xlink:href="#G"/><use transform="matrix(0.04320987654320988,0,0,0.04320987654320988,115.49999999999999,0)" xlink:href="#M"/></g><path fill="#333" d="M195-6C206 82 75 100 31 46c-4-6-6-13-8-21l49-6c3 16 16 24 34 25 40 0 42-37 40-79-11 22-30 35-61 35-53 0-70-43-70-97 0-56 18-96 73-97 30 0 46 14 59 34l2-30h47zm-90-29c32 0 41-27 41-63 0-35-9-62-40-62-32 0-39 29-40 63 0 36 9 62 39 62" id="N"/><g id="f"><use transform="matrix(0.05,0,0,0.05,0,0)" xlink:href="#N"/><use transform="matrix(0.05,0,0,0.05,10.950000000000001,0)" xlink:href="#A"/><use transform="matrix(0.05,0,0,0.05,20.950000000000003,0)" xlink:href="#B"/><use transform="matrix(0.05,0,0,0.05,26.900000000000002,0)" xlink:href="#D"/><use transform="matrix(0.05,0,0,0.05,36.900000000000006,0)" xlink:href="#B"/><use transform="matrix(0.05,0,0,0.05,42.85000000000001,0)" xlink:href="#A"/><use transform="matrix(0.05,0,0,0.05,52.85,0)" xlink:href="#z"/><use transform="matrix(0.05,0,0,0.05,62.85,0)" xlink:href="#B"/><use transform="matrix(0.05,0,0,0.05,68.80000000000001,0)" xlink:href="#D"/><use transform="matrix(0.05,0,0,0.05,78.80000000000001,0)" xlink:href="#z"/><use transform="matrix(0.05,0,0,0.05,88.80000000000001,0)" xlink:href="#w"/><use transform="matrix(0.05,0,0,0.05,99.75000000000001,0)" xlink:href="#J"/><use transform="matrix(0.05,0,0,0.05,104.75,0)" xlink:href="#B"/><use transform="matrix(0.05,0,0,0.05,110.7,0)" xlink:href="#A"/><use transform="matrix(0.05,0,0,0.05,120.7,0)" xlink:href="#y"/><use transform="matrix(0.05,0,0,0.05,126.65000000000003,0)" xlink:href="#M"/></g><path fill="#333" d="M231 0h-52l-39-155L100 0H48L-1-190h46L77-45c9-52 24-97 36-145h53l37 145 32-145h46" id="O"/><path fill="#333" d="M25 0v-261h50V0H25" id="P"/><path fill="#333" d="M220-157c-53 9-28 100-34 157h-49v-107c1-27-5-49-29-50C55-147 81-57 75 0H25l-1-190h47c2 12-1 28 3 38 10-53 101-56 108 0 13-22 24-43 59-42 82 1 51 116 57 194h-49v-107c-1-25-5-48-29-50" id="Q"/><g id="h"><use transform="matrix(0.05,0,0,0.05,0,0)" xlink:href="#N"/><use transform="matrix(0.05,0,0,0.05,10.950000000000001,0)" xlink:href="#A"/><use transform="matrix(0.05,0,0,0.05,20.950000000000003,0)" xlink:href="#x"/><use transform="matrix(0.05,0,0,0.05,31.900000000000006,0)" xlink:href="#A"/><use transform="matrix(0.05,0,0,0.05,41.900000000000006,0)" xlink:href="#v"/><use transform="matrix(0.05,0,0,0.05,48.900000000000006,0)" xlink:href="#F"/><use transform="matrix(0.05,0,0,0.05,58.900000000000006,0)" xlink:href="#B"/><use transform="matrix(0.05,0,0,0.05,64.85000000000001,0)" xlink:href="#A"/><use transform="matrix(0.05,0,0,0.05,74.85000000000001,0)" xlink:href="#D"/><use transform="matrix(0.05,0,0,0.05,84.85000000000001,0)" xlink:href="#x"/><use transform="matrix(0.05,0,0,0.05,95.80000000000001,0)" xlink:href="#A"/><use transform="matrix(0.05,0,0,0.05,105.80000000000001,0)" xlink:href="#O"/><use transform="matrix(0.05,0,0,0.05,119.80000000000001,0)" xlink:href="#D"/><use transform="matrix(0.05,0,0,0.05,129.8,0)" xlink:href="#P"/><use transform="matrix(0.05,0,0,0.05,134.8,0)" xlink:href="#F"/><use transform="matrix(0.05,0,0,0.05,144.8,0)" xlink:href="#x"/><use transform="matrix(0.05,0,0,0.05,155.75,0)" xlink:href="#N"/><use transform="matrix(0.05,0,0,0.05,166.7,0)" xlink:href="#w"/><use transform="matrix(0.05,0,0,0.05,177.64999999999998,0)" xlink:href="#F"/><use transform="matrix(0.05,0,0,0.05,187.64999999999998,0)" xlink:href="#N"/><use transform="matrix(0.05,0,0,0.05,198.59999999999997,0)" xlink:href="#A"/><use transform="matrix(0.05,0,0,0.05,208.59999999999997,0)" xlink:href="#D"/><use transform="matrix(0.05,0,0,0.05,218.59999999999997,0)" xlink:href="#Q"/><use transform="matrix(0.05,0,0,0.05,234.59999999999997,0)" xlink:href="#K"/><use transform="matrix(0.05,0,0,0.05,245.54999999999995,0)" xlink:href="#I"/><use transform="matrix(0.05,0,0,0.05,256.49999999999994,0)" xlink:href="#A"/><use transform="matrix(0.05,0,0,0.05,266.49999999999994,0)" xlink:href="#P"/><use transform="matrix(0.05,0,0,0.05,271.49999999999994,0)" xlink:href="#y"/><use transform="matrix(0.05,0,0,0.05,277.44999999999993,0)" xlink:href="#M"/></g><g id="i"><use transform="matrix(0.05,0,0,0.05,0,0)" xlink:href="#P"/><use transform="matrix(0.05,0,0,0.05,5,0)" xlink:href="#F"/><use transform="matrix(0.05,0,0,0.05,15,0)" xlink:href="#x"/><use transform="matrix(0.05,0,0,0.05,25.950000000000003,0)" xlink:href="#N"/><use transform="matrix(0.05,0,0,0.05,36.900000000000006,0)" xlink:href="#w"/><use transform="matrix(0.05,0,0,0.05,47.85000000000001,0)" xlink:href="#F"/><use transform="matrix(0.05,0,0,0.05,57.85,0)" xlink:href="#N"/><use transform="matrix(0.05,0,0,0.05,68.80000000000001,0)" xlink:href="#A"/><use transform="matrix(0.05,0,0,0.05,78.80000000000001,0)" xlink:href="#D"/><use transform="matrix(0.05,0,0,0.05,88.80000000000001,0)" xlink:href="#Q"/><use transform="matrix(0.05,0,0,0.05,104.80000000000001,0)" xlink:href="#K"/><use transform="matrix(0.05,0,0,0.05,115.75,0)" xlink:href="#I"/><use transform="matrix(0.05,0,0,0.05,126.7,0)" xlink:href="#A"/><use transform="matrix(0.05,0,0,0.05,136.70000000000002,0)" xlink:href="#P"/><use transform="matrix(0.05,0,0,0.05,141.70000000000002,0)" xlink:href="#D"/><use transform="matrix(0.05,0,0,0.05,151.70000000000002,0)" xlink:href="#E"/><use transform="matrix(0.05,0,0,0.05,162.65,0)" xlink:href="#F"/><use transform="matrix(0.05,0,0,0.05,172.65,0)" xlink:href="#B"/><use transform="matrix(0.05,0,0,0.05,178.6,0)" xlink:href="#G"/></g><path fill="#333" d="M128 0H69L1-190h53L99-40l48-150h52" id="R"/><g id="j"><use transform="matrix(0.05,0,0,0.05,0,0)" xlink:href="#J"/><use transform="matrix(0.05,0,0,0.05,5,0)" xlink:href="#Q"/><use transform="matrix(0.05,0,0,0.05,21,0)" xlink:href="#E"/><use transform="matrix(0.05,0,0,0.05,31.950000000000003,0)" xlink:href="#v"/><use transform="matrix(0.05,0,0,0.05,38.95,0)" xlink:href="#K"/><use transform="matrix(0.05,0,0,0.05,49.900000000000006,0)" xlink:href="#R"/><use transform="matrix(0.05,0,0,0.05,59.900000000000006,0)" xlink:href="#A"/><use transform="matrix(0.05,0,0,0.05,69.9,0)" xlink:href="#D"/><use transform="matrix(0.05,0,0,0.05,79.9,0)" xlink:href="#P"/><use transform="matrix(0.05,0,0,0.05,84.9,0)" xlink:href="#F"/><use transform="matrix(0.05,0,0,0.05,94.9,0)" xlink:href="#x"/><use transform="matrix(0.05,0,0,0.05,105.85000000000001,0)" xlink:href="#N"/><use transform="matrix(0.05,0,0,0.05,116.80000000000001,0)" xlink:href="#w"/><use transform="matrix(0.05,0,0,0.05,127.75,0)" xlink:href="#F"/><use transform="matrix(0.05,0,0,0.05,137.75,0)" xlink:href="#N"/><use transform="matrix(0.05,0,0,0.05,148.7,0)" xlink:href="#A"/><use transform="matrix(0.05,0,0,0.05,158.7,0)" xlink:href="#D"/><use transform="matrix(0.05,0,0,0.05,168.7,0)" xlink:href="#Q"/><use transform="matrix(0.05,0,0,0.05,184.7,0)" xlink:href="#K"/><use transform="matrix(0.05,0,0,0.05,195.64999999999998,0)" xlink:href="#I"/><use transform="matrix(0.05,0,0,0.05,206.59999999999997,0)" xlink:href="#A"/><use transform="matrix(0.05,0,0,0.05,216.59999999999997,0)" xlink:href="#P"/><use transform="matrix(0.05,0,0,0.05,221.59999999999997,0)" xlink:href="#y"/><use transform="matrix(0.05,0,0,0.05,227.54999999999995,0)" xlink:href="#M"/></g></defs></g></svg>