<svg xmlns="http://www.w3.org/2000/svg" xmlns:xlink="http://www.w3.org/1999/xlink" xmlns:lucid="lucid" width="834" height="869"><g transform="translate(0 0)" lucid:page-tab-id="0_0"><path d="M32 25c0-2.76 2.24-5 5-5h150c2.76 0 5 2.24 5 5v110c0 2.76-2.24 5-5 5H37c-2.76 0-5-2.24-5-5z" stroke="#666" stroke-width="2" fill="#ff8f80"/><use xlink:href="#a" transform="matrix(1,0,0,1,32,20) translate(57.358024691358025 51.72222222222222)"/><use xlink:href="#b" transform="matrix(1,0,0,1,32,20) translate(18.444444444444443 73.05555555555556)"/><path d="M112 142v1017" fill="none"/><path d="M112 142v9.97m0 9.97v19.94m0 9.97v19.94m0 9.96v19.95m0 9.98v19.94m0 9.97v19.93m0 9.97v19.94m0 9.97v19.95m0 9.97v19.94m0 9.98v19.94m0 9.97v19.94m0 9.96V481m0 9.97v19.94m0 9.98v19.94m0 9.97v19.94m0 9.97v19.95m0 9.97v19.94m0 9.97v19.94m0 9.97v19.94m0 9.97v19.94m0 9.96v19.95m0 9.98v19.94m0 9.97v19.93m0 9.97v19.94m0 9.97v19.95m0 9.97v19.94m0 9.98v19.94m0 9.97v19.94m0 9.96v19.94m0 9.97v19.94m0 9.98v19.94m0 9.97v19.94m0 9.97v19.95m0 9.97v19.94m0 9.97v9.97" stroke="#999" stroke-width="2" fill="none"/><path d="M113 142.03h-2V141h2z" fill="#999"/><path d="M112 1158.97v1.03" stroke="#999" stroke-width="2" fill="none"/><path d="M92 205c0-2.76 2.24-5 5-5h30c2.76 0 5 2.24 5 5v630c0 2.76-2.24 5-5 5H97c-2.76 0-5-2.24-5-5z" stroke="#666" stroke-width="2" fill="#f2f2f2"/><path d="M422 25c0-2.76 2.24-5 5-5h210c2.76 0 5 2.24 5 5v110c0 2.76-2.24 5-5 5H427c-2.76 0-5-2.24-5-5z" stroke="#666" stroke-width="2" fill="#ffc374"/><use xlink:href="#c" transform="matrix(1,0,0,1,422,20) translate(45.90123456790124 62.97222222222222)"/><path d="M532 142v1017" fill="none"/><path d="M532 142v9.97m0 9.97v19.94m0 9.97v19.94m0 9.96v19.95m0 9.98v19.94m0 9.97v19.93m0 9.97v19.94m0 9.97v19.95m0 9.97v19.94m0 9.98v19.94m0 9.97v19.94m0 9.96V481m0 9.97v19.94m0 9.98v19.94m0 9.97v19.94m0 9.97v19.95m0 9.97v19.94m0 9.97v19.94m0 9.97v19.94m0 9.97v19.94m0 9.96v19.95m0 9.98v19.94m0 9.97v19.93m0 9.97v19.94m0 9.97v19.95m0 9.97v19.94m0 9.98v19.94m0 9.97v19.94m0 9.96v19.94m0 9.97v19.94m0 9.98v19.94m0 9.97v19.94m0 9.97v19.95m0 9.97v19.94m0 9.97v9.97" stroke="#999" stroke-width="2" fill="none"/><path d="M533 142.03h-2V141h2z" fill="#999"/><path d="M532 1158.97v1.03" stroke="#999" stroke-width="2" fill="none"/><path d="M512 265c0-2.76 2.24-5 5-5h30c2.76 0 5 2.24 5 5v510c0 2.76-2.24 5-5 5h-30c-2.76 0-5-2.24-5-5z" stroke="#666" stroke-width="2" fill="#f2f2f2"/><path d="M154 270h338.5" stroke="#999" stroke-width="2" fill="none"/><path d="M154.03 271H153v-2h1.03z" fill="#999"/><path d="M507.76 270l-14.26 4.64v-9.28z" stroke="#999" stroke-width="2" fill="#999"/><use xlink:href="#d" transform="matrix(1,0,0,1,203.47499999999997,244.40000000000035) translate(0 14.4)"/><use xlink:href="#e" transform="matrix(1,0,0,1,203.47499999999997,244.40000000000035) translate(135.55 14.4)"/><path d="M532 345c0-2.76 2.24-5 5-5h30c2.76 0 5 2.24 5 5v70c0 2.76-2.24 5-5 5h-30c-2.76 0-5-2.24-5-5z" stroke="#666" stroke-width="2" fill="#fff"/><path d="M611.57 300.1l2.12 2.92.3 1.9v70.24l-1.1 3.4-2.92 2.13-1.9.3H591.5v-2h16.42l1.26-.2 2-1.46.82-2.5v-69.76l-.2-1.26-1.46-2-2.5-.82H554v-2h54.16z" fill="#999"/><path d="M554.03 301H553v-2h1.03zM590.5 384.64L576.24 380l14.26-4.64z" fill="#999"/><path d="M591.5 386l-18.5-6 18.5-6zm-12.03-6l10.03 3.26v-6.52z" fill="#999"/><use xlink:href="#f" transform="matrix(1,0,0,1,620.9999999999999,319.2) translate(0 14.4)"/><use xlink:href="#g" transform="matrix(1,0,0,1,613,319.2) translate(0 14.4)"/><path d="M532 485c0-2.76 2.24-5 5-5h30c2.76 0 5 2.24 5 5v70c0 2.76-2.24 5-5 5h-30c-2.76 0-5-2.24-5-5z" stroke="#666" stroke-width="2" fill="#fff"/><path d="M611.57 442.37l2.12 2.9.3 1.9v68l-1.1 3.4-2.92 2.12-1.9.3H591.5v-2h16.42l1.26-.2 2-1.46.82-2.5v-67.5l-.2-1.26-1.46-2-2.5-.82H554v-2h54.16z" fill="#999"/><path d="M554.03 443.26H553v-2h1.03zM590.5 524.64L576.24 520l14.26-4.64z" fill="#999"/><path d="M591.5 526l-18.5-6 18.5-6zm-12.03-6l10.03 3.26v-6.52z" fill="#999"/><use xlink:href="#h" transform="matrix(1,0,0,1,621,460.3297709923664) translate(0 14.4)"/><use xlink:href="#g" transform="matrix(1,0,0,1,613,460.3297709923664) translate(0 14.4)"/><path d="M112 245c0-2.76 2.24-5 5-5h30c2.76 0 5 2.24 5 5v530c0 2.76-2.24 5-5 5h-30c-2.76 0-5-2.24-5-5z" stroke="#666" stroke-width="2" fill="#fff"/><path d="M510 738.3H171.5" fill="none"/><path d="M510 738.3h-10.26m-10.26 0h-20.5m-10.27 0h-20.5m-10.26 0h-20.52m-10.25 0h-20.52m-10.26 0h-20.52m-10.26 0h-20.5m-10.27 0h-20.52m-10.25 0h-20.52m-10.26 0h-20.5m-10.27 0h-20.5m-10.27 0H171.5" stroke="#999" stroke-width="2" fill="none"/><path d="M511 739.3h-1.03v-2H511z" fill="#999"/><path d="M156.24 738.3l14.26-4.64v9.27z" stroke="#999" stroke-width="2" fill="#999"/><use xlink:href="#i" transform="matrix(1,0,0,1,188.24999999999943,742.2977099236641) translate(0 14.4)"/><use xlink:href="#j" transform="matrix(1,0,0,1,188.24999999999943,742.2977099236641) translate(71.9 14.4)"/><use xlink:href="#k" transform="matrix(1,0,0,1,188.24999999999943,742.2977099236641) translate(192.75 14.4)"/><path d="M532 626.48c0-2.76 2.24-5 5-5h30c2.76 0 5 2.24 5 5v70c0 2.77-2.24 5-5 5h-30c-2.76 0-5-2.23-5-5z" stroke="#666" stroke-width="2" fill="#fff"/><path d="M611.57 590.75l2.12 2.9.3 1.9v61.1l-1.1 3.4-2.92 2.13-1.9.3H591.5v-2h16.42l1.26-.2 2-1.46.82-2.5v-60.6l-.2-1.27-1.46-2-2.5-.82H554v-2h54.16z" fill="#999"/><path d="M554.03 591.63H553v-2h1.03zM590.5 666.12l-14.26-4.64 14.26-4.63z" fill="#999"/><path d="M591.5 667.5l-18.5-6.02 18.5-6zm-12.03-6.02l10.03 3.26v-6.5z" fill="#999"/><g><use xlink:href="#l" transform="matrix(1,0,0,1,621,605.2591603053437) translate(0 14.4)"/></g><g><use xlink:href="#g" transform="matrix(1,0,0,1,613,605.2591603053436) translate(0 14.4)"/></g><defs><path fill="#333" d="M230 0l2-204L168 0h-37L68-204 70 0H24v-248h70l56 185 57-185h69V0h-46" id="m"/><path fill="#333" d="M199 0l-22-63H83L61 0H9l90-248h61L250 0h-51zm-33-102l-36-108c-10 38-24 72-36 108h72" id="n"/><path fill="#333" d="M24 0v-248h52V0H24" id="o"/><path fill="#333" d="M175 0L67-191c6 58 2 128 3 191H24v-248h59L193-55c-6-58-2-129-3-193h46V0h-61" id="p"/><g id="a"><use transform="matrix(0.04938271604938272,0,0,0.04938271604938272,0,0)" xlink:href="#m"/><use transform="matrix(0.04938271604938272,0,0,0.04938271604938272,14.765432098765434,0)" xlink:href="#n"/><use transform="matrix(0.04938271604938272,0,0,0.04938271604938272,27.555555555555557,0)" xlink:href="#o"/><use transform="matrix(0.04938271604938272,0,0,0.04938271604938272,32.49382716049383,0)" xlink:href="#p"/></g><path fill="#333" d="M67-125c0 53 21 87 73 88 37 1 54-22 65-47l45 17C233-25 199 4 140 4 58 4 20-42 15-125 8-235 124-281 211-232c18 10 29 29 36 50l-46 12c-8-25-30-41-62-41-52 0-71 34-72 86" id="q"/><path fill="#333" d="M140-251c80 0 125 45 125 126S219 4 139 4C58 4 15-44 15-125s44-126 125-126zm-1 214c52 0 73-35 73-88 0-50-21-86-72-86-52 0-73 35-73 86s22 88 72 88" id="r"/><path fill="#333" d="M136-208V0H84v-208H4v-40h212v40h-80" id="s"/><path fill="#333" d="M240-174c0 40-23 61-54 70L253 0h-59l-57-94H76V0H24v-248c93 4 217-23 216 74zM76-134c48-2 112 12 112-38 0-48-66-32-112-35v73" id="t"/><path fill="#333" d="M24 0v-248h52v208h133V0H24" id="u"/><path fill="#333" d="M24 0v-248h195v40H76v63h132v40H76v65h150V0H24" id="v"/><g id="b"><use transform="matrix(0.04938271604938272,0,0,0.04938271604938272,0,0)" xlink:href="#q"/><use transform="matrix(0.04938271604938272,0,0,0.04938271604938272,12.790123456790125,0)" xlink:href="#r"/><use transform="matrix(0.04938271604938272,0,0,0.04938271604938272,26.617283950617285,0)" xlink:href="#p"/><use transform="matrix(0.04938271604938272,0,0,0.04938271604938272,39.40740740740741,0)" xlink:href="#s"/><use transform="matrix(0.04938271604938272,0,0,0.04938271604938272,50.22222222222223,0)" xlink:href="#t"/><use transform="matrix(0.04938271604938272,0,0,0.04938271604938272,63.01234567901235,0)" xlink:href="#r"/><use transform="matrix(0.04938271604938272,0,0,0.04938271604938272,76.83950617283952,0)" xlink:href="#u"/><use transform="matrix(0.04938271604938272,0,0,0.04938271604938272,87.65432098765433,0)" xlink:href="#u"/><use transform="matrix(0.04938271604938272,0,0,0.04938271604938272,98.46913580246914,0)" xlink:href="#v"/><use transform="matrix(0.04938271604938272,0,0,0.04938271604938272,110.320987654321,0)" xlink:href="#t"/></g><path fill="#333" d="M169-182c-1-43-94-46-97-3 18 66 151 10 154 114 3 95-165 93-204 36-6-8-10-19-12-30l50-8c3 46 112 56 116 5-17-69-150-10-154-114-4-87 153-88 188-35 5 8 8 18 10 28" id="w"/><path fill="#333" d="M24-248c93 1 206-16 204 79-1 75-69 88-152 82V0H24v-248zm52 121c47 0 100 7 100-41 0-47-54-39-100-39v80" id="x"/><path fill="#333" d="M186 0v-106H76V0H24v-248h52v99h110v-99h50V0h-50" id="y"/><path fill="#333" d="M182-182c0 78-84 86-111 141h115V0H12c-6-101 99-100 120-180 1-22-12-31-33-32-23 0-32 14-35 34l-49-3c5-45 32-70 84-70 51 0 83 22 83 69" id="z"/><path fill="#333" d="M182 0l-62-99L58 0H3l86-130-79-118h55l55 88 55-88h55l-75 118L237 0h-55" id="A"/><g id="c"><use transform="matrix(0.04938271604938272,0,0,0.04938271604938272,0,0)" xlink:href="#w"/><use transform="matrix(0.04938271604938272,0,0,0.04938271604938272,11.851851851851853,0)" xlink:href="#x"/><use transform="matrix(0.04938271604938272,0,0,0.04938271604938272,23.703703703703706,0)" xlink:href="#v"/><use transform="matrix(0.04938271604938272,0,0,0.04938271604938272,35.55555555555556,0)" xlink:href="#v"/><use transform="matrix(0.04938271604938272,0,0,0.04938271604938272,47.40740740740741,0)" xlink:href="#q"/><use transform="matrix(0.04938271604938272,0,0,0.04938271604938272,60.19753086419754,0)" xlink:href="#y"/><use transform="matrix(0.04938271604938272,0,0,0.04938271604938272,72.98765432098766,0)" xlink:href="#z"/><use transform="matrix(0.04938271604938272,0,0,0.04938271604938272,82.8641975308642,0)" xlink:href="#s"/><use transform="matrix(0.04938271604938272,0,0,0.04938271604938272,93.67901234567901,0)" xlink:href="#v"/><use transform="matrix(0.04938271604938272,0,0,0.04938271604938272,105.53086419753085,0)" xlink:href="#A"/><use transform="matrix(0.04938271604938272,0,0,0.04938271604938272,117.38271604938271,0)" xlink:href="#s"/></g><path fill="#333" d="M135-150c-39-12-60 13-60 57V0H25l-1-190h47c2 13-1 29 3 40 6-28 27-53 61-41v41" id="B"/><path fill="#333" d="M85 4C-2 5 27-109 22-190h50c7 57-23 150 33 157 60-5 35-97 40-157h50l1 190h-47c-2-12 1-28-3-38-12 25-28 42-61 42" id="C"/><path fill="#333" d="M135-194c87-1 58 113 63 194h-50c-7-57 23-157-34-157-59 0-34 97-39 157H25l-1-190h47c2 12-1 28 3 38 12-26 28-41 61-42" id="D"/><path fill="#333" d="M67-93c0 74 22 123 53 168H70C40 30 18-18 18-93s22-123 52-168h50c-32 44-53 94-53 168" id="E"/><path fill="#333" d="M25-224v-37h50v37H25zM25 0v-190h50V0H25" id="F"/><path fill="#333" d="M135-194c53 0 70 44 70 98 0 56-19 98-73 100-31 1-45-17-59-34 3 33 2 69 2 105H25l-1-265h48c2 10 0 23 3 31 11-24 29-35 60-35zM114-30c33 0 39-31 40-66 0-38-9-64-40-64-56 0-55 130 0 130" id="G"/><path fill="#333" d="M115-3C79 11 28 4 28-45v-112H4v-33h27l15-45h31v45h36v33H77v99c-1 23 16 31 38 25v30" id="H"/><path fill="#333" d="M-4 44V30h207v14H-4" id="I"/><path fill="#333" d="M25-224v-37h50v37H25zM75 22c2 45-34 59-81 51V38c22 5 31-5 31-27v-201h50V22" id="J"/><path fill="#333" d="M137-138c1-29-70-34-71-4 15 46 118 7 119 86 1 83-164 76-172 9l43-7c4 19 20 25 44 25 33 8 57-30 24-41C81-84 22-81 20-136c-2-80 154-74 161-7" id="K"/><path fill="#333" d="M110-194c64 0 96 36 96 99 0 64-35 99-97 99-61 0-95-36-95-99 0-62 34-99 96-99zm-1 164c35 0 45-28 45-65 0-40-10-65-43-65-34 0-45 26-45 65 0 36 10 65 43 65" id="L"/><path fill="#333" d="M76-54c-1 42 2 86-19 110H24C36 42 46 24 48 0H25v-54h51" id="M"/><g id="d"><use transform="matrix(0.05,0,0,0.05,0,0)" xlink:href="#B"/><use transform="matrix(0.05,0,0,0.05,7,0)" xlink:href="#C"/><use transform="matrix(0.05,0,0,0.05,17.950000000000003,0)" xlink:href="#D"/><use transform="matrix(0.05,0,0,0.05,28.900000000000006,0)" xlink:href="#E"/><use transform="matrix(0.05,0,0,0.05,34.85000000000001,0)" xlink:href="#F"/><use transform="matrix(0.05,0,0,0.05,39.85000000000001,0)" xlink:href="#D"/><use transform="matrix(0.05,0,0,0.05,50.80000000000001,0)" xlink:href="#G"/><use transform="matrix(0.05,0,0,0.05,61.750000000000014,0)" xlink:href="#C"/><use transform="matrix(0.05,0,0,0.05,72.70000000000002,0)" xlink:href="#H"/><use transform="matrix(0.05,0,0,0.05,78.65000000000002,0)" xlink:href="#I"/><use transform="matrix(0.05,0,0,0.05,88.65000000000002,0)" xlink:href="#J"/><use transform="matrix(0.05,0,0,0.05,93.65000000000002,0)" xlink:href="#K"/><use transform="matrix(0.05,0,0,0.05,103.65000000000003,0)" xlink:href="#L"/><use transform="matrix(0.05,0,0,0.05,114.60000000000002,0)" xlink:href="#D"/><use transform="matrix(0.05,0,0,0.05,125.55000000000003,0)" xlink:href="#M"/></g><path fill="#333" d="M121-226c-27-7-43 5-38 36h38v33H83V0H34v-157H6v-33h28c-9-59 32-81 87-68v32" id="N"/><path fill="#333" d="M25 0v-261h50V0H25" id="O"/><path fill="#333" d="M88-194c31-1 46 15 58 34l-1-101h50l1 261h-48c-2-10 0-23-3-31C134-8 116 4 84 4 32 4 16-41 15-95c0-56 19-97 73-99zm17 164c33 0 40-30 41-66 1-37-9-64-41-64s-38 30-39 65c0 43 13 65 39 65" id="P"/><path fill="#333" d="M185-48c-13 30-37 53-82 52C43 2 14-33 14-96s30-98 90-98c62 0 83 45 84 108H66c0 31 8 55 39 56 18 0 30-7 34-22zm-45-69c5-46-57-63-70-21-2 6-4 13-4 21h74" id="Q"/><path fill="#333" d="M102-93c0 74-22 123-52 168H0C30 29 54-18 53-93c0-74-22-123-53-168h50c30 45 52 94 52 168" id="R"/><g id="e"><use transform="matrix(0.05,0,0,0.05,0,0)" xlink:href="#L"/><use transform="matrix(0.05,0,0,0.05,10.950000000000001,0)" xlink:href="#C"/><use transform="matrix(0.05,0,0,0.05,21.900000000000002,0)" xlink:href="#H"/><use transform="matrix(0.05,0,0,0.05,27.85,0)" xlink:href="#G"/><use transform="matrix(0.05,0,0,0.05,38.800000000000004,0)" xlink:href="#C"/><use transform="matrix(0.05,0,0,0.05,49.75000000000001,0)" xlink:href="#H"/><use transform="matrix(0.05,0,0,0.05,55.70000000000002,0)" xlink:href="#I"/><use transform="matrix(0.05,0,0,0.05,65.70000000000002,0)" xlink:href="#N"/><use transform="matrix(0.05,0,0,0.05,71.65000000000002,0)" xlink:href="#L"/><use transform="matrix(0.05,0,0,0.05,82.60000000000002,0)" xlink:href="#O"/><use transform="matrix(0.05,0,0,0.05,87.60000000000002,0)" xlink:href="#P"/><use transform="matrix(0.05,0,0,0.05,98.55000000000003,0)" xlink:href="#Q"/><use transform="matrix(0.05,0,0,0.05,108.55000000000003,0)" xlink:href="#B"/><use transform="matrix(0.05,0,0,0.05,115.55000000000003,0)" xlink:href="#R"/></g><path fill="#333" d="M195-6C206 82 75 100 31 46c-4-6-6-13-8-21l49-6c3 16 16 24 34 25 40 0 42-37 40-79-11 22-30 35-61 35-53 0-70-43-70-97 0-56 18-96 73-97 30 0 46 14 59 34l2-30h47zm-90-29c32 0 41-27 41-63 0-35-9-62-40-62-32 0-39 29-40 63 0 36 9 62 39 62" id="S"/><path fill="#333" d="M190-63c-7 42-38 67-86 67-59 0-84-38-90-98-12-110 154-137 174-36l-49 2c-2-19-15-32-35-32-30 0-35 28-38 64-6 74 65 87 74 30" id="T"/><path fill="#333" d="M114-157C55-157 80-60 75 0H25v-261h50l-1 109c12-26 28-41 61-42 86-1 58 113 63 194h-50c-7-57 23-157-34-157" id="U"/><g id="f"><use transform="matrix(0.05,0,0,0.05,0,0)" xlink:href="#S"/><use transform="matrix(0.05,0,0,0.05,10.950000000000001,0)" xlink:href="#Q"/><use transform="matrix(0.05,0,0,0.05,20.950000000000003,0)" xlink:href="#H"/><use transform="matrix(0.05,0,0,0.05,26.900000000000002,0)" xlink:href="#I"/><use transform="matrix(0.05,0,0,0.05,36.900000000000006,0)" xlink:href="#K"/><use transform="matrix(0.05,0,0,0.05,46.900000000000006,0)" xlink:href="#G"/><use transform="matrix(0.05,0,0,0.05,57.85,0)" xlink:href="#Q"/><use transform="matrix(0.05,0,0,0.05,67.85000000000001,0)" xlink:href="#Q"/><use transform="matrix(0.05,0,0,0.05,77.85000000000001,0)" xlink:href="#T"/><use transform="matrix(0.05,0,0,0.05,87.85000000000001,0)" xlink:href="#U"/><use transform="matrix(0.05,0,0,0.05,98.80000000000001,0)" xlink:href="#E"/><use transform="matrix(0.05,0,0,0.05,104.75,0)" xlink:href="#R"/></g><path fill="#333" d="M220-157c-53 9-28 100-34 157h-49v-107c1-27-5-49-29-50C55-147 81-57 75 0H25l-1-190h47c2 12-1 28 3 38 10-53 101-56 108 0 13-22 24-43 59-42 82 1 51 116 57 194h-49v-107c-1-25-5-48-29-50" id="V"/><g id="h"><use transform="matrix(0.05,0,0,0.05,0,0)" xlink:href="#S"/><use transform="matrix(0.05,0,0,0.05,10.950000000000001,0)" xlink:href="#Q"/><use transform="matrix(0.05,0,0,0.05,20.950000000000003,0)" xlink:href="#H"/><use transform="matrix(0.05,0,0,0.05,26.900000000000002,0)" xlink:href="#I"/><use transform="matrix(0.05,0,0,0.05,36.900000000000006,0)" xlink:href="#V"/><use transform="matrix(0.05,0,0,0.05,52.900000000000006,0)" xlink:href="#L"/><use transform="matrix(0.05,0,0,0.05,63.85,0)" xlink:href="#P"/><use transform="matrix(0.05,0,0,0.05,74.80000000000001,0)" xlink:href="#Q"/><use transform="matrix(0.05,0,0,0.05,84.80000000000001,0)" xlink:href="#O"/><use transform="matrix(0.05,0,0,0.05,89.80000000000001,0)" xlink:href="#I"/><use transform="matrix(0.05,0,0,0.05,99.80000000000001,0)" xlink:href="#K"/><use transform="matrix(0.05,0,0,0.05,109.80000000000001,0)" xlink:href="#T"/><use transform="matrix(0.05,0,0,0.05,119.80000000000001,0)" xlink:href="#L"/><use transform="matrix(0.05,0,0,0.05,130.75,0)" xlink:href="#B"/><use transform="matrix(0.05,0,0,0.05,137.75,0)" xlink:href="#Q"/><use transform="matrix(0.05,0,0,0.05,147.75,0)" xlink:href="#E"/><use transform="matrix(0.05,0,0,0.05,153.7,0)" xlink:href="#R"/></g><g id="i"><use transform="matrix(0.05,0,0,0.05,0,0)" xlink:href="#K"/><use transform="matrix(0.05,0,0,0.05,10,0)" xlink:href="#G"/><use transform="matrix(0.05,0,0,0.05,20.950000000000003,0)" xlink:href="#Q"/><use transform="matrix(0.05,0,0,0.05,30.950000000000003,0)" xlink:href="#Q"/><use transform="matrix(0.05,0,0,0.05,40.95,0)" xlink:href="#T"/><use transform="matrix(0.05,0,0,0.05,50.95,0)" xlink:href="#U"/><use transform="matrix(0.05,0,0,0.05,61.900000000000006,0)" xlink:href="#M"/></g><g id="j"><use transform="matrix(0.05,0,0,0.05,0,0)" xlink:href="#V"/><use transform="matrix(0.05,0,0,0.05,16,0)" xlink:href="#L"/><use transform="matrix(0.05,0,0,0.05,26.950000000000003,0)" xlink:href="#P"/><use transform="matrix(0.05,0,0,0.05,37.900000000000006,0)" xlink:href="#Q"/><use transform="matrix(0.05,0,0,0.05,47.900000000000006,0)" xlink:href="#O"/><use transform="matrix(0.05,0,0,0.05,52.900000000000006,0)" xlink:href="#I"/><use transform="matrix(0.05,0,0,0.05,62.900000000000006,0)" xlink:href="#K"/><use transform="matrix(0.05,0,0,0.05,72.9,0)" xlink:href="#T"/><use transform="matrix(0.05,0,0,0.05,82.9,0)" xlink:href="#L"/><use transform="matrix(0.05,0,0,0.05,93.85000000000001,0)" xlink:href="#B"/><use transform="matrix(0.05,0,0,0.05,100.85000000000001,0)" xlink:href="#Q"/><use transform="matrix(0.05,0,0,0.05,110.85000000000001,0)" xlink:href="#M"/></g><g id="k"><use transform="matrix(0.05,0,0,0.05,0,0)" xlink:href="#T"/><use transform="matrix(0.05,0,0,0.05,10,0)" xlink:href="#L"/><use transform="matrix(0.05,0,0,0.05,20.950000000000003,0)" xlink:href="#D"/><use transform="matrix(0.05,0,0,0.05,31.900000000000006,0)" xlink:href="#N"/><use transform="matrix(0.05,0,0,0.05,37.85000000000001,0)" xlink:href="#F"/><use transform="matrix(0.05,0,0,0.05,42.85000000000001,0)" xlink:href="#P"/><use transform="matrix(0.05,0,0,0.05,53.80000000000001,0)" xlink:href="#Q"/><use transform="matrix(0.05,0,0,0.05,63.80000000000001,0)" xlink:href="#D"/><use transform="matrix(0.05,0,0,0.05,74.75000000000001,0)" xlink:href="#T"/><use transform="matrix(0.05,0,0,0.05,84.75000000000001,0)" xlink:href="#Q"/></g><g id="l"><use transform="matrix(0.05,0,0,0.05,0,0)" xlink:href="#S"/><use transform="matrix(0.05,0,0,0.05,10.950000000000001,0)" xlink:href="#Q"/><use transform="matrix(0.05,0,0,0.05,20.950000000000003,0)" xlink:href="#H"/><use transform="matrix(0.05,0,0,0.05,26.900000000000002,0)" xlink:href="#I"/><use transform="matrix(0.05,0,0,0.05,36.900000000000006,0)" xlink:href="#T"/><use transform="matrix(0.05,0,0,0.05,46.900000000000006,0)" xlink:href="#L"/><use transform="matrix(0.05,0,0,0.05,57.85,0)" xlink:href="#D"/><use transform="matrix(0.05,0,0,0.05,68.80000000000001,0)" xlink:href="#N"/><use transform="matrix(0.05,0,0,0.05,74.75000000000001,0)" xlink:href="#F"/><use transform="matrix(0.05,0,0,0.05,79.75000000000001,0)" xlink:href="#P"/><use transform="matrix(0.05,0,0,0.05,90.70000000000002,0)" xlink:href="#Q"/><use transform="matrix(0.05,0,0,0.05,100.70000000000002,0)" xlink:href="#D"/><use transform="matrix(0.05,0,0,0.05,111.65000000000003,0)" xlink:href="#T"/><use transform="matrix(0.05,0,0,0.05,121.65000000000003,0)" xlink:href="#Q"/><use transform="matrix(0.05,0,0,0.05,131.65000000000003,0)" xlink:href="#E"/><use transform="matrix(0.05,0,0,0.05,137.60000000000002,0)" xlink:href="#R"/></g></defs></g></svg>