<svg xmlns="http://www.w3.org/2000/svg" xmlns:xlink="http://www.w3.org/1999/xlink" xmlns:lucid="lucid" width="1060.8" height="941"><g transform="translate(-110 10)" lucid:page-tab-id="0_0"><path d="M480 37c0-2.76 2.24-5 5-5h150c2.76 0 5 2.24 5 5v110c0 2.76-2.24 5-5 5H485c-2.76 0-5-2.24-5-5z" stroke="#666" stroke-width="2" fill="#ff8f80"/><use xlink:href="#a" transform="matrix(1,0,0,1,480,32) translate(57.358024691358025 51.72222222222222)"/><use xlink:href="#b" transform="matrix(1,0,0,1,480,32) translate(18.444444444444443 73.05555555555556)"/><path d="M560 154v745" fill="none"/><path d="M560 154v9.93m0 9.94v19.86m0 9.94v19.86m0 9.94v19.86m0 9.94v19.86m0 9.94v19.86m0 9.94v19.86m0 9.94v19.86m0 9.94v19.86m0 9.94v19.86m0 9.94v19.86m0 9.94v19.86m0 9.94v19.86m0 9.94v19.86m0 9.94v19.86m0 9.94v19.86m0 9.94v19.86m0 9.94v19.86m0 9.94v19.86m0 9.94v19.86m0 9.94v19.86m0 9.94v19.86m0 9.94v19.86m0 9.94v19.86m0 9.94v19.86m0 9.94V899" stroke="#999" stroke-width="2" fill="none"/><path d="M561 154.03h-2V153h2z" fill="#999"/><path d="M560 898.97V900" stroke="#999" stroke-width="2" fill="none"/><path d="M540 217c0-2.76 2.24-5 5-5h30c2.76 0 5 2.24 5 5v630c0 2.76-2.24 5-5 5h-30c-2.76 0-5-2.24-5-5z" stroke="#666" stroke-width="2" fill="#f2f2f2"/><path d="M184.75 24.75c0 8.15-6.6 14.75-14.75 14.75s-14.75-6.6-14.75-14.75S161.85 10 170 10s14.75 6.6 14.75 14.75z" stroke="#666" stroke-width="2" fill="#fff"/><path d="M140 15c0-2.76 2.24-5 5-5h50c2.76 0 5 2.24 5 5v108c0 2.76-2.24 5-5 5h-50c-2.76 0-5-2.24-5-5z" fill="none"/><path d="M170 39.5v36.3c0 2.76 1.2 6.9 2.68 9.22L200 128m-30-47.2L140 128m0-73.75h60" stroke="#666" stroke-width="2" fill="none"/><path d="M130 125c0-2.76 2.24-5 5-5h70c2.76 0 5 2.24 5 5v50c0 2.76-2.24 5-5 5h-70c-2.76 0-5-2.24-5-5z" stroke="#000" stroke-opacity="0" stroke-width="2" fill="#fff" fill-opacity="0"/><use xlink:href="#c" transform="matrix(1,0,0,1,130,120) translate(5.01 33.15)"/><path d="M170 161v738" fill="none"/><path d="M170 161v9.84m0 9.84v19.68m0 9.84v19.68m0 9.84v19.68m0 9.84v19.68m0 9.84v19.68m0 9.84v19.68m0 9.84v19.68m0 9.84V407m0 9.84v19.68m0 9.84v19.68m0 9.84v19.68m0 9.84v19.68m0 9.84v19.68m0 9.84v19.68m0 9.84v19.68m0 9.84v19.68m0 9.84v19.68m0 9.84v19.68m0 9.84v19.68m0 9.84v19.68m0 9.84v19.68m0 9.84v19.68m0 9.84v19.68m0 9.84v19.68m0 9.84V899M170 161.03V160M170 898.97V900" stroke="#999" stroke-width="2" fill="none"/><path d="M150 224c0-2.76 2.24-5 5-5h30c2.76 0 5 2.24 5 5v630c0 2.76-2.24 5-5 5h-30c-2.76 0-5-2.24-5-5z" stroke="#666" stroke-width="2" fill="#f2f2f2"/><path d="M170 264c0-2.76 2.24-5 5-5h30c2.76 0 5 2.24 5 5v571c0 2.76-2.24 5-5 5h-30c-2.76 0-5-2.24-5-5z" stroke="#666" stroke-width="2" fill="#fff"/><path d="M212 438.57h308.5" stroke="#999" stroke-width="2" fill="none"/><path d="M212.03 439.57H211v-2h1.03z" fill="#999"/><path d="M535.76 438.57l-14.26 4.64v-9.26z" stroke="#999" stroke-width="2" fill="#999"/><use xlink:href="#d" transform="matrix(1,0,0,1,270.375,412.97402760351315) translate(0 14.4)"/><use xlink:href="#e" transform="matrix(1,0,0,1,270.375,412.97402760351315) translate(112.60000000000001 14.4)"/><path d="M602 478.24h348.5M602.03 478.24H601" stroke="#999" stroke-width="2" fill="none"/><path d="M965.76 478.24l-14.26 4.64v-9.27z" stroke="#999" stroke-width="2" fill="#999"/><use xlink:href="#f" transform="matrix(1,0,0,1,644.7750000000001,452.64404015056465) translate(0 14.4)"/><path d="M212 284.3h308.5" stroke="#999" stroke-width="2" fill="none"/><path d="M212.03 285.3H211v-2h1.03z" fill="#999"/><path d="M535.76 284.3l-14.26 4.64v-9.27z" stroke="#999" stroke-width="2" fill="#999"/><use xlink:href="#g" transform="matrix(1,0,0,1,341.625,258.70175658720206) translate(0 14.4)"/><path d="M538 328.38H229.5" fill="none"/><path d="M538 328.38h-10.28m-10.3 0h-20.55m-10.3 0h-20.55m-10.3 0h-20.55m-10.3 0h-20.55m-10.3 0h-20.55m-10.3 0h-20.55m-10.3 0h-20.55m-10.3 0h-20.55m-10.3 0h-20.55m-10.28 0h-10.3" stroke="#999" stroke-width="2" fill="none"/><path d="M539 329.38h-1.03v-2H539z" fill="#999"/><path d="M214.24 328.38l14.26-4.64V333z" stroke="#999" stroke-width="2" fill="#999"/><use xlink:href="#h" transform="matrix(1,0,0,1,366.025,332.37954830614797) translate(0 14.4)"/><path d="M910 37c0-2.76 2.24-5 5-5h150c2.76 0 5 2.24 5 5v110c0 2.76-2.24 5-5 5H915c-2.76 0-5-2.24-5-5z" stroke="#666" stroke-width="2" fill="#ffc374"/><use xlink:href="#i" transform="matrix(1,0,0,1,910,32) translate(3.2592592592592666 62.97222222222222)"/><use xlink:href="#j" transform="matrix(1,0,0,1,910,32) translate(144.88888888888889 62.97222222222222)"/><path d="M990 154v765" fill="none"/><path d="M990 154v9.8m0 9.82v19.6m0 9.82v19.6m0 9.82v19.62m0 9.8v19.62m0 9.8v19.62m0 9.8v19.63m0 9.8v19.62m0 9.8v19.62m0 9.8v19.62m0 9.8v19.62m0 9.8v19.62m0 9.8v19.62m0 9.8v19.63m0 9.82v19.6m0 9.82v19.6m0 9.82v19.62m0 9.8V664m0 9.8v19.62m0 9.8v19.63m0 9.8v19.62m0 9.8v19.62m0 9.8v19.62m0 9.8v19.62m0 9.8v19.62m0 9.8v19.62m0 9.8V919" stroke="#999" stroke-width="2" fill="none"/><path d="M991 154.03h-2V153h2z" fill="#999"/><path d="M990 918.97V920" stroke="#999" stroke-width="2" fill="none"/><path d="M970 217c0-2.76 2.24-5 5-5h30c2.76 0 5 2.24 5 5v638c0 2.76-2.24 5-5 5h-30c-2.76 0-5-2.24-5-5z" stroke="#666" stroke-width="2" fill="#f2f2f2"/><path d="M990 445c0-2.76 2.24-5 5-5h30c2.76 0 5 2.24 5 5v130c0 2.76-2.24 5-5 5h-30c-2.76 0-5-2.24-5-5z" stroke="#666" stroke-width="2" fill="#fff"/><path d="M1032 491.47h34c2.76 0 5 2.24 5 5v41.42c0 2.75-2.24 5-5 5h-16.5" stroke="#999" stroke-width="2" fill="none"/><path d="M1032.03 492.47H1031v-2h1.03z" fill="#999"/><path d="M1034.24 542.9l14.26-4.64v9.27z" stroke="#999" stroke-width="2" fill="#999"/><use xlink:href="#k" transform="matrix(1,0,0,1,1079,506.37942283563365) translate(0 14.4)"/><path d="M968 588.44H616.5" fill="none"/><path d="M968 588.44h-9.76m-9.77 0h-19.53m-9.76 0h-19.53m-9.76 0h-19.54m-9.77 0h-19.53m-9.77 0h-19.53m-9.76 0H782.5m-9.76 0H753.2m-9.78 0H723.9m-9.77 0H694.6m-9.76 0H665.3m-9.75 0h-19.53m-9.77 0h-9.76" stroke="#999" stroke-width="2" fill="none"/><path d="M969 589.44h-1.03v-2H969z" fill="#999"/><path d="M601.22 588.44l14.27-4.64v9.27z" stroke="#999" stroke-width="2" fill="#999"/><use xlink:href="#l" transform="matrix(1,0,0,1,676.3193538268505,592.4385194479296) translate(0 14.4)"/><path d="M538 808.83H241.83" fill="none"/><path d="M538 808.83h-9.87m-9.87 0H498.5m-9.86 0H468.9m-9.88 0h-19.74m-9.88 0h-19.74m-9.87 0h-19.76m-9.87 0h-19.74m-9.88 0H320.8m-9.86 0H291.2m-9.88 0h-19.75m-9.87 0h-9.87" stroke="#999" stroke-width="2" fill="none"/><path d="M539 809.83h-1.03v-2H539z" fill="#999"/><path d="M226.56 808.83l14.27-4.64v9.26z" stroke="#999" stroke-width="2" fill="#999"/><use xlink:href="#m" transform="matrix(1,0,0,1,283.9887390213298,812.82747804266) translate(0 14.4)"/><path d="M560 465c0-2.76 2.24-5 5-5h30c2.76 0 5 2.24 5 5v170c0 2.76-2.24 5-5 5h-30c-2.76 0-5-2.24-5-5zM560 705c0-2.76 2.24-5 5-5h30c2.76 0 5 2.24 5 5v70c0 2.76-2.24 5-5 5h-30c-2.76 0-5-2.24-5-5z" stroke="#666" stroke-width="2" fill="#fff"/><path d="M639.57 660.1l2.12 2.92.3 1.9v70.24l-1.1 3.4-2.92 2.13-1.9.3H619.5v-2h16.42l1.26-.2 2-1.46.82-2.5v-69.76l-.2-1.26-1.46-2-2.5-.82H582v-2h54.16z" fill="#999"/><path d="M582.03 661H581v-2h1.03zM618.5 744.64L604.24 740l14.26-4.64z" fill="#999"/><path d="M619.5 746l-18.5-6 18.5-6zm-12.03-6l10.03 3.26v-6.52z" fill="#999"/><g><use xlink:href="#n" transform="matrix(1,0,0,1,649.0000000000001,679.1999999999999) translate(0 14.4)"/></g><g><use xlink:href="#o" transform="matrix(1,0,0,1,641,679.2) translate(0 14.4)"/></g><defs><path fill="#333" d="M230 0l2-204L168 0h-37L68-204 70 0H24v-248h70l56 185 57-185h69V0h-46" id="p"/><path fill="#333" d="M199 0l-22-63H83L61 0H9l90-248h61L250 0h-51zm-33-102l-36-108c-10 38-24 72-36 108h72" id="q"/><path fill="#333" d="M24 0v-248h52V0H24" id="r"/><path fill="#333" d="M175 0L67-191c6 58 2 128 3 191H24v-248h59L193-55c-6-58-2-129-3-193h46V0h-61" id="s"/><g id="a"><use transform="matrix(0.04938271604938272,0,0,0.04938271604938272,0,0)" xlink:href="#p"/><use transform="matrix(0.04938271604938272,0,0,0.04938271604938272,14.765432098765434,0)" xlink:href="#q"/><use transform="matrix(0.04938271604938272,0,0,0.04938271604938272,27.555555555555557,0)" xlink:href="#r"/><use transform="matrix(0.04938271604938272,0,0,0.04938271604938272,32.49382716049383,0)" xlink:href="#s"/></g><path fill="#333" d="M67-125c0 53 21 87 73 88 37 1 54-22 65-47l45 17C233-25 199 4 140 4 58 4 20-42 15-125 8-235 124-281 211-232c18 10 29 29 36 50l-46 12c-8-25-30-41-62-41-52 0-71 34-72 86" id="t"/><path fill="#333" d="M140-251c80 0 125 45 125 126S219 4 139 4C58 4 15-44 15-125s44-126 125-126zm-1 214c52 0 73-35 73-88 0-50-21-86-72-86-52 0-73 35-73 86s22 88 72 88" id="u"/><path fill="#333" d="M136-208V0H84v-208H4v-40h212v40h-80" id="v"/><path fill="#333" d="M240-174c0 40-23 61-54 70L253 0h-59l-57-94H76V0H24v-248c93 4 217-23 216 74zM76-134c48-2 112 12 112-38 0-48-66-32-112-35v73" id="w"/><path fill="#333" d="M24 0v-248h52v208h133V0H24" id="x"/><path fill="#333" d="M24 0v-248h195v40H76v63h132v40H76v65h150V0H24" id="y"/><g id="b"><use transform="matrix(0.04938271604938272,0,0,0.04938271604938272,0,0)" xlink:href="#t"/><use transform="matrix(0.04938271604938272,0,0,0.04938271604938272,12.790123456790125,0)" xlink:href="#u"/><use transform="matrix(0.04938271604938272,0,0,0.04938271604938272,26.617283950617285,0)" xlink:href="#s"/><use transform="matrix(0.04938271604938272,0,0,0.04938271604938272,39.40740740740741,0)" xlink:href="#v"/><use transform="matrix(0.04938271604938272,0,0,0.04938271604938272,50.22222222222223,0)" xlink:href="#w"/><use transform="matrix(0.04938271604938272,0,0,0.04938271604938272,63.01234567901235,0)" xlink:href="#u"/><use transform="matrix(0.04938271604938272,0,0,0.04938271604938272,76.83950617283952,0)" xlink:href="#x"/><use transform="matrix(0.04938271604938272,0,0,0.04938271604938272,87.65432098765433,0)" xlink:href="#x"/><use transform="matrix(0.04938271604938272,0,0,0.04938271604938272,98.46913580246914,0)" xlink:href="#y"/><use transform="matrix(0.04938271604938272,0,0,0.04938271604938272,110.320987654321,0)" xlink:href="#w"/></g><path fill="#333" d="M238-95c0 69-44 99-111 99C63 4 22-25 22-93v-155h51v151c-1 38 19 59 55 60 90 1 49-130 58-211h52v153" id="z"/><path fill="#333" d="M137-138c1-29-70-34-71-4 15 46 118 7 119 86 1 83-164 76-172 9l43-7c4 19 20 25 44 25 33 8 57-30 24-41C81-84 22-81 20-136c-2-80 154-74 161-7" id="A"/><path fill="#333" d="M85 4C-2 5 27-109 22-190h50c7 57-23 150 33 157 60-5 35-97 40-157h50l1 190h-47c-2-12 1-28-3-38-12 25-28 42-61 42" id="B"/><path fill="#333" d="M133-34C117-15 103 5 69 4 32 3 11-16 11-54c-1-60 55-63 116-61 1-26-3-47-28-47-18 1-26 9-28 27l-52-2c7-38 36-58 82-57s74 22 75 68l1 82c-1 14 12 18 25 15v27c-30 8-71 5-69-32zm-48 3c29 0 43-24 42-57-32 0-66-3-65 30 0 17 8 27 23 27" id="C"/><path fill="#333" d="M135-150c-39-12-60 13-60 57V0H25l-1-190h47c2 13-1 29 3 40 6-28 27-53 61-41v41" id="D"/><path fill="#333" d="M25-224v-37h50v37H25zM25 0v-190h50V0H25" id="E"/><path fill="#333" d="M110-194c64 0 96 36 96 99 0 64-35 99-97 99-61 0-95-36-95-99 0-62 34-99 96-99zm-1 164c35 0 45-28 45-65 0-40-10-65-43-65-34 0-45 26-45 65 0 36 10 65 43 65" id="F"/><g id="c"><use transform="matrix(0.05,0,0,0.05,0,0)" xlink:href="#z"/><use transform="matrix(0.05,0,0,0.05,12.950000000000001,0)" xlink:href="#A"/><use transform="matrix(0.05,0,0,0.05,22.950000000000003,0)" xlink:href="#B"/><use transform="matrix(0.05,0,0,0.05,33.900000000000006,0)" xlink:href="#C"/><use transform="matrix(0.05,0,0,0.05,43.900000000000006,0)" xlink:href="#D"/><use transform="matrix(0.05,0,0,0.05,50.900000000000006,0)" xlink:href="#E"/><use transform="matrix(0.05,0,0,0.05,55.900000000000006,0)" xlink:href="#F"/></g><path d="M25-224v-37h50v37H25zM25 0v-190h50V0H25" id="G"/><path d="M135-194c87-1 58 113 63 194h-50c-7-57 23-157-34-157-59 0-34 97-39 157H25l-1-190h47c2 12-1 28 3 38 12-26 28-41 61-42" id="H"/><path d="M135-194c53 0 70 44 70 98 0 56-19 98-73 100-31 1-45-17-59-34 3 33 2 69 2 105H25l-1-265h48c2 10 0 23 3 31 11-24 29-35 60-35zM114-30c33 0 39-31 40-66 0-38-9-64-40-64-56 0-55 130 0 130" id="I"/><path d="M85 4C-2 5 27-109 22-190h50c7 57-23 150 33 157 60-5 35-97 40-157h50l1 190h-47c-2-12 1-28-3-38-12 25-28 42-61 42" id="J"/><path d="M115-3C79 11 28 4 28-45v-112H4v-33h27l15-45h31v45h36v33H77v99c-1 23 16 31 38 25v30" id="K"/><path d="M67-93c0 74 22 123 53 168H70C40 30 18-18 18-93s22-123 52-168h50c-32 44-53 94-53 168" id="L"/><path d="M133-34C117-15 103 5 69 4 32 3 11-16 11-54c-1-60 55-63 116-61 1-26-3-47-28-47-18 1-26 9-28 27l-52-2c7-38 36-58 82-57s74 22 75 68l1 82c-1 14 12 18 25 15v27c-30 8-71 5-69-32zm-48 3c29 0 43-24 42-57-32 0-66-3-65 30 0 17 8 27 23 27" id="M"/><path d="M190-63c-7 42-38 67-86 67-59 0-84-38-90-98-12-110 154-137 174-36l-49 2c-2-19-15-32-35-32-30 0-35 28-38 64-6 74 65 87 74 30" id="N"/><path d="M110-194c64 0 96 36 96 99 0 64-35 99-97 99-61 0-95-36-95-99 0-62 34-99 96-99zm-1 164c35 0 45-28 45-65 0-40-10-65-43-65-34 0-45 26-45 65 0 36 10 65 43 65" id="O"/><path d="M76-54c-1 42 2 86-19 110H24C36 42 46 24 48 0H25v-54h51" id="P"/><g id="d"><use transform="matrix(0.05,0,0,0.05,0,0)" xlink:href="#G"/><use transform="matrix(0.05,0,0,0.05,5,0)" xlink:href="#H"/><use transform="matrix(0.05,0,0,0.05,15.950000000000001,0)" xlink:href="#I"/><use transform="matrix(0.05,0,0,0.05,26.900000000000002,0)" xlink:href="#J"/><use transform="matrix(0.05,0,0,0.05,37.85,0)" xlink:href="#K"/><use transform="matrix(0.05,0,0,0.05,43.800000000000004,0)" xlink:href="#L"/><use transform="matrix(0.05,0,0,0.05,49.75000000000001,0)" xlink:href="#M"/><use transform="matrix(0.05,0,0,0.05,59.75,0)" xlink:href="#N"/><use transform="matrix(0.05,0,0,0.05,69.75,0)" xlink:href="#K"/><use transform="matrix(0.05,0,0,0.05,75.7,0)" xlink:href="#G"/><use transform="matrix(0.05,0,0,0.05,80.7,0)" xlink:href="#O"/><use transform="matrix(0.05,0,0,0.05,91.65,0)" xlink:href="#H"/><use transform="matrix(0.05,0,0,0.05,102.60000000000001,0)" xlink:href="#P"/></g><path d="M-4 44V30h207v14H-4" id="Q"/><path d="M88-194c31-1 46 15 58 34l-1-101h50l1 261h-48c-2-10 0-23-3-31C134-8 116 4 84 4 32 4 16-41 15-95c0-56 19-97 73-99zm17 164c33 0 40-30 41-66 1-37-9-64-41-64s-38 30-39 65c0 43 13 65 39 65" id="R"/><path d="M102-93c0 74-22 123-52 168H0C30 29 54-18 53-93c0-74-22-123-53-168h50c30 45 52 94 52 168" id="S"/><g id="e"><use transform="matrix(0.05,0,0,0.05,0,0)" xlink:href="#G"/><use transform="matrix(0.05,0,0,0.05,5,0)" xlink:href="#H"/><use transform="matrix(0.05,0,0,0.05,15.950000000000001,0)" xlink:href="#I"/><use transform="matrix(0.05,0,0,0.05,26.900000000000002,0)" xlink:href="#J"/><use transform="matrix(0.05,0,0,0.05,37.85,0)" xlink:href="#K"/><use transform="matrix(0.05,0,0,0.05,43.800000000000004,0)" xlink:href="#Q"/><use transform="matrix(0.05,0,0,0.05,53.800000000000004,0)" xlink:href="#R"/><use transform="matrix(0.05,0,0,0.05,64.75,0)" xlink:href="#M"/><use transform="matrix(0.05,0,0,0.05,74.75,0)" xlink:href="#K"/><use transform="matrix(0.05,0,0,0.05,80.7,0)" xlink:href="#M"/><use transform="matrix(0.05,0,0,0.05,90.7,0)" xlink:href="#S"/></g><path d="M25 0v-261h50V0H25" id="T"/><path d="M220-157c-53 9-28 100-34 157h-49v-107c1-27-5-49-29-50C55-147 81-57 75 0H25l-1-190h47c2 12-1 28 3 38 10-53 101-56 108 0 13-22 24-43 59-42 82 1 51 116 57 194h-49v-107c-1-25-5-48-29-50" id="U"/><path d="M135-150c-39-12-60 13-60 57V0H25l-1-190h47c2 13-1 29 3 40 6-28 27-53 61-41v41" id="V"/><path d="M137-138c1-29-70-34-71-4 15 46 118 7 119 86 1 83-164 76-172 9l43-7c4 19 20 25 44 25 33 8 57-30 24-41C81-84 22-81 20-136c-2-80 154-74 161-7" id="W"/><path d="M185-48c-13 30-37 53-82 52C43 2 14-33 14-96s30-98 90-98c62 0 83 45 84 108H66c0 31 8 55 39 56 18 0 30-7 34-22zm-45-69c5-46-57-63-70-21-2 6-4 13-4 21h74" id="X"/><path d="M128 0H69L1-190h53L99-40l48-150h52" id="Y"/><g id="f"><use transform="matrix(0.05,0,0,0.05,0,0)" xlink:href="#N"/><use transform="matrix(0.05,0,0,0.05,10,0)" xlink:href="#M"/><use transform="matrix(0.05,0,0,0.05,20,0)" xlink:href="#T"/><use transform="matrix(0.05,0,0,0.05,25,0)" xlink:href="#T"/><use transform="matrix(0.05,0,0,0.05,30,0)" xlink:href="#Q"/><use transform="matrix(0.05,0,0,0.05,40,0)" xlink:href="#K"/><use transform="matrix(0.05,0,0,0.05,45.95,0)" xlink:href="#O"/><use transform="matrix(0.05,0,0,0.05,56.900000000000006,0)" xlink:href="#Q"/><use transform="matrix(0.05,0,0,0.05,66.9,0)" xlink:href="#U"/><use transform="matrix(0.05,0,0,0.05,82.9,0)" xlink:href="#G"/><use transform="matrix(0.05,0,0,0.05,87.9,0)" xlink:href="#N"/><use transform="matrix(0.05,0,0,0.05,97.9,0)" xlink:href="#V"/><use transform="matrix(0.05,0,0,0.05,104.9,0)" xlink:href="#O"/><use transform="matrix(0.05,0,0,0.05,115.85000000000001,0)" xlink:href="#W"/><use transform="matrix(0.05,0,0,0.05,125.85000000000001,0)" xlink:href="#X"/><use transform="matrix(0.05,0,0,0.05,135.85000000000002,0)" xlink:href="#V"/><use transform="matrix(0.05,0,0,0.05,142.85000000000002,0)" xlink:href="#Y"/><use transform="matrix(0.05,0,0,0.05,152.85000000000002,0)" xlink:href="#G"/><use transform="matrix(0.05,0,0,0.05,157.85000000000002,0)" xlink:href="#N"/><use transform="matrix(0.05,0,0,0.05,167.85000000000002,0)" xlink:href="#X"/><use transform="matrix(0.05,0,0,0.05,177.85000000000002,0)" xlink:href="#L"/><use transform="matrix(0.05,0,0,0.05,183.8,0)" xlink:href="#G"/><use transform="matrix(0.05,0,0,0.05,188.8,0)" xlink:href="#H"/><use transform="matrix(0.05,0,0,0.05,199.75,0)" xlink:href="#I"/><use transform="matrix(0.05,0,0,0.05,210.69999999999996,0)" xlink:href="#J"/><use transform="matrix(0.05,0,0,0.05,221.64999999999998,0)" xlink:href="#K"/><use transform="matrix(0.05,0,0,0.05,227.59999999999997,0)" xlink:href="#Q"/><use transform="matrix(0.05,0,0,0.05,237.59999999999997,0)" xlink:href="#R"/><use transform="matrix(0.05,0,0,0.05,248.54999999999995,0)" xlink:href="#M"/><use transform="matrix(0.05,0,0,0.05,258.54999999999995,0)" xlink:href="#K"/><use transform="matrix(0.05,0,0,0.05,264.49999999999994,0)" xlink:href="#M"/><use transform="matrix(0.05,0,0,0.05,274.49999999999994,0)" xlink:href="#S"/></g><path d="M195-6C206 82 75 100 31 46c-4-6-6-13-8-21l49-6c3 16 16 24 34 25 40 0 42-37 40-79-11 22-30 35-61 35-53 0-70-43-70-97 0-56 18-96 73-97 30 0 46 14 59 34l2-30h47zm-90-29c32 0 41-27 41-63 0-35-9-62-40-62-32 0-39 29-40 63 0 36 9 62 39 62" id="Z"/><path d="M238-95c0 69-44 99-111 99C63 4 22-25 22-93v-155h51v151c-1 38 19 59 55 60 90 1 49-130 58-211h52v153" id="aa"/><path d="M24 0v-248h52V0H24" id="ab"/><g id="g"><use transform="matrix(0.05,0,0,0.05,0,0)" xlink:href="#Z"/><use transform="matrix(0.05,0,0,0.05,10.950000000000001,0)" xlink:href="#X"/><use transform="matrix(0.05,0,0,0.05,20.950000000000003,0)" xlink:href="#K"/><use transform="matrix(0.05,0,0,0.05,26.900000000000002,0)" xlink:href="#Q"/><use transform="matrix(0.05,0,0,0.05,36.900000000000006,0)" xlink:href="#aa"/><use transform="matrix(0.05,0,0,0.05,49.85000000000001,0)" xlink:href="#ab"/><use transform="matrix(0.05,0,0,0.05,54.85,0)" xlink:href="#L"/><use transform="matrix(0.05,0,0,0.05,60.80000000000001,0)" xlink:href="#S"/></g><g id="h"><use transform="matrix(0.05,0,0,0.05,0,0)" xlink:href="#aa"/><use transform="matrix(0.05,0,0,0.05,12.950000000000001,0)" xlink:href="#ab"/></g><path fill="#333" d="M169-182c-1-43-94-46-97-3 18 66 151 10 154 114 3 95-165 93-204 36-6-8-10-19-12-30l50-8c3 46 112 56 116 5-17-69-150-10-154-114-4-87 153-88 188-35 5 8 8 18 10 28" id="ac"/><path fill="#333" d="M147 0H94L2-248h55l64 206c17-72 42-137 63-206h54" id="ad"/><g id="i"><use transform="matrix(0.04938271604938272,0,0,0.04938271604938272,0,0)" xlink:href="#p"/><use transform="matrix(0.04938271604938272,0,0,0.04938271604938272,14.765432098765434,0)" xlink:href="#r"/><use transform="matrix(0.04938271604938272,0,0,0.04938271604938272,19.703703703703706,0)" xlink:href="#t"/><use transform="matrix(0.04938271604938272,0,0,0.04938271604938272,32.49382716049383,0)" xlink:href="#w"/><use transform="matrix(0.04938271604938272,0,0,0.04938271604938272,45.283950617283956,0)" xlink:href="#u"/><use transform="matrix(0.04938271604938272,0,0,0.04938271604938272,59.111111111111114,0)" xlink:href="#ac"/><use transform="matrix(0.04938271604938272,0,0,0.04938271604938272,70.96296296296296,0)" xlink:href="#y"/><use transform="matrix(0.04938271604938272,0,0,0.04938271604938272,82.81481481481481,0)" xlink:href="#w"/><use transform="matrix(0.04938271604938272,0,0,0.04938271604938272,95.25925925925925,0)" xlink:href="#ad"/><use transform="matrix(0.04938271604938272,0,0,0.04938271604938272,107.1111111111111,0)" xlink:href="#r"/><use transform="matrix(0.04938271604938272,0,0,0.04938271604938272,112.04938271604937,0)" xlink:href="#t"/><use transform="matrix(0.04938271604938272,0,0,0.04938271604938272,124.83950617283949,0)" xlink:href="#y"/></g><path fill="#333" d="M182 0l-62-99L58 0H3l86-130-79-118h55l55 88 55-88h55l-75 118L237 0h-55" id="ae"/><use transform="matrix(0.04938271604938272,0,0,0.04938271604938272,0,0)" xlink:href="#ae" id="j"/><g id="k"><use transform="matrix(0.05,0,0,0.05,0,0)" xlink:href="#I"/><use transform="matrix(0.05,0,0,0.05,10.950000000000001,0)" xlink:href="#V"/><use transform="matrix(0.05,0,0,0.05,17.950000000000003,0)" xlink:href="#O"/><use transform="matrix(0.05,0,0,0.05,28.900000000000006,0)" xlink:href="#N"/><use transform="matrix(0.05,0,0,0.05,38.900000000000006,0)" xlink:href="#X"/><use transform="matrix(0.05,0,0,0.05,48.900000000000006,0)" xlink:href="#W"/><use transform="matrix(0.05,0,0,0.05,58.900000000000006,0)" xlink:href="#W"/><use transform="matrix(0.05,0,0,0.05,68.9,0)" xlink:href="#L"/><use transform="matrix(0.05,0,0,0.05,74.85000000000001,0)" xlink:href="#S"/></g><path d="M144 0l-44-69L55 0H2l70-98-66-92h53l41 62 40-62h54l-67 91 71 99h-54" id="af"/><g id="l"><use transform="matrix(0.05,0,0,0.05,0,0)" xlink:href="#V"/><use transform="matrix(0.05,0,0,0.05,7,0)" xlink:href="#X"/><use transform="matrix(0.05,0,0,0.05,17,0)" xlink:href="#W"/><use transform="matrix(0.05,0,0,0.05,27,0)" xlink:href="#I"/><use transform="matrix(0.05,0,0,0.05,37.95,0)" xlink:href="#O"/><use transform="matrix(0.05,0,0,0.05,48.900000000000006,0)" xlink:href="#H"/><use transform="matrix(0.05,0,0,0.05,59.85,0)" xlink:href="#W"/><use transform="matrix(0.05,0,0,0.05,69.85000000000001,0)" xlink:href="#X"/><use transform="matrix(0.05,0,0,0.05,79.85000000000001,0)" xlink:href="#L"/><use transform="matrix(0.05,0,0,0.05,85.80000000000001,0)" xlink:href="#O"/><use transform="matrix(0.05,0,0,0.05,96.75000000000001,0)" xlink:href="#J"/><use transform="matrix(0.05,0,0,0.05,107.7,0)" xlink:href="#K"/><use transform="matrix(0.05,0,0,0.05,113.65000000000003,0)" xlink:href="#I"/><use transform="matrix(0.05,0,0,0.05,124.60000000000002,0)" xlink:href="#J"/><use transform="matrix(0.05,0,0,0.05,135.55,0)" xlink:href="#K"/><use transform="matrix(0.05,0,0,0.05,141.5,0)" xlink:href="#Q"/><use transform="matrix(0.05,0,0,0.05,151.5,0)" xlink:href="#R"/><use transform="matrix(0.05,0,0,0.05,162.45,0)" xlink:href="#M"/><use transform="matrix(0.05,0,0,0.05,172.45,0)" xlink:href="#K"/><use transform="matrix(0.05,0,0,0.05,178.39999999999998,0)" xlink:href="#M"/><use transform="matrix(0.05,0,0,0.05,188.39999999999998,0)" xlink:href="#Q"/><use transform="matrix(0.05,0,0,0.05,198.39999999999998,0)" xlink:href="#af"/><use transform="matrix(0.05,0,0,0.05,208.39999999999998,0)" xlink:href="#S"/></g><g id="m"><use transform="matrix(0.05,0,0,0.05,0,0)" xlink:href="#V"/><use transform="matrix(0.05,0,0,0.05,7,0)" xlink:href="#X"/><use transform="matrix(0.05,0,0,0.05,17,0)" xlink:href="#W"/><use transform="matrix(0.05,0,0,0.05,27,0)" xlink:href="#I"/><use transform="matrix(0.05,0,0,0.05,37.95,0)" xlink:href="#O"/><use transform="matrix(0.05,0,0,0.05,48.900000000000006,0)" xlink:href="#H"/><use transform="matrix(0.05,0,0,0.05,59.85,0)" xlink:href="#W"/><use transform="matrix(0.05,0,0,0.05,69.85000000000001,0)" xlink:href="#X"/><use transform="matrix(0.05,0,0,0.05,79.85000000000001,0)" xlink:href="#L"/><use transform="matrix(0.05,0,0,0.05,85.80000000000001,0)" xlink:href="#O"/><use transform="matrix(0.05,0,0,0.05,96.75000000000001,0)" xlink:href="#J"/><use transform="matrix(0.05,0,0,0.05,107.7,0)" xlink:href="#K"/><use transform="matrix(0.05,0,0,0.05,113.65000000000003,0)" xlink:href="#I"/><use transform="matrix(0.05,0,0,0.05,124.60000000000002,0)" xlink:href="#J"/><use transform="matrix(0.05,0,0,0.05,135.55,0)" xlink:href="#K"/><use transform="matrix(0.05,0,0,0.05,141.5,0)" xlink:href="#Q"/><use transform="matrix(0.05,0,0,0.05,151.5,0)" xlink:href="#R"/><use transform="matrix(0.05,0,0,0.05,162.45,0)" xlink:href="#M"/><use transform="matrix(0.05,0,0,0.05,172.45,0)" xlink:href="#K"/><use transform="matrix(0.05,0,0,0.05,178.39999999999998,0)" xlink:href="#M"/><use transform="matrix(0.05,0,0,0.05,188.39999999999998,0)" xlink:href="#S"/></g><path fill="#333" d="M135-194c53 0 70 44 70 98 0 56-19 98-73 100-31 1-45-17-59-34 3 33 2 69 2 105H25l-1-265h48c2 10 0 23 3 31 11-24 29-35 60-35zM114-30c33 0 39-31 40-66 0-38-9-64-40-64-56 0-55 130 0 130" id="ag"/><path fill="#333" d="M190-63c-7 42-38 67-86 67-59 0-84-38-90-98-12-110 154-137 174-36l-49 2c-2-19-15-32-35-32-30 0-35 28-38 64-6 74 65 87 74 30" id="ah"/><path fill="#333" d="M185-48c-13 30-37 53-82 52C43 2 14-33 14-96s30-98 90-98c62 0 83 45 84 108H66c0 31 8 55 39 56 18 0 30-7 34-22zm-45-69c5-46-57-63-70-21-2 6-4 13-4 21h74" id="ai"/><path fill="#333" d="M-4 44V30h207v14H-4" id="aj"/><path fill="#333" d="M115-3C79 11 28 4 28-45v-112H4v-33h27l15-45h31v45h36v33H77v99c-1 23 16 31 38 25v30" id="ak"/><path fill="#333" d="M67-93c0 74 22 123 53 168H70C40 30 18-18 18-93s22-123 52-168h50c-32 44-53 94-53 168" id="al"/><path fill="#333" d="M88-194c31-1 46 15 58 34l-1-101h50l1 261h-48c-2-10 0-23-3-31C134-8 116 4 84 4 32 4 16-41 15-95c0-56 19-97 73-99zm17 164c33 0 40-30 41-66 1-37-9-64-41-64s-38 30-39 65c0 43 13 65 39 65" id="am"/><path fill="#333" d="M144 0l-44-69L55 0H2l70-98-66-92h53l41 62 40-62h54l-67 91 71 99h-54" id="an"/><path fill="#333" d="M102-93c0 74-22 123-52 168H0C30 29 54-18 53-93c0-74-22-123-53-168h50c30 45 52 94 52 168" id="ao"/><g id="n"><use transform="matrix(0.05,0,0,0.05,0,0)" xlink:href="#ag"/><use transform="matrix(0.05,0,0,0.05,10.950000000000001,0)" xlink:href="#D"/><use transform="matrix(0.05,0,0,0.05,17.950000000000003,0)" xlink:href="#F"/><use transform="matrix(0.05,0,0,0.05,28.900000000000006,0)" xlink:href="#ah"/><use transform="matrix(0.05,0,0,0.05,38.900000000000006,0)" xlink:href="#ai"/><use transform="matrix(0.05,0,0,0.05,48.900000000000006,0)" xlink:href="#A"/><use transform="matrix(0.05,0,0,0.05,58.900000000000006,0)" xlink:href="#A"/><use transform="matrix(0.05,0,0,0.05,68.9,0)" xlink:href="#aj"/><use transform="matrix(0.05,0,0,0.05,78.9,0)" xlink:href="#F"/><use transform="matrix(0.05,0,0,0.05,89.85000000000001,0)" xlink:href="#B"/><use transform="matrix(0.05,0,0,0.05,100.80000000000001,0)" xlink:href="#ak"/><use transform="matrix(0.05,0,0,0.05,106.75,0)" xlink:href="#ag"/><use transform="matrix(0.05,0,0,0.05,117.7,0)" xlink:href="#B"/><use transform="matrix(0.05,0,0,0.05,128.65,0)" xlink:href="#ak"/><use transform="matrix(0.05,0,0,0.05,134.6,0)" xlink:href="#al"/><use transform="matrix(0.05,0,0,0.05,140.54999999999998,0)" xlink:href="#F"/><use transform="matrix(0.05,0,0,0.05,151.49999999999997,0)" xlink:href="#B"/><use transform="matrix(0.05,0,0,0.05,162.44999999999996,0)" xlink:href="#ag"/><use transform="matrix(0.05,0,0,0.05,173.39999999999995,0)" xlink:href="#B"/><use transform="matrix(0.05,0,0,0.05,184.34999999999994,0)" xlink:href="#ak"/><use transform="matrix(0.05,0,0,0.05,190.29999999999993,0)" xlink:href="#aj"/><use transform="matrix(0.05,0,0,0.05,200.29999999999993,0)" xlink:href="#am"/><use transform="matrix(0.05,0,0,0.05,211.24999999999991,0)" xlink:href="#C"/><use transform="matrix(0.05,0,0,0.05,221.24999999999991,0)" xlink:href="#ak"/><use transform="matrix(0.05,0,0,0.05,227.19999999999993,0)" xlink:href="#C"/><use transform="matrix(0.05,0,0,0.05,237.19999999999993,0)" xlink:href="#aj"/><use transform="matrix(0.05,0,0,0.05,247.19999999999993,0)" xlink:href="#an"/><use transform="matrix(0.05,0,0,0.05,257.19999999999993,0)" xlink:href="#ao"/></g></defs></g></svg>